<?xml version="1.0" encoding="utf-8"?>
<!DOCTYPE svg PUBLIC "-//W3C//DTD SVG 1.1//EN" "http://www.w3.org/Graphics/SVG/1.1/DTD/svg11.dtd">
<svg version="1.1" xmlns="http://www.w3.org/2000/svg" xmlns:xlink="http://www.w3.org/1999/xlink" x="0px" y="0px"
	 width="64px" height="64px" viewBox="0 0 64 64" enable-background="new 0 0 64 64" xml:space="preserve">
<path fill-rule="evenodd" clip-rule="evenodd" d="M30.976,63.816c-2.185-0.084-4.333-0.228-6.428-0.752
	c-4.177-1.048-7.786-3.128-10.845-6.141c-2.353-2.314-3.944-5.099-4.75-8.305c-0.58-2.309-0.701-4.656-0.482-7.027
	c0.336-3.644,1.424-7.074,2.9-10.398c1.232-2.772,2.668-5.439,4.216-8.045c4.044-6.809,8.571-13.287,13.423-19.54
	c0.727-0.937,1.417-1.9,2.108-2.862c0.579-0.804,1.741-0.817,2.308-0.014c2.267,3.216,4.754,6.266,7.007,9.493
	c3.327,4.765,6.558,9.592,9.406,14.662c1.538,2.734,2.951,5.531,4.08,8.463c0.922,2.394,1.602,4.859,1.912,7.409
	c0.321,2.63,0.253,5.257-0.397,7.842c-0.591,2.345-1.598,4.498-3.082,6.418c-2.679,3.464-6.194,5.753-10.259,7.26
	c-2.19,0.812-4.47,1.208-6.788,1.39C33.854,63.781,32.402,63.946,30.976,63.816z"/>
</svg>
