<?xml version="1.0" encoding="utf-8"?>
<!-- Generator: Adobe Illustrator 16.0.0, SVG Export Plug-In . SVG Version: 6.00 Build 0)  -->
<!DOCTYPE svg PUBLIC "-//W3C//DTD SVG 1.1//EN" "http://www.w3.org/Graphics/SVG/1.1/DTD/svg11.dtd">
<svg version="1.1" id="Layer_1" xmlns="http://www.w3.org/2000/svg" xmlns:xlink="http://www.w3.org/1999/xlink" x="0px" y="0px"
	 width="64px" height="64px" viewBox="0 0 64 64" enable-background="new 0 0 64 64" xml:space="preserve">
<g id="MENU_1_" enable-background="new    ">
	<g id="MENU">
		<g>
			<path d="M54.811,20.75c2,0,3.562-0.817,3.562-2.817c0-1.995-1.562-2.815-3.562-2.815H9.015c-1.995,0-3.669,0.82-3.669,2.815
				c0,2,1.674,2.817,3.669,2.817H54.811z M9.014,29.246c-1.995,0-3.388,0.797-3.388,2.792c0,1.998,1.393,2.792,3.388,2.792H54.81
				c2,0,3.845-0.795,3.845-2.793c0-1.995-1.845-2.791-3.845-2.791H9.014z M9.021,43.351c-1.997,0-3.601,0.769-3.601,2.767
				c0,1.996,1.604,2.766,3.601,2.766h45.796c1.997,0,3.632-0.77,3.632-2.766c0-1.998-1.635-2.767-3.632-2.767H9.021z"/>
		</g>
	</g>
</g>
</svg>
