<?xml version="1.0" standalone="no"?>
<!DOCTYPE svg PUBLIC "-//W3C//DTD SVG 1.1//EN" "http://www.w3.org/Graphics/SVG/1.1/DTD/svg11.dtd" >
<svg xmlns="http://www.w3.org/2000/svg">
<metadata>
Created by FontPrep 20130207 at Mon Jun  9 22:54:32 2014
 By Jörn Röder
No Rights Reserved.
</metadata>
<defs>
<font id="124b6ddd0549b2c9a0a87cbd0d00d020" horiz-adv-x='1024' >
  <font-face 
    font-family="Aileron-UltraLightItalic"
    font-weight="250"
    font-style="italic"
    font-stretch="normal"
    units-per-em="2048"
    panose-1="0 0 3 0 0 0 0 0 0 0"
    ascent="1577"
    descent="-471"
    x-height="1069"
    cap-height="1413"
    bbox="-258 -457 2365 1833"
    underline-thickness="102"
    underline-position="-102"
    slope="-10"
    unicode-range="U+0020-FB02"
  />
<missing-glyph horiz-adv-x="1179" 
d="M258 1239v-1044l348 522zM319 102h697l-348 523zM729 717l348 -522v1044zM668 809l348 522h-697zM156 0v1434h1024v-1434h-1024z" />
    <glyph glyph-name="fi" unicode="fi" horiz-adv-x="796" 
d="M686 1544q51 0 96 -10l-8 -43q-182 33 -298 -39t-146 -190q-8 -29 -23 -103l-16 -90h454l-188 -1069h-45l180 1026h-407l-181 -1026h-45l181 1026h-97l9 43h94l16 90q14 76 25 109q35 124 140 200t259 76z" />
    <glyph glyph-name="fl" unicode="fl" horiz-adv-x="825" 
d="M578 80q0 -33 22 -44t80 -3l-6 -39q-20 -4 -60 -4q-84 0 -84 80q0 27 27 176l215 1231q-44 25 -158 25t-185 -68t-92 -152t-28 -123l-16 -90h219l-8 -43h-217l-183 -1026h-45l183 1026h-99l9 43h96l16 90q31 210 145 309q87 76 225 76t189 -39l-221 -1259
q-24 -133 -24 -166z" />
    <glyph glyph-name=".notdef" horiz-adv-x="1179" 
d="M258 1239v-1044l348 522zM319 102h697l-348 523zM729 717l348 -522v1044zM668 809l348 522h-697zM156 0v1434h1024v-1434h-1024z" />
    <glyph glyph-name=".null" horiz-adv-x="0" 
 />
    <glyph glyph-name="nonmarkingreturn" horiz-adv-x="681" 
 />
    <glyph glyph-name="space" unicode=" " horiz-adv-x="337" 
 />
    <glyph glyph-name="exclam" unicode="!" horiz-adv-x="319" 
d="M74 53q33 0 32 -33q0 -20 -15 -34t-34 -15q-33 0 -32 33q0 20 15 35q16 14 34 14zM123 225h-39l209 1188h47z" />
    <glyph glyph-name="quotedbl" unicode="&#x22;" horiz-adv-x="327" 
d="M307 1006h-33l84 499h45zM139 1006h-33l84 499h46z" />
    <glyph glyph-name="numbersign" unicode="#" 
d="M750 868h-228l-127 -323h228zM791 868l-125 -323h245l-8 -43h-254l-196 -502h-43l196 502h-227l-197 -502h-43l197 502h-232l9 43h239l125 323h-246l9 43h254l196 502h43l-196 -502h227l197 502h43l-197 -502h231l-8 -43h-239z" />
    <glyph glyph-name="dollar" unicode="$" 
d="M899 353q0 132 -74 206t-223 119l-117 -664q205 6 309 106t105 233zM295 1061q0 -125 75 -206t197 -122l119 666q-190 -5 -290 -109t-101 -229zM946 356q0 -152 -118 -266t-351 -119l-26 -155h-45l26 155q-100 4 -175 42q-131 66 -172 221q-17 65 -15 135h45
q20 -342 325 -355l119 674q-133 45 -222 136q-89 92 -89 234t112 261q113 119 332 123l29 155h45l-29 -155q166 -10 245 -116t83 -273h-45q-2 326 -289 346l-121 -674q336 -104 336 -369z" />
    <glyph glyph-name="percent" unicode="%" horiz-adv-x="1431" 
d="M942 14q125 0 194 110q68 110 68 223t-48 173t-134 60q-125 0 -194 -110q-68 -110 -68 -223t48 -173t134 -60zM1028 623q102 0 162 -74t61 -203q0 -129 -85 -252t-230 -123q-102 0 -163 74q-60 74 -60 203t85 252t230 123zM547 1399q-125 0 -194 -110t-69 -223
q0 -112 49 -172q48 -60 134 -60q125 0 193 110t69 222q0 114 -48 174t-134 59zM1350 1413l-1162 -1413h-57l1161 1413h58zM461 791q-102 0 -163 73q-60 74 -60 203t85 252t230 123q103 0 163 -74t60 -202t-85 -252q-85 -123 -230 -123z" />
    <glyph glyph-name="ampersand" unicode="&#x26;" horiz-adv-x="1306" 
d="M797 684q-84 0 -125 -4q-522 -45 -522 -412q0 -141 114 -197q114 -57 316 -57q200 0 329 25l113 645h-225zM556 -29q-210 -1 -333 63t-123 224q0 192 132 308t341 139q-266 37 -266 284q0 195 154 324t381 129q133 0 241 -21l-8 -45q-111 23 -248 23q-197 0 -333 -110
t-138 -292q0 -250 324 -268q41 -2 125 -2h225l55 311h45l-55 -311h225l-8 -43h-225l-119 -682q-182 -31 -392 -31z" />
    <glyph glyph-name="quotesingle" unicode="'" horiz-adv-x="159" 
d="M139 1006h-33l84 499h46z" />
    <glyph glyph-name="parenleft" unicode="(" horiz-adv-x="495" 
d="M178 378q0 314 110 647t310 572h45q-211 -268 -314 -583q-103 -314 -103 -622t106 -556h-45q-109 228 -109 542z" />
    <glyph glyph-name="parenright" unicode=")" horiz-adv-x="497" 
d="M379 1054q0 -314 -110 -646t-310 -572h-45q211 268 314 584t103 622q0 307 -106 555h45q109 -229 109 -543z" />
    <glyph glyph-name="asterisk" unicode="*" 
d="M559 573l346 117l6 -45l-346 -106l176 -306l-45 -28l-164 315l-278 -315l-37 28l285 306l-307 106l22 45l305 -117l64 398h49z" />
    <glyph glyph-name="plus" unicode="+" 
d="M967 629h-387l-80 -451h-45l80 451h-388l9 43h387l80 450h45l-80 -450h387z" />
    <glyph glyph-name="comma" unicode="," horiz-adv-x="260" 
d="M2 49v-10l-154 -277h-43l146 287h51z" />
    <glyph glyph-name="hyphen" unicode="-" horiz-adv-x="561" 
d="M492 555h-431l9 43h430z" />
    <glyph glyph-name="period" unicode="." horiz-adv-x="260" 
d="M-2 53q37 0 37 -35q0 -20 -13 -33t-32 -14q-37 0 -37 35q0 20 13 34q14 13 32 13z" />
    <glyph glyph-name="slash" unicode="/" horiz-adv-x="538" 
d="M-72 -61h-45l785 1536h45z" />
    <glyph glyph-name="zero" unicode="0" 
d="M449 14q123 0 225 70t165 175q122 207 163 483q17 116 18 214q0 209 -82 326t-244 117q-123 0 -225 -70q-103 -70 -165 -175q-121 -203 -164 -483q-17 -116 -17 -214q0 -209 82 -326t244 -117zM76 455q0 307 136 623q68 158 196 262q126 102 299 102t267 -127t93 -357
q0 -307 -136 -623q-69 -159 -196 -261t-300 -102t-266 126q-93 127 -93 357z" />
    <glyph glyph-name="one" unicode="1" 
d="M821 1413h23l-250 -1413h-45l239 1366l-432 -242l11 50l362 204q59 35 92 35z" />
    <glyph glyph-name="two" unicode="2" 
d="M1010 1120q0 134 -74 206t-222 73t-281 -105q-132 -106 -163 -274l-4 -21h-45l4 21q37 190 181 306t315 116q170 0 255 -89t85 -209q0 -214 -199 -417q-90 -92 -268 -242l-528 -442h829l-8 -43h-903l6 33l567 475q270 225 362 351q91 127 91 261z" />
    <glyph glyph-name="three" unicode="3" 
d="M979 440q0 -211 -155 -340t-382 -129q-182 0 -283 112t-87 314v21h45v-21q-11 -172 73 -277q84 -106 274 -106t328 113t138 299q0 276 -375 276h-35l8 43h35q168 1 319 107t150 268q0 137 -77 208t-229 71t-276 -95q-126 -95 -159 -262l-4 -20h-45l4 20q37 186 178 292
q142 106 314 108q172 0 258 -88t85 -228q0 -140 -109 -252t-263 -143q270 -47 270 -291z" />
    <glyph glyph-name="four" unicode="4" 
d="M774 453l166 882q-72 -84 -227 -245l-615 -637h676zM1014 410h-203l-72 -410h-45l72 410h-741l6 32l934 971h34l-180 -960h203z" />
    <glyph glyph-name="five" unicode="5" 
d="M418 -29q-160 0 -266 101t-84 313h45q-18 -176 64 -273q81 -98 254 -98t324 120q163 128 163 394q0 142 -84 228t-230 86q-270 0 -426 -238h-45l275 801h716l-6 -43h-680l-233 -670l92 96q135 96 310 96t267 -102q92 -104 93 -268q0 -244 -163 -394t-386 -149z" />
    <glyph glyph-name="six" unicode="6" 
d="M612 895q-200 0 -350 -143t-149 -361q0 -164 92 -270t254 -107q213 0 351 151t138 363q0 164 -90 266t-246 101zM733 1442q332 0 340 -361v-20h-45v20q0 317 -303 318q-187 0 -358 -161q-88 -83 -154 -243t-90 -374l70 116q176 201 432 201q178 0 275 -120t97 -281
q1 -238 -153 -402t-395 -164q-174 0 -279 120q-104 120 -104 335q0 276 76 504t230 370t361 142z" />
    <glyph glyph-name="seven" unicode="7" 
d="M1167 1413l-4 -22l-991 -1391h-53l977 1370h-863l9 43h925z" />
    <glyph glyph-name="eight" unicode="8" 
d="M932 434q0 119 -90 199t-262 80q-224 0 -358 -115t-134 -293q0 -143 106 -218t265 -75q158 0 309 94q164 104 164 328zM285 1024q0 -131 80 -200q79 -68 237 -68t287 96t129 276q0 125 -82 198t-244 73q-162 1 -285 -105q-122 -106 -122 -270zM983 428q0 -211 -162 -335
t-381 -124q-172 0 -286 87t-115 247q0 160 107 277q108 117 292 157q-90 25 -147 99t-58 176q1 178 137 304t345 126q160 0 256 -88t96 -222q1 -134 -93 -249t-239 -148q121 -31 185 -112q63 -82 63 -195z" />
    <glyph glyph-name="nine" unicode="9" 
d="M532 518q199 0 350 144t150 360q0 164 -92 270t-254 107q-213 0 -351 -151t-138 -363q-1 -163 89 -265t246 -102zM696 1442q174 0 278 -120t105 -335q1 -275 -75 -503t-231 -370t-361 -143q-332 0 -340 361v20h45v-20q0 -317 303 -318q187 0 358 161q88 83 154 243
t90 375l-70 -117q-176 -201 -432 -201q-178 0 -275 120t-98 282q-1 237 153 401t396 164z" />
    <glyph glyph-name="colon" unicode=":" horiz-adv-x="260" 
d="M-2 53q37 0 37 -35q0 -20 -13 -33t-32 -14q-37 0 -37 35q0 20 13 34q14 13 32 13zM186 1106q37 0 37 -35q0 -19 -13 -33t-32 -14q-37 0 -37 35q-1 19 13 33t32 14z" />
    <glyph glyph-name="semicolon" unicode=";" horiz-adv-x="260" 
d="M2 49v-10l-154 -277h-43l146 287h51zM186 1106q37 0 37 -35q0 -19 -13 -33t-32 -14q-37 0 -37 35q-1 19 13 33t32 14z" />
    <glyph glyph-name="less" unicode="&#x3c;" 
d="M1030 911l-827 -368l696 -369l-8 -51l-752 399l8 41l891 400z" />
    <glyph glyph-name="equal" unicode="=" 
d="M954 444h-860l8 43h861zM1020 813h-860l8 43h860z" />
    <glyph glyph-name="greater" unicode="&#x3e;" 
d="M956 563l-8 -41l-891 -399l9 51l827 369l-696 368l8 52z" />
    <glyph glyph-name="question" unicode="?" horiz-adv-x="1044" 
d="M449 53q33 0 32 -33q0 -20 -15 -34t-34 -15q-33 0 -33 33q0 20 16 34t34 15zM690 1442q174 0 260 -88t86 -201t-58 -209t-209 -245t-204 -233t-78 -241h-41q20 154 80 251q60 98 210 248t202 238t51 191q0 102 -80 174t-209 72q-176 1 -290 -103t-158 -284h-45
q41 194 175 312t308 118z" />
    <glyph glyph-name="at" unicode="@" horiz-adv-x="1728" 
d="M924 946q-150 0 -264 -144t-113 -347q0 -137 56 -206q57 -69 157 -69t184 94t131 297l19 82q28 121 -20 207t-150 86zM1083 340q0 -66 44 -104t118 -39q137 0 231 134q93 134 93 351q0 295 -174 465t-459 170q-182 0 -357 -94q-175 -95 -297 -285t-122 -432
q0 -316 186 -496t449 -180q163 0 289 39t272 139l24 -39q-162 -109 -290 -145t-276 -37q-148 0 -269 45q-268 100 -376 354q-58 139 -58 324q1 184 75 350t194 272t268 167q148 60 300 61q298 0 484 -186t186 -482q0 -252 -111 -395t-266 -143q-88 0 -147 47t-60 153
l-37 -78q-104 -139 -247 -139q-102 0 -178 72q-75 72 -74 237q0 221 126 382t308 161q102 0 153 -69l43 -107l33 139h51l-102 -428q-27 -118 -27 -184z" />
    <glyph glyph-name="A" unicode="A" horiz-adv-x="1269" 
d="M967 594l-162 780l-438 -780h600zM975 551h-633l-309 -551h-56l797 1413h68l297 -1413h-49z" />
    <glyph glyph-name="B" unicode="B" horiz-adv-x="1187" 
d="M1008 429q0 122 -72 202t-231 86q-47 2 -107 2h-369l-118 -676h374q178 0 282 43q103 43 172 132t69 211zM571 762q163 0 236 22q268 81 268 334q0 240 -287 250q-47 2 -133 2h-309l-108 -608h333zM1057 440q0 -190 -137 -307t-328 -129q-51 -4 -141 -4h-394l250 1413
h357q88 0 159 -4q141 -10 223 -84q82 -75 80 -211q0 -136 -93 -241t-245 -128q133 -23 201 -103t68 -202z" />
    <glyph glyph-name="C" unicode="C" horiz-adv-x="1423" 
d="M915 1442q225 0 348 -126t123 -325v-20h-45v20q0 193 -115.5 300.5t-326.5 107.5q-129 0 -254 -56.5t-228.5 -160t-167 -267t-63.5 -362.5q0 -262 129 -400.5t339 -138.5t359.5 119t227.5 311l8 21h45l-8 -21q-86 -213 -248 -343q-160 -130 -394 -130t-370.5 155
t-136.5 425q0 399 228 645t550 246z" />
    <glyph glyph-name="D" unicode="D" horiz-adv-x="1372" 
d="M686 1370h-340l-235 -1327h321q84 0 176 8q299 29 479 256q181 227 181 499t-119 406q-119 135 -315 154q-45 4 -148 4zM1315 831q0 -319 -202 -560t-515 -265q-74 -6 -182 -6h-359l250 1413h387q99 0 148 -4q205 -15 339 -159t134 -419z" />
    <glyph glyph-name="E" unicode="E" horiz-adv-x="1099" 
d="M344 1372l-113 -645h773l-9 -41h-772l-112 -645h833l-8 -41h-879l250 1413h858l-8 -41h-813z" />
    <glyph glyph-name="F" unicode="F" horiz-adv-x="1046" 
d="M344 1372l-113 -645h752l-8 -41h-752l-121 -686h-45l250 1413h858l-8 -41h-813z" />
    <glyph glyph-name="G" unicode="G" horiz-adv-x="1488" 
d="M944 1442q223 0 339 -125t116 -326v-20h-45v20q0 193 -109.5 300.5t-316.5 107.5q-135 0 -265.5 -56.5t-238 -160t-174 -268t-66.5 -361.5q0 -262 131 -400.5t325 -138.5t377 122q93 62 164.5 180t100.5 272h-477l6 41h522l-110 -629h-45l67 377l-65 -133
q-211 -272 -537 -273q-233 0 -370.5 155t-137.5 425q0 383 239.5 637t569.5 254z" />
    <glyph glyph-name="H" unicode="H" horiz-adv-x="1265" 
d="M1307 1413l-250 -1413h-45l118 672h-909l-119 -672h-45l250 1413h45l-123 -698h910l123 698h45z" />
    <glyph glyph-name="I" unicode="I" horiz-adv-x="311" 
d="M102 0h-45l250 1413h45z" />
    <glyph glyph-name="J" unicode="J" horiz-adv-x="942" 
d="M377 14q287 0 375 338q4 14 32 164l158 897h45l-156 -881q-18 -111 -36 -186q-39 -162 -143 -268t-283 -106q-178 0 -274 109q-95 110 -66 316l8 62h45l-8 -62q-29 -199 58 -291t245 -92z" />
    <glyph glyph-name="K" unicode="K" horiz-adv-x="1089" 
d="M352 707l604 -707h-63l-580 682l-104 -84l-107 -598h-45l250 1413h45l-135 -760l936 760h66z" />
    <glyph glyph-name="L" unicode="L" horiz-adv-x="1060" 
d="M944 41l-8 -41h-879l250 1413h45l-241 -1372h833z" />
    <glyph glyph-name="M" unicode="M" horiz-adv-x="1552" 
d="M1593 1413l-250 -1413h-45l248 1376l-815 -1376h-57l-332 1378l-240 -1378h-45l250 1413h72l332 -1370l811 1370h71z" />
    <glyph glyph-name="N" unicode="N" horiz-adv-x="1228" 
d="M1270 1413l-250 -1413h-70l-606 1376l-242 -1376h-45l250 1413h68l606 -1372l244 1372h45z" />
    <glyph glyph-name="O" unicode="O" horiz-adv-x="1521" 
d="M186 588q0 -262 146 -418t364 -156q217 0 385 122t251 305t83 384q0 262 -146 418q-145 156 -363 156t-386 -122t-251 -305t-83 -384zM909 1442q244 0 399 -168t154 -449q0 -155 -52 -305q-114 -329 -391 -472q-148 -77 -327 -77q-244 0 -398 168t-155 449q0 154 52 304
q114 329 392 473q148 77 326 77z" />
    <glyph glyph-name="P" unicode="P" horiz-adv-x="983" 
d="M614 1370h-268l-123 -696h269q112 0 196 10q164 20 266 124t103 288q0 233 -250 264q-80 10 -193 10zM1106 1102q0 -203 -118 -321t-300 -140q-84 -10 -205 -10h-268l-111 -631h-45l248 1413h314q120 0 200 -10q129 -16 207 -91t78 -210z" />
    <glyph glyph-name="Q" unicode="Q" horiz-adv-x="1482" 
d="M184 567q0 -249 142 -401t359 -152q216 0 382 128t246 314t80 390q-1 250 -143 402t-358 151q-216 0 -382 -128q-166 -129 -246 -315t-80 -389zM897 1442q243 0 393 -164t150 -420t-119 -481t-328 -332q91 -2 153 -30t122 -87l-31 -34q-113 114 -249 112q-66 0 -152 -17
t-156 -18q-242 0 -392 164t-151 432q0 153 51 307q52 154 144 281t240 207t325 80z" />
    <glyph glyph-name="R" unicode="R" horiz-adv-x="1128" 
d="M1087 1110q0 217 -251 250q-82 10 -195 10h-297l-113 -635h332q86 0 154 4q166 12 268 115.5t102 255.5zM1139 1118q0 -158 -99.5 -269.5t-263.5 -137.5q147 -47 152.5 -319t36.5 -392h-50q-25 139 -31.5 409.5t-199.5 280.5q-45 2 -129 2h-330l-123 -692h-45l250 1413
h342q121 0 203 -10q139 -16 213 -91t74 -194z" />
    <glyph glyph-name="S" unicode="S" horiz-adv-x="1114" 
d="M695.5 1442q203.5 0 304 -111.5t92.5 -277.5h-45q0 160 -97.5 253t-260.5 93t-290 -94.5t-127 -268.5q0 -113 81 -175t273 -119.5t281.5 -144.5t89.5 -230q0 -174 -144 -285t-358.5 -111t-343 102.5t-114.5 295.5h45q-10 -170 103.5 -262.5t308.5 -92.5t323.5 96.5
t128.5 238.5t-82 218t-274.5 133t-280.5 130t-88 196q0 186 135.5 301t339 115z" />
    <glyph glyph-name="T" unicode="T" horiz-adv-x="1187" 
d="M1337 1372h-540l-242 -1372h-45l242 1372h-541l8 41h1127z" />
    <glyph glyph-name="U" unicode="U" horiz-adv-x="1228" 
d="M156 301q0 82 18 188l164 924h45l-164 -932q-18 -106 -18 -178q0 -127 88 -208q87 -81 273 -81t300 96t152 255q12 47 26 127l162 921h45l-164 -924q-12 -72 -28 -137q-43 -174 -168 -277t-325 -103t-304 90q-102 91 -102 239z" />
    <glyph glyph-name="V" unicode="V" horiz-adv-x="1198" 
d="M569 0h-65l-297 1413h47l287 -1374l772 1374h53z" />
    <glyph glyph-name="W" unicode="W" horiz-adv-x="1685" 
d="M1845 1413l-633 -1413h-53l-143 1348l-647 -1348h-56l-106 1413h45l98 -1356l637 1336h68l141 -1332l602 1352h47z" />
    <glyph glyph-name="X" unicode="X" horiz-adv-x="1153" 
d="M649 711l387 -711h-57l-363 680l-600 -680h-55l633 715l-348 698h49l334 -665l596 665l55 -2z" />
    <glyph glyph-name="Y" unicode="Y" horiz-adv-x="1116" 
d="M596 553l-98 -553h-45l98 555l-350 858h49l332 -809l612 809h59z" />
    <glyph glyph-name="Z" unicode="Z" horiz-adv-x="1101" 
d="M1182 1372l-1133 -1329h912l-9 -43h-975l7 35l1138 1335h-846l9 43h905z" />
    <glyph glyph-name="bracketleft" unicode="[" horiz-adv-x="495" 
d="M334 1597h313l-8 -43h-268l-295 -1675h268l-8 -43h-313z" />
    <glyph glyph-name="backslash" unicode="\" horiz-adv-x="538" 
d="M442 -61h-45l-243 1536h45z" />
    <glyph glyph-name="bracketright" unicode="]" horiz-adv-x="499" 
d="M225 -164h-313l8 43h268l295 1675h-268l8 43h314z" />
    <glyph glyph-name="asciicircum" unicode="^" 
d="M854 440l-188 779l-467 -779h-54l496 822h59l205 -822h-51z" />
    <glyph glyph-name="underscore" unicode="_" horiz-adv-x="1024" 
d="M918 -164h-820l8 43h820z" />
    <glyph glyph-name="grave" unicode="`" horiz-adv-x="614" 
d="M311 1188h-37l-102 225h53z" />
    <glyph glyph-name="a" unicode="a" horiz-adv-x="1013" 
d="M360 14q168 0 299 124t160 290l27 150q-340 30 -539 -66t-198 -283q0 -103 67 -159t184 -56zM628 1106q154 0 228 -71t74 -189q0 -57 -19 -158l-61 -340q-27 -160 -43 -348h-47l33 262l-64 -104q-152 -186 -383 -187q-125 0 -205 66t-80 190q0 156 117 252t289 126
t387 16l10 63q18 102 19 147q0 231 -252 232q-129 0 -237 -70t-150 -211h-45q35 139 155 232q120 92 274 92z" />
    <glyph glyph-name="b" unicode="b" horiz-adv-x="1122" 
d="M494 14q160 0 282 96t185 244q61 146 61 318t-90 282t-260 109q-170 0 -298 -113t-173 -360l-21 -121q-37 -203 40 -329t274 -126zM688 1106q176 0 278 -121t103 -306q0 -185 -67 -342q-68 -157 -202 -261t-313 -105q-119 0 -189 36t-122 122l-35 121l-45 -250h-45
l266 1505h45l-118 -671l78 120q88 86 166 119t200 33z" />
    <glyph glyph-name="c" unicode="c" horiz-adv-x="1058" 
d="M644 1106q179 0 276.5 -99.5t93.5 -263.5h-45q0 150 -84 236t-244 86q-240 0 -391.5 -189.5t-151.5 -443.5q0 -207 98.5 -313.5t249 -106.5t268 81t183.5 229h45q-68 -170 -201 -260.5t-305 -90.5t-277.5 122t-105.5 314.5t66.5 344t206 253t318.5 101.5z" />
    <glyph glyph-name="d" unicode="d" horiz-adv-x="1120" 
d="M627 1063q-160 0 -283 -96q-123 -95 -184 -243q-62 -148 -62 -319t90 -281t260 -110t298 112t174 361l20 121q37 203 -40 329t-273 126zM432 -29q-176 0 -278 121q-102 120 -102 306t66 342q67 156 201 261q135 104 314 105q119 0 189 -36t122 -122l35 -121l121 678h45
l-266 -1505h-45l43 244l-78 -121q-88 -86 -167 -119t-200 -33z" />
    <glyph glyph-name="e" unicode="e" horiz-adv-x="1071" 
d="M633 1063q-143 0 -256 -78q-199 -137 -262 -414h829q10 57 10 125q0 195 -89 281t-232 86zM96 420q0 -207 98.5 -306.5t238.5 -99.5t260 79t194 237h45q-164 -358 -506 -359q-168 0 -272.5 115t-104.5 340q1 226 149 444q70 104 186 170t253 66q188 0 276 -114.5
t88 -295.5q0 -94 -20 -168h-875q-10 -66 -10 -108z" />
    <glyph glyph-name="f" unicode="f" horiz-adv-x="456" 
d="M510 1544q60 0 106 -10l-8 -43q-35 10 -80 10q-141 0 -182 -143q-4 -14 -22 -111l-31 -170h219l-6 -43h-219l-183 -1034h-45l181 1034h-95l7 43h96l26 154q16 88 27 127q27 94 88 140t121 46z" />
    <glyph glyph-name="g" unicode="g" horiz-adv-x="1118" 
d="M642 1063q-175 0 -298 -96q-123 -95 -184 -243q-62 -148 -62 -319t90 -281t255 -110t290 102t176 324l35 193q29 195 -49 313t-253 117zM354 -451q-158 0 -256 81t-98 243v31h45v-31q0 -281 322 -281q188 0 306 100t154 285q20 104 41 228l6 35l-75 -117
q-88 -86 -167 -119t-200 -33q-176 0 -278 121q-102 120 -102 306t66 342q67 156 201 261q135 104 314 105q119 0 189 -36t122 -122l35 -119l45 256h45l-141 -798q-43 -250 -58 -324q-41 -190 -172 -302t-344 -112z" />
    <glyph glyph-name="h" unicode="h" horiz-adv-x="1087" 
d="M672 1106q152 0 232 -78t81 -217q0 -80 -22 -213l-107 -598h-45l102 580q25 136 25 240t-68 174t-219 69q-151 0 -279 -111t-165 -313l-111 -639h-45l266 1516h45l-120 -685l65 115q142 160 365 160z" />
    <glyph glyph-name="i" unicode="i" horiz-adv-x="333" 
d="M94 0h-45l191 1077h45zM305 1337q17 0 27 -10t10 -27q0 -16 -14 -30q-31 -30 -58 -4q-10 10 -10 27t14 31q15 13 31 13z" />
    <glyph glyph-name="j" unicode="j" horiz-adv-x="309" 
d="M-131 -430q-37 0 -72 8l8 39q90 -16 142 13q51 30 73 118q10 35 19 80l219 1249h45l-215 -1227q-12 -63 -25 -106q-45 -174 -194 -174zM315 1337q17 0 27 -10t10 -27q0 -16 -14 -30t-30 -14t-27 10t-11 27t14 31t31 13z" />
    <glyph glyph-name="k" unicode="k" horiz-adv-x="970" 
d="M324 565l491 -565h-59l-469 539l-111 -88l-80 -451h-45l266 1505h45l-176 -997l713 569h72z" />
    <glyph glyph-name="l" unicode="l" horiz-adv-x="358" 
d="M145 -10q-84 0 -84 80q0 27 27 176l221 1259h45l-221 -1259q-25 -133 -24.5 -166t23 -44t81.5 -3l-8 -39q-20 -4 -60 -4z" />
    <glyph glyph-name="m" unicode="m" horiz-adv-x="1656" 
d="M1290 1106q131 0 199 -75t67 -210q0 -76 -24 -223l-105 -598h-45l103 580q25 141 24 221q0 264 -229 264q-145 0 -258 -114t-152 -333l-108 -618h-45l102 580q25 145 25 221q0 135 -53 199t-187 65q-134 0 -247 -114q-114 -114 -152 -333l-109 -618h-45l189 1077h45
l-41 -231l71 119q133 141 310 141q131 0 197 -73t69 -208l90 140q133 141 309 141z" />
    <glyph glyph-name="n" unicode="n" horiz-adv-x="1087" 
d="M672 1106q152 0 232.5 -78t80.5 -217q0 -80 -22 -213l-107 -598h-45l102 580q25 136 25 240t-68 174q-66 70 -218 69.5t-280 -111t-165 -313.5l-111 -639h-45l189 1077h45l-43 -246l65 115q142 160 365 160z" />
    <glyph glyph-name="o" unicode="o" horiz-adv-x="1128" 
d="M492 14q102 0 192 39q159 69 251 240q91 171 91 358t-110 299t-281 113q-293 0 -450 -290q-83 -156 -84 -345q-1 -190 109 -302t282 -112zM643 1106q205 0 318 -130t113 -325t-91 -365q-103 -196 -281 -272q-100 -43 -219 -43q-205 0 -317 130t-113 322q0 192 96 378
q96 185 275 262q100 43 219 43z" />
    <glyph glyph-name="p" unicode="p" horiz-adv-x="1122" 
d="M494 14q160 0 282 96t185 244q61 146 61 318t-90 282t-260 109q-170 0 -298 -113t-173 -360l-21 -121q-37 -203 40 -329t274 -126zM688 1106q176 0 278 -121t103 -306q0 -185 -67 -342q-68 -157 -202 -261t-313 -105q-119 0 -189 36t-122 122l-35 121l-116 -651h-45
l264 1478h45l-43 -241l76 118q88 86 166 119t200 33z" />
    <glyph glyph-name="q" unicode="q" horiz-adv-x="1118" 
d="M627 1063q-160 0 -283 -96q-123 -95 -184 -243q-62 -148 -62 -319t90 -281t260 -110t298 112t174 361l20 121q37 203 -40 329t-273 126zM432 -29q-176 0 -278 121q-102 120 -102 306t66 342q67 156 201 261q135 104 314 105q119 0 189 -36t122 -122l35 -121l45 250h45
l-264 -1478h-45l114 643l-75 -119q-88 -86 -167 -119t-200 -33z" />
    <glyph glyph-name="r" unicode="r" horiz-adv-x="542" 
d="M575 1106q33 0 48 -2l-9 -41q-123 8 -228 -69q-60 -44 -113 -150t-74 -254l-103 -590h-45l191 1085h45l-41 -233l61 117q116 137 268 137z" />
    <glyph glyph-name="s" unicode="s" horiz-adv-x="933" 
d="M78 307q12 -293 336 -293q154 0 241.5 71t87.5 177t-68.5 162.5t-236.5 101.5q-270 72 -270 275q0 127 101 216t258 89t246 -83t97 -239h-45q-25 279 -303 279q-139 0 -223 -79t-84 -177t64.5 -153.5t209 -94.5t223.5 -104.5t79 -196.5t-109 -209t-274.5 -78t-269 81
t-105.5 255h45z" />
    <glyph glyph-name="t" unicode="t" horiz-adv-x="497" 
d="M238 -14q-139 0 -140 123q0 61 19 161l135 762h-131l6 37h131l39 221h45l-39 -221h211l-6 -37h-211l-135 -770q-18 -98 -18.5 -153t44.5 -75t148 -5l-6 -37q-43 -6 -92 -6z" />
    <glyph glyph-name="u" unicode="u" horiz-adv-x="1079" 
d="M408 -29q-152 0 -233 78t-81 217q0 80 23 213l106 598h45l-102 -579q-25 -135 -25 -240q0 -104 68 -174q67 -70 219 -70t280 111t164 313l111 639h45l-188 -1077h-45l43 246l-66 -115q-141 -160 -364 -160z" />
    <glyph glyph-name="v" unicode="v" horiz-adv-x="966" 
d="M1028 1077l-618 -1077h-62l-233 1077h49l221 -1036l590 1036h53z" />
    <glyph glyph-name="w" unicode="w" horiz-adv-x="1468" 
d="M1530 1077l-533 -1077h-59l-127 1032l-489 -1032h-64l-143 1077h45l135 -1034l487 1030h66l129 -1024l502 1028h51z" />
    <glyph glyph-name="x" unicode="x" horiz-adv-x="903" 
d="M463 541l287 -541h-54l-264 508l-455 -508h-59l494 549l-269 528h50l251 -495l449 495h59z" />
    <glyph glyph-name="y" unicode="y" horiz-adv-x="966" 
d="M-27 -430q-37 0 -63 8l6 39q27 -6 61 -6q80 0 156 71t186 257l31 51l-235 1087h49l221 -1036l590 1036h53l-618 -1077q-150 -262 -242 -346t-195 -84z" />
    <glyph glyph-name="z" unicode="z" horiz-adv-x="950" 
d="M956 1028l-940 -989h777l-7 -39h-837l6 37l938 989h-713l6 43h777z" />
    <glyph glyph-name="braceleft" unicode="{" horiz-adv-x="587" 
d="M692 1554q-126 0 -191 -67t-71 -309q-13 -246 -31 -287q-48 -108 -90 -136q-43 -28 -90 -38q119 -31 119 -166q0 -93 -64 -277t-65 -258q0 -137 188 -137h37l-8 -43h-35q-106 0 -168 45q-61 45 -61 125t64 262t65 281q0 131 -135 145l8 45q101 8 147 75t57 145
q11 77 15 225q7 254 87 334q80 81 232 79h35l-8 -43h-37z" />
    <glyph glyph-name="bar" unicode="|" horiz-adv-x="514" 
d="M113 -410h-45l360 2048h45z" />
    <glyph glyph-name="braceright" unicode="}" horiz-adv-x="587" 
d="M358 885q0 -131 136 -146l-9 -45q-102 -8 -148 -75t-57 -150t-14 -224q-7 -250 -87 -330q-79 -79 -232 -79h-35l8 43h37q190 0 232 148q27 94 30 199q4 106 9 193t23 126q47 106 89 134q43 28 90 38q-119 31 -119 166q1 92 65 276t64 258q0 137 -188 137h-37l8 43h35
q106 0 168 -45t61 -125t-65 -262t-64 -280z" />
    <glyph glyph-name="asciitilde" unicode="~" horiz-adv-x="1228" 
d="M854 477q-57 -1 -103 17q-47 18 -141 76t-138 76t-91 20q-131 0 -166 -197h-43q43 240 219 240q57 -1 105 -19t141 -76q94 -58 138 -75q44 -18 89 -19q133 0 168 197h43q-43 -240 -221 -240z" />
    <glyph glyph-name="exclamdown" unicode="&#xa1;" horiz-adv-x="319" 
d="M195 852h38l-208 -1188h-48zM244 1024q-33 0 -33 33q0 21 15 35t34 14q33 0 33 -33q0 -20 -15 -35q-16 -14 -34 -14z" />
    <glyph glyph-name="cent" unicode="&#xa2;" 
d="M119 449q0 -212 89 -318t230 -117l187 1049q-221 -16 -363 -209t-143 -405zM989 743q0 147 -82 233t-237 89l-187 -1053q143 4 257 84t178 226h45q-66 -164 -195 -255t-291 -96l-28 -155h-46l29 155q-164 10 -261 131t-97 317t97 373t264 261q91 45 198 51l29 166h45
l-29 -164q170 -2 265 -101t91 -262h-45z" />
    <glyph glyph-name="sterling" unicode="&#xa3;" horiz-adv-x="1087" 
d="M262 1036q0 146 110 276t302 130q190 0 269 -108t89 -294h-45q-8 172 -80 266q-73 94 -237 93q-164 0 -262 -115t-98 -252t55 -268h485l-8 -43h-459q55 -129 55 -229q0 -285 -338 -449h791l-8 -43h-891l6 39q393 160 393 450q0 102 -57 232h-197l8 43h168
q-51 126 -51 272z" />
    <glyph glyph-name="currency" unicode="&#xa4;" 
d="M598 942q-166 0 -260 -112t-94 -240q0 -129 74 -214t194 -85q166 -1 260 111t94 244t-72 214q-73 82 -196 82zM913 645q0 -172 -125 -291l86 -102l-38 -33l-86 105q-102 -76 -242 -76t-227 98l-140 -117l-26 33l139 119q-57 90 -57 207q0 164 127 286l-93 111l39 33
l92 -111q104 78 244 78t223 -96l144 121l26 -33l-143 -123q57 -86 57 -209z" />
    <glyph glyph-name="yen" unicode="&#xa5;" 
d="M618 700h351l-6 -43h-377l-29 -161h377l-8 -43h-377l-80 -453h-45l80 453h-377l8 43h377l29 161h-377l6 43h356l-327 713h47l323 -708l568 708h57z" />
    <glyph glyph-name="brokenbar" unicode="&#xa6;" horiz-adv-x="514" 
d="M127 -328h-45l123 697h45zM311 717h-45l123 696h45z" />
    <glyph glyph-name="section" unicode="&#xa7;" 
d="M975 518q0 124 -82 192q-82 69 -268 121q-53 16 -76 25q-176 -8 -289 -84t-113 -209q0 -221 299 -291q68 -16 113 -32q186 8 301 81t115 197zM1022 529q0 -132 -103 -217t-288 -101q184 -90 184 -270q0 -129 -106 -213q-105 -84 -267 -84t-264 84t-125 254h45
q51 -295 346 -295q139 0 232 69q92 70 92 183t-78 183t-268 109q-133 31 -227 111q-95 80 -95 214t102 223t273 106q-170 80 -170 254q0 121 93 212t251 91q309 0 359 -318h-45q-53 274 -314 275q-143 0 -220 -77q-77 -76 -77 -188t82 -171t240 -99t254 -122q94 -81 94 -213
z" />
    <glyph glyph-name="dieresis" unicode="&#xa8;" horiz-adv-x="614" 
d="M397 1337q33 0 33 -32q0 -21 -15 -35t-34 -15q-33 0 -33 33q0 20 16 34t33 15zM233 1337q33 0 33 -32q0 -21 -15 -35t-34 -15q-33 0 -33 33q0 20 16 34t33 15z" />
    <glyph glyph-name="copyright" unicode="&#xa9;" horiz-adv-x="1716" 
d="M1153 872q-49 240 -301 240q-133 0 -221 -113t-88 -273t88 -270q88 -108 225 -108q244 0 295 238h45q-27 -139 -118 -210t-233 -71t-245 116q-102 117 -102 309t105 308t249 117q144 0 236 -73t110 -210h-45zM858 1442q-290 0 -494 -208t-204 -506t202 -506t496 -208
q293 0 496 208q202 208 202 506t-203 506q-204 208 -495 208zM858 1487q311 0 527 -221q217 -220 217 -538t-216 -540t-528 -221q-311 0 -527 221q-216 220 -216 538t216 540t527 221z" />
    <glyph glyph-name="guillemotleft" unicode="&#xab;" horiz-adv-x="933" 
d="M504 504l217 -336h-55l-222 340l340 340h64zM258 504l217 -336h-55l-221 340l340 340h63z" />
    <glyph glyph-name="logicalnot" unicode="&#xac;" 
d="M850 430h-45l49 275h-674l8 43h719z" />
    <glyph glyph-name="registered" unicode="&#xae;" horiz-adv-x="1069" 
d="M655 1235q0 78 -114 78h-54l-30 -174h57q27 0 45 2q96 10 96 94zM639 1046q0 -58 18 -112h-47q-14 35 -14 84t-12 65t-49 17h-84l-29 -166h-41l74 418h94q29 0 63 -4t62 -35q29 -31 28 -76q0 -94 -108 -117q45 -16 45 -74zM487 748q203 0 321 138t118 292t-92 248
q-92 95 -252 96q-203 0 -321 -138t-118 -292t92 -249t252 -95zM590 1565q176 1 279 -105t103 -279t-131 -325q-132 -152 -362 -151q-176 0 -279 105q-104 105 -104 278t132 325q133 152 362 152z" />
    <glyph glyph-name="macron" unicode="&#xaf;" horiz-adv-x="614" 
d="M446 1270h-286l8 43h287z" />
    <glyph glyph-name="degree" unicode="&#xb0;" horiz-adv-x="567" 
d="M258 1306q0 -143 144 -143q72 1 128 57t56 128t-36 108q-36 35 -108 35t-128 -56t-56 -129zM447 1534q90 0 139 -48t49 -139t-74 -159t-164 -68t-139 48t-49 139t74 159t164 68z" />
    <glyph glyph-name="plusminus" unicode="&#xb1;" 
d="M45 43h819l-6 -43h-819zM975 672l-6 -43h-387l-76 -430h-45l76 430h-387l6 43h387l75 430h46l-76 -430h387z" />
    <glyph glyph-name="acute" unicode="&#xb4;" horiz-adv-x="614" 
d="M301 1188h-39l164 225h57z" />
    <glyph glyph-name="paragraph" unicode="&#xb6;" horiz-adv-x="1060" 
d="M537 655q-80 0 -115 2q-125 7 -194 101q-68 94 -68 234t102 274q102 135 293 145q37 2 117 2h399l-291 -1638h-45l283 1595h-262l-283 -1595h-45l156 880h-47z" />
    <glyph glyph-name="periodcentered" unicode="&#xb7;" horiz-adv-x="278" 
d="M158 670q37 0 37 -37q1 -23 -15 -38t-39 -15q-37 0 -37 36q0 22 16 38t38 16z" />
    <glyph glyph-name="cedilla" unicode="&#xb8;" horiz-adv-x="614" 
d="M232 -430q-82 0 -128 14l9 43q43 -14 117 -14t121 37q48 37 48 100q0 117 -180 109l113 155l37 -12l-76 -106q154 -14 153 -144q0 -88 -66 -135t-148 -47z" />
    <glyph glyph-name="guillemotright" unicode="&#xbb;" horiz-adv-x="933" 
d="M723 508l-340 -340h-64l345 344l-218 336h56zM477 508l-340 -340h-63l344 344l-217 336h55z" />
    <glyph glyph-name="questiondown" unicode="&#xbf;" horiz-adv-x="960" 
d="M367 -367q-173 0 -259 88t-88 201q0 113 59 209q58 96 209 245q151 148 204 232t77 242h41q-20 -154 -80 -251t-210 -247t-201 -239t-51 -191t80 -174t208 -72q176 0 290 104t159 283h45q-42 -195 -176 -313t-307 -117zM608 1022q-33 0 -33 33q-1 21 15 35t35 14
q33 0 32 -33q0 -20 -15 -35q-16 -14 -34 -14z" />
    <glyph glyph-name="Agrave" unicode="&#xc0;" horiz-adv-x="1269" 
d="M967 594l-162 780l-438 -780h600zM975 551h-633l-309 -551h-56l797 1413h68l297 -1413h-49zM809 1507l-96 193h53l80 -193h-37z" />
    <glyph glyph-name="Aacute" unicode="&#xc1;" horiz-adv-x="1269" 
d="M967 594l-162 780l-438 -780h600zM975 551h-633l-309 -551h-56l797 1413h68l297 -1413h-49zM842 1507h-39l141 193h57z" />
    <glyph glyph-name="Acircumflex" unicode="&#xc2;" horiz-adv-x="1269" 
d="M967 594l-162 780l-438 -780h600zM975 551h-633l-309 -551h-56l797 1413h68l297 -1413h-49zM727 1507h-53l166 193h51l100 -193h-49l-80 162z" />
    <glyph glyph-name="Atilde" unicode="&#xc3;" horiz-adv-x="1269" 
d="M967 594l-162 780l-438 -780h600zM975 551h-633l-309 -551h-56l797 1413h68l297 -1413h-49zM736 1608q-32 0 -38 -41h-41q4 84 80 84q43 0 113 -25t100 -24q33 0 39 40h41q-4 -84 -80 -83q-42 1 -112 25t-102 24z" />
    <glyph glyph-name="Adieresis" unicode="&#xc4;" horiz-adv-x="1269" 
d="M967 594l-162 780l-438 -780h600zM975 551h-633l-309 -551h-56l797 1413h68l297 -1413h-49zM907 1563q-33 0 -33 32q0 21 16 35t34 15q33 0 32 -33q0 -20 -15 -35q-16 -14 -34 -14zM764 1563q-33 0 -33 32q0 21 15 35t34 15q33 0 33 -33q0 -20 -15 -35q-16 -14 -34 -14z
" />
    <glyph glyph-name="Aring" unicode="&#xc5;" horiz-adv-x="1269" 
d="M967 594l-162 780l-438 -780h600zM975 551h-633l-309 -551h-56l797 1413h68l297 -1413h-49zM762 1592q0 -70 71 -70q37 0 65 30t28 63q0 71 -72 71q-36 0 -64 -30t-28 -64zM860 1729q115 -1 115 -111q1 -56 -47 -98t-101 -41q-115 -1 -115 109q0 56 48 99q47 42 100 42z
" />
    <glyph glyph-name="AE" unicode="&#xc6;" horiz-adv-x="1918" 
d="M1116 1372l-635 -778h533zM1159 1372l-86 -645h750l-8 -41h-746l-86 -645h780l-8 -41h-821l74 551h-562l-450 -551h-57l1161 1413h885l-9 -41h-817z" />
    <glyph glyph-name="Ccedilla" unicode="&#xc7;" horiz-adv-x="1423" 
d="M915 1442q225 0 348 -126t123 -325v-20h-45v20q0 193 -115.5 300.5t-326.5 107.5q-129 0 -254 -56.5t-228.5 -160t-167 -267t-63.5 -362.5q0 -262 129 -400.5t339 -138.5t359.5 119t227.5 311l8 21h45l-8 -21q-86 -213 -247.5 -343t-399.5 -130q-23 0 -64 4l-55 -79
q154 -14 154 -144q0 -88 -65.5 -135t-148.5 -47t-128 14l8 43q42 -14 116 -14t122.5 37t48.5 100q0 117 -181 109l89 123q-184 33 -291 182t-107 387q0 399 228 645t550 246z" />
    <glyph glyph-name="Egrave" unicode="&#xc8;" horiz-adv-x="1099" 
d="M344 1372l-113 -645h773l-9 -41h-772l-112 -645h833l-8 -41h-879l250 1413h858l-8 -41h-813zM702 1507l-96 193h53l80 -193h-37z" />
    <glyph glyph-name="Eacute" unicode="&#xc9;" horiz-adv-x="1099" 
d="M344 1372l-113 -645h773l-9 -41h-772l-112 -645h833l-8 -41h-879l250 1413h858l-8 -41h-813zM735 1507h-39l142 193h57z" />
    <glyph glyph-name="Ecircumflex" unicode="&#xca;" horiz-adv-x="1099" 
d="M344 1372l-113 -645h773l-9 -41h-772l-112 -645h833l-8 -41h-879l250 1413h858l-8 -41h-813zM621 1507h-54l166 193h51l101 -193h-49l-80 162z" />
    <glyph glyph-name="Edieresis" unicode="&#xcb;" horiz-adv-x="1099" 
d="M344 1372l-113 -645h773l-9 -41h-772l-112 -645h833l-8 -41h-879l250 1413h858l-8 -41h-813zM801 1563q-33 0 -33 32q0 20 15.5 35t33.5 15q33 0 33 -33q0 -20 -15.5 -34.5t-33.5 -14.5zM657 1563q-33 0 -32 32q0 20 15 35t34 15q33 0 33 -33q0 -20 -16 -34.5t-34 -14.5z
" />
    <glyph glyph-name="Igrave" unicode="&#xcc;" horiz-adv-x="311" 
d="M102 0h-45l250 1413h45zM365 1507h-37l-97 193h54z" />
    <glyph glyph-name="Iacute" unicode="&#xcd;" horiz-adv-x="311" 
d="M102 0h-45l250 1413h45zM360 1507h-38l141 193h57z" />
    <glyph glyph-name="Icircumflex" unicode="&#xce;" horiz-adv-x="311" 
d="M307 1413h45l-250 -1413h-45zM461 1507l-80 162l-135 -162h-53l165 193h52l100 -193h-49z" />
    <glyph glyph-name="Idieresis" unicode="&#xcf;" horiz-adv-x="311" 
d="M102 0h-45l250 1413h45zM442 1645q33 0 33 -33q0 -20 -15 -34t-34 -15q-33 0 -33 32q-1 20 15 35t34 15zM299 1645q33 0 33 -33q0 -20 -16 -34t-33 -15q-33 0 -33 32q0 20 15 35q16 15 34 15z" />
    <glyph glyph-name="Eth" unicode="&#xd0;" horiz-adv-x="1372" 
d="M686 1370h-340l-119 -665h391l-8 -43h-391l-108 -619h321q84 0 176 8q299 29 479 256q181 227 181 499t-119 406q-119 135 -315 154q-45 4 -148 4zM1315 831q0 -319 -202 -560t-515 -265q-74 -6 -182 -6h-359l117 662h-121l8 43h121l125 708h387q99 0 148 -4
q205 -15 339 -159t134 -419z" />
    <glyph glyph-name="Ntilde" unicode="&#xd1;" horiz-adv-x="1228" 
d="M1270 1413l-250 -1413h-70l-606 1376l-242 -1376h-45l250 1413h68l606 -1372l244 1372h45zM714 1608q-32 0 -38 -41h-41q4 84 80 84q43 0 112.5 -25t100.5 -24q33 0 39 40h41q-4 -84 -80 -83q-43 0 -112.5 24.5t-101.5 24.5z" />
    <glyph glyph-name="Ograve" unicode="&#xd2;" horiz-adv-x="1521" 
d="M186 588q0 -262 146 -418t364 -156q217 0 385 122t251 305t83 384q0 262 -146 418q-145 156 -363 156t-386 -122t-251 -305t-83 -384zM909 1442q244 0 399 -168t154 -449q0 -155 -52 -305q-114 -329 -391 -472q-148 -77 -327 -77q-244 0 -398 168t-155 449q0 154 52 304
q114 329 392 473q148 77 326 77zM913 1507l-96 193h53l80 -193h-37z" />
    <glyph glyph-name="Oacute" unicode="&#xd3;" horiz-adv-x="1521" 
d="M186 588q0 -262 146 -418t364 -156q217 0 385 122t251 305t83 384q0 262 -146 418q-145 156 -363 156t-386 -122t-251 -305t-83 -384zM909 1442q244 0 399 -168t154 -449q0 -155 -52 -305q-114 -329 -391 -472q-148 -77 -327 -77q-244 0 -398 168t-155 449q0 154 52 304
q114 329 392 473q148 77 326 77zM946 1507h-39l142 193h57z" />
    <glyph glyph-name="Ocircumflex" unicode="&#xd4;" horiz-adv-x="1521" 
d="M186 588q0 -262 146 -418t364 -156q217 0 385 122t251 305t83 384q0 262 -146 418q-145 156 -363 156t-386 -122t-251 -305t-83 -384zM909 1442q244 0 399 -168t154 -449q0 -155 -52 -305q-114 -329 -391 -472q-148 -77 -327 -77q-244 0 -398 168t-155 449q0 154 52 304
q114 329 392 473q148 77 326 77zM831 1507h-53l166 193h51l101 -193h-49l-80 162z" />
    <glyph glyph-name="Otilde" unicode="&#xd5;" horiz-adv-x="1521" 
d="M186 588q0 -262 146 -418t364 -156q217 0 385 122t251 305t83 384q0 262 -146 418q-145 156 -363 156t-386 -122t-251 -305t-83 -384zM909 1442q244 0 399 -168t154 -449q0 -155 -52 -305q-114 -329 -391 -472q-148 -77 -327 -77q-244 0 -398 168t-155 449q0 154 52 304
q114 329 392 473q148 77 326 77zM841 1608q-32 0 -38 -41h-41q4 84 80 84q42 0 112 -25t101 -24q33 0 39 40h41q-4 -84 -80 -83q-43 1 -113 25t-101 24z" />
    <glyph glyph-name="Odieresis" unicode="&#xd6;" horiz-adv-x="1521" 
d="M186 588q0 -262 146 -418t364 -156q217 0 385 122t251 305t83 384q0 262 -146 418q-145 156 -363 156t-386 -122t-251 -305t-83 -384zM909 1442q244 0 399 -168t154 -449q0 -155 -52 -305q-114 -329 -391 -472q-148 -77 -327 -77q-244 0 -398 168t-155 449q0 154 52 304
q114 329 392 473q148 77 326 77zM1012 1563q-33 0 -33 32q0 21 15 35t34 15q33 0 33 -33q0 -20 -15 -35q-16 -14 -34 -14zM868 1563q-33 0 -32 32q0 21 15 35t34 15q33 0 33 -33q0 -20 -16 -34t-34 -15z" />
    <glyph glyph-name="multiply" unicode="&#xd7;" 
d="M592 641l254 -309l-35 -31l-254 309l-364 -309l-29 33l364 309l-252 307l35 31l252 -307l365 309l28 -33z" />
    <glyph glyph-name="Oslash" unicode="&#xd8;" horiz-adv-x="1505" 
d="M1407 814q0 190 -74 325l-1061 -903q68 -106 178 -164t240 -58q215 0 383 122t251 305t83 373zM178 600q0 -188 72 -326l1063 904q-145 221 -418 221q-215 0 -383 -122t-251 -305q-83 -184 -83 -372zM1454 846q0 -344 -200 -598q-95 -123 -243 -200t-327 -77
q-295 0 -448 232l-173 -146l-28 35l176 150q-80 150 -80 325q0 344 200 598q95 123 243 200t327 77q295 0 449 -232l172 146l28 -35l-176 -150q80 -150 80 -325z" />
    <glyph glyph-name="Ugrave" unicode="&#xd9;" horiz-adv-x="1228" 
d="M156 301q0 82 18 188l164 924h45l-164 -932q-18 -106 -18 -178q0 -127 88 -208q87 -81 273 -81t300 96t152 255q12 47 26 127l162 921h45l-164 -924q-12 -72 -28 -137q-43 -174 -168 -277t-325 -103t-304 90q-102 91 -102 239zM827 1507h-36l-97 193h54z" />
    <glyph glyph-name="Uacute" unicode="&#xda;" horiz-adv-x="1228" 
d="M156 301q0 82 18 188l164 924h45l-164 -932q-18 -106 -18 -178q0 -127 88 -208q87 -81 273 -81t300 96t152 255q12 47 26 127l162 921h45l-164 -924q-12 -72 -28 -137q-43 -174 -168 -277t-325 -103t-304 90q-102 91 -102 239zM823 1507h-39l142 193h57z" />
    <glyph glyph-name="Ucircumflex" unicode="&#xdb;" horiz-adv-x="1228" 
d="M156 301q0 82 18 188l164 924h45l-164 -932q-18 -106 -18 -178q0 -127 88 -208q87 -81 273 -81t300 96t152 255q12 47 26 127l162 921h45l-164 -924q-12 -72 -28 -137q-43 -174 -168 -277t-325 -103t-304 90q-102 91 -102 239zM709 1507h-54l166 193h51l101 -193h-49
l-80 162z" />
    <glyph glyph-name="Udieresis" unicode="&#xdc;" horiz-adv-x="1228" 
d="M156 301q0 82 18 188l164 924h45l-164 -932q-18 -106 -18 -178q0 -127 88 -208q87 -81 273 -81t300 96t152 255q12 47 26 127l162 921h45l-164 -924q-12 -72 -28 -137q-43 -174 -168 -277t-325 -103t-304 90q-102 91 -102 239zM905 1645q33 0 33 -33q0 -20 -15 -34
t-34 -15q-33 0 -33 32q0 20 15 35q16 15 34 15zM762 1645q33 0 33 -33q1 -20 -15 -34t-35 -15q-33 0 -32 32q0 20 15 35q16 15 34 15z" />
    <glyph glyph-name="Yacute" unicode="&#xdd;" horiz-adv-x="1116" 
d="M596 553l-98 -553h-45l98 555l-350 858h49l332 -809l612 809h59zM756 1507h-39l141 193h57z" />
    <glyph glyph-name="Thorn" unicode="&#xde;" horiz-adv-x="1099" 
d="M1016 881q0 207 -254 237q-80 10 -193 10h-266l-117 -655h269q113 0 196 10q308 35 359 328q6 37 6 70zM1067 889q0 -20 -8 -78q-29 -168 -139 -259t-269 -112q-84 -10 -205 -10h-268l-76 -430h-45l250 1413h45l-43 -242h269q120 0 200 -10q289 -39 289 -272z" />
    <glyph glyph-name="germandbls" unicode="&#xdf;" horiz-adv-x="1034" 
d="M743 1544q127 0 213 -76t86 -215t-104 -258q-115 -51 -168 -103t-53 -129t90 -175q149 -162 149 -281t-104 -217t-309 -98q-113 0 -217 24l8 43q104 -25 217 -24q172 0 265 84t93 185q0 102 -120 234q-119 132 -119 223t57 151t191 124q78 98 78 218t-71 184
q-71 63 -192 63q-371 0 -459 -493l-178 -1008h-45l176 1004q35 205 144 363q122 177 372 177z" />
    <glyph glyph-name="agrave" unicode="&#xe0;" horiz-adv-x="1013" 
d="M360 14q168 0 299 124t160 290l27 150q-340 30 -539 -66t-198 -283q0 -103 67 -159t184 -56zM628 1106q154 0 228 -71t74 -189q0 -57 -19 -158l-61 -340q-27 -160 -43 -348h-47l33 262l-64 -104q-152 -186 -383 -187q-125 0 -205 66t-80 190q0 156 117 252t289 126
t387 16l10 63q18 102 19 147q0 231 -252 232q-129 0 -237 -70t-150 -211h-45q35 139 155 232q120 92 274 92zM657 1188l-102 225h53l86 -225h-37z" />
    <glyph glyph-name="aacute" unicode="&#xe1;" horiz-adv-x="1013" 
d="M360 14q168 0 299 124t160 290l27 150q-340 30 -539 -66t-198 -283q0 -103 67 -159t184 -56zM628 1106q154 0 228 -71t74 -189q0 -57 -19 -158l-61 -340q-27 -160 -43 -348h-47l33 262l-64 -104q-152 -186 -383 -187q-125 0 -205 66t-80 190q0 156 117 252t289 126
t387 16l10 63q18 102 19 147q0 231 -252 232q-129 0 -237 -70t-150 -211h-45q35 139 155 232q120 92 274 92zM684 1188h-39l164 225h57z" />
    <glyph glyph-name="acircumflex" unicode="&#xe2;" horiz-adv-x="1013" 
d="M360 14q168 0 299 124t160 290l27 150q-340 30 -539 -66t-198 -283q0 -103 67 -159t184 -56zM628 1106q154 0 228 -71t74 -189q0 -57 -19 -158l-61 -340q-27 -160 -43 -348h-47l33 262l-64 -104q-152 -186 -383 -187q-125 0 -205 66t-80 190q0 156 117 252t289 126
t387 16l10 63q18 102 19 147q0 231 -252 232q-129 0 -237 -70t-150 -211h-45q35 139 155 232q120 92 274 92zM563 1188h-49l174 225h49l92 -225h-47l-73 192z" />
    <glyph glyph-name="atilde" unicode="&#xe3;" horiz-adv-x="1013" 
d="M360 14q168 0 299 124t160 290l27 150q-340 30 -539 -66t-198 -283q0 -103 67 -159t184 -56zM628 1106q154 0 228 -71t74 -189q0 -57 -19 -158l-61 -340q-27 -160 -43 -348h-47l33 262l-64 -104q-152 -186 -383 -187q-125 0 -205 66t-80 190q0 156 117 252t289 126
t387 16l10 63q18 102 19 147q0 231 -252 232q-129 0 -237 -70t-150 -211h-45q35 139 155 232q120 92 274 92zM801 1282q-43 0 -113 24t-101 25q-32 0 -38 -41h-41q4 84 80 84q42 0 112 -24t102 -25q32 0 38 41h41q-4 -84 -80 -84z" />
    <glyph glyph-name="adieresis" unicode="&#xe4;" horiz-adv-x="1013" 
d="M360 14q168 0 299 124t160 290l27 150q-340 30 -539 -66t-198 -283q0 -103 67 -159t184 -56zM628 1106q154 0 228 -71t74 -189q0 -57 -19 -158l-61 -340q-27 -160 -43 -348h-47l33 262l-64 -104q-152 -186 -383 -187q-125 0 -205 66t-80 190q0 156 117 252t289 126
t387 16l10 63q18 102 19 147q0 231 -252 232q-129 0 -237 -70t-150 -211h-45q35 139 155 232q120 92 274 92zM762 1255q-33 0 -33 33q0 20 15 34t34 15q33 0 33 -32q1 -20 -15 -35t-34 -15zM598 1255q-33 0 -33 33q-1 20 15 34t34 15q33 0 33 -32q1 -20 -15 -35t-34 -15z
" />
    <glyph glyph-name="aring" unicode="&#xe5;" horiz-adv-x="1013" 
d="M360 14q168 0 299 124t160 290l27 150q-340 30 -539 -66t-198 -283q0 -103 67 -159t184 -56zM628 1106q154 0 228 -71t74 -189q0 -57 -19 -158l-61 -340q-27 -160 -43 -348h-47l33 262l-64 -104q-152 -186 -383 -187q-125 0 -205 66t-80 190q0 156 117 252t289 126
t387 16l10 63q18 102 19 147q0 231 -252 232q-129 0 -237 -70t-150 -211h-45q35 139 155 232q120 92 274 92zM702 1382q-40 0 -68 -30t-28 -72q0 -66 68 -66q40 0 68 31t28 72q0 65 -68 65zM704 1425q114 1 113 -111q0 -56 -45 -100q-45 -43 -99 -43q-114 1 -114 113
q0 56 45 98q46 42 100 43z" />
    <glyph glyph-name="ae" unicode="&#xe6;" horiz-adv-x="1914" 
d="M377 14q186 0 329 126q142 126 179 329l10 59q-35 2 -104 2q-319 0 -502 -79q-182 -80 -183 -234q0 -91 73 -147t198 -56zM1472 1071q-190 0 -332 -129t-192 -371h836q37 209 -43 355q-79 146 -269 145zM930 391q0 -193 94 -285t240 -92t269 80q124 80 198 236h45
q-80 -172 -218 -265t-311 -93t-263 104q-90 106 -95 258l-70 -137q-190 -225 -457 -226q-135 -1 -221 57t-86 173q0 373 779 372h69q23 127 23 201q0 297 -289 297q-129 0 -245 -71t-159 -209h-45q35 137 165 230t292 93q100 0 171 -31t105 -82q62 -93 54 -217
q68 154 206 242t289 88q190 0 282 -118t93 -298q0 -96 -20 -170h-883q-12 -74 -12 -137z" />
    <glyph glyph-name="ccedilla" unicode="&#xe7;" horiz-adv-x="1058" 
d="M644 1106q179 0 276.5 -99.5t93.5 -263.5h-45q0 150 -84 236t-244 86q-240 0 -391.5 -189.5t-151.5 -443.5q0 -207 98.5 -313.5t249.5 -106.5l3 2l6 -2q145 2 260.5 82t181.5 228h45q-66 -162 -191.5 -252t-285.5 -99l-55 -75q154 -14 153 -144q0 -88 -65.5 -135
t-148 -47t-128.5 14l8 43q43 -14 117 -14t122 37t48 100q0 117 -180 109l82 112q-166 8 -265.5 129t-99.5 310.5t66.5 341t206 253t318.5 101.5z" />
    <glyph glyph-name="egrave" unicode="&#xe8;" horiz-adv-x="1071" 
d="M633 1063q-143 0 -256 -78q-199 -137 -262 -414h829q10 57 10 125q0 195 -89 281t-232 86zM96 420q0 -207 98.5 -306.5t238.5 -99.5t260 79t194 237h45q-164 -358 -506 -359q-168 0 -272.5 115t-104.5 340q1 226 149 444q70 104 186 170t253 66q188 0 276 -114.5
t88 -295.5q0 -94 -20 -168h-875q-10 -66 -10 -108zM629 1188l-103 225h54l86 -225h-37z" />
    <glyph glyph-name="eacute" unicode="&#xe9;" horiz-adv-x="1071" 
d="M633 1063q-143 0 -256 -78q-199 -137 -262 -414h829q10 57 10 125q0 195 -89 281t-232 86zM96 420q0 -207 98.5 -306.5t238.5 -99.5t260 79t194 237h45q-164 -358 -506 -359q-168 0 -272.5 115t-104.5 340q1 226 149 444q70 104 186 170t253 66q188 0 276 -114.5
t88 -295.5q0 -94 -20 -168h-875q-10 -66 -10 -108zM655 1188h-39l164 225h58z" />
    <glyph glyph-name="ecircumflex" unicode="&#xea;" horiz-adv-x="1071" 
d="M633 1063q-143 0 -256 -78q-199 -137 -262 -414h829q10 57 10 125q0 195 -89 281t-232 86zM96 420q0 -207 98.5 -306.5t238.5 -99.5t260 79t194 237h45q-164 -358 -506 -359q-168 0 -272.5 115t-104.5 340q1 226 149 444q70 104 186 170t253 66q188 0 276 -114.5
t88 -295.5q0 -94 -20 -168h-875q-10 -66 -10 -108zM535 1188h-50l174 225h50l92 -225h-47l-74 192z" />
    <glyph glyph-name="edieresis" unicode="&#xeb;" horiz-adv-x="1071" 
d="M633 1063q-143 0 -256 -78q-199 -137 -262 -414h829q10 57 10 125q0 195 -89 281t-232 86zM96 420q0 -207 98.5 -306.5t238.5 -99.5t260 79t194 237h45q-164 -358 -506 -359q-168 0 -272.5 115t-104.5 340q1 226 149 444q70 104 186 170t253 66q188 0 276 -114.5
t88 -295.5q0 -94 -20 -168h-875q-10 -66 -10 -108zM733 1255q-33 0 -33 33q0 20 15.5 34.5t34.5 14.5q33 0 32 -32q0 -20 -15.5 -35t-33.5 -15zM569 1255q-33 0 -32 33q0 20 15 34.5t34 14.5q33 0 32 -32q0 -20 -15.5 -35t-33.5 -15z" />
    <glyph glyph-name="igrave" unicode="&#xec;" horiz-adv-x="333" 
d="M94 0h-45l191 1077h45zM307 1188h-37l-102 225h53z" />
    <glyph glyph-name="iacute" unicode="&#xed;" horiz-adv-x="333" 
d="M94 0h-45l191 1077h45zM297 1188h-39l164 225h57z" />
    <glyph glyph-name="icircumflex" unicode="&#xee;" horiz-adv-x="333" 
d="M240 1077h45l-191 -1077h-45zM395 1188l-73 192l-146 -192h-49l174 225h49l92 -225h-47z" />
    <glyph glyph-name="idieresis" unicode="&#xef;" horiz-adv-x="333" 
d="M94 0h-45l191 1077h45zM391 1337q33 0 33 -32q0 -21 -15 -35t-34 -15q-33 0 -33 33q0 20 15 35q16 14 34 14zM227 1337q33 0 33 -32q0 -21 -15 -35t-34 -15q-33 0 -33 33q0 20 16 34t33 15z" />
    <glyph glyph-name="eth" unicode="&#xf0;" horiz-adv-x="1107" 
d="M409 14q239 0 373 172q176 227 176 549q0 154 -88 245t-227 91t-247 -63q-108 -64 -170 -164q-130 -211 -130 -412q0 -202 92 -310t221 -108zM428 -29q-178 0 -278 127t-100 312t93 379q94 194 275 278q102 47 242 47t239 -92l66 -117q-16 309 -95 436l-350 -133l-14 39
l340 131q-70 88 -199 119l37 29q135 -39 207 -131l174 67l16 -39l-168 -63q98 -160 99 -541q0 -501 -269 -731q-137 -117 -315 -117z" />
    <glyph glyph-name="ntilde" unicode="&#xf1;" horiz-adv-x="1087" 
d="M672 1106q152 0 232.5 -78t80.5 -217q0 -80 -22 -213l-107 -598h-45l102 580q25 135 25 239.5t-67.5 174t-219 69.5t-279.5 -110.5t-165 -313.5l-111 -639h-45l189 1077h45l-43 -246l65 115q142 160 365 160zM782 1282q-43 0 -112.5 24.5t-101.5 24.5t-38 -41h-41
q4 84 80 84q43 0 112.5 -24.5t101.5 -24.5t38 41h41q-4 -84 -80 -84z" />
    <glyph glyph-name="ograve" unicode="&#xf2;" horiz-adv-x="1128" 
d="M492 14q102 0 192 39q159 69 251 240q91 171 91 358t-110 299t-281 113q-293 0 -450 -290q-83 -156 -84 -345q-1 -190 109 -302t282 -112zM643 1106q205 0 318 -130t113 -325t-91 -365q-103 -196 -281 -272q-100 -43 -219 -43q-205 0 -317 130t-113 322q0 192 96 378
q96 185 275 262q100 43 219 43zM666 1188l-103 225h53l86 -225h-36z" />
    <glyph glyph-name="oacute" unicode="&#xf3;" horiz-adv-x="1128" 
d="M492 14q102 0 192 39q159 69 251 240q91 171 91 358t-110 299t-281 113q-293 0 -450 -290q-83 -156 -84 -345q-1 -190 109 -302t282 -112zM643 1106q205 0 318 -130t113 -325t-91 -365q-103 -196 -281 -272q-100 -43 -219 -43q-205 0 -317 130t-113 322q0 192 96 378
q96 185 275 262q100 43 219 43zM692 1188h-39l164 225h57z" />
    <glyph glyph-name="ocircumflex" unicode="&#xf4;" horiz-adv-x="1128" 
d="M492 14q102 0 192 39q159 69 251 240q91 171 91 358t-110 299t-281 113q-293 0 -450 -290q-83 -156 -84 -345q-1 -190 109 -302t282 -112zM643 1106q205 0 318 -130t113 -325t-91 -365q-103 -196 -281 -272q-100 -43 -219 -43q-205 0 -317 130t-113 322q0 192 96 378
q96 185 275 262q100 43 219 43zM571 1188h-49l174 225h49l93 -225h-47l-74 192z" />
    <glyph glyph-name="otilde" unicode="&#xf5;" horiz-adv-x="1128" 
d="M492 14q102 0 192 39q159 69 251 240q91 171 91 358t-110 299t-281 113q-293 0 -450 -290q-83 -156 -84 -345q-1 -190 109 -302t282 -112zM643 1106q205 0 318 -130t113 -325t-91 -365q-103 -196 -281 -272q-100 -43 -219 -43q-205 0 -317 130t-113 322q0 192 96 378
q96 185 275 262q100 43 219 43zM809 1282q-43 0 -113 24t-101 25q-32 0 -38 -41h-41q4 84 80 84q42 0 112 -24t102 -25q32 0 38 41h41q-4 -84 -80 -84z" />
    <glyph glyph-name="odieresis" unicode="&#xf6;" horiz-adv-x="1128" 
d="M492 14q102 0 192 39q159 69 251 240q91 171 91 358t-110 299t-281 113q-293 0 -450 -290q-83 -156 -84 -345q-1 -190 109 -302t282 -112zM643 1106q205 0 318 -130t113 -325t-91 -365q-103 -196 -281 -272q-100 -43 -219 -43q-205 0 -317 130t-113 322q0 192 96 378
q96 185 275 262q100 43 219 43zM770 1255q-33 0 -33 33q-1 20 15 34t34 15q33 0 33 -32q1 -20 -15 -35t-34 -15zM606 1255q-33 0 -33 33q-1 20 15 34t35 15q33 0 32 -32q1 -20 -15 -35t-34 -15z" />
    <glyph glyph-name="divide" unicode="&#xf7;" 
d="M516 385q45 0 45 -45q0 -25 -19 -43t-44 -18q-45 0 -45 40q0 27 18 47t45 19zM969 629h-819l8 43h819zM629 1020q45 0 45 -41q0 -27 -18 -46t-46 -20q-45 0 -45 45q-1 26 19 44t45 18z" />
    <glyph glyph-name="oslash" unicode="&#xf8;" horiz-adv-x="1249" 
d="M1059 662q0 104 -47 198l-807 -686q106 -160 319 -160q102 0 192 39q157 68 250 239q93 173 93 370zM133 412q0 -108 51 -203l809 686q-109 168 -325 168q-102 0 -192 -39t-152 -103q-191 -204 -191 -509zM1106 670q0 -330 -204 -543q-67 -70 -167 -113t-219 -43
q-236 0 -348 170l-182 -153l-25 30l184 158q-59 113 -59 276t96 349q96 185 275 262q100 43 219 43q242 0 354 -178l201 170l24 -31l-204 -174q55 -106 55 -223z" />
    <glyph glyph-name="ugrave" unicode="&#xf9;" horiz-adv-x="1079" 
d="M408 -29q-152 0 -233 78t-81 217q0 80 23 213l106 598h45l-102 -579q-25 -135 -25 -240q0 -104 68 -174q67 -70 219 -70t280 111t164 313l111 639h45l-188 -1077h-45l43 246l-66 -115q-141 -160 -364 -160zM612 1188l-102 225h53l86 -225h-37z" />
    <glyph glyph-name="uacute" unicode="&#xfa;" horiz-adv-x="1079" 
d="M408 -29q-152 0 -233 78t-81 217q0 80 23 213l106 598h45l-102 -579q-25 -135 -25 -240q0 -104 68 -174q67 -70 219 -70t280 111t164 313l111 639h45l-188 -1077h-45l43 246l-66 -115q-141 -160 -364 -160zM639 1188h-39l164 225h57z" />
    <glyph glyph-name="ucircumflex" unicode="&#xfb;" horiz-adv-x="1079" 
d="M408 -29q-152 0 -233 78t-81 217q0 80 23 213l106 598h45l-102 -579q-25 -135 -25 -240q0 -104 68 -174q67 -70 219 -70t280 111t164 313l111 639h45l-188 -1077h-45l43 246l-66 -115q-141 -160 -364 -160zM518 1188h-49l174 225h49l92 -225h-47l-73 192z" />
    <glyph glyph-name="udieresis" unicode="&#xfc;" horiz-adv-x="1079" 
d="M408 -29q-152 0 -233 78t-81 217q0 80 23 213l106 598h45l-102 -579q-25 -135 -25 -240q0 -104 68 -174q67 -70 219 -70t280 111t164 313l111 639h45l-188 -1077h-45l43 246l-66 -115q-141 -160 -364 -160zM717 1255q-33 0 -33 33q0 20 15 34t34 15q33 0 33 -32
q0 -20 -16 -35t-33 -15zM553 1255q-33 0 -33 33q0 20 16 34t33 15q33 0 33 -32q0 -20 -16 -35t-33 -15z" />
    <glyph glyph-name="yacute" unicode="&#xfd;" horiz-adv-x="966" 
d="M-27 -430q-37 0 -63 8l6 39q27 -6 61 -6q80 0 156 71t186 257l31 51l-235 1087h49l221 -1036l590 1036h53l-618 -1077q-150 -262 -242 -346t-195 -84zM590 1188h-39l164 225h57z" />
    <glyph glyph-name="thorn" unicode="&#xfe;" horiz-adv-x="1122" 
d="M471 14q180 0 309 100q242 189 242 554q0 176 -90 286t-260 109q-170 0 -298 -113t-173 -360l-21 -121q-35 -203 38 -329t253 -126zM688 1106q176 0 278 -121t103 -315q0 -262 -143 -473q-70 -101 -190 -163t-246 -62t-194 32q-67 33 -120 107l-35 135l-116 -647h-45
l339 1906h46l-121 -669l78 118q86 84 170 118t196 34z" />
    <glyph glyph-name="ydieresis" unicode="&#xff;" horiz-adv-x="966" 
d="M-27 -430q-37 0 -63 8l6 39q27 -6 61 -6q80 0 156 71t186 257l31 51l-235 1087h49l221 -1036l590 1036h53l-618 -1077q-150 -262 -242 -346t-195 -84zM668 1255q-33 0 -33 33q0 20 15 34t34 15q33 0 33 -32q1 -20 -15 -35t-34 -15zM504 1255q-33 0 -33 33q0 20 15 34
t34 15q33 0 33 -32q1 -20 -15 -35t-34 -15z" />
    <glyph glyph-name="Amacron" unicode="&#x100;" horiz-adv-x="1269" 
d="M967 594l-162 780l-438 -780h600zM975 551h-633l-309 -551h-56l797 1413h68l297 -1413h-49zM983 1581h-287l9 43h286z" />
    <glyph glyph-name="amacron" unicode="&#x101;" horiz-adv-x="1013" 
d="M360 14q168 0 299 124t160 290l27 150q-340 30 -539 -66t-198 -283q0 -103 67 -159t184 -56zM628 1106q154 0 228 -71t74 -189q0 -57 -19 -158l-61 -340q-27 -160 -43 -348h-47l33 262l-64 -104q-152 -186 -383 -187q-125 0 -205 66t-80 190q0 156 117 252t289 126
t387 16l10 63q18 102 19 147q0 231 -252 232q-129 0 -237 -70t-150 -211h-45q35 139 155 232q120 92 274 92zM827 1270h-286l8 43h287z" />
    <glyph glyph-name="Abreve" unicode="&#x102;" horiz-adv-x="1269" 
d="M967 594l-162 780l-438 -780h600zM975 551h-633l-309 -551h-56l797 1413h68l297 -1413h-49zM819 1479q-78 0 -118 55t-23 166h37q-9 -102 21 -140t91 -38q141 0 185 178h37q-50 -221 -230 -221z" />
    <glyph glyph-name="abreve" unicode="&#x103;" horiz-adv-x="1013" 
d="M360 14q168 0 299 124t160 290l27 150q-340 30 -539 -66t-198 -283q0 -103 67 -159t184 -56zM628 1106q154 0 228 -71t74 -189q0 -57 -19 -158l-61 -340q-27 -160 -43 -348h-47l33 262l-64 -104q-152 -186 -383 -187q-125 0 -205 66t-80 190q0 156 117 252t289 126
t387 16l10 63q18 102 19 147q0 231 -252 232q-129 0 -237 -70t-150 -211h-45q35 139 155 232q120 92 274 92zM666 1167q-176 0 -142 246h37q-13 -109 15 -156t98 -47q139 0 184 203h37q-25 -115 -83 -181t-146 -65z" />
    <glyph glyph-name="Aogonek" unicode="&#x104;" horiz-adv-x="1269" 
d="M967 594l-162 780l-438 -780h600zM825 -332q0 -84 80 -84q68 0 144 64l-9 -47q-66 -57 -151 -58q-47 0 -79 29t-32 90q0 207 307 352l-110 537h-633l-309 -551h-56l797 1413h68l297 -1413h-9q-305 -152 -305 -332z" />
    <glyph glyph-name="aogonek" unicode="&#x105;" horiz-adv-x="1013" 
d="M360 14q168 0 299 124t160 290l27 150q-340 30 -539 -66t-198 -283q0 -103 67 -159t184 -56zM628 1106q154 0 228 -71t74 -189q0 -57 -19 -158l-61 -340q-27 -160 -43 -348h-2q-305 -152 -305 -332q0 -84 80 -84q68 0 143 64l-8 -47q-66 -57 -152 -58q-47 0 -79 29
t-31 90q0 98 77 190q78 91 232 162l31 248l-64 -104q-152 -186 -383 -187q-125 0 -205 66t-80 190q0 156 117 252t289 126t387 16l10 63q18 102 19 147q0 231 -252 232q-129 0 -237 -70t-150 -211h-45q35 139 155 232q120 92 274 92z" />
    <glyph glyph-name="Cacute" unicode="&#x106;" horiz-adv-x="1423" 
d="M915 1442q225 0 348 -126t123 -325v-20h-45v20q0 193 -115.5 300.5t-326.5 107.5q-129 0 -254 -56.5t-228.5 -160t-167 -267t-63.5 -362.5q0 -262 129 -400.5t339 -138.5t359.5 119t227.5 311l8 21h45l-8 -21q-86 -213 -248 -343q-160 -130 -394 -130t-370.5 155
t-136.5 425q0 399 228 645t550 246zM930 1507h-39l141 193h58z" />
    <glyph glyph-name="cacute" unicode="&#x107;" horiz-adv-x="1058" 
d="M644 1106q179 0 276.5 -99.5t93.5 -263.5h-45q0 150 -84 236t-244 86q-240 0 -391.5 -189.5t-151.5 -443.5q0 -207 98.5 -313.5t249 -106.5t268 81t183.5 229h45q-68 -170 -201 -260.5t-305 -90.5t-277.5 122t-105.5 314.5t66.5 344t206 253t318.5 101.5zM672 1188h-39
l164 225h57z" />
    <glyph glyph-name="Cdotaccent" unicode="&#x10a;" horiz-adv-x="1423" 
d="M915 1442q225 0 348 -126t123 -325v-20h-45v20q0 193 -115.5 300.5t-326.5 107.5q-129 0 -254 -56.5t-228.5 -160t-167 -267t-63.5 -362.5q0 -262 129 -400.5t339 -138.5t359.5 119t227.5 311l8 21h45l-8 -21q-86 -213 -248 -343q-160 -130 -394 -130t-370.5 155
t-136.5 425q0 399 228 645t550 246zM940 1645q33 0 33 -33q0 -20 -15.5 -34.5t-33.5 -14.5q-33 0 -33 32q0 20 15.5 35t33.5 15z" />
    <glyph glyph-name="cdotaccent" unicode="&#x10b;" horiz-adv-x="1058" 
d="M644 1106q179 0 276.5 -99.5t93.5 -263.5h-45q0 150 -84 236t-244 86q-240 0 -391.5 -189.5t-151.5 -443.5q0 -207 98.5 -313.5t249 -106.5t268 81t183.5 229h45q-68 -170 -201 -260.5t-305 -90.5t-277.5 122t-105.5 314.5t66.5 344t206 253t318.5 101.5zM680 1337
q16 0 26.5 -10t10.5 -27t-14.5 -31t-30.5 -14t-26.5 10.5t-10.5 27.5t14.5 30.5t30.5 13.5z" />
    <glyph glyph-name="Ccaron" unicode="&#x10c;" horiz-adv-x="1423" 
d="M915 1442q225 0 348 -126t123 -325v-20h-45v20q0 193 -115.5 300.5t-326.5 107.5q-129 0 -254 -56.5t-228.5 -160t-167 -267t-63.5 -362.5q0 -262 129 -400.5t339 -138.5t359.5 119t227.5 311l8 21h45l-8 -21q-86 -213 -248 -343q-160 -130 -394 -130t-370.5 155
t-136.5 425q0 399 228 645t550 246zM893 1507l-100 193h49l80 -162l135 162h53l-166 -193h-51z" />
    <glyph glyph-name="ccaron" unicode="&#x10d;" horiz-adv-x="1058" 
d="M644 1106q179 0 276.5 -99.5t93.5 -263.5h-45q0 150 -84 236t-244 86q-240 0 -391.5 -189.5t-151.5 -443.5q0 -207 98.5 -313.5t249 -106.5t268 81t183.5 229h45q-68 -170 -201 -260.5t-305 -90.5t-277.5 122t-105.5 314.5t66.5 344t206 253t318.5 101.5zM635 1188
l-92 225h47l74 -192l145 192h49l-174 -225h-49z" />
    <glyph glyph-name="Dcaron" unicode="&#x10e;" horiz-adv-x="1372" 
d="M686 1370h-340l-235 -1327h321q84 0 176 8q299 29 479 256q181 227 181 499t-119 406q-119 135 -315 154q-45 4 -148 4zM1315 831q0 -319 -202 -560t-515 -265q-74 -6 -182 -6h-359l250 1413h387q99 0 148 -4q205 -15 339 -159t134 -419zM805 1507l-100 193h49l80 -162
l135 162h53l-166 -193h-51z" />
    <glyph glyph-name="dcaron" unicode="&#x10f;" horiz-adv-x="1120" 
d="M627 1063q-160 0 -283 -96q-123 -95 -184 -243q-62 -148 -62 -319t90 -281t260 -110t298 112t174 361l20 121q37 203 -40 329t-273 126zM1335 1503v-6l-118 -215h-37l100 221h55zM432 -29q-176 0 -278 121q-102 120 -102 306t66 342q67 156 201 261q135 104 314 105
q119 0 189 -36t122 -122l35 -121l121 678h45l-266 -1505h-45l43 244l-78 -121q-88 -86 -167 -119t-200 -33z" />
    <glyph glyph-name="Dcroat" unicode="&#x110;" horiz-adv-x="1372" 
d="M686 1370h-340l-119 -665h391l-8 -43h-391l-108 -619h321q84 0 176 8q299 29 479 256q181 227 181 499t-119 406q-119 135 -315 154q-45 4 -148 4zM1315 831q0 -319 -202 -560t-515 -265q-74 -6 -182 -6h-359l117 662h-121l8 43h121l125 708h387q99 0 148 -4
q205 -15 339 -159t134 -419z" />
    <glyph glyph-name="dcroat" unicode="&#x111;" horiz-adv-x="1132" 
d="M627 1063q-160 0 -283 -96q-123 -95 -184 -243q-62 -148 -62 -319t90 -281t260 -110t298 112t174 361l20 121q37 203 -40 329t-273 126zM432 -29q-176 0 -278 121q-102 120 -102 306t66 342q67 156 201 261q135 104 314 105q119 0 189 -36t122 -122l35 -121l76 428h-230
l6 43h232l37 207h45l-37 -207h94l-6 -43h-96l-221 -1255h-45l43 244l-78 -121q-88 -86 -167 -119t-200 -33z" />
    <glyph glyph-name="Emacron" unicode="&#x112;" horiz-adv-x="1099" 
d="M344 1372l-113 -645h773l-9 -41h-772l-112 -645h833l-8 -41h-879l250 1413h858l-8 -41h-813zM877 1581h-287l8 43h287z" />
    <glyph glyph-name="emacron" unicode="&#x113;" horiz-adv-x="1071" 
d="M633 1063q-143 0 -256 -78q-199 -137 -262 -414h829q10 57 10 125q0 195 -89 281t-232 86zM96 420q0 -207 98.5 -306.5t238.5 -99.5t260 79t194 237h45q-164 -358 -506 -359q-168 0 -272.5 115t-104.5 340q1 226 149 444q70 104 186 170t253 66q188 0 276 -114.5
t88 -295.5q0 -94 -20 -168h-875q-10 -66 -10 -108zM799 1270h-287l8 43h287z" />
    <glyph glyph-name="Edotaccent" unicode="&#x116;" horiz-adv-x="1099" 
d="M344 1372l-113 -645h773l-9 -41h-772l-112 -645h833l-8 -41h-879l250 1413h858l-8 -41h-813zM729 1563q-33 0 -33 32q0 20 15.5 35t33.5 15q33 0 33 -33q0 -20 -15.5 -34.5t-33.5 -14.5z" />
    <glyph glyph-name="edotaccent" unicode="&#x117;" horiz-adv-x="1071" 
d="M633 1063q-143 0 -256 -78q-199 -137 -262 -414h829q10 57 10 125q0 195 -89 281t-232 86zM96 420q0 -207 98.5 -306.5t238.5 -99.5t260 79t194 237h45q-164 -358 -506 -359q-168 0 -272.5 115t-104.5 340q1 226 149 444q70 104 186 170t253 66q188 0 276 -114.5
t88 -295.5q0 -94 -20 -168h-875q-10 -66 -10 -108zM664 1337q36 0 36 -37q0 -17 -14.5 -31t-30.5 -14t-26.5 10.5t-10.5 27.5t15 30.5t31 13.5z" />
    <glyph glyph-name="Eogonek" unicode="&#x118;" horiz-adv-x="1099" 
d="M631 -332q0 -84 80 -84q68 0 143 64l-8 -47q-66 -57 -152 -58q-47 0 -78.5 29t-31.5 90q0 197 278 338h-805l250 1413h858l-8 -41h-813l-113 -645h773l-9 -41h-772l-112 -645h833l-8 -41q-305 -152 -305 -332z" />
    <glyph glyph-name="eogonek" unicode="&#x119;" horiz-adv-x="1071" 
d="M633 1063q-143 0 -256 -78q-199 -137 -262 -414h829q10 57 10 125q0 195 -89 281t-232 86zM96 420q0 -207 98.5 -306.5t238.5 -99.5t260 79t194 237h45q-119 -256 -334 -332q-303 -150 -303 -330q0 -84 80 -84q68 0 143 64l-8 -47q-66 -57 -152 -58q-47 0 -78.5 29
t-31.5 90q0 176 229 311q-16 -2 -51 -2q-168 0 -272.5 115t-104.5 340q1 226 149 444q70 104 186 170t253 66q188 0 276 -114.5t88 -295.5q0 -94 -20 -168h-875q-10 -66 -10 -108z" />
    <glyph glyph-name="Ecaron" unicode="&#x11a;" horiz-adv-x="1099" 
d="M344 1372l-113 -645h773l-9 -41h-772l-112 -645h833l-8 -41h-879l250 1413h858l-8 -41h-813zM698 1507l-100 193h49l80 -162l135 162h53l-165 -193h-52z" />
    <glyph glyph-name="ecaron" unicode="&#x11b;" horiz-adv-x="1071" 
d="M633 1063q-143 0 -256 -78q-199 -137 -262 -414h829q10 57 10 125q0 195 -89 281t-232 86zM96 420q0 -207 98.5 -306.5t238.5 -99.5t260 79t194 237h45q-164 -358 -506 -359q-168 0 -272.5 115t-104.5 340q1 226 149 444q70 104 186 170t253 66q188 0 276 -114.5
t88 -295.5q0 -94 -20 -168h-875q-10 -66 -10 -108zM618 1188l-92 225h47l74 -192l146 192h49l-174 -225h-50z" />
    <glyph glyph-name="Gbreve" unicode="&#x11e;" horiz-adv-x="1488" 
d="M944 1442q223 0 339 -125t116 -326v-20h-45v20q0 193 -109.5 300.5t-316.5 107.5q-135 0 -265.5 -56.5t-238 -160t-174 -268t-66.5 -361.5q0 -262 131 -400.5t325 -138.5t377 122q93 62 164.5 180t100.5 272h-477l6 41h522l-110 -629h-45l67 377l-65 -133
q-211 -272 -537 -273q-233 0 -370.5 155t-137.5 425q0 383 239.5 637t569.5 254zM934 1479q-78 0 -118 55t-23 166h36q-10 -102 21 -140t92 -38q141 0 184 178h37q-49 -221 -229 -221z" />
    <glyph glyph-name="gbreve" unicode="&#x11f;" horiz-adv-x="1118" 
d="M642 1063q-175 0 -298 -96q-123 -95 -184 -243q-62 -148 -62 -319t90 -281t255 -110t290 102t176 324l35 193q29 195 -49 313t-253 117zM354 -451q-158 0 -256 81t-98 243v31h45v-31q0 -281 322 -281q188 0 306 100t154 285q20 104 41 228l6 35l-75 -117
q-88 -86 -167 -119t-200 -33q-176 0 -278 121q-102 120 -102 306t66 342q67 156 201 261q135 104 314 105q119 0 189 -36t122 -122l35 -119l45 256h45l-141 -798q-43 -250 -58 -324q-41 -190 -172 -302t-344 -112zM678 1167q-176 0 -141 246h36q-14 -109 15 -156t98 -47
q139 0 184 203h37q-25 -115 -83 -181t-146 -65z" />
    <glyph glyph-name="Gdotaccent" unicode="&#x120;" horiz-adv-x="1488" 
d="M944 1442q223 0 339 -125t116 -326v-20h-45v20q0 193 -109.5 300.5t-316.5 107.5q-135 0 -265.5 -56.5t-238 -160t-174 -268t-66.5 -361.5q0 -262 131 -400.5t325 -138.5t377 122q93 62 164.5 180t100.5 272h-477l6 41h522l-110 -629h-45l67 377l-65 -133
q-211 -272 -537 -273q-233 0 -370.5 155t-137.5 425q0 383 239.5 637t569.5 254zM950 1563q-33 0 -32 32q0 20 15 35t34 15q33 0 32 -33q0 -20 -15.5 -34.5t-33.5 -14.5z" />
    <glyph glyph-name="gdotaccent" unicode="&#x121;" horiz-adv-x="1118" 
d="M642 1063q-175 0 -298 -96q-123 -95 -184 -243q-62 -148 -62 -319t90 -281t255 -110t290 102t176 324l35 193q29 195 -49 313t-253 117zM354 -451q-158 0 -256 81t-98 243v31h45v-31q0 -281 322 -281q188 0 306 100t154 285q20 104 41 228l6 35l-75 -117
q-88 -86 -167 -119t-200 -33q-176 0 -278 121q-102 120 -102 306t66 342q67 156 201 261q135 104 314 105q119 0 189 -36t122 -122l35 -119l45 256h45l-141 -798q-43 -250 -58 -324q-41 -190 -172 -302t-344 -112zM704 1337q36 0 37 -37q-1 -17 -15 -31t-30 -14
q-16 1 -26 11t-10 27t14 31t30 13z" />
    <glyph glyph-name="Gcommaaccent" unicode="&#x122;" horiz-adv-x="1488" 
d="M580 -104v-7l-119 -215h-37l100 222h56zM944 1442q223 0 339 -125t116 -326v-20h-45v20q0 193 -109.5 300.5t-316.5 107.5q-135 0 -265.5 -56.5t-238 -160t-174 -268t-66.5 -361.5q0 -262 131 -400.5t325 -138.5t377 122q93 62 164.5 180t100.5 272h-477l6 41h522
l-110 -629h-45l67 377l-65 -133q-211 -272 -537 -273q-233 0 -370.5 155t-137.5 425q0 383 239.5 637t569.5 254z" />
    <glyph glyph-name="gcommaaccent" unicode="&#x123;" horiz-adv-x="1118" 
d="M642 1063q-175 0 -298 -96q-123 -95 -184 -243q-62 -148 -62 -319t90 -281t255 -110t290 102t176 324l35 193q29 195 -49 313t-253 117zM354 -451q-158 0 -256 81t-98 243v31h45v-31q0 -281 322 -281q188 0 306 100t154 285q20 104 41 228l6 35l-75 -117
q-88 -86 -167 -119t-200 -33q-176 0 -278 121q-102 120 -102 306t66 342q67 156 201 261q135 104 314 105q119 0 189 -36t122 -122l35 -119l45 256h45l-141 -798q-43 -250 -58 -324q-41 -190 -172 -302t-344 -112zM653 1190v6l119 215h37l-100 -221h-56z" />
    <glyph glyph-name="Hbar" unicode="&#x126;" horiz-adv-x="1263" 
d="M1200 1065h-909l-62 -350h910zM1325 1065h-80l-188 -1065h-45l118 672h-909l-119 -672h-45l189 1065h-82l8 43h82l53 305h45l-53 -305h909l54 305h45l-54 -305h80z" />
    <glyph glyph-name="hbar" unicode="&#x127;" horiz-adv-x="1118" 
d="M702 1106q152 0 233 -78t81 -217q0 -80 -23 -213l-106 -598h-45l102 580q25 136 25 240t-68 174q-67 70 -219 69q-152 0 -280 -111t-164 -313l-111 -639h-45l221 1255h-113l9 43h110l39 218h45l-39 -218h215l-8 -43h-215l-74 -424l66 115q141 160 364 160z" />
    <glyph glyph-name="Imacron" unicode="&#x12a;" horiz-adv-x="311" 
d="M102 0h-45l250 1413h45zM502 1581h-287l8 43h287z" />
    <glyph glyph-name="imacron" unicode="&#x12b;" horiz-adv-x="333" 
d="M94 0h-45l191 1077h45zM440 1270h-286l8 43h287z" />
    <glyph glyph-name="Iogonek" unicode="&#x12e;" horiz-adv-x="311" 
d="M-203 -332q0 -84 80 -84q68 0 143 64l-8 -47q-66 -57 -151 -58q-47 0 -79 29t-32 90q0 207 309 354l248 1397h45l-250 -1413q-305 -152 -305 -332z" />
    <glyph glyph-name="iogonek" unicode="&#x12f;" horiz-adv-x="333" 
d="M-211 -332q0 -84 80 -84q68 0 143 64l-8 -47q-66 -57 -151 -58q-47 0 -79 29t-32 90q0 207 309 354l189 1061h45l-191 -1077q-305 -152 -305 -332zM305 1337q17 0 27 -10t10 -27q0 -16 -14 -30q-31 -30 -58 -4q-10 10 -10 27t14 31q15 13 31 13z" />
    <glyph glyph-name="Idotaccent" unicode="&#x130;" horiz-adv-x="311" 
d="M102 0h-45l250 1413h45zM371 1645q33 0 32 -33q0 -20 -15 -34t-34 -15q-33 0 -32 32q0 20 15 35q16 15 34 15z" />
    <glyph glyph-name="dotlessi" unicode="&#x131;" horiz-adv-x="333" 
d="M94 0h-45l191 1077h45z" />
    <glyph glyph-name="IJ" unicode="&#x132;" horiz-adv-x="1253" 
d="M688 14q287 0 375 338q4 14 33 164l157 897h45l-155 -881q-18 -111 -37 -186q-39 -162 -143 -268q-105 -106 -283 -106t-273 109q-95 110 -67 316l8 62h45l-8 -62q-29 -199 58 -291t245 -92zM102 0h-45l250 1413h45z" />
    <glyph glyph-name="ij" unicode="&#x133;" horiz-adv-x="643" 
d="M203 -430q-37 0 -72 8l8 39q90 -16 142 13q51 30 73 118q10 35 19 80l219 1249h45l-215 -1227q-12 -63 -25 -106q-45 -174 -194 -174zM94 0h-45l191 1077h45zM649 1337q17 0 27 -10t10 -27q0 -16 -14 -30q-31 -30 -58 -4q-10 10 -10 27t14 31q15 13 31 13zM305 1337
q17 0 27 -10t10 -27q0 -16 -14 -30q-31 -30 -58 -4q-10 10 -10 27t14 31q15 13 31 13z" />
    <glyph glyph-name="Kcommaaccent" unicode="&#x136;" horiz-adv-x="1089" 
d="M479 -104v-7l-119 -215h-36l100 222h55zM352 707l604 -707h-63l-580 682l-104 -84l-107 -598h-45l250 1413h45l-135 -760l936 760h66z" />
    <glyph glyph-name="kcommaaccent" unicode="&#x137;" horiz-adv-x="970" 
d="M385 -104v-7l-119 -215h-37l101 222h55zM324 565l491 -565h-59l-469 539l-111 -88l-80 -451h-45l266 1505h45l-176 -997l713 569h72z" />
    <glyph glyph-name="Lacute" unicode="&#x139;" horiz-adv-x="1060" 
d="M944 41l-8 -41h-879l250 1413h45l-241 -1372h833zM365 1507h-39l141 193h57z" />
    <glyph glyph-name="lacute" unicode="&#x13a;" horiz-adv-x="358" 
d="M145 -10q-84 0 -84 80q0 27 27 176l221 1259h45l-221 -1259q-25 -133 -24.5 -166t23 -44t81.5 -3l-8 -39q-20 -4 -60 -4zM365 1608h-39l163 225h58z" />
    <glyph glyph-name="Lcommaaccent" unicode="&#x13b;" horiz-adv-x="1060" 
d="M465 -104v-7l-119 -215h-37l101 222h55zM944 41l-8 -41h-879l250 1413h45l-241 -1372h833z" />
    <glyph glyph-name="lcommaaccent" unicode="&#x13c;" horiz-adv-x="358" 
d="M145 -104v-7l-118 -215h-37l100 222h55zM145 -10q-84 0 -84 80q0 27 27 176l221 1259h45l-221 -1259q-25 -133 -24.5 -166t23 -44t81.5 -3l-8 -39q-20 -4 -60 -4z" />
    <glyph glyph-name="Lcaron" unicode="&#x13d;" horiz-adv-x="1060" 
d="M944 41l-8 -41h-879l250 1413h45l-241 -1372h833z" />
    <glyph glyph-name="lcaron" unicode="&#x13e;" horiz-adv-x="358" 
d="M145 -10q-84 0 -84 80q0 27 27 176l221 1259h45l-221 -1259q-25 -133 -24.5 -166t23 -44t81.5 -3l-8 -39q-20 -4 -60 -4z" />
    <glyph glyph-name="Ldot" unicode="&#x13f;" horiz-adv-x="1060" 
d="M623 778q-16 0 -26.5 10.5t-10.5 27.5t14 30.5t30.5 13.5t27 -10t10.5 -27.5t-14.5 -31t-30.5 -13.5zM944 41l-8 -41h-879l250 1413h45l-241 -1372h833z" />
    <glyph glyph-name="ldot" unicode="&#x140;" horiz-adv-x="391" 
d="M364 778q-36 0 -36 38q0 17 14.5 30.5t30.5 13.5t26.5 -10t10.5 -27.5t-15 -31t-31 -13.5zM145 -10q-84 0 -84 80q0 27 27 176l221 1259h45l-221 -1259q-25 -133 -24.5 -166t23 -44t81.5 -3l-8 -39q-20 -4 -60 -4z" />
    <glyph glyph-name="Lslash" unicode="&#x141;" horiz-adv-x="1222" 
d="M1106 41l-8 -41h-879l119 672l-318 -170l11 49l315 170l123 692h45l-117 -665l357 192l-9 -49l-358 -193l-115 -657h834z" />
    <glyph glyph-name="lslash" unicode="&#x142;" horiz-adv-x="423" 
d="M190 -10q-84 0 -84 80q0 27 27 176l66 375l-140 -89l11 54l139 88l145 831h45l-139 -798l123 79l-8 -53l-125 -80l-72 -407q-25 -133 -24.5 -166t23 -44t81.5 -3l-8 -39q-20 -4 -60 -4z" />
    <glyph glyph-name="Nacute" unicode="&#x143;" horiz-adv-x="1228" 
d="M1270 1413l-250 -1413h-70l-606 1376l-242 -1376h-45l250 1413h68l606 -1372l244 1372h45zM819 1507h-39l142 193h57z" />
    <glyph glyph-name="nacute" unicode="&#x144;" horiz-adv-x="1087" 
d="M672 1106q152 0 232.5 -78t80.5 -217q0 -80 -22 -213l-107 -598h-45l102 580q25 136 25 240t-68 174q-66 70 -218 69.5t-280 -111t-165 -313.5l-111 -639h-45l189 1077h45l-43 -246l65 115q142 160 365 160zM666 1188h-39l164 225h57z" />
    <glyph glyph-name="Ncommaaccent" unicode="&#x145;" horiz-adv-x="1228" 
d="M549 -104v-7l-119 -215h-37l101 222h55zM1270 1413l-250 -1413h-70l-606 1376l-242 -1376h-45l250 1413h68l606 -1372l244 1372h45z" />
    <glyph glyph-name="ncommaaccent" unicode="&#x146;" horiz-adv-x="1087" 
d="M453 -104v-7l-119 -215h-37l100 222h56zM672 1106q152 0 232.5 -78t80.5 -217q0 -80 -22 -213l-107 -598h-45l102 580q25 135 25 239.5t-67.5 174t-219 69.5t-279.5 -110.5t-165 -313.5l-111 -639h-45l189 1077h45l-43 -246l65 115q142 160 365 160z" />
    <glyph glyph-name="Ncaron" unicode="&#x147;" horiz-adv-x="1228" 
d="M1270 1413l-250 -1413h-70l-606 1376l-242 -1376h-45l250 1413h68l606 -1372l244 1372h45zM782 1507l-100 193h49l80 -162l135 162h53l-165 -193h-52z" />
    <glyph glyph-name="ncaron" unicode="&#x148;" horiz-adv-x="1087" 
d="M672 1106q152 0 232.5 -78t80.5 -217q0 -80 -22 -213l-107 -598h-45l102 580q25 136 25 240t-68 174q-66 70 -218 69.5t-280 -111t-165 -313.5l-111 -639h-45l189 1077h45l-43 -246l65 115q142 160 365 160zM629 1188l-92 225h47l73 -192l146 192h49l-174 -225h-49z" />
    <glyph glyph-name="Eng" unicode="&#x14a;" horiz-adv-x="1228" 
d="M1270 1413l-273 -1550q-31 -172 -97 -243t-241 -77l7 43q124 0 190 54t90 190l23 131l-623 1411l-242 -1372h-45l248 1413h68l608 -1372l242 1372h45z" />
    <glyph glyph-name="eng" unicode="&#x14b;" horiz-adv-x="1087" 
d="M672 1106q152 0 232 -78t81 -217q0 -80 -22 -213l-113 -635q-6 -33 -16 -84q-31 -121 -108 -176t-214 -59l6 43q123 0 190 53t91 190l114 650q25 136 25 240t-68 174t-219 69q-151 0 -279 -111t-165 -313l-111 -639h-45l189 1077h45l-43 -246l65 115q142 160 365 160z
" />
    <glyph glyph-name="Omacron" unicode="&#x14c;" horiz-adv-x="1521" 
d="M186 588q0 -262 146 -418t364 -156q217 0 385 122t251 305t83 384q0 262 -146 418q-145 156 -363 156t-386 -122t-251 -305t-83 -384zM909 1442q244 0 399 -168t154 -449q0 -155 -52 -305q-114 -329 -391 -472q-148 -77 -327 -77q-244 0 -398 168t-155 449q0 154 52 304
q114 329 392 473q148 77 326 77zM1087 1581h-286l8 43h287z" />
    <glyph glyph-name="omacron" unicode="&#x14d;" horiz-adv-x="1128" 
d="M492 14q102 0 192 39q159 69 251 240q91 171 91 358t-110 299t-281 113q-293 0 -450 -290q-83 -156 -84 -345q-1 -190 109 -302t282 -112zM643 1106q205 0 318 -130t113 -325t-91 -365q-103 -196 -281 -272q-100 -43 -219 -43q-205 0 -317 130t-113 322q0 192 96 378
q96 185 275 262q100 43 219 43zM836 1270h-287l8 43h287z" />
    <glyph glyph-name="Ohungarumlaut" unicode="&#x150;" horiz-adv-x="1521" 
d="M186 588q0 -262 146 -418t364 -156q217 0 385 122t251 305t83 384q0 262 -146 418q-145 156 -363 156t-386 -122t-251 -305t-83 -384zM909 1442q244 0 399 -168t154 -449q0 -155 -52 -305q-114 -329 -391 -472q-148 -77 -327 -77q-244 0 -398 168t-155 449q0 154 52 304
q114 329 392 473q148 77 326 77zM999 1507l142 193h57l-160 -193h-39zM860 1507h-39l142 193h57z" />
    <glyph glyph-name="ohungarumlaut" unicode="&#x151;" horiz-adv-x="1128" 
d="M492 14q102 0 192 39q159 69 251 240q91 171 91 358t-110 299t-281 113q-293 0 -450 -290q-83 -156 -84 -345q-1 -190 109 -302t282 -112zM643 1106q205 0 318 -130t113 -325t-91 -365q-103 -196 -281 -272q-100 -43 -219 -43q-205 0 -317 130t-113 322q0 192 96 378
q96 185 275 262q100 43 219 43zM752 1188l163 225h58l-182 -225h-39zM586 1188h-39l164 225h57z" />
    <glyph glyph-name="OE" unicode="&#x152;" horiz-adv-x="2299" 
d="M670 14q264 0 458 174t254 519q14 102 17 200q4 195 -112 344q-113 148 -396 148q-152 0 -295 -76q-256 -136 -364 -459q-46 -141 -46 -282q0 -266 136 -417t348 -151zM933 1442q169 0 281 -65t183 -218l35 -170l75 424h858l-8 -41h-813l-112 -645h772l-9 -41h-772
l-112 -645h833l-8 -41h-879l72 406l-90 -158q-217 -276 -575 -277q-246 0 -385 166t-140 443q0 117 29 235q62 257 242 433q90 88 222 140q132 54 301 54z" />
    <glyph glyph-name="oe" unicode="&#x153;" horiz-adv-x="2048" 
d="M1584 1071q-156 0 -303 -130q-148 -130 -196 -370h834q12 68 12 123q0 195 -95 286q-96 91 -252 91zM673 1071q-144 0 -256 -58q-113 -57 -179 -151q-136 -192 -136 -403t110 -328t269 -117q197 0 351 136t198 391q55 301 -120 451q-93 80 -237 79zM1067 399
q0 -195 97 -289q98 -94 238 -96q140 0 264 80t198 236h45q-84 -182 -219 -270q-136 -88 -290 -89q-154 1 -262 101t-120 282q-76 -182 -218 -282t-332 -100t-302 129q-112 130 -111 354q0 224 146 429q73 101 195 166q122 64 290 64t281 -102t123 -283q74 181 214 283
t315 102t267 -119t92 -299q0 -72 -20 -168h-881q-10 -59 -10 -129z" />
    <glyph glyph-name="Racute" unicode="&#x154;" horiz-adv-x="1128" 
d="M1087 1110q0 217 -251 250q-82 10 -195 10h-297l-113 -635h332q86 0 154 4q166 12 268 115.5t102 255.5zM1139 1118q0 -158 -99.5 -269.5t-263.5 -137.5q147 -47 152.5 -319t36.5 -392h-50q-25 139 -31.5 409.5t-199.5 280.5q-45 2 -129 2h-330l-123 -692h-45l250 1413
h342q121 0 203 -10q139 -16 213 -91t74 -194zM711 1507h-39l141 193h57z" />
    <glyph glyph-name="racute" unicode="&#x155;" horiz-adv-x="542" 
d="M575 1106q33 0 48 -2l-9 -41q-123 8 -228 -69q-60 -44 -113 -150t-74 -254l-103 -590h-45l191 1085h45l-41 -233l61 117q116 137 268 137zM391 1188h-39l164 225h57z" />
    <glyph glyph-name="Rcommaaccent" unicode="&#x156;" horiz-adv-x="1128" 
d="M420 -104v-7l-119 -215h-37l101 222h55zM1087 1110q0 217 -251 250q-82 10 -195 10h-297l-113 -635h332q86 0 154 4q166 12 268 115.5t102 255.5zM1139 1118q0 -158 -99.5 -269.5t-263.5 -137.5q147 -47 152.5 -319t36.5 -392h-50q-25 139 -31.5 409.5t-199.5 280.5
q-45 2 -129 2h-330l-123 -692h-45l250 1413h342q121 0 203 -10q139 -16 213 -91t74 -194z" />
    <glyph glyph-name="rcommaaccent" unicode="&#x157;" horiz-adv-x="542" 
d="M84 -104v-7l-119 -215h-37l101 222h55zM575 1106q33 0 48 -2l-9 -41q-123 8 -228 -69q-60 -44 -113 -150t-74 -254l-103 -590h-45l191 1085h45l-41 -233l61 117q116 137 268 137z" />
    <glyph glyph-name="Rcaron" unicode="&#x158;" horiz-adv-x="1128" 
d="M1087 1110q0 217 -251 250q-82 10 -195 10h-297l-113 -635h332q86 0 154 4q166 12 268 115.5t102 255.5zM1139 1118q0 -158 -99.5 -269.5t-263.5 -137.5q147 -47 152.5 -319t36.5 -392h-50q-25 139 -31.5 409.5t-199.5 280.5q-45 2 -129 2h-330l-123 -692h-45l250 1413
h342q121 0 203 -10q139 -16 213 -91t74 -194zM674 1507l-101 193h50l79 -162l136 162h53l-166 -193h-51z" />
    <glyph glyph-name="rcaron" unicode="&#x159;" horiz-adv-x="542" 
d="M575 1106q33 0 48 -2l-9 -41q-123 8 -228 -69q-60 -44 -113 -150t-74 -254l-103 -590h-45l191 1085h45l-41 -233l61 117q116 137 268 137zM354 1188l-92 225h47l74 -192l145 192h50l-175 -225h-49z" />
    <glyph glyph-name="Sacute" unicode="&#x15a;" horiz-adv-x="1114" 
d="M695.5 1442q203.5 0 304 -111.5t92.5 -277.5h-45q0 160 -97.5 253t-260.5 93t-290 -94.5t-127 -268.5q0 -113 81 -175t273 -119.5t281.5 -144.5t89.5 -230q0 -174 -144 -285t-358.5 -111t-343 102.5t-114.5 295.5h45q-10 -170 103.5 -262.5t308.5 -92.5t323.5 96.5
t128.5 238.5t-82 218t-274.5 133t-280.5 130t-88 196q0 186 135.5 301t339 115zM731 1507h-39l142 193h57z" />
    <glyph glyph-name="sacute" unicode="&#x15b;" horiz-adv-x="933" 
d="M78 307q12 -293 336 -293q154 0 241.5 71t87.5 177t-68.5 162.5t-236.5 101.5q-270 72 -270 275q0 127 101 216t258 89t246 -83t97 -239h-45q-25 279 -303 279q-139 0 -223 -79t-84 -177t64.5 -153.5t209 -94.5t223.5 -104.5t79 -196.5t-109 -209t-274.5 -78t-269 81
t-105.5 255h45zM586 1188h-39l164 225h57z" />
    <glyph glyph-name="Scedilla" unicode="&#x15e;" horiz-adv-x="1114" 
d="M695.5 1442q203.5 0 304 -111.5t92.5 -277.5h-45q0 160 -97.5 253t-260.5 93t-290 -94.5t-127 -268.5q0 -113 81 -175t273 -119.5t281.5 -144.5t89.5 -242.5t-136 -265t-355 -118.5l-53 -75q154 -14 153 -144q0 -88 -65.5 -135t-148 -47t-128.5 14l8 43q43 -14 117 -14
t122 37t48 100q0 117 -180 109l82 112q-193 4 -315.5 106.5t-108.5 291.5h45q-10 -170 103.5 -262.5t308.5 -92.5t323.5 96.5t128.5 238.5t-82 218t-274.5 133t-280.5 130t-88 196q0 186 135.5 301t339 115z" />
    <glyph glyph-name="scedilla" unicode="&#x15f;" horiz-adv-x="933" 
d="M78 307q12 -293 336 -293q154 0 241.5 71t87.5 177t-68.5 162.5t-236.5 101.5q-270 72 -270 275q0 127 101.5 216t258 89t245.5 -83t97 -239h-45q-24 279 -303 279q-139 0 -223 -79t-84 -177t64.5 -153.5t209 -94.5t223.5 -104.5t79 -196.5t-109 -209t-270 -78h-19
l-53 -75q154 -14 154 -144q0 -88 -66 -135t-148.5 -47t-127.5 14l8 43q43 -14 116.5 -14t121.5 37t48 100q0 117 -180 109l84 114q-315 33 -317 334h45z" />
    <glyph glyph-name="Scaron" unicode="&#x160;" horiz-adv-x="1114" 
d="M695.5 1442q203.5 0 304 -111.5t92.5 -277.5h-45q0 160 -97.5 253t-260.5 93t-290 -94.5t-127 -268.5q0 -113 81 -175t273 -119.5t281.5 -144.5t89.5 -230q0 -174 -144 -285t-358.5 -111t-343 102.5t-114.5 295.5h45q-10 -170 103.5 -262.5t308.5 -92.5t323.5 96.5
t128.5 238.5t-82 218t-274.5 133t-280.5 130t-88 196q0 186 135.5 301t339 115zM694 1507l-100 193h49l80 -162l135 162h53l-166 -193h-51z" />
    <glyph glyph-name="scaron" unicode="&#x161;" horiz-adv-x="933" 
d="M78 307q12 -293 336 -293q154 0 241.5 71t87.5 177t-68.5 162.5t-236.5 101.5q-270 72 -270 275q0 127 101.5 216t258 89t245.5 -83t97 -239h-45q-24 279 -303 279q-139 0 -223 -79t-84 -177t64.5 -153.5t209 -94.5t223.5 -104.5t79 -196.5t-109 -209t-274.5 -78t-269 81
t-105.5 255h45zM549 1188l-92 225h47l74 -192l145 192h49l-174 -225h-49z" />
    <glyph glyph-name="Tcedilla" unicode="&#x162;" horiz-adv-x="1187" 
d="M633 -248q0 -88 -65.5 -135t-148.5 -47t-128 14l8 43q43 -14 116.5 -14t122 37t48.5 100q0 117 -180 109l104 145l242 1368h-541l8 41h1127l-9 -41h-540l-244 -1372l-74 -104q154 -14 154 -144z" />
    <glyph glyph-name="tcedilla" unicode="&#x163;" horiz-adv-x="497" 
d="M238 -14h-13l-63 -90q154 -14 153 -144q0 -88 -65.5 -135t-148 -47t-128.5 14l9 43q43 -14 116.5 -14t121.5 37t48 100q0 117 -180 109l96 133q-86 18 -86 117q0 61 19 161l135 762h-131l6 37h131l39 221h45l-39 -221h211l-6 -37h-211l-135 -770q-18 -98 -18.5 -153
t44.5 -75t148 -5l-6 -37q-43 -6 -92 -6z" />
    <glyph glyph-name="Tcaron" unicode="&#x164;" horiz-adv-x="1187" 
d="M1337 1372h-540l-242 -1372h-45l242 1372h-541l8 41h1127zM776 1507l-100 193h49l80 -162l135 162h53l-166 -193h-51z" />
    <glyph glyph-name="tcaron" unicode="&#x165;" horiz-adv-x="452" 
d="M238 -14q-139 0 -140 123q0 61 19 161l135 762h-131l6 37h131l39 221h45l-39 -221h211l-6 -37h-211l-135 -770q-18 -98 -18.5 -153t44.5 -75t148 -5l-6 -37q-43 -6 -92 -6zM565 1413v-6l-119 -215h-36l100 221h55z" />
    <glyph glyph-name="Tbar" unicode="&#x166;" horiz-adv-x="1187" 
d="M797 1372l-117 -667h319l-8 -43h-319l-117 -662h-45l117 662h-271l9 43h270l117 667h-541l8 41h1127l-9 -41h-540z" />
    <glyph glyph-name="tbar" unicode="&#x167;" horiz-adv-x="497" 
d="M238 -14q-139 0 -140 123q0 61 19 161l71 406h-110l8 43h111l55 313h-131l6 37h131l39 221h45l-39 -221h211l-6 -37h-211l-55 -313h131l-8 -43h-132l-71 -414q-18 -98 -18.5 -153t44.5 -75t148 -5l-6 -37q-43 -6 -92 -6z" />
    <glyph glyph-name="Umacron" unicode="&#x16a;" horiz-adv-x="1228" 
d="M156 301q0 82 18 188l164 924h45l-164 -932q-18 -106 -18 -178q0 -127 88 -208q87 -81 273 -81t300 96t152 255q12 47 26 127l162 921h45l-164 -924q-12 -72 -28 -137q-43 -174 -168 -277t-325 -103t-304 90q-102 91 -102 239zM965 1581h-287l8 43h287z" />
    <glyph glyph-name="umacron" unicode="&#x16b;" horiz-adv-x="1079" 
d="M408 -29q-152 0 -233 78t-81 217q0 80 23 213l106 598h45l-102 -579q-25 -135 -25 -240q0 -104 68 -174q67 -70 219 -70t280 111t164 313l111 639h45l-188 -1077h-45l43 246l-66 -115q-141 -160 -364 -160zM782 1270h-286l8 43h287z" />
    <glyph glyph-name="Uring" unicode="&#x16e;" horiz-adv-x="1228" 
d="M156 301q0 82 18 188l164 924h45l-164 -932q-18 -106 -18 -178q0 -127 88 -208q87 -81 273 -81t300 96t152 255q12 47 26 127l162 921h45l-164 -924q-12 -72 -28 -137q-43 -174 -168 -277t-325 -103t-304 90q-102 91 -102 239zM743 1592q0 -70 72 -70q37 0 65 30t28 63
q0 35 -18 53q-17 18 -54 18t-65 -30t-28 -64zM809 1479q-115 -1 -115 109q0 56 47 99q48 42 101 42q114 -1 114 -111q0 -56 -47 -98t-100 -41z" />
    <glyph glyph-name="uring" unicode="&#x16f;" horiz-adv-x="1079" 
d="M408 -29q-152 0 -233 78t-81 217q0 80 23 213l106 598h45l-102 -579q-25 -135 -25 -240q0 -104 68 -174q67 -70 219 -70t280 111t164 313l111 639h45l-188 -1077h-45l43 246l-66 -115q-141 -160 -364 -160zM657 1382q-41 0 -69 -30t-27 -72q0 -66 68 -66q41 0 69 31
t27 72q0 65 -68 65zM658 1425q114 1 114 -111q0 -56 -45 -100q-45 -43 -99 -43q-114 1 -114 113q0 56 45 98t99 43z" />
    <glyph glyph-name="Uhungarumlaut" unicode="&#x170;" horiz-adv-x="1228" 
d="M156 301q0 82 18 188l164 924h45l-164 -932q-18 -106 -18 -178q0 -127 88 -208q87 -81 273 -81t300 96t152 255q12 47 26 127l162 921h45l-164 -924q-12 -72 -28 -137q-43 -174 -168 -277t-325 -103t-304 90q-102 91 -102 239zM915 1507h-38l141 193h57zM737 1507h-39
l142 193h57z" />
    <glyph glyph-name="uhungarumlaut" unicode="&#x171;" horiz-adv-x="1079" 
d="M408 -29q-152 0 -233 78t-81 217q0 80 23 213l106 598h45l-102 -579q-25 -135 -25 -240q0 -104 68 -174q67 -70 219 -70t280 111t164 313l111 639h45l-188 -1077h-45l43 246l-66 -115q-141 -160 -364 -160zM698 1188l164 225h58l-183 -225h-39zM532 1188h-38l163 225h58z
" />
    <glyph glyph-name="Uogonek" unicode="&#x172;" horiz-adv-x="1228" 
d="M430 -332q0 -84 80 -84q68 0 143 64l-8 -47q-66 -57 -151 -58q-47 0 -79 29t-32 90q0 176 231 311q-23 -2 -67 -2q-186 0 -289 91q-102 91 -102 239q0 82 18 188l164 924h45l-164 -932q-18 -106 -18 -178q0 -127 88 -208q87 -81 273 -81t300 96t152 255q12 47 26 127
l162 921h45l-164 -924q-12 -72 -28 -137q-70 -287 -334 -358q-291 -150 -291 -326z" />
    <glyph glyph-name="uogonek" unicode="&#x173;" horiz-adv-x="1079" 
d="M535 -332q0 -84 79 -84q68 0 144 64l-8 -47q-66 -57 -152 -58q-47 0 -79 29t-32 90q0 207 310 354l41 230l-66 -115q-141 -160 -364 -160q-152 0 -233 78t-81 217q0 80 23 213l106 598h45l-102 -579q-25 -135 -25 -240q0 -104 68 -174q67 -70 219 -70t280 111t164 313
l111 639h45l-188 -1077q-305 -152 -305 -332z" />
    <glyph glyph-name="Wcircumflex" unicode="&#x174;" horiz-adv-x="1685" 
d="M1845 1413l-633 -1413h-53l-143 1348l-647 -1348h-56l-106 1413h45l98 -1356l637 1336h68l141 -1332l602 1352h47zM946 1507h-53l166 193h51l100 -193h-49l-80 162z" />
    <glyph glyph-name="wcircumflex" unicode="&#x175;" horiz-adv-x="1468" 
d="M1530 1077l-533 -1077h-59l-127 1032l-489 -1032h-64l-143 1077h45l135 -1034l487 1030h66l129 -1024l502 1028h51zM725 1188h-49l174 225h49l92 -225h-47l-74 192z" />
    <glyph glyph-name="Ycircumflex" unicode="&#x176;" horiz-adv-x="1116" 
d="M596 553l-98 -553h-45l98 555l-350 858h49l332 -809l612 809h59zM641 1507h-53l166 193h51l100 -193h-49l-80 162z" />
    <glyph glyph-name="ycircumflex" unicode="&#x177;" horiz-adv-x="966" 
d="M-27 -430q-37 0 -63 8l6 39q27 -6 61 -6q80 0 156 71t186 257l31 51l-235 1087h49l221 -1036l590 1036h53l-618 -1077q-150 -262 -242 -346t-195 -84zM469 1188h-49l174 225h49l92 -225h-47l-74 192z" />
    <glyph glyph-name="Ydieresis" unicode="&#x178;" horiz-adv-x="1116" 
d="M596 553l-98 -553h-45l98 555l-350 858h49l332 -809l612 809h59zM821 1563q-33 0 -33 32q0 21 16 35t34 15q33 0 32 -33q0 -20 -15 -35q-16 -14 -34 -14zM678 1563q-33 0 -33 32q0 21 15 35t34 15q33 0 33 -33q0 -20 -15 -35q-16 -14 -34 -14z" />
    <glyph glyph-name="Zacute" unicode="&#x179;" horiz-adv-x="1101" 
d="M1182 1372l-1133 -1329h912l-9 -43h-975l7 35l1138 1335h-846l9 43h905zM745 1507h-38l141 193h57z" />
    <glyph glyph-name="zacute" unicode="&#x17a;" horiz-adv-x="950" 
d="M956 1028l-940 -989h777l-7 -39h-837l6 37l938 989h-713l6 43h777zM600 1188h-39l164 225h57z" />
    <glyph glyph-name="Zdotaccent" unicode="&#x17b;" horiz-adv-x="1101" 
d="M1182 1372l-1133 -1329h912l-9 -43h-975l7 35l1138 1335h-846l9 43h905zM739 1563q-33 0 -32 32q0 21 15 35t34 15q33 0 32 -33q0 -20 -15 -35q-16 -14 -34 -14z" />
    <glyph glyph-name="zdotaccent" unicode="&#x17c;" horiz-adv-x="950" 
d="M956 1028l-940 -989h777l-7 -39h-837l6 37l938 989h-713l6 43h777zM600 1255q-16 1 -26 11t-11 27q1 17 15 31t30 13q16 0 26 -10t11 -27q-1 -17 -15 -31t-30 -14z" />
    <glyph glyph-name="Zcaron" unicode="&#x17d;" horiz-adv-x="1101" 
d="M1182 1372l-1133 -1329h912l-9 -43h-975l7 35l1138 1335h-846l9 43h905zM709 1507l-101 193h49l80 -162l135 162h54l-166 -193h-51z" />
    <glyph glyph-name="zcaron" unicode="&#x17e;" horiz-adv-x="950" 
d="M956 1028l-940 -989h777l-7 -39h-837l6 37l938 989h-713l6 43h777zM563 1188l-92 225h47l74 -192l145 192h49l-174 -225h-49z" />
    <glyph glyph-name="Scommaaccent" unicode="&#x218;" horiz-adv-x="1114" 
d="M506 -104v-7l-119 -215h-37l101 222h55zM695.5 1442q203.5 0 304 -111.5t92.5 -277.5h-45q0 160 -97.5 253t-260.5 93t-290 -94.5t-127 -268.5q0 -113 81 -175t273 -119.5t281.5 -144.5t89.5 -230q0 -174 -144 -285t-358.5 -111t-343 102.5t-114.5 295.5h45
q-10 -170 103.5 -262.5t308.5 -92.5t323.5 96.5t128.5 238.5t-82 218t-274.5 133t-280.5 130t-88 196q0 186 135.5 301t339 115z" />
    <glyph glyph-name="scommaaccent" unicode="&#x219;" horiz-adv-x="933" 
d="M393 -104v-7l-119 -215h-36l100 222h55zM78 307q12 -293 336 -293q154 0 241.5 71t87.5 177t-68.5 162.5t-236.5 101.5q-270 72 -270 275q0 127 101 216t258 89t246 -83t97 -239h-45q-25 279 -303 279q-139 0 -223 -79t-84 -177t64.5 -153.5t209 -94.5t223.5 -104.5
t79 -196.5t-109 -209t-274.5 -78t-269 81t-105.5 255h45z" />
    <glyph glyph-name="uni021A" unicode="&#x21a;" horiz-adv-x="1187" 
d="M532 -104v-7l-118 -215h-37l100 222h55zM1337 1372h-540l-242 -1372h-45l242 1372h-541l8 41h1127z" />
    <glyph glyph-name="uni021B" unicode="&#x21b;" horiz-adv-x="497" 
d="M215 -104v-7l-119 -215h-37l101 222h55zM238 -14q-139 0 -140 123q0 61 19 161l135 762h-131l6 37h131l39 221h45l-39 -221h211l-6 -37h-211l-135 -770q-18 -98 -18.5 -153t44.5 -75t148 -5l-6 -37q-43 -6 -92 -6z" />
    <glyph glyph-name="circumflex" unicode="&#x2c6;" horiz-adv-x="614" 
d="M399 1188l-73 192l-146 -192h-49l174 225h49l92 -225h-47z" />
    <glyph glyph-name="caron" unicode="&#x2c7;" horiz-adv-x="614" 
d="M487 1413l-174 -225h-49l-92 225h47l74 -192l145 192h49z" />
    <glyph glyph-name="breve" unicode="&#x2d8;" horiz-adv-x="614" 
d="M285 1167q-176 0 -142 246h37q-14 -109 15 -156t98 -47q139 0 184 203h37q-25 -115 -83 -181t-146 -65z" />
    <glyph glyph-name="dotaccent" unicode="&#x2d9;" horiz-adv-x="614" 
d="M311 1337q17 0 27 -10t10 -27q0 -16 -14 -30t-30 -14t-28 10q-10 10 -10 27t14 31t31 13z" />
    <glyph glyph-name="ring" unicode="&#x2da;" horiz-adv-x="614" 
d="M322 1382q-41 0 -69 -30t-28 -72q0 -66 68 -66q41 0 69 31t27 72q1 65 -67 65zM292 1171q-114 1 -114 113q0 56 46 98t99 43q113 1 113 -111q0 -56 -45 -100q-45 -43 -99 -43z" />
    <glyph glyph-name="ogonek" unicode="&#x2db;" horiz-adv-x="614" 
d="M143 -416q68 0 144 64l-8 -47q-66 -57 -152 -58q-47 0 -79 29t-32 90q0 102 84 196t250 169l19 -27q-305 -152 -306 -332q0 -84 80 -84z" />
    <glyph glyph-name="tilde" unicode="&#x2dc;" horiz-adv-x="614" 
d="M201 1374q43 0 113 -24t101 -25q32 0 38 41h41q-4 -84 -80 -84q-42 0 -112 25t-101 24q-33 0 -39 -41h-41q4 84 80 84z" />
    <glyph glyph-name="hungarumlaut" unicode="&#x2dd;" horiz-adv-x="614" 
d="M399 1188h-39l164 225h58zM195 1188h-39l163 225h58z" />
    <glyph glyph-name="uni0326" unicode="&#x326;" horiz-adv-x="0" 
d="M356 -104v-7l-118 -215h-37l100 222h55z" />
    <glyph glyph-name="Wgrave" unicode="&#x1e80;" horiz-adv-x="1685" 
d="M1845 1413l-633 -1413h-53l-143 1348l-647 -1348h-56l-106 1413h45l98 -1356l637 1336h68l141 -1332l602 1352h47zM1028 1507l-96 193h53l80 -193h-37z" />
    <glyph glyph-name="wgrave" unicode="&#x1e81;" horiz-adv-x="1468" 
d="M1530 1077l-533 -1077h-59l-127 1032l-489 -1032h-64l-143 1077h45l135 -1034l487 1030h66l129 -1024l502 1028h51zM819 1188l-102 225h53l86 -225h-37z" />
    <glyph glyph-name="Wacute" unicode="&#x1e82;" horiz-adv-x="1685" 
d="M1845 1413l-633 -1413h-53l-143 1348l-647 -1348h-56l-106 1413h45l98 -1356l637 1336h68l141 -1332l602 1352h47zM1061 1507h-39l141 193h58z" />
    <glyph glyph-name="wacute" unicode="&#x1e83;" horiz-adv-x="1468" 
d="M1530 1077l-533 -1077h-59l-127 1032l-489 -1032h-64l-143 1077h45l135 -1034l487 1030h66l129 -1024l502 1028h51zM846 1188h-39l164 225h57z" />
    <glyph glyph-name="Wdieresis" unicode="&#x1e84;" horiz-adv-x="1685" 
d="M1845 1413l-633 -1413h-53l-143 1348l-647 -1348h-56l-106 1413h45l98 -1356l637 1336h68l141 -1332l602 1352h47zM1126 1563q-33 0 -32 32q0 21 15 35t34 15q33 0 33 -33q0 -20 -16 -34t-34 -15zM983 1563q-33 0 -33 32q0 21 16 35t33 15q33 0 33 -33q0 -20 -15 -35
q-16 -14 -34 -14z" />
    <glyph glyph-name="wdieresis" unicode="&#x1e85;" horiz-adv-x="1468" 
d="M1530 1077l-533 -1077h-59l-127 1032l-489 -1032h-64l-143 1077h45l135 -1034l487 1030h66l129 -1024l502 1028h51zM924 1255q-33 0 -33 33q0 20 15 34t34 15q33 0 33 -32q1 -20 -15 -35t-34 -15zM760 1255q-33 0 -33 33q0 20 15 34t34 15q33 0 33 -32q1 -20 -15 -35
t-34 -15z" />
    <glyph glyph-name="Ygrave" unicode="&#x1ef2;" horiz-adv-x="1116" 
d="M596 553l-98 -553h-45l98 555l-350 858h49l332 -809l612 809h59zM723 1507l-96 193h53l80 -193h-37z" />
    <glyph glyph-name="ygrave" unicode="&#x1ef3;" horiz-adv-x="966" 
d="M-27 -430q-37 0 -63 8l6 39q27 -6 61 -6q80 0 156 71t186 257l31 51l-235 1087h49l221 -1036l590 1036h53l-618 -1077q-150 -262 -242 -346t-195 -84zM563 1188l-102 225h53l86 -225h-37z" />
    <glyph glyph-name="endash" unicode="&#x2013;" horiz-adv-x="1024" 
d="M877 573h-738l8 43h738z" />
    <glyph glyph-name="emdash" unicode="&#x2014;" horiz-adv-x="2048" 
d="M1901 573h-1762l8 43h1762z" />
    <glyph glyph-name="quoteleft" unicode="&#x2018;" horiz-adv-x="366" 
d="M211 1006v10l190 489h41l-184 -499h-47z" />
    <glyph glyph-name="quoteright" unicode="&#x2019;" horiz-adv-x="366" 
d="M367 1505v-10l-191 -489h-41l184 499h48z" />
    <glyph glyph-name="quotesinglbase" unicode="&#x201a;" horiz-adv-x="260" 
d="M2 49v-10l-154 -277h-43l146 287h51z" />
    <glyph glyph-name="quotedblleft" unicode="&#x201c;" horiz-adv-x="550" 
d="M395 1006v10l191 489h41l-185 -499h-47zM211 1006v10l190 489h41l-184 -499h-47z" />
    <glyph glyph-name="quotedblright" unicode="&#x201d;" horiz-adv-x="550" 
d="M551 1505v-10l-191 -489h-41l185 499h47zM367 1505v-10l-191 -489h-41l184 499h48z" />
    <glyph glyph-name="quotedblbase" unicode="&#x201e;" horiz-adv-x="444" 
d="M186 49v-10l-153 -277h-43l145 287h51zM2 49v-10l-154 -277h-43l146 287h51z" />
    <glyph glyph-name="dagger" unicode="&#x2020;" horiz-adv-x="1228" 
d="M1020 825l-383 2l-201 -1155h-49l201 1155l-383 -2l8 47l383 -2l94 543h53l-98 -543l383 2z" />
    <glyph glyph-name="daggerdbl" unicode="&#x2021;" horiz-adv-x="1228" 
d="M639 827l-102 -573l383 2l-9 -47l-381 2l-94 -539h-49l94 539l-385 -2l8 47l383 -2l103 573l-385 -2l8 47l383 -2l94 543h53l-98 -543l383 2l-8 -47z" />
    <glyph glyph-name="bullet" unicode="&#x2022;" horiz-adv-x="356" 
d="M167 532q-85 0 -83 80q0 39 33 72t73 33q84 0 82 -80q0 -39 -32 -72t-73 -33z" />
    <glyph glyph-name="ellipsis" unicode="&#x2026;" horiz-adv-x="669" 
d="M408 53q37 0 36 -35q0 -20 -13 -33t-32 -14q-37 0 -37 35q0 20 14 34t32 13zM203 53q37 0 37 -35q0 -20 -14 -33t-31 -14q-37 0 -37 35q0 20 13 34q14 13 32 13zM-2 53q37 0 37 -35q0 -20 -13 -33t-32 -14q-37 0 -37 35q0 20 13 34q14 13 32 13z" />
    <glyph glyph-name="perthousand" unicode="&#x2030;" horiz-adv-x="2045" 
d="M1556 14q125 0 194 110t69 223q-1 113 -49 173t-134 60q-126 0 -194 -110t-68 -223t48 -173t134 -60zM942 14q125 0 194 110q68 110 68 223t-48 173t-134 60q-125 0 -194 -110q-68 -110 -68 -223t48 -173t134 -60zM1642 623q102 0 162 -74t62 -203q0 -129 -85 -252
t-231 -123q-102 0 -162 74t-60 203t84 252q85 123 230 123zM1028 623q102 0 162 -74t61 -203q0 -129 -85 -252t-230 -123q-102 0 -163 74q-60 74 -60 203t85 252t230 123zM547 1399q-125 0 -194 -110t-69 -223q0 -112 49 -172q48 -60 134 -60q125 0 193 110t69 222
q0 114 -48 174t-134 59zM1350 1413l-1162 -1413h-57l1161 1413h58zM461 791q-102 0 -163 73q-60 74 -60 203t85 252t230 123q103 0 163 -74t60 -202t-85 -252q-85 -123 -230 -123z" />
    <glyph glyph-name="guilsinglleft" unicode="&#x2039;" horiz-adv-x="688" 
d="M258 504l217 -336h-55l-221 340l340 340h63z" />
    <glyph glyph-name="guilsinglright" unicode="&#x203a;" horiz-adv-x="688" 
d="M477 508l-340 -340h-63l344 344l-217 336h55z" />
    <glyph glyph-name="fraction" unicode="&#x2044;" horiz-adv-x="681" 
d="M-182 0h-58l1162 1413h57z" />
    <glyph glyph-name="Euro" unicode="&#x20ac;" 
d="M809 1442q115 0 187 -29t128 -94l-34 -31q-55 61 -121 86q-67 25 -185 25t-224 -80t-170 -200q-62 -120 -99 -277h686l-31 -43h-663q-23 -109 -27 -183h629l-25 -43h-608q-4 -78 -4 -114q0 -444 403 -445q145 0 301 86l-8 -53q-145 -76 -309 -76q-209 0 -322 121
t-112 365q0 35 4 116h-180l26 43h158q6 90 24 183h-118l28 43h101q29 123 74 226q167 374 491 374z" />
    <glyph glyph-name="trademark" unicode="&#x2122;" horiz-adv-x="1058" 
d="M944 1350l-74 -416h-41l72 379l-213 -375h-49l-78 373l-63 -377h-41l73 416h64l78 -375l211 375h61zM297 1313l-68 -379h-45l68 379h-172l6 39h389l-6 -39h-172z" />
    <glyph glyph-name="partialdiff" unicode="&#x2202;" 
d="M455 14q178 0 307 178t180 465q-20 121 -114 179t-212 57q-118 0 -212 -56q-94 -57 -143 -145q-101 -179 -99 -364q0 -146 81 -230t212 -84zM680 1552q342 0 342 -516q0 -623 -258 -914q-133 -151 -318 -151q-154 1 -242 99t-89 279q0 181 113 372q56 95 160 155t232 60
t215 -57t119 -144q20 150 21 299q0 236 -73 356q-72 120 -234 120t-301 -103l-23 33q156 112 336 112z" />
    <glyph glyph-name="emptyset" unicode="&#x2205;" horiz-adv-x="1716" 
d="M860 12q285 0 490 206q204 206 204 498t-182 494l-999 -999q202 -199 487 -199zM856 1442q-284 0 -490 -206q-204 -206 -204 -498t182 -494l999 999q-203 199 -487 199zM1604 716q0 -312 -220 -529q-220 -218 -524 -218q-305 0 -520 209l-170 -170l-31 31l172 172
q-199 215 -199 527t220 529q219 218 524 218t520 -209l170 170l31 -31l-172 -172q199 -215 199 -527z" />
    <glyph glyph-name="product" unicode="&#x220f;" 
d="M1143 1370h-115l-283 -1595h-45l283 1595h-590l-282 -1595h-45l282 1595h-115l9 43h909z" />
    <glyph glyph-name="summation" unicode="&#x2211;" 
d="M1153 1370h-831l395 -756l-729 -796h903l-8 -43h-961l8 41l729 800l-393 756l8 41h887z" />
    <glyph glyph-name="minus" unicode="&#x2212;" horiz-adv-x="1087" 
d="M967 629h-820l9 43h819z" />
    <glyph glyph-name="radical" unicode="&#x221a;" 
d="M1196 1597l-786 -1925h-70l-109 920h-135l8 43h168l107 -928l770 1890h47z" />
    <glyph glyph-name="infinity" unicode="&#x221e;" horiz-adv-x="2039" 
d="M1408 14q165 0 290 104t183 248t58 291q0 193 -100 304t-257 111q-158 0 -314 -134q-156 -133 -224 -395q-12 -277 94 -403t270 -126zM632 1071q-165 0 -290 -104q-125 -105 -183 -249q-59 -144 -59 -314t100 -280t251 -110q150 0 306 122q77 60 140 166t98 241
q12 276 -93 402t-270 126zM1598 1114q182 0 286 -126t104 -321t-90 -371q-105 -203 -281 -281q-99 -44 -216 -44q-373 0 -397 465q-86 -229 -232 -347t-330 -118q-182 0 -286 125t-104 341t139 435q69 106 186 174t262 68q373 0 397 -463q80 223 230 343t332 120z" />
    <glyph glyph-name="integral" unicode="&#x222b;" 
d="M748 1544q70 0 108 -57l-33 -29q-35 43 -84 43q-82 0 -136 -102q-54 -101 -54 -291q-1 -190 27 -500t28 -479q0 -457 -250 -457q-68 0 -106 58l31 28q37 -43 86 -43q88 1 140 101t52 270t-28 500q-27 330 -27 536q0 205 68 314q69 108 178 108z" />
    <glyph glyph-name="approxequal" unicode="&#x2248;" 
d="M315 535q77 -1 179 -59t138 -72t94 -13q58 0 108 28q49 28 108 99l27 -24q-111 -145 -262 -146q-51 0 -93 16t-114 59q-74 42 -110 55q-36 14 -94 14t-108 -28q-49 -28 -106 -99l-27 24q106 146 260 146zM381 903q51 0 92 -16q41 -17 115 -59t110 -55t94 -13t107 28
t107 99l26 -25q-106 -145 -260 -145q-78 1 -180 59t-136 71q-36 13 -94 13t-108 -28q-49 -28 -109 -99l-26 25q110 145 262 145z" />
    <glyph glyph-name="notequal" unicode="&#x2260;" 
d="M684 813l-248 -326h527l-9 -43h-551l-178 -233h-49l178 233h-260l8 43h285l248 326h-475l8 43h500l178 236h49l-178 -236h311l-8 -43h-336z" />
    <glyph glyph-name="lessequal" unicode="&#x2264;" 
d="M33 43h819l-8 -43h-819zM1001 893l-819 -330l705 -330l-10 -49l-756 359l8 41l883 358z" />
    <glyph glyph-name="greaterequal" unicode="&#x2265;" 
d="M33 43h819l-8 -43h-819zM948 584l-8 -41l-883 -359l11 49l819 330l-705 330l11 49z" />
    <glyph glyph-name="lozenge" unicode="&#x25ca;" horiz-adv-x="1040" 
d="M836 707l-201 655l-430 -655l198 -658zM885 707l-467 -707h-45l-217 707l467 706h45z" />
    <glyph glyph-name="a.alt" horiz-adv-x="1118" 
d="M627 1063q-160 0 -283 -96q-123 -95 -184 -243q-62 -148 -62 -319t90 -281t260 -110t298 112t174 361l20 123q37 203 -40 328t-273 125zM432 -29q-176 0 -278 121q-102 120 -102 306t66 342q67 156 201 261q135 104 314 105q119 0 189 -36t122 -122l35 -119l43 248h45
l-188 -1077h-45l43 244l-78 -121q-88 -86 -167 -119t-200 -33z" />
    <glyph glyph-name="braceleft.001" horiz-adv-x="587" 
d="M692 1554q-126 0 -191 -67t-71 -309q-13 -246 -31 -287q-48 -108 -90 -136q-43 -28 -90 -38q119 -31 119 -166q0 -93 -64 -277t-65 -258q0 -137 188 -137h37l-8 -43h-35q-106 0 -168 45q-61 45 -61 125t64 262t65 281q0 131 -135 145l8 45q101 8 147 75t57 145
q11 77 15 225q7 254 87 334q80 81 232 79h35l-8 -43h-37z" />
    </font>
</defs>
</svg>
