<?xml version="1.0" standalone="no"?>
<!DOCTYPE svg PUBLIC "-//W3C//DTD SVG 1.1//EN" "http://www.w3.org/Graphics/SVG/1.1/DTD/svg11.dtd" >
<svg xmlns="http://www.w3.org/2000/svg">
<metadata>
Created by FontPrep 20130207 at Sun Jun 29 15:54:28 2014
 By Jörn Röder
Copyright (c) 2012 by Librerias Gandhi S.A. de C.V. All rights reserved.
</metadata>
<defs>
<font id="5c45223e6909c668a767f34772f17a1e" horiz-adv-x='1024' >
  <font-face 
    font-family="GandhiSans-Italic"
    font-weight="400"
    font-style="italic"
    font-stretch="normal"
    units-per-em="2048"
    panose-1="2 0 0 0 0 0 0 0 0 0"
    ascent="1567"
    descent="-481"
    x-height="971"
    cap-height="1372"
    bbox="-403 -482 7219 1854"
    underline-thickness="102"
    underline-position="-102"
    slope="-10"
    unicode-range="U+0020-FB02"
  />
<missing-glyph 
d="M195 -481v2048h798v-2048h-798z" />
    <glyph glyph-name=".notdef" 
d="M195 -481v2048h798v-2048h-798z" />
    <glyph glyph-name=".null" horiz-adv-x="0" 
 />
    <glyph glyph-name="nonmarkingreturn" horiz-adv-x="681" 
 />
    <glyph glyph-name="space" unicode=" " horiz-adv-x="450" 
 />
    <glyph glyph-name="exclam" unicode="!" horiz-adv-x="491" 
d="M51 91q0 50 37 90t92 40t87 -35t32 -89t-40 -90t-91 -36t-84 35t-33 85zM270 397h-88l88 975h238z" />
    <glyph glyph-name="quotedbl" unicode="&#x22;" horiz-adv-x="763" 
d="M616 864h-84l37 459h170zM309 864h-84l37 459h170z" />
    <glyph glyph-name="numbersign" unicode="#" 
d="M485 764l-90 -277h283l90 277h-283zM129 764l18 104h263l108 332h109l-109 -332h283l108 332h109l-109 -332h226l-19 -104h-239l-91 -277h254l-18 -104h-270l-107 -332h-108l106 332h-283l-106 -332h-109l107 332h-217l18 104h234l90 277h-248z" />
    <glyph glyph-name="dollar" unicode="$" 
d="M434 977q0 -61 38 -103t114 -83l71 409q-99 -14 -161 -68t-62 -155zM811 324q0 78 -41 128q-41 52 -125 107l-78 -444q111 19 177 75t67 134zM977 373q0 -164 -116 -272t-318 -126l-37 -208h-105l35 204q-102 4 -202 34t-158 67l49 141q147 -102 336 -104l90 509l-49 31
q-115 67 -173 137t-59 177q0 176 117 272t297 111l39 221h104l-39 -219q143 -6 287 -66l-49 -143q-104 57 -262 67l-82 -471q88 -53 142 -94t104 -113t49 -155z" />
    <glyph glyph-name="percent" unicode="%" horiz-adv-x="1601" 
d="M279 -29l-86 76l1200 1305l86 -76zM1126 74q88 0 152 76q63 76 63 210q0 158 -147 158q-90 0 -154 -76t-63 -211q-1 -157 149 -157zM1114 -29q-124 0 -194 69t-70 187q0 174 98 284t242 110t212 -69q69 -69 68 -187q0 -174 -98 -284t-258 -110zM475 805q88 0 152 76
q63 76 63 211q0 158 -147 157q-90 0 -154 -75q-63 -76 -63 -211q-1 -158 149 -158zM463 702q-125 0 -195 69t-69 187q0 174 98 284q97 110 241 110t213 -69t68 -187q0 -174 -98 -284t-258 -110z" />
    <glyph glyph-name="ampersand" unicode="&#x26;" horiz-adv-x="1345" 
d="M543 1014q0 -61 88 -215q104 39 187 109t83 149q0 80 -47 118q-47 37 -122 37t-132 -48t-57 -150zM446 102q176 0 336 129l-239 418q-131 -55 -221 -145t-90 -196q0 -206 214 -206zM1028 -14q-107 0 -180 129q-190 -143 -428 -144q-145 0 -242 84q-96 84 -96 224
q0 307 401 473q-86 150 -86 258q-1 143 95 235t241 92t232 -66q86 -67 86 -194q1 -127 -103 -222t-260 -153l209 -362q152 190 201 399h145q-29 -131 -103 -274t-173 -246q37 -61 60 -76q24 -14 89 -14h35v-129q-71 -14 -123 -14z" />
    <glyph glyph-name="quotesingle" unicode="'" horiz-adv-x="456" 
d="M309 864h-84l37 459h170z" />
    <glyph glyph-name="parenleft" unicode="(" horiz-adv-x="915" 
d="M283 463q0 -459 372 -684l-57 -103q-225 117 -348 322t-123 448q0 371 210 681t568 483l53 -105q-305 -168 -490 -441t-185 -601z" />
    <glyph glyph-name="parenright" unicode=")" horiz-adv-x="915" 
d="M659 823q0 459 -372 684l57 103q225 -117 348 -322t123 -448q0 -371 -210 -681t-568 -483l-53 105q305 168 490 441t185 601z" />
    <glyph glyph-name="asterisk" unicode="*" horiz-adv-x="884" 
d="M526 1372h129l-82 -309l279 172l57 -109l-309 -133l260 -133l-76 -108l-229 180l-31 -311h-129l82 309l-278 -172l-58 108l310 133l-261 134l76 108l230 -180z" />
    <glyph glyph-name="plus" unicode="+" 
d="M1055 569h-406v-403h-110v403h-406v107h406v401h110v-401h406v-107z" />
    <glyph glyph-name="comma" unicode="," horiz-adv-x="512" 
d="M129 152v57h178v-39q0 -271 -299 -461l-63 74q184 150 184 369z" />
    <glyph glyph-name="hyphen" unicode="-" horiz-adv-x="716" 
d="M63 451l23 122h573l-22 -122h-574z" />
    <glyph glyph-name="period" unicode="." horiz-adv-x="512" 
d="M203 221q51 0 83 -35t33 -85q-1 -50 -37 -90t-92 -40t-87 35t-31 89t40 90t91 36z" />
    <glyph glyph-name="slash" unicode="/" horiz-adv-x="1097" 
d="M1182 1587l-1180 -2068h-127l1178 2068h129z" />
    <glyph glyph-name="zero" unicode="0" 
d="M467 -29q-164 0 -261 129t-97 353q0 312 143 588q70 136 191 224q122 87 290 87t259 -126t91 -349q0 -321 -138 -595q-69 -138 -191 -225q-123 -86 -287 -86zM487 102q113 0 201 77t137 197q99 242 99 466q0 223 -56 301t-170 78q-116 0 -202 -79q-147 -134 -204 -449
q-24 -126 -24 -242q0 -349 219 -349z" />
    <glyph glyph-name="one" unicode="1" 
d="M907 0h-757l22 115l307 8l189 1055l-316 -33l21 115l387 75h90l-213 -1212l293 -8z" />
    <glyph glyph-name="two" unicode="2" 
d="M33 0v63q351 286 434 367q84 80 159 154q74 74 106 120t71 106q67 104 67 206t-51 149t-135 47q-186 0 -379 -155l-69 119q219 176 456 176q160 0 251 -77t91 -217t-87 -302q-54 -99 -180 -234q-127 -135 -230 -220t-189 -155h582l-33 -147h-864z" />
    <glyph glyph-name="three" unicode="3" 
d="M952 383q0 -182 -135 -297t-321 -115q-244 0 -426 158l86 109q156 -131 340 -132q125 0 209 68t83 195q0 71 -36 119t-117 79q-82 31 -207 31h-84l23 129q209 12 347 94t138 219q0 80 -59 126t-140 46q-158 0 -323 -141l-64 111q78 74 191 122t243 48t222 -81t92 -213
t-85 -230t-222 -146q105 -26 175 -106t70 -193z" />
    <glyph glyph-name="four" unicode="4" 
d="M791 1044l-492 -528h393zM43 379v65l840 891h108l-145 -819h227l-24 -137h-228l-65 -379h-158l70 379h-625z" />
    <glyph glyph-name="five" unicode="5" 
d="M489 788q211 0 353 -93t141 -287q0 -194 -144 -315q-144 -122 -345 -122q-260 0 -416 152l98 113q53 -54 137 -90t170 -35q152 1 244 79t92 210t-108 189q-109 56 -267 56h-215l181 678h649l-33 -145h-510l-98 -390h71z" />
    <glyph glyph-name="six" unicode="6" 
d="M625 682q-166 0 -330 -84q-23 -84 -23 -208t62 -204t187 -80q127 0 231 102t104 255q0 109 -61 164t-170 55zM1020 485q0 -211 -150 -363t-368 -151q-182 0 -286 120q-103 120 -103 308q1 189 77 355t206 286q266 244 646 312l21 -131q-522 -111 -709 -467q145 70 305 70
q161 0 261 -96q100 -95 100 -243z" />
    <glyph glyph-name="seven" unicode="7" 
d="M1141 1323v-92l-828 -1231h-176l807 1176h-688l35 147h850z" />
    <glyph glyph-name="eight" unicode="8" 
d="M420 991q0 -61 46 -107t152 -112q113 26 203 98t90 166t-62 138q-62 45 -169 45q-108 0 -184 -61t-76 -167zM817 350q0 76 -66 144q-67 68 -188 137q-307 -100 -307 -320q0 -92 75 -150q75 -59 193 -59t206 70q87 70 87 178zM92 299q0 254 348 401q-182 117 -182 281
t129 267q129 104 301 104t276 -80t105 -211q0 -131 -94 -224t-230 -141q109 -68 170 -144t62 -185q0 -174 -128 -285t-355 -111q-166 1 -284 91t-118 237z" />
    <glyph glyph-name="nine" unicode="9" 
d="M911 913q0 304 -248 304q-127 1 -231 -101t-104 -256q0 -109 61 -164t170 -55q170 0 330 82q23 96 22 190zM164 838q0 210 150 362t368 152q182 0 286 -120t103 -308q0 -188 -77 -354q-144 -312 -502 -486q-166 -80 -351 -113l-20 131q522 113 706 465q-139 -67 -301 -67
t-262 95t-100 243z" />
    <glyph glyph-name="colon" unicode=":" horiz-adv-x="512" 
d="M430 736q0 -50 -37 -90t-92 -40t-87 35t-32 89t40 90t91 36t84 -35t33 -85zM203 221q51 0 83 -35t33 -85q-1 -50 -37 -90t-92 -40t-87 35t-31 89t40 90t91 36z" />
    <glyph glyph-name="semicolon" unicode=";" horiz-adv-x="512" 
d="M129 152v57h178v-39q0 -271 -299 -461l-63 74q184 150 184 369zM430 736q0 -50 -37 -90t-92 -40t-87 35t-32 89t40 90t91 36t84 -35t33 -85z" />
    <glyph glyph-name="less" unicode="&#x3c;" 
d="M195 573v103l749 399l55 -100l-663 -350l663 -351l-55 -100z" />
    <glyph glyph-name="equal" unicode="=" 
d="M1055 764h-922v106h922v-106zM1055 375h-922v106h922v-106z" />
    <glyph glyph-name="greater" unicode="&#x3e;" 
d="M999 670v-103l-749 -399l-55 100l663 350l-663 351l55 100z" />
    <glyph glyph-name="question" unicode="?" horiz-adv-x="839" 
d="M422 101q0 -50 -37 -90t-91 -40t-86 35t-32 89t40 90t91 36t83 -35t32 -85zM252 438v76q0 76 33 144t101 128q68 61 192 155q124 93 122 192q0 59 -43 96t-116 37q-129 0 -262 -84l-56 112q72 51 164 79t166 28q149 0 229 -71t80 -171t-48 -174t-118 -125t-140 -99
t-117 -117q-48 -69 -48 -152v-54h-139z" />
    <glyph glyph-name="at" unicode="@" horiz-adv-x="1968" 
d="M838 106q76 0 162 73t149 167l82 485q-57 43 -166 43q-160 0 -266 -156t-106 -384t145 -228zM1240 -29q-128 0 -128 86q0 20 10 86q-70 -80 -154 -126t-159 -46q-129 1 -198 95t-68 256q0 282 146 480t382 197q174 0 320 -94l-113 -674q-14 -86 -14 -104q0 -43 65 -43
q188 0 322 186q133 186 133 447q0 133 -42 236t-108 165q-179 166 -490 166q-310 0 -522 -143t-314 -369t-101 -511q0 -286 181 -458t519 -174q164 -1 335 55t306 144l41 -82q-135 -90 -331 -147t-371 -58q-391 2 -588 211t-197 535q0 425 255 746q124 155 325 247t441 92
q381 0 594 -202q75 -70 122 -184t47 -242t-24 -236t-75 -207q-52 -98 -127 -171q-76 -73 -184 -116t-236 -43z" />
    <glyph glyph-name="A" unicode="A" horiz-adv-x="1312" 
d="M768 1104l-309 -572h422zM987 0l-78 393h-526l-211 -393h-190l772 1372h104l313 -1372h-184z" />
    <glyph glyph-name="B" unicode="B" horiz-adv-x="1165" 
d="M705 1372q182 0 275 -74t93 -208q0 -258 -252 -353q106 -25 165 -100q58 -76 58 -186q0 -205 -130 -328t-343 -123h-485l242 1372h377zM547 791q150 1 256 73t106 199q0 98 -57 135t-174 37h-211l-78 -444h158zM530 137q156 0 251 77t96 228q0 102 -81 156t-231 55h-200
l-93 -516h258z" />
    <glyph glyph-name="C" unicode="C" horiz-adv-x="1296" 
d="M700 -29q-266 0 -416 165t-151 429q0 350 215 593t580 243q197 0 348 -80l-49 -143q-137 76 -307 75q-285 0 -451 -191t-166 -495q0 -215 115 -329t314 -113q199 0 382 86l25 -150q-85 -39 -209 -65t-230 -25z" />
    <glyph glyph-name="D" unicode="D" horiz-adv-x="1425" 
d="M551 137q289 0 461 173t172 499q0 426 -436 426h-281l-195 -1098h279zM739 1372q614 0 615 -567q0 -357 -206 -581t-605 -224h-457l242 1372h411z" />
    <glyph glyph-name="E" unicode="E" horiz-adv-x="1054" 
d="M86 0l242 1372h772l-23 -137h-610l-78 -444h490l-23 -138h-491l-91 -516h613l-23 -137h-778z" />
    <glyph glyph-name="F" unicode="F" horiz-adv-x="1034" 
d="M86 0l242 1372h772l-23 -137h-610l-80 -453h506l-23 -137h-508l-112 -645h-164z" />
    <glyph glyph-name="G" unicode="G" horiz-adv-x="1400" 
d="M715 -29q-268 0 -425 161t-157 423q0 365 229 605t617 241q219 0 391 -86l-49 -141q-160 80 -356 79q-301 0 -482 -194q-180 -195 -180 -494q0 -221 122 -333t341 -111q152 0 270 45l66 369h-264l22 137h428l-106 -615q-199 -86 -467 -86z" />
    <glyph glyph-name="H" unicode="H" horiz-adv-x="1472" 
d="M86 0l242 1372h164l-105 -584h793l104 584h164l-242 -1372h-164l115 651h-792l-115 -651h-164z" />
    <glyph glyph-name="I" unicode="I" horiz-adv-x="516" 
d="M86 0l242 1372h164l-242 -1372h-164z" />
    <glyph glyph-name="J" unicode="J" horiz-adv-x="559" 
d="M-76 -225l-51 121q156 74 219 160t94 268l181 1048h161l-176 -1034q-39 -233 -130 -358t-298 -205z" />
    <glyph glyph-name="K" unicode="K" horiz-adv-x="1234" 
d="M86 0l242 1372h164l-242 -1372h-164zM977 -14q-53 0 -88 26t-80 94l-393 609l639 657h213l-666 -661l340 -523q25 -39 45 -49t62 -10h38v-129q-57 -14 -110 -14z" />
    <glyph glyph-name="L" unicode="L" horiz-adv-x="1044" 
d="M86 0l242 1372h164l-218 -1237h633l-22 -135h-799z" />
    <glyph glyph-name="M" unicode="M" horiz-adv-x="1703" 
d="M86 0l242 1372h186l293 -1118l690 1118h182l-239 -1372h-164l186 1038l-647 -1038h-102l-279 1047l-184 -1047h-164z" />
    <glyph glyph-name="N" unicode="N" horiz-adv-x="1417" 
d="M86 0l242 1372h172l553 -1028l176 1028h164l-242 -1372h-98l-604 1133l-199 -1133h-164z" />
    <glyph glyph-name="O" unicode="O" horiz-adv-x="1482" 
d="M303 526q1 -205 89 -307t252 -102q164 1 280 67q204 118 282 410q35 127 35 260q0 203 -92 302t-283 99q-262 0 -412 -218t-151 -511zM630 -29q-249 0 -373 154t-124 397q0 345 193 602q92 125 239 201t326 76q262 1 391 -147t129 -387t-87 -439t-266 -329
q-179 -128 -428 -128z" />
    <glyph glyph-name="P" unicode="P" horiz-adv-x="1114" 
d="M557 711q182 0 284 81q101 81 101 246q0 197 -254 197h-221l-92 -524h182zM735 1372q177 0 273 -86t96 -233q0 -479 -582 -480h-172l-100 -573h-164l242 1372h407z" />
    <glyph glyph-name="Q" unicode="Q" horiz-adv-x="1482" 
d="M303 526q1 -205 89 -307t252 -102q164 1 280 67q204 118 282 410q35 127 35 260q0 203 -92 302t-283 99q-262 0 -412 -218t-151 -511zM1035 -481q-133 0 -255 158q-94 126 -188 296q-233 14 -346 165t-113 384q0 345 193 602q92 125 239 201t326 76q262 1 391 -147
t129 -376q0 -471 -295 -734q-150 -132 -352 -162q96 -172 172 -246t158 -74h57v-127q-47 -16 -116 -16z" />
    <glyph glyph-name="R" unicode="R" horiz-adv-x="1222" 
d="M627 750q135 0 225 76t90 210q0 199 -250 199h-225l-86 -485h246zM966 -14q-66 0 -101 29q-34 30 -66 108l-144 360q-27 66 -60 95q-34 29 -110 28h-129l-106 -606h-164l242 1372h405q181 0 277 -84t96 -246t-101 -275q-101 -114 -278 -142q59 -33 98 -133l117 -293
q16 -41 34 -55t50 -15h57v-129q-51 -14 -117 -14z" />
    <glyph glyph-name="S" unicode="S" horiz-adv-x="1040" 
d="M400 -29q-234 0 -390 103l51 147q164 -109 345 -108q124 0 224 57q50 29 82 80q58 93 9 203q-28 63 -223 180q-45 27 -64 39q-113 70 -171 142t-58 181q0 197 136 301t339 104t330 -75l-49 -143q-113 76 -263 76t-239 -61q-90 -60 -90 -187q0 -103 125 -177
q16 -11 61 -37t90 -54q95 -60 166 -125q100 -91 98 -218q0 -199 -138 -313q-137 -114 -371 -115z" />
    <glyph glyph-name="T" unicode="T" horiz-adv-x="1267" 
d="M457 0l217 1235h-465l24 137h1094l-24 -137h-465l-217 -1235h-164z" />
    <glyph glyph-name="U" unicode="U" horiz-adv-x="1366" 
d="M604 -29q-205 -1 -333 97t-128 280q0 57 9 107l161 917h164l-158 -891q-10 -55 -10 -110q0 -254 329 -254t398 383l156 872h164l-162 -917q-86 -484 -590 -484z" />
    <glyph glyph-name="V" unicode="V" horiz-adv-x="1277" 
d="M373 1372l219 -1081l582 1081h180l-758 -1372h-92l-305 1372h174z" />
    <glyph glyph-name="W" unicode="W" horiz-adv-x="1882" 
d="M381 1372l145 -1081l430 833l-43 248h177l165 -1079l519 1079h174l-691 -1372h-98l-162 901l-473 -901h-96l-219 1372h172z" />
    <glyph glyph-name="X" unicode="X" horiz-adv-x="1320" 
d="M0 0l600 733l-307 639h188l236 -526l416 526h198l-549 -663l357 -709h-193l-280 596l-459 -596h-207z" />
    <glyph glyph-name="Y" unicode="Y" horiz-adv-x="1218" 
d="M440 0l97 549l-328 823h176l254 -676l461 676h188l-592 -833l-92 -539h-164z" />
    <glyph glyph-name="Z" unicode="Z" horiz-adv-x="1243" 
d="M31 0v82l966 1153h-723l25 137h944v-86l-969 -1149h795l-22 -137h-1016z" />
    <glyph glyph-name="bracketleft" unicode="[" horiz-adv-x="821" 
d="M899 1505h-397l-301 -1712h397l-20 -115h-549l342 1942h549z" />
    <glyph glyph-name="backslash" unicode="\" horiz-adv-x="1097" 
d="M844 -481l-574 2068h123l576 -2068h-125z" />
    <glyph glyph-name="bracketright" unicode="]" horiz-adv-x="821" 
d="M666 1505h-398l21 115h549l-342 -1942h-547l18 115h398z" />
    <glyph glyph-name="asciicircum" unicode="^" 
d="M543 1352h102l399 -750l-100 -55l-350 663l-350 -663l-101 55z" />
    <glyph glyph-name="underscore" unicode="_" 
d="M1024 -219l-20 -107h-1145l20 107h1145z" />
    <glyph glyph-name="grave" unicode="`" horiz-adv-x="819" 
d="M696 1180l-69 -37l-283 330l180 53z" />
    <glyph glyph-name="a" unicode="a" horiz-adv-x="1056" 
d="M391 106q76 0 163 73t148 167l82 485q-57 43 -166 43q-160 0 -266 -156t-106 -384t145 -228zM749 -29q-83 0 -83 78q0 39 10 94q-68 -80 -153 -126t-161 -46q-130 1 -198 95t-68 256q0 286 146 482t383 195q174 0 319 -94l-113 -667q-14 -86 -14 -110t23 -33t88 -11v-84
q-96 -29 -179 -29z" />
    <glyph glyph-name="b" unicode="b" horiz-adv-x="1036" 
d="M795 637q0 101 -38 163t-114 62t-166 -72t-147 -161l-86 -490q55 -43 174 -43q162 0 270 160t107 381zM944 649q0 -276 -146 -477t-384 -201q-182 0 -328 95l242 1388l153 33l-114 -645q147 158 309 157q128 0 198 -95t70 -255z" />
    <glyph glyph-name="c" unicode="c" horiz-adv-x="901" 
d="M430 -29q-338 0 -338 353q0 280 155 478t392 197q131 0 221 -69l-51 -121q-78 66 -188 65q-154 0 -267 -162t-112 -372q0 -236 209 -236q135 0 272 93l35 -123q-56 -39 -154 -71t-174 -32z" />
    <glyph glyph-name="d" unicode="d" horiz-adv-x="1095" 
d="M393 106q72 0 165 71t159 175l84 477q-74 45 -172 45q-166 0 -275 -156q-108 -156 -108 -384t147 -228zM629 999q109 0 196 -30l84 485l154 33l-219 -1249q-14 -86 -14 -110t23 -33q24 -9 87 -11v-84q-82 -29 -152 -29q-70 1 -90 19t-20 57t10 96q-70 -76 -156 -124
t-161 -48q-133 0 -204 91t-71 264q0 293 154 483t379 190z" />
    <glyph glyph-name="e" unicode="e" horiz-adv-x="921" 
d="M727 778q1 94 -111 94t-210 -100t-142 -252q167 8 271 49t148 91t44 118zM881 795q0 -168 -161 -276t-478 -116q-2 -18 -2 -55q0 -123 47 -183q47 -61 183 -61t290 109l35 -125q-166 -117 -367 -117q-336 0 -336 355q0 293 161 483t372 190q113 0 185 -54t71 -150z" />
    <glyph glyph-name="f" unicode="f" horiz-adv-x="694" 
d="M-39 -481q-92 0 -156 35l39 120q53 -28 122 -28t103 56t54 181l166 961h-160l25 127h157l15 86q39 233 148 332q110 98 241 98q88 0 137 -33l-49 -119q-37 25 -92 25q-188 0 -244 -328l-10 -61h233l-20 -127h-236l-166 -969q-32 -180 -100 -268t-207 -88z" />
    <glyph glyph-name="g" unicode="g" horiz-adv-x="1038" 
d="M391 106q76 0 166 70t154 166l86 487q-55 45 -162 45q-168 0 -279 -152t-110 -382q0 -104 34 -169t111 -65zM360 -354q130 0 196 84t95 268l23 133q-150 -160 -293 -160q-143 -1 -214 93t-71 268q0 287 156 477t379 190q180 0 325 -92l-157 -903q-39 -226 -123 -347
q-94 -138 -288 -138q-195 0 -337 75l39 127q140 -75 270 -75z" />
    <glyph glyph-name="h" unicode="h" horiz-adv-x="1083" 
d="M940 752q0 -104 -22 -234l-52 -305q-10 -59 -10 -85t27 -35t84 -9v-84q-100 -29 -165 -29q-65 -1 -85 19q-21 20 -21 48t17 136l53 315q29 179 29 235t-34 98t-111 42t-166 -72t-146 -163l-109 -629h-147l252 1454l153 33l-112 -647q143 160 315 159q114 1 182 -71
t68 -176z" />
    <glyph glyph-name="i" unicode="i" horiz-adv-x="528" 
d="M498 1322q0 -44 -32 -80t-80 -36t-77 31t-29 79t35 80t80 32t74 -32q29 -30 29 -74zM279 131q0 -47 110 -47v-84q-76 -29 -172 -29t-96 78q0 31 16 123l101 576q12 74 12 96q0 38 -111 43l17 84q96 29 160 29t78 -17q15 -15 15 -57t-18 -148l-102 -565q-10 -63 -10 -82z
" />
    <glyph glyph-name="j" unicode="j" horiz-adv-x="493" 
d="M504 1332q0 -44 -32 -80t-80 -36t-77 32q-29 30 -29 78t36 80t80 32t73 -31t29 -75zM-45 -481q-116 0 -170 37l37 118q61 -26 124 -26q62 0 98 55t58 180l150 860q12 79 12 99q0 39 -110 45l16 84q86 29 154 29t84 -17q16 -15 16 -57t-18 -148l-158 -897
q-33 -184 -105 -273t-188 -89z" />
    <glyph glyph-name="k" unicode="k" horiz-adv-x="1003" 
d="M487 1487l-258 -1487h-147l252 1454zM732 -29q-58 0 -87 25t-53 78l-217 456l399 441h199l-434 -451l184 -373q20 -39 48 -51t91 -12v-84q-72 -29 -130 -29z" />
    <glyph glyph-name="l" unicode="l" horiz-adv-x="505" 
d="M184 -29q-92 0 -92 74q0 35 17 127l225 1282l153 33l-225 -1272q-10 -59 -10 -86t27 -36t86 -9v-84q-89 -29 -181 -29z" />
    <glyph glyph-name="m" unicode="m" horiz-adv-x="1654" 
d="M793 722q0 62 -33 102q-32 40 -102 40t-154 -70t-139 -159l-111 -635h-145l129 748q12 74 12 96t-25 30q-25 10 -86 13l17 84q197 52 237 12q17 -16 17 -46t-9 -95q139 158 295 157q98 0 160 -59t76 -147q172 207 334 206q106 1 176 -69t69 -199q0 -74 -24 -225l-49 -293
q-10 -59 -10 -85t26 -35q27 -9 84 -9v-84q-100 -29 -185 -29t-85 78q0 41 16 123l53 320q29 168 29 228t-34 102t-104 42t-157 -76q-88 -76 -139 -167l-103 -621h-147l82 489q29 172 29 233z" />
    <glyph glyph-name="n" unicode="n" horiz-adv-x="1107" 
d="M826 -29q-106 -1 -105 67q0 28 16 136l54 315q29 179 29 235t-35 98q-33 42 -109 42t-165 -70t-146 -161l-111 -633h-145l129 748q12 74 12 96t-25 30q-25 10 -86 13l17 84q197 52 237 12q17 -16 17 -46t-9 -95q143 158 314 157q115 1 183 -71t67 -176q0 -104 -23 -234
l-51 -305q-10 -59 -10 -85q1 -26 27 -35t83 -9v-84q-101 -29 -165 -29z" />
    <glyph glyph-name="o" unicode="o" horiz-adv-x="1017" 
d="M404 -29q-138 1 -225 95t-87 270q0 252 124 450q60 96 160 154t238 59q138 0 225 -94t87 -270q0 -253 -124 -451q-60 -96 -160 -154t-238 -59zM575 874q-135 0 -234 -152t-99 -378q0 -248 200 -248q135 0 235 152q99 152 99 379q0 247 -201 247z" />
    <glyph glyph-name="p" unicode="p" horiz-adv-x="1067" 
d="M676 864q-76 0 -168 -72t-143 -159l-89 -496q57 -41 166 -41q170 0 277 161q106 161 106 382q-1 97 -37 161t-112 64zM248 844q0 22 -26 32q-26 9 -85 11l17 84q109 29 167 29t76 -23q18 -22 2 -135q141 158 308 157q131 0 199 -96t69 -248q-1 -289 -149 -487t-384 -197
q-96 0 -188 29l-78 -453h-145l205 1201q12 74 12 96z" />
    <glyph glyph-name="q" unicode="q" horiz-adv-x="1038" 
d="M395 106q78 0 169 74t153 168l82 483q-76 43 -168 43q-162 0 -274 -152t-112 -384t150 -232zM385 -29q-145 0 -217 91t-72 260q0 290 151 484t390 193q182 0 319 -94l-227 -1358h-149l100 588q-150 -164 -295 -164z" />
    <glyph glyph-name="r" unicode="r" horiz-adv-x="747" 
d="M649 827q-111 0 -282 -190l-113 -637h-145l129 748q12 74 12 96t-25 30q-25 10 -86 13l17 84q197 52 237 12q28 -28 4 -170q158 186 277 186q47 0 63 -30l-37 -148q-18 6 -51 6z" />
    <glyph glyph-name="s" unicode="s" horiz-adv-x="770" 
d="M651 264q0 -133 -92 -213t-259 -80t-300 99l57 116q43 -36 115 -64t150 -28t133 45t55 105t-40 99q-40 40 -95 73q-55 32 -111 68t-97 94q-40 58 -40 129q0 135 94 214q95 79 237 79t251 -64l-52 -119q-92 59 -190 59q-99 0 -149 -42t-50 -100t40 -98t95 -72t111 -68
t97 -96q40 -60 40 -136z" />
    <glyph glyph-name="t" unicode="t" horiz-adv-x="729" 
d="M299 160q0 -30 22 -45q22 -16 54 -17q88 0 182 54l29 -115q-120 -66 -226 -66q-208 0 -208 168q0 55 12 125l96 580h-147l24 127h148l86 256h104l-45 -256h258l-20 -127h-258l-99 -580q-12 -74 -12 -104z" />
    <glyph glyph-name="u" unicode="u" horiz-adv-x="1095" 
d="M846 131q0 -47 110 -47v-84q-102 -29 -168 -29q-94 0 -94 78q0 14 11 96q-154 -174 -322 -174q-115 0 -185 69t-69 185q0 72 12 154l60 369q12 74 12 96q0 38 -111 43l17 84q86 29 171 29t85 -68q0 -35 -21 -154l-65 -389q-17 -115 -17 -161t37 -84t111 -38t163 73
t150 171l103 621h147l-129 -758q-8 -47 -8 -82z" />
    <glyph glyph-name="v" unicode="v" horiz-adv-x="937" 
d="M750 876q0 48 -13 85l125 40q35 -61 35 -122q0 -119 -133 -324l-361 -555h-90l-123 813q-6 45 -26 58t-92 16l16 84q115 46 183 21q34 -13 46 -79q4 -23 13 -75l84 -586l202 326q80 131 107 190q27 60 27 108z" />
    <glyph glyph-name="w" unicode="w" horiz-adv-x="1390" 
d="M670 866q0 52 -8 95l141 38l100 -737l184 311q117 199 117 304q0 37 -14 84l127 40q33 -57 33 -120q0 -129 -121 -328l-338 -553h-88l-84 625l-311 -625h-95l-123 809q-8 49 -25 62t-93 16l16 84q74 29 132 29t78 -30q19 -30 32 -126l76 -570l196 398q68 142 68 194z" />
    <glyph glyph-name="x" unicode="x" horiz-adv-x="962" 
d="M718 -29q-58 0 -92 35t-71 125l-96 240l-287 -371h-172l406 502l-117 291q-23 59 -45 75q-23 16 -103 19l17 84q60 29 110 29t72 -18q22 -17 32 -39q11 -22 31 -71l107 -262l260 361h172l-381 -486l129 -313q20 -54 48 -70t98 -18v-84q-60 -29 -118 -29z" />
    <glyph glyph-name="y" unicode="y" horiz-adv-x="937" 
d="M739 872q0 53 -14 93l129 36q33 -55 33 -137q0 -141 -111 -350l-325 -620q-113 -219 -192 -282t-177 -64t-164 34l37 121q51 -31 121 -31t125 68t127 211l34 69l-163 793q-9 47 -27 59t-92 15l16 84q68 29 126 29t79 -26q20 -26 39 -118l125 -653l180 362q94 190 94 307z
" />
    <glyph glyph-name="z" unicode="z" horiz-adv-x="921" 
d="M31 0v70l600 774h-488l21 127h686v-74l-610 -770h561l-21 -127h-749z" />
    <glyph glyph-name="braceleft" unicode="{" horiz-adv-x="903" 
d="M860 1620h119l-21 -113h-94q-123 0 -184 -39t-82 -161l-55 -310q-33 -173 -93 -247t-219 -105q109 -35 155 -89t46 -138t-37 -267t-37 -247t48 -88t151 -25h100l-20 -113h-129q-164 0 -236 46t-71 163q0 72 38 267q37 194 37 268t-46 110t-162 58l22 121q158 27 215 82
t84 202l53 314q33 187 126 249t292 62z" />
    <glyph glyph-name="bar" unicode="|" horiz-adv-x="614" 
d="M389 -481h-123v2068h123v-2068z" />
    <glyph glyph-name="braceright" unicode="}" horiz-adv-x="903" 
d="M53 -209q123 0 185 39q61 39 81 162l56 309q33 174 93 248t218 104q-109 35 -155 89t-46 138t37 268q37 182 37 246t-48 89t-151 24h-100l21 113h129q164 0 236 -46t71 -163q0 -73 -38 -267t-38 -268t46 -110q46 -37 163 -57l-23 -121q-158 -27 -215 -82t-84 -203
l-53 -313q-33 -186 -126 -248t-292 -64h-118l20 113h94z" />
    <glyph glyph-name="asciitilde" unicode="~" 
d="M370 618q-56 0 -87 -36t-50 -107l-100 27q57 236 234 235q71 0 233 -63q162 -64 218 -64t87 36t49 108l101 -27q-57 -236 -234 -235q-71 0 -233 63t-218 63z" />
    <glyph glyph-name="uni00A0" unicode="&#xa0;" horiz-adv-x="450" 
 />
    <glyph glyph-name="exclamdown" unicode="&#xa1;" horiz-adv-x="450" 
d="M281 750q-55 0 -87 34t-32 89t40 91t91 36t84 -36q33 -34 33 -84t-37 -90t-92 -40zM190 573h89l-89 -974h-237z" />
    <glyph glyph-name="cent" unicode="&#xa2;" 
d="M324 369q0 -223 180 -258l131 749q-147 -41 -229 -186t-82 -305zM174 352q0 252 134 429t351 210l39 223h107l-39 -215q129 -6 242 -65l-52 -119q-98 55 -213 59l-135 -770q123 10 262 91l35 -119q-133 -82 -319 -101l-37 -208h-107l37 206q-145 13 -225 115t-80 264z
" />
    <glyph glyph-name="sterling" unicode="&#xa3;" 
d="M371 864q0 224 131 356t334 132q129 0 219 -25l-43 -139q-82 20 -176 20q-142 0 -222 -82t-79 -252q0 -66 22 -159h375l-19 -101h-338q4 -41 5 -61q0 -131 -71 -227t-208 -179h596l-31 -147h-815v72q149 76 257 196t108 267q0 27 -8 79h-236l18 101h197q-16 72 -16 149z
" />
    <glyph glyph-name="currency" unicode="&#xa4;" 
d="M545 375q115 0 187 93q72 94 73 198q0 198 -176 198q-113 0 -184 -92t-70 -215q0 -84 43 -133t127 -49zM532 256q-126 0 -200 55l-166 -139l-68 84l162 137q-35 63 -35 156q0 164 101 282l-131 150l92 78l127 -148q104 72 228 72t204 -57l166 141l67 -84l-161 -137
q35 -63 34 -150q0 -168 -100 -290l131 -148l-92 -78l-127 146q-106 -70 -232 -70z" />
    <glyph glyph-name="yen" unicode="&#xa5;" 
d="M213 596l18 100h232l-268 627h178l227 -590l428 590h189l-484 -627h240l-19 -100h-290l-25 -141h291l-19 -101h-290l-62 -354h-164l62 354h-287l18 101h287l25 141h-287z" />
    <glyph glyph-name="brokenbar" unicode="&#xa6;" horiz-adv-x="614" 
d="M389 -481h-123v757h123v-757zM389 829h-123v758h123v-758z" />
    <glyph glyph-name="section" unicode="&#xa7;" horiz-adv-x="964" 
d="M279 586q0 -88 133 -185q117 19 208 73t91 143t-133 182q-119 -17 -209 -71t-90 -142zM131 563q0 121 92 203t240 113q-156 111 -156 245q-1 134 99 206q100 71 248 71t264 -64l-50 -112q-111 53 -206 53t-154 -37t-59 -100q0 -103 204 -228q76 -45 141 -119t64 -155
q0 -121 -93 -203t-239 -112q156 -117 156 -249t-99 -203t-247 -71t-264 64l49 112q111 -53 206 -53t154 37t59 95t-41 105q-43 46 -103 87t-120 84t-103 103q-42 60 -42 128z" />
    <glyph glyph-name="dieresis" unicode="&#xa8;" horiz-adv-x="819" 
d="M864 1322q0 -42 -30 -76t-76 -34q-45 0 -72 30t-27 75t33 75t76 30t70 -29q26 -29 26 -71zM455 1322q0 -42 -31 -76t-76 -34t-72 30q-26 30 -26 75t33 75t75 30t70 -30q27 -28 27 -70z" />
    <glyph glyph-name="copyright" unicode="&#xa9;" horiz-adv-x="1658" 
d="M1485 687q0 259 -182 442q-183 183 -441 183t-442 -182q-184 -184 -184 -443t183 -442t442 -183t441 182q182 184 183 443zM1577 687q0 -298 -210 -507t-507 -209t-507 209t-210 507t210 506t507 208t507 -208t210 -506zM893 285q-180 0 -291 101q-110 102 -110 288
t108 298q109 112 291 111q113 0 209 -51l-21 -114q-88 51 -182 51q-135 0 -208 -81t-73 -215t77 -204t201 -70t210 43l12 -106q-90 -51 -223 -51z" />
    <glyph glyph-name="ordfeminine" unicode="&#xaa;" horiz-adv-x="802" 
d="M393 784q53 0 115 41t106 101l60 342q-47 29 -111 28q-123 0 -195 -112t-71 -256q0 -144 96 -144zM590 731q0 25 2 45q-98 -102 -206 -102t-160 67q-52 68 -52 181q0 201 110 340t287 139q133 0 242 -66l-84 -454q-10 -55 -10 -75t16 -26q16 -8 66 -8v-78
q-67 -20 -139 -20t-72 57z" />
    <glyph glyph-name="guillemotleft" unicode="&#xab;" horiz-adv-x="1099" 
d="M276 479l226 -348l-94 -68l-306 424l439 424l77 -71zM676 479l225 -348l-94 -68l-305 424l438 424l78 -71z" />
    <glyph glyph-name="logicalnot" unicode="&#xac;" 
d="M1055 870v-495h-111v389h-811v106h922z" />
    <glyph glyph-name="uni00AD" unicode="&#xad;" horiz-adv-x="716" 
d="M63 451l23 122h573l-22 -122h-574z" />
    <glyph glyph-name="registered" unicode="&#xae;" horiz-adv-x="1658" 
d="M745 963v-238h115q70 0 107 34t37 88t-36 85t-102 31h-121zM1133 289q-72 0 -123 80l-131 204q-27 43 -76 43h-58v-311h-118v760h252q113 0 179 -54t64 -159q0 -176 -170 -223q41 -20 78 -78l80 -131q23 -39 55 -39h33v-84q-33 -8 -65 -8zM1485 687q0 259 -182 442
q-183 183 -441 183t-442 -182q-184 -184 -184 -443t183 -442t442 -183t441 182q182 184 183 443zM1577 687q0 -298 -210 -507t-507 -209t-507 209t-210 507t210 506t507 208t507 -208t210 -506z" />
    <glyph glyph-name="macron" unicode="&#xaf;" horiz-adv-x="819" 
d="M840 1343l-21 -122h-553l21 122h553z" />
    <glyph glyph-name="degree" unicode="&#xb0;" 
d="M659 1253q-87 -1 -154 -73t-67 -172t53 -156q53 -55 140 -55q87 1 154 73t67 172t-53 155q-53 56 -140 56zM973 1042q1 -144 -99 -244t-246 -100t-228 82q-83 82 -83 226q-1 144 99 244q100 102 246 102t228 -83q83 -83 83 -227z" />
    <glyph glyph-name="plusminus" unicode="&#xb1;" 
d="M1055 0h-922v106h922v-106zM1055 631h-406v-363h-110v363h-406v106h406v361h110v-361h406v-106z" />
    <glyph glyph-name="twosuperior" unicode="&#xb2;" horiz-adv-x="819" 
d="M111 670v63q281 174 431 303t150 248q0 104 -126 104t-253 -92l-59 101q152 111 330 110q116 0 184 -55q68 -56 68 -146t-41 -164q-87 -157 -400 -351h363l-27 -121h-620z" />
    <glyph glyph-name="threesuperior" unicode="&#xb3;" horiz-adv-x="819" 
d="M768 897q0 -119 -92 -183t-227 -65q-178 0 -316 103l78 96q115 -82 213 -82q203 0 205 129q0 71 -76 103t-166 32h-53l18 103q326 18 326 172q0 86 -123 86t-223 -80l-56 94q125 102 304 102q106 0 173 -49t67 -136q0 -88 -61 -150q-60 -62 -157 -89q72 -18 119 -69
t47 -117z" />
    <glyph glyph-name="acute" unicode="&#xb4;" horiz-adv-x="819" 
d="M418 1143l-70 41l250 342l170 -62z" />
    <glyph glyph-name="mu" unicode="&#xb5;" horiz-adv-x="1130" 
d="M80 -225q0 66 12 129l144 844q12 74 12 96q0 38 -111 43l17 84q86 29 171 29t85 -68q0 -35 -21 -154l-65 -389q-16 -115 -16 -161t36 -84t110 -38t163 73t151 171l102 621h148l-129 -758q-8 -47 -8 -82q0 -47 110 -47v-84q-102 -29 -168 -29q-94 0 -94 78q0 14 10 96
q-154 -174 -321 -174q-109 0 -162 49l-16 -94q-32 -172 8 -235q23 -37 71 -68l-67 -104q-172 43 -172 256z" />
    <glyph glyph-name="paragraph" unicode="&#xb6;" horiz-adv-x="1337" 
d="M330 897q0 -113 70 -172t206 -59l103 587q-171 -4 -275 -93t-104 -263zM737 1372h637l-22 -121h-172l-250 -1423h-146l250 1425h-180l-250 -1425h-145l127 723q-195 0 -296 96t-102 248q0 225 151 351t398 126z" />
    <glyph glyph-name="periodcentered" unicode="&#xb7;" horiz-adv-x="512" 
d="M408 628q0 -50 -37 -90t-92 -40t-88 34q-31 35 -31 89q0 55 40 91t91 36t84 -35t33 -85z" />
    <glyph glyph-name="cedilla" unicode="&#xb8;" horiz-adv-x="819" 
d="M475 -268q0 -88 -79 -150t-176 -63q-97 0 -169 39l29 71q58 -33 120 -33q126 1 126 81q0 79 -181 85l-8 37l195 201h112l-133 -131q84 -2 124 -40t40 -97z" />
    <glyph glyph-name="onesuperior" unicode="&#xb9;" horiz-adv-x="819" 
d="M739 670h-549l19 98l211 8l123 594l-213 -20l18 100l281 47h76l-148 -721l201 -8z" />
    <glyph glyph-name="ordmasculine" unicode="&#xba;" horiz-adv-x="819" 
d="M819 1120q0 -194 -102 -320t-273 -126q-128 0 -200 77t-72 203q0 195 102 321t273 126q127 0 199 -77t73 -204zM451 776q104 0 175 92t70 236q0 195 -155 194q-104 0 -175 -92t-71 -235q0 -195 156 -195z" />
    <glyph glyph-name="guillemotright" unicode="&#xbb;" horiz-adv-x="1099" 
d="M823 496l-225 348l94 67l305 -424l-438 -424l-78 72zM424 496l-225 348l94 67l305 -424l-438 -424l-78 72z" />
    <glyph glyph-name="onequarter" unicode="&#xbc;" horiz-adv-x="2048" 
d="M1724 606l-307 -280h250zM1212 213v70l603 544h92l-103 -501h142l-21 -113h-143l-43 -213h-140l43 213h-430zM530 -29l-86 76l1201 1305l86 -76zM651 508h-549l19 98l211 8l123 594l-213 -20l18 100l281 47h75l-147 -721l201 -8z" />
    <glyph glyph-name="onehalf" unicode="&#xbd;" horiz-adv-x="2048" 
d="M1221 0v63q281 173 431 303t150 248q0 104 -126 104t-253 -91l-59 100q152 111 330 111q116 0 184 -56t68 -145q0 -166 -157 -304q-129 -116 -284 -212h363l-27 -121h-620zM475 -29l-86 76l1200 1305l86 -76zM651 508h-549l19 98l211 8l123 594l-213 -20l18 100l281 47
h75l-147 -721l201 -8z" />
    <glyph glyph-name="threequarters" unicode="&#xbe;" horiz-adv-x="2048" 
d="M737 725q0 -119 -92 -183t-227 -65q-178 0 -316 103l78 96q116 -82 214 -82q204 0 204 129q0 71 -76 103t-166 32h-53l19 103q326 18 325 172q0 86 -123 86t-223 -80l-55 94q125 102 303 102q106 0 173 -49q66 -49 66 -136q0 -88 -60 -150t-157 -89q72 -18 119 -69
t47 -117zM1724 606l-307 -280h250zM1212 213v70l603 544h92l-103 -501h142l-21 -113h-143l-43 -213h-140l43 213h-430zM551 -29l-86 76l1200 1305l86 -76z" />
    <glyph glyph-name="questiondown" unicode="&#xbf;" horiz-adv-x="778" 
d="M507 999q54 -1 86 -35t32 -88t-40 -90t-91 -36t-83 34t-32 85q0 50 37 90t91 40zM549 532v-75q0 -90 -46 -167t-113 -129q-66 -53 -132 -101q-158 -117 -158 -222q0 -59 43 -96t117 -37q129 0 262 84l56 -113q-72 -50 -164 -78t-166 -28q-150 0 -230 71t-80 171
q1 177 166 299q70 51 140 99t118 117t48 152v53h139z" />
    <glyph glyph-name="Agrave" unicode="&#xc0;" horiz-adv-x="1312" 
d="M920 1546l-54 -59l-409 186l143 113zM768 1104l-309 -572h422zM987 0l-78 393h-526l-211 -393h-190l772 1372h104l313 -1372h-184z" />
    <glyph glyph-name="Aacute" unicode="&#xc1;" horiz-adv-x="1312" 
d="M723 1487l-53 59l319 240l144 -113zM768 1104l-309 -572h422zM987 0l-78 393h-526l-211 -393h-190l772 1372h104l313 -1372h-184z" />
    <glyph glyph-name="Acircumflex" unicode="&#xc2;" horiz-adv-x="1312" 
d="M827 1812h86l158 -290l-70 -35l-155 151l-236 -151l-67 35zM768 1104l-309 -572h422zM987 0l-78 393h-526l-211 -393h-190l772 1372h104l313 -1372h-184z" />
    <glyph glyph-name="Atilde" unicode="&#xc3;" horiz-adv-x="1312" 
d="M961 1530q-43 0 -141 45t-126 45q-55 0 -98 -117l-74 25q74 242 205 241q43 0 141 -45t125 -45q56 0 99 117l73 -24q-74 -242 -204 -242zM768 1104l-309 -572h422zM987 0l-78 393h-526l-211 -393h-190l772 1372h104l313 -1372h-184z" />
    <glyph glyph-name="Adieresis" unicode="&#xc4;" horiz-adv-x="1312" 
d="M1038 1755q42 -1 70 -29q27 -28 27 -70t-31 -76t-76 -34t-72 30q-26 30 -26 75t33 75t75 29zM629 1755q43 -1 69 -29t27 -70q0 -42 -31 -76t-76 -34q-46 0 -72 30t-26 75t33 75t76 29zM768 1104l-309 -572h422zM987 0l-78 393h-526l-211 -393h-190l772 1372h104
l313 -1372h-184z" />
    <glyph glyph-name="Aring" unicode="&#xc5;" horiz-adv-x="1312" 
d="M942 1686q0 77 -80 77q-51 0 -81 -40q-29 -40 -29 -86q1 -85 79 -85q51 0 81 40t30 94zM832 1462q-89 0 -137 43t-48 126q1 83 63 153t151 70t137 -44t48 -126t-62 -152q-63 -70 -152 -70zM768 1104l-309 -572h422zM987 0l-78 393h-526l-211 -393h-190l772 1372h104
l313 -1372h-184z" />
    <glyph glyph-name="AE" unicode="&#xc6;" horiz-adv-x="1845" 
d="M1069 1092l-461 -562h363zM877 0l69 393h-450l-324 -393h-201l1141 1372h778l-22 -137h-611l-77 -444h489l-22 -138h-492l-92 -516h614l-22 -137h-778z" />
    <glyph glyph-name="Ccedilla" unicode="&#xc7;" horiz-adv-x="1296" 
d="M133 565q0 350 215 593t580 243q197 0 348 -80l-49 -143q-137 76 -307 75q-285 0 -451 -191t-166 -495q0 -215 115 -329t314 -113q199 0 382 86l25 -150q-166 -78 -400 -88l-104 -104q84 -2 124 -40t40 -97q0 -88 -79 -150t-176 -63q-97 0 -169 39l28 71q59 -33 121 -33
q125 1 125 81q0 79 -180 85l-8 37l170 176q-236 19 -367 181t-131 409z" />
    <glyph glyph-name="Egrave" unicode="&#xc8;" horiz-adv-x="1054" 
d="M852 1546l-53 -59l-410 186l143 113zM86 0l242 1372h772l-23 -137h-610l-78 -444h490l-23 -138h-491l-91 -516h613l-23 -137h-778z" />
    <glyph glyph-name="Eacute" unicode="&#xc9;" horiz-adv-x="1054" 
d="M567 1487l-53 59l320 240l143 -113zM86 0l242 1372h772l-23 -137h-610l-78 -444h490l-23 -138h-491l-91 -516h613l-23 -137h-778z" />
    <glyph glyph-name="Ecircumflex" unicode="&#xca;" horiz-adv-x="1054" 
d="M743 1812h86l158 -290l-69 -35l-156 151l-236 -151l-67 35zM86 0l242 1372h772l-23 -137h-610l-78 -444h490l-23 -138h-491l-91 -516h613l-23 -137h-778z" />
    <glyph glyph-name="Edieresis" unicode="&#xcb;" horiz-adv-x="1054" 
d="M930 1755q44 -1 70 -29t26 -70t-31 -76t-75 -34t-72 30q-27 30 -27 75t33 75t76 29zM520 1755q44 -1 70 -29t26 -70t-30 -76t-76 -34q-45 0 -72 30q-26 30 -26 75t32 75t76 29zM86 0l242 1372h772l-23 -137h-610l-78 -444h490l-23 -138h-491l-91 -516h613l-23 -137h-778z
" />
    <glyph glyph-name="Igrave" unicode="&#xcc;" horiz-adv-x="516" 
d="M530 1546l-53 -59l-409 186l143 113zM86 0l242 1372h164l-242 -1372h-164z" />
    <glyph glyph-name="Iacute" unicode="&#xcd;" horiz-adv-x="516" 
d="M367 1487l-54 59l320 240l143 -113zM86 0l242 1372h164l-242 -1372h-164z" />
    <glyph glyph-name="Icircumflex" unicode="&#xce;" horiz-adv-x="516" 
d="M451 1812h86l157 -290l-69 -35l-156 151l-236 -151l-67 35zM86 0l242 1372h164l-242 -1372h-164z" />
    <glyph glyph-name="Idieresis" unicode="&#xcf;" horiz-adv-x="516" 
d="M672 1755q44 -1 70 -29t26 -70t-31 -76t-75 -34t-72 30q-27 30 -27 75t33 75t76 29zM262 1755q44 -1 70 -29t26 -70t-30 -76t-76 -34q-45 0 -72 30q-26 30 -26 75t32 75t76 29zM86 0l242 1372h164l-242 -1372h-164z" />
    <glyph glyph-name="Eth" unicode="&#xd0;" horiz-adv-x="1472" 
d="M598 137q287 0 460 173t173 499q0 426 -436 426h-281l-82 -461h303l-18 -110h-305l-93 -527h279zM786 1372q614 0 615 -567q0 -357 -206 -581t-605 -224h-457l117 664h-178l20 110h176l107 598h411z" />
    <glyph glyph-name="Ntilde" unicode="&#xd1;" horiz-adv-x="1417" 
d="M1024 1530q-43 0 -141 45t-125 45q-55 0 -99 -117l-73 25q74 242 205 241q43 0 141 -45t125 -45q55 0 98 117l74 -24q-74 -242 -205 -242zM86 0l242 1372h172l553 -1028l176 1028h164l-242 -1372h-98l-604 1133l-199 -1133h-164z" />
    <glyph glyph-name="Ograve" unicode="&#xd2;" horiz-adv-x="1482" 
d="M993 1546l-53 -59l-410 186l144 113zM303 526q1 -205 89 -307t252 -102q164 1 280 67q204 118 282 410q35 127 35 260q0 203 -92 302t-283 99q-262 0 -412 -218t-151 -511zM630 -29q-249 0 -373 154t-124 397q0 345 193 602q92 125 239 201t326 76q262 1 391 -147
t129 -387t-87 -439t-266 -329q-179 -128 -428 -128z" />
    <glyph glyph-name="Oacute" unicode="&#xd3;" horiz-adv-x="1482" 
d="M707 1487l-54 59l320 240l143 -113zM303 526q1 -205 89 -307t252 -102q164 1 280 67q204 118 282 410q35 127 35 260q0 203 -92 302t-283 99q-262 0 -412 -218t-151 -511zM630 -29q-249 0 -373 154t-124 397q0 345 193 602q92 125 239 201t326 76q262 1 391 -147
t129 -387t-87 -439t-266 -329q-179 -128 -428 -128z" />
    <glyph glyph-name="Ocircumflex" unicode="&#xd4;" horiz-adv-x="1482" 
d="M920 1812h86l157 -290l-69 -35l-156 151l-236 -151l-67 35zM303 526q1 -205 89 -307t252 -102q164 1 280 67q204 118 282 410q35 127 35 260q0 203 -92 302t-283 99q-262 0 -412 -218t-151 -511zM630 -29q-249 0 -373 154t-124 397q0 345 193 602q92 125 239 201t326 76
q262 1 391 -147t129 -387t-87 -439t-266 -329q-179 -128 -428 -128z" />
    <glyph glyph-name="Otilde" unicode="&#xd5;" horiz-adv-x="1482" 
d="M1038 1530q-43 0 -141 45t-125 45q-55 0 -98 -117l-74 25q74 242 205 241q43 0 141 -45t125 -45q55 0 98 117l74 -24q-74 -242 -205 -242zM303 526q1 -205 89 -307t252 -102q164 1 280 67q204 118 282 410q35 127 35 260q0 203 -92 302t-283 99q-262 0 -412 -218
t-151 -511zM630 -29q-249 0 -373 154t-124 397q0 345 193 602q92 125 239 201t326 76q262 1 391 -147t129 -387t-87 -439t-266 -329q-179 -128 -428 -128z" />
    <glyph glyph-name="Odieresis" unicode="&#xd6;" horiz-adv-x="1482" 
d="M1118 1546q-46 0 -72 30t-26 75t33 75t75 29t70 -29q27 -28 27 -70t-31 -76t-76 -34zM719 1755q43 -1 69 -29t27 -70q0 -42 -31 -76q-32 -34 -76 -34t-71 30t-27 75t33 75t76 29zM303 526q1 -205 89 -307t252 -102q164 1 280 67q204 118 282 410q35 127 35 260
q0 203 -92 302t-283 99q-262 0 -412 -218t-151 -511zM630 -29q-249 0 -373 154t-124 397q0 345 193 602q92 125 239 201t326 76q262 1 391 -147t129 -387t-87 -439t-266 -329q-179 -128 -428 -128z" />
    <glyph glyph-name="multiply" unicode="&#xd7;" 
d="M969 920l-297 -299l297 -297l-78 -78l-297 297l-297 -297l-78 78l297 297l-297 299l78 77l297 -299l297 299z" />
    <glyph glyph-name="Oslash" unicode="&#xd8;" horiz-adv-x="1482" 
d="M303 526q0 -137 37 -227l795 870q-92 86 -269 86q-262 0 -412 -218t-151 -511zM650 117q160 1 274 67q204 118 282 410q35 127 35 260t-41 225l-797 -874q87 -88 247 -88zM650 -29q-228 0 -355 115l-141 -156h-148l217 238q-90 136 -90 328q0 370 193 628q92 125 239 201
t345 76t333 -113l139 154h148l-213 -234q94 -136 94 -358t-87 -422t-266 -329q-180 -128 -408 -128z" />
    <glyph glyph-name="Ugrave" unicode="&#xd9;" horiz-adv-x="1366" 
d="M952 1546l-53 -59l-410 186l144 113zM604 -29q-205 -1 -333 97t-128 280q0 57 9 107l161 917h164l-158 -891q-10 -55 -10 -110q0 -254 329 -254t398 383l156 872h164l-162 -917q-86 -484 -590 -484z" />
    <glyph glyph-name="Uacute" unicode="&#xda;" horiz-adv-x="1366" 
d="M764 1487l-53 59l319 240l144 -113zM604 -29q-205 -1 -333 97t-128 280q0 57 9 107l161 917h164l-158 -891q-10 -55 -10 -110q0 -254 329 -254t398 383l156 872h164l-162 -917q-86 -484 -590 -484z" />
    <glyph glyph-name="Ucircumflex" unicode="&#xdb;" horiz-adv-x="1366" 
d="M858 1812h86l158 -290l-70 -35l-155 151l-236 -151l-68 35zM604 -29q-205 -1 -333 97t-128 280q0 57 9 107l161 917h164l-158 -891q-10 -55 -10 -110q0 -254 329 -254t398 383l156 872h164l-162 -917q-86 -484 -590 -484z" />
    <glyph glyph-name="Udieresis" unicode="&#xdc;" horiz-adv-x="1366" 
d="M1067 1755q43 -1 69 -29t27 -70q-1 -42 -31 -76t-75 -34t-72 30t-27 75t33 75t76 29zM658 1755q42 -1 69 -29t27 -70t-31 -76t-76 -34t-72 30t-27 75t34 75t76 29zM604 -29q-205 -1 -333 97t-128 280q0 57 9 107l161 917h164l-158 -891q-10 -55 -10 -110q0 -254 329 -254
t398 383l156 872h164l-162 -917q-86 -484 -590 -484z" />
    <glyph glyph-name="Yacute" unicode="&#xdd;" horiz-adv-x="1218" 
d="M672 1487l-54 59l320 240l143 -113zM440 0l97 549l-328 823h176l254 -676l461 676h188l-592 -833l-92 -539h-164z" />
    <glyph glyph-name="Thorn" unicode="&#xde;" horiz-adv-x="1114" 
d="M506 424q182 0 284 81q101 81 101 247q0 197 -254 196h-221l-92 -524h182zM684 1085q176 0 272 -86t97 -233q0 -479 -582 -479h-172l-49 -287h-164l242 1372h164l-52 -287h244z" />
    <glyph glyph-name="germandbls" unicode="&#xdf;" horiz-adv-x="1212" 
d="M788 1487q164 0 253 -78t89 -193t-96 -206q-70 -66 -145 -122q-76 -54 -104 -92q-27 -38 -27 -80t37 -81t90 -71t107 -68t91 -96t37 -136q0 -133 -92 -213t-259 -80t-300 99l57 116q43 -36 115 -64q71 -28 149 -28t134 45q55 45 55 105t-37 100q-37 41 -90 74
q-54 32 -108 68t-91 90t-37 136q0 80 56 156t124 120q67 44 123 104t56 124t-56 100t-143 36q-252 0 -315 -357l-193 -1120q-32 -180 -100 -268t-207 -88q-92 0 -156 35l39 120q53 -28 122 -28t102 55t55 182l166 961h-160l25 127h155l13 63q80 453 466 453z" />
    <glyph glyph-name="agrave" unicode="&#xe0;" horiz-adv-x="1056" 
d="M737 1180l-69 -37l-283 330l180 53zM391 106q76 0 163 73t148 167l82 485q-57 43 -166 43q-160 0 -266 -156t-106 -384t145 -228zM749 -29q-83 0 -83 78q0 39 10 94q-68 -80 -153 -126t-161 -46q-130 1 -198 95t-68 256q0 286 146 482t383 195q174 0 319 -94l-113 -667
q-14 -86 -14 -110t23 -33t88 -11v-84q-96 -29 -179 -29z" />
    <glyph glyph-name="aacute" unicode="&#xe1;" horiz-adv-x="1056" 
d="M612 1143l-69 41l250 342l170 -62zM391 106q76 0 163 73t148 167l82 485q-57 43 -166 43q-160 0 -266 -156t-106 -384t145 -228zM749 -29q-83 0 -83 78q0 39 10 94q-68 -80 -153 -126t-161 -46q-130 1 -198 95t-68 256q0 286 146 482t383 195q174 0 319 -94l-113 -667
q-14 -86 -14 -110t23 -33t88 -11v-84q-96 -29 -179 -29z" />
    <glyph glyph-name="acircumflex" unicode="&#xe2;" horiz-adv-x="1056" 
d="M664 1520h86l157 -342l-69 -35l-156 192l-236 -192l-67 35zM391 106q76 0 163 73t148 167l82 485q-57 43 -166 43q-160 0 -266 -156t-106 -384t145 -228zM749 -29q-83 0 -83 78q0 39 10 94q-68 -80 -153 -126t-161 -46q-130 1 -198 95t-68 256q0 286 146 482t383 195
q174 0 319 -94l-113 -667q-14 -86 -14 -110t23 -33t88 -11v-84q-96 -29 -179 -29z" />
    <glyph glyph-name="atilde" unicode="&#xe3;" horiz-adv-x="1056" 
d="M760 1210q-44 0 -142 45t-124 45q-55 0 -99 -116l-73 24q74 242 204 242q44 0 142 -45t125 -45q55 0 98 117l74 -25q-74 -242 -205 -242zM391 106q76 0 163 73t148 167l82 485q-57 43 -166 43q-160 0 -266 -156t-106 -384t145 -228zM749 -29q-83 0 -83 78q0 39 10 94
q-68 -80 -153 -126t-161 -46q-130 1 -198 95t-68 256q0 286 146 482t383 195q174 0 319 -94l-113 -667q-14 -86 -14 -110t23 -33t88 -11v-84q-96 -29 -179 -29z" />
    <glyph glyph-name="adieresis" unicode="&#xe4;" horiz-adv-x="1056" 
d="M961 1322q0 -42 -31 -76t-76 -34t-72 30q-26 30 -26 75t32 75q33 30 76 30t70 -30q27 -28 27 -70zM551 1322q0 -42 -31 -76t-76 -34q-46 0 -72 30t-26 75t33 75t76 30t69 -30q26 -28 27 -70zM391 106q76 0 163 73t148 167l82 485q-57 43 -166 43q-160 0 -266 -156
t-106 -384t145 -228zM749 -29q-83 0 -83 78q0 39 10 94q-68 -80 -153 -126t-161 -46q-130 1 -198 95t-68 256q0 286 146 482t383 195q174 0 319 -94l-113 -667q-14 -86 -14 -110t23 -33t88 -11v-84q-96 -29 -179 -29z" />
    <glyph glyph-name="aring" unicode="&#xe5;" horiz-adv-x="1056" 
d="M559 1303q0 -78 88 -78q43 0 73 40t30 86q0 83 -80 85q-51 0 -81 -40t-30 -93zM640 1135q-89 0 -137 43q-48 44 -48 126t62 152q61 70 151 70t138 -43t48 -126t-62 -153q-63 -69 -152 -69zM391 106q76 0 163 73t148 167l82 485q-57 43 -166 43q-160 0 -266 -156
t-106 -384t145 -228zM749 -29q-83 0 -83 78q0 39 10 94q-68 -80 -153 -126t-161 -46q-130 1 -198 95t-68 256q0 286 146 482t383 195q174 0 319 -94l-113 -667q-14 -86 -14 -110t23 -33t88 -11v-84q-96 -29 -179 -29z" />
    <glyph glyph-name="ae" unicode="&#xe6;" horiz-adv-x="1468" 
d="M205 201q0 -47 39 -75q40 -28 116 -28t163 76t118 229q-152 -8 -255 -44q-102 -35 -142 -73t-39 -85zM1164 872q-110 0 -209 -96t-144 -244q199 16 330 74t133 164q0 102 -110 102zM1427 788q0 -328 -639 -372q-2 -20 -2 -64q0 -125 48 -186t159 -62q152 0 314 109
l34 -125q-170 -117 -372 -117q-231 0 -303 185q-135 -184 -351 -185q-106 -1 -185 55t-79 154q0 287 606 344l21 138q8 61 8 103t-35 70t-121 27q-137 0 -297 -82l-28 119q182 100 391 100t233 -159q154 160 336 159q111 0 187 -54q75 -55 75 -157z" />
    <glyph glyph-name="ccedilla" unicode="&#xe7;" horiz-adv-x="901" 
d="M92 324q0 280 155 478t392 197q131 0 221 -69l-51 -121q-78 66 -188 65q-154 0 -267 -162t-112 -372q0 -236 209 -236q135 0 272 93l35 -123q-100 -74 -271 -99l-108 -106q84 -2 124 -40t40 -97q0 -88 -79 -150t-176 -63q-97 0 -169 39l28 71q59 -33 121 -33
q125 1 125 81q0 79 -180 85l-8 37l168 174q-281 31 -281 351z" />
    <glyph glyph-name="egrave" unicode="&#xe8;" horiz-adv-x="921" 
d="M627 1180l-70 -37l-283 330l181 53zM727 778q1 94 -111 94t-210 -100t-142 -252q167 8 271 49t148 91t44 118zM881 795q0 -168 -161 -276t-478 -116q-2 -18 -2 -55q0 -123 47 -183q47 -61 183 -61t290 109l35 -125q-166 -117 -367 -117q-336 0 -336 355q0 293 161 483
t372 190q113 0 185 -54t71 -150z" />
    <glyph glyph-name="eacute" unicode="&#xe9;" horiz-adv-x="921" 
d="M502 1143l-70 41l250 342l170 -62zM727 778q1 94 -111 94t-210 -100t-142 -252q167 8 271 49t148 91t44 118zM881 795q0 -168 -161 -276t-478 -116q-2 -18 -2 -55q0 -123 47 -183q47 -61 183 -61t290 109l35 -125q-166 -117 -367 -117q-336 0 -336 355q0 293 161 483
t372 190q113 0 185 -54t71 -150z" />
    <glyph glyph-name="ecircumflex" unicode="&#xea;" horiz-adv-x="921" 
d="M625 1520h86l157 -342l-69 -35l-156 192l-235 -192l-68 35zM727 778q1 94 -111 94t-210 -100t-142 -252q167 8 271 49t148 91t44 118zM881 795q0 -168 -161 -276t-478 -116q-2 -18 -2 -55q0 -123 47 -183q47 -61 183 -61t290 109l35 -125q-166 -117 -367 -117
q-336 0 -336 355q0 293 161 483t372 190q113 0 185 -54t71 -150z" />
    <glyph glyph-name="edieresis" unicode="&#xeb;" horiz-adv-x="921" 
d="M909 1322q-1 -42 -31 -76t-75 -34t-72 30t-27 75t33 75t76 30t70 -29q26 -29 26 -71zM500 1322q0 -42 -31 -76t-76 -34t-71 30t-27 75q0 45 33 75q34 30 76 30t69 -30q27 -28 27 -70zM727 778q1 94 -111 94t-210 -100t-142 -252q167 8 271 49t148 91t44 118zM881 795
q0 -168 -161 -276t-478 -116q-2 -18 -2 -55q0 -123 47 -183q47 -61 183 -61t290 109l35 -125q-166 -117 -367 -117q-336 0 -336 355q0 293 161 483t372 190q113 0 185 -54t71 -150z" />
    <glyph glyph-name="igrave" unicode="&#xec;" horiz-adv-x="528" 
d="M412 1180l-70 -37l-283 330l181 53zM279 131q0 -47 110 -47v-84q-76 -29 -172 -29t-96 78q0 31 16 123l101 576q12 74 12 96q0 38 -111 43l17 84q96 29 160 29t78 -17q15 -15 15 -57t-18 -148l-102 -565q-10 -63 -10 -82z" />
    <glyph glyph-name="iacute" unicode="&#xed;" horiz-adv-x="528" 
d="M285 1143l-70 41l250 342l170 -62zM279 131q0 -47 110 -47v-84q-76 -29 -172 -29t-96 78q0 31 16 123l101 576q12 74 12 96q0 38 -111 43l17 84q96 29 160 29t78 -17q15 -15 15 -57t-18 -148l-102 -565q-10 -63 -10 -82z" />
    <glyph glyph-name="icircumflex" unicode="&#xee;" horiz-adv-x="528" 
d="M342 1520h86l158 -342l-70 -35l-156 192l-235 -192l-68 35zM279 131q0 -47 110 -47v-84q-76 -29 -172 -29t-96 78q0 31 16 123l101 576q12 74 12 96q0 38 -111 43l17 84q96 29 160 29t78 -17q15 -15 15 -57t-18 -148l-102 -565q-10 -63 -10 -82z" />
    <glyph glyph-name="idieresis" unicode="&#xef;" horiz-adv-x="528" 
d="M672 1322q0 -42 -31 -76t-76 -34t-71 30t-27 75q0 45 33 75q34 30 76 30t69 -30q27 -28 27 -70zM262 1322q0 -42 -31 -76t-75 -34t-72 30q-27 30 -27 75t33 75t76 30t70 -29q26 -29 26 -71zM279 131q0 -47 110 -47v-84q-76 -29 -172 -29t-96 78q0 31 16 123l101 576
q12 74 12 96q0 38 -111 43l17 84q96 29 160 29t78 -17q15 -15 15 -57t-18 -148l-102 -565q-10 -63 -10 -82z" />
    <glyph glyph-name="eth" unicode="&#xf0;" horiz-adv-x="1019" 
d="M242 360q0 -116 47 -190t147 -74t186 106t129 254q44 146 44 285v39q-88 55 -193 56q-160 0 -260 -140t-100 -336zM944 766q0 -193 -58 -371t-182 -301t-284 -123q-160 1 -244 101t-84 274q0 248 134 432t362 185q106 0 190 -39q-33 154 -110 262l-295 -129l16 117
l209 92q-74 70 -182 125l67 112q139 -53 252 -178l228 100l-17 -116l-145 -64q143 -213 143 -479z" />
    <glyph glyph-name="ntilde" unicode="&#xf1;" horiz-adv-x="1107" 
d="M745 1210q-43 0 -141 45t-125 45q-55 0 -98 -116l-74 24q74 242 205 242q43 0 141 -45t125 -45q56 0 99 117l73 -25q-74 -242 -205 -242zM826 -29q-106 -1 -105 67q0 28 16 136l54 315q29 179 29 235t-35 98q-33 42 -109 42t-165 -70t-146 -161l-111 -633h-145l129 748
q12 74 12 96t-25 30q-25 10 -86 13l17 84q197 52 237 12q17 -16 17 -46t-9 -95q143 158 314 157q115 1 183 -71t67 -176q0 -104 -23 -234l-51 -305q-10 -59 -10 -85q1 -26 27 -35t83 -9v-84q-101 -29 -165 -29z" />
    <glyph glyph-name="ograve" unicode="&#xf2;" horiz-adv-x="1017" 
d="M682 1180l-70 -37l-282 330l180 53zM404 -29q-138 1 -225 95t-87 270q0 252 124 450q60 96 160 154t238 59q138 0 225 -94t87 -270q0 -253 -124 -451q-60 -96 -160 -154t-238 -59zM575 874q-135 0 -234 -152t-99 -378q0 -248 200 -248q135 0 235 152q99 152 99 379
q0 247 -201 247z" />
    <glyph glyph-name="oacute" unicode="&#xf3;" horiz-adv-x="1017" 
d="M512 1143l-70 41l250 342l170 -62zM404 -29q-138 1 -225 95t-87 270q0 252 124 450q60 96 160 154t238 59q138 0 225 -94t87 -270q0 -253 -124 -451q-60 -96 -160 -154t-238 -59zM575 874q-135 0 -234 -152t-99 -378q0 -248 200 -248q135 0 235 152q99 152 99 379
q0 247 -201 247z" />
    <glyph glyph-name="ocircumflex" unicode="&#xf4;" horiz-adv-x="1017" 
d="M616 1520h86l158 -342l-69 -35l-156 192l-236 -192l-67 35zM404 -29q-138 1 -225 95t-87 270q0 252 124 450q60 96 160 154t238 59q138 0 225 -94t87 -270q0 -253 -124 -451q-60 -96 -160 -154t-238 -59zM575 874q-135 0 -234 -152t-99 -378q0 -248 200 -248
q135 0 235 152q99 152 99 379q0 247 -201 247z" />
    <glyph glyph-name="otilde" unicode="&#xf5;" horiz-adv-x="1017" 
d="M715 1210q-43 0 -141 45t-125 45q-55 0 -99 -116l-74 24q74 242 205 242q43 0 141 -45t126 -45q55 0 98 117l74 -25q-74 -242 -205 -242zM404 -29q-138 1 -225 95t-87 270q0 252 124 450q60 96 160 154t238 59q138 0 225 -94t87 -270q0 -253 -124 -451q-60 -96 -160 -154
t-238 -59zM575 874q-135 0 -234 -152t-99 -378q0 -248 200 -248q135 0 235 152q99 152 99 379q0 247 -201 247z" />
    <glyph glyph-name="odieresis" unicode="&#xf6;" horiz-adv-x="1017" 
d="M922 1322q0 -42 -31 -76t-76 -34t-72 30t-27 75t34 75t76 30t69 -30q27 -28 27 -70zM512 1322q0 -42 -31 -76t-75 -34t-72 30q-27 30 -27 75t33 75t76 30q44 0 70 -30q26 -28 26 -70zM404 -29q-138 1 -225 95t-87 270q0 252 124 450q60 96 160 154t238 59q138 0 225 -94
t87 -270q0 -253 -124 -451q-60 -96 -160 -154t-238 -59zM575 874q-135 0 -234 -152t-99 -378q0 -248 200 -248q135 0 235 152q99 152 99 379q0 247 -201 247z" />
    <glyph glyph-name="divide" unicode="&#xf7;" 
d="M481 295q0 45 34 79t79 34t79 -34t34 -79t-34 -79t-79 -34t-79 34t-34 79zM481 950q0 45 34 79t79 34t79 -34t34 -79t-34 -79q-34 -33 -79 -33t-79 34t-34 78zM1055 569h-922v107h922v-107z" />
    <glyph glyph-name="oslash" unicode="&#xf8;" horiz-adv-x="1030" 
d="M582 874q-135 0 -235 -151q-99 -152 -99 -379q0 -49 4 -70l483 533q-49 67 -153 67zM782 627q0 25 -4 69l-485 -532q49 -68 156 -68q135 0 234 152t99 379zM416 -29q-133 0 -221 84l-97 -106h-141l176 194q-35 82 -35 199q0 116 32 232q72 260 252 367q99 58 231 58
t221 -84l96 107h143l-178 -197q37 -77 37 -195t-32 -234t-92 -212t-160 -154t-232 -59z" />
    <glyph glyph-name="ugrave" unicode="&#xf9;" horiz-adv-x="1095" 
d="M670 1180l-70 -37l-283 330l181 53zM846 131q0 -47 110 -47v-84q-102 -29 -168 -29q-94 0 -94 78q0 14 11 96q-154 -174 -322 -174q-115 0 -185 69t-69 185q0 72 12 154l60 369q12 74 12 96q0 38 -111 43l17 84q86 29 171 29t85 -68q0 -35 -21 -154l-65 -389
q-17 -115 -17 -161t37 -84t111 -38t163 73t150 171l103 621h147l-129 -758q-8 -47 -8 -82z" />
    <glyph glyph-name="uacute" unicode="&#xfa;" horiz-adv-x="1095" 
d="M580 1143l-70 41l250 342l170 -62zM846 131q0 -47 110 -47v-84q-102 -29 -168 -29q-94 0 -94 78q0 14 11 96q-154 -174 -322 -174q-115 0 -185 69t-69 185q0 72 12 154l60 369q12 74 12 96q0 38 -111 43l17 84q86 29 171 29t85 -68q0 -35 -21 -154l-65 -389
q-17 -115 -17 -161t37 -84t111 -38t163 73t150 171l103 621h147l-129 -758q-8 -47 -8 -82z" />
    <glyph glyph-name="ucircumflex" unicode="&#xfb;" horiz-adv-x="1095" 
d="M625 1520h86l157 -342l-69 -35l-156 192l-235 -192l-68 35zM846 131q0 -47 110 -47v-84q-102 -29 -168 -29q-94 0 -94 78q0 14 11 96q-154 -174 -322 -174q-115 0 -185 69t-69 185q0 72 12 154l60 369q12 74 12 96q0 38 -111 43l17 84q86 29 171 29t85 -68
q0 -35 -21 -154l-65 -389q-17 -115 -17 -161t37 -84t111 -38t163 73t150 171l103 621h147l-129 -758q-8 -47 -8 -82z" />
    <glyph glyph-name="udieresis" unicode="&#xfc;" horiz-adv-x="1095" 
d="M936 1322q0 -42 -31 -76t-76 -34t-71 30t-27 75q0 45 33 75t76 30q44 0 70 -30q26 -28 26 -70zM526 1322q0 -42 -30 -76t-76 -34q-45 0 -72 30q-26 30 -26 75t32 75q33 30 76 30t70 -29q26 -29 26 -71zM846 131q0 -47 110 -47v-84q-102 -29 -168 -29q-94 0 -94 78
q0 14 11 96q-154 -174 -322 -174q-115 0 -185 69t-69 185q0 72 12 154l60 369q12 74 12 96q0 38 -111 43l17 84q86 29 171 29t85 -68q0 -35 -21 -154l-65 -389q-17 -115 -17 -161t37 -84t111 -38t163 73t150 171l103 621h147l-129 -758q-8 -47 -8 -82z" />
    <glyph glyph-name="yacute" unicode="&#xfd;" horiz-adv-x="937" 
d="M496 1143l-70 41l250 342l170 -62zM739 872q0 53 -14 93l129 36q33 -55 33 -137q0 -141 -111 -350l-325 -620q-113 -219 -192 -282t-177 -64t-164 34l37 121q51 -31 121 -31t125 68t127 211l34 69l-163 793q-9 47 -27 59t-92 15l16 84q68 29 126 29t79 -26
q20 -26 39 -118l125 -653l180 362q94 190 94 307z" />
    <glyph glyph-name="thorn" unicode="&#xfe;" horiz-adv-x="1044" 
d="M653 864q-76 0 -166 -70t-147 -161l-86 -500q68 -37 166 -37q170 0 276 161t107 382q0 97 -37 161t-113 64zM420 -29q-104 0 -191 29l-77 -453h-146l328 1907l153 33l-112 -647q154 160 309 159q131 0 200 -96t68 -248q0 -289 -148 -487t-384 -197z" />
    <glyph glyph-name="ydieresis" unicode="&#xff;" horiz-adv-x="937" 
d="M864 1322q0 -42 -30 -76t-76 -34q-45 0 -72 30t-27 75t33 75t76 30t70 -29q26 -29 26 -71zM455 1322q0 -42 -31 -76t-76 -34t-72 30q-26 30 -26 75t33 75t75 30t70 -30q27 -28 27 -70zM739 872q0 53 -14 93l129 36q33 -55 33 -137q0 -141 -111 -350l-325 -620
q-113 -219 -192 -282t-177 -64t-164 34l37 121q51 -31 121 -31t125 68t127 211l34 69l-163 793q-9 47 -27 59t-92 15l16 84q68 29 126 29t79 -26q20 -26 39 -118l125 -653l180 362q94 190 94 307z" />
    <glyph glyph-name="dotlessi" unicode="&#x131;" horiz-adv-x="528" 
d="M279 131q0 -47 110 -47v-84q-76 -29 -172 -29t-96 78q0 31 16 123l101 576q12 74 12 96q0 38 -111 43l17 84q96 29 160 29t78 -17q15 -15 15 -57t-18 -148l-102 -565q-10 -63 -10 -82z" />
    <glyph glyph-name="Lslash" unicode="&#x141;" horiz-adv-x="1064" 
d="M49 526l21 119l157 41l121 686h164l-113 -643l355 92l-23 -119l-352 -92l-84 -475h633l-23 -135h-799l101 567z" />
    <glyph glyph-name="lslash" unicode="&#x142;" horiz-adv-x="550" 
d="M385 84v-84q-90 -29 -181 -29t-91 74q0 35 16 127l90 512l-145 -57v112l166 66l114 649l154 33l-111 -619l154 62v-113l-174 -69l-94 -533q-11 -59 -11 -86t27 -36t86 -9z" />
    <glyph glyph-name="OE" unicode="&#x152;" horiz-adv-x="1783" 
d="M874 1237q-184 0 -317 -103q-252 -195 -254 -587q1 -190 105 -301t297 -111h133l194 1102h-158zM682 0q-268 0 -409 148q-140 148 -140 389q0 360 207 598t569 237h920l-23 -137h-610l-78 -444h490l-23 -138h-491l-90 -516h612l-23 -137h-911z" />
    <glyph glyph-name="oe" unicode="&#x153;" horiz-adv-x="1583" 
d="M1389 778q1 94 -111 94t-210 -100t-142 -252q164 8 302 61q73 29 117 79t44 118zM575 874q-135 0 -234 -152t-99 -378q0 -248 200 -248q135 0 235 152q99 152 99 379q0 247 -201 247zM418 -29q-152 1 -239 95t-87 270q0 252 124 450q60 96 160 154t224 59q229 0 299 -208
q76 100 177 154t212 54q110 0 182 -54t72 -150q0 -168 -161 -276t-478 -116q-2 -18 -2 -55q0 -123 47 -183q48 -61 184 -61t289 109l35 -125q-166 -117 -366 -117q-238 0 -308 189q-137 -189 -364 -189z" />
    <glyph glyph-name="Scaron" unicode="&#x160;" horiz-adv-x="1040" 
d="M702 1501h-86l-157 291l69 35l156 -152l236 152l67 -35zM400 -29q-234 0 -390 103l51 147q164 -109 345 -108q124 0 224 57q50 29 82 80q58 93 9 203q-28 63 -223 180q-45 27 -64 39q-113 70 -171 142t-58 181q0 197 136 301t339 104t330 -75l-49 -143q-113 76 -263 76
t-239 -61q-90 -60 -90 -187q0 -103 125 -177q16 -11 61 -37t90 -54q95 -60 166 -125q100 -91 98 -218q0 -199 -138 -313q-137 -114 -371 -115z" />
    <glyph glyph-name="scaron" unicode="&#x161;" horiz-adv-x="770" 
d="M494 1153h-86l-158 342l69 35l156 -193l236 193l67 -35zM651 264q0 -133 -92 -213t-259 -80t-300 99l57 116q43 -36 115 -64t150 -28t133 45t55 105t-40 99q-40 40 -95 73q-55 32 -111 68t-97 94q-40 58 -40 129q0 135 94 214q95 79 237 79t251 -64l-52 -119
q-92 59 -190 59q-99 0 -149 -42t-50 -100t40 -98t95 -72t111 -68t97 -96q40 -60 40 -136z" />
    <glyph glyph-name="Ydieresis" unicode="&#x178;" horiz-adv-x="1218" 
d="M985 1755q43 -1 69 -29t27 -70q-1 -42 -31 -76t-75 -34t-72 30t-27 75t34 75q32 30 75 29zM565 1546q-45 0 -71 30t-27 75q0 45 33 75q34 30 76 29t69 -29t27 -70t-31 -76t-76 -34zM440 0l97 549l-328 823h176l254 -676l461 676h188l-592 -833l-92 -539h-164z" />
    <glyph glyph-name="Zcaron" unicode="&#x17d;" horiz-adv-x="1243" 
d="M782 1501h-86l-157 291l69 35l156 -152l235 152l68 -35zM31 0v82l966 1153h-723l25 137h944v-86l-969 -1149h795l-22 -137h-1016z" />
    <glyph glyph-name="zcaron" unicode="&#x17e;" horiz-adv-x="921" 
d="M543 1153h-86l-158 342l70 35l155 -193l236 193l67 -35zM31 0v70l600 774h-488l21 127h686v-74l-610 -770h561l-21 -127h-749z" />
    <glyph glyph-name="florin" unicode="&#x192;" 
d="M926 1225q-96 0 -158 -66t-96 -252l-13 -67h297l-18 -101h-295l-111 -676q-32 -176 -102 -276t-213 -100q-100 0 -180 37l37 120q66 -30 138 -30t112 62q41 62 67 224l107 639h-226l19 101h223l14 80q38 225 142 328t252 104q98 0 168 -35l-50 -117q-53 25 -114 25z" />
    <glyph glyph-name="circumflex" unicode="&#x2c6;" horiz-adv-x="819" 
d="M541 1520h86l157 -342l-69 -35l-156 192l-235 -192l-68 35z" />
    <glyph glyph-name="caron" unicode="&#x2c7;" horiz-adv-x="819" 
d="M551 1153h-86l-158 342l70 35l155 -193l236 193l68 -35z" />
    <glyph glyph-name="breve" unicode="&#x2d8;" horiz-adv-x="819" 
d="M397 1470q0 -176 154 -176q79 0 145 58t88 141l84 -14q-27 -143 -117 -228q-91 -84 -205 -84q-114 1 -176 63t-63 173q0 41 8 76l82 14v-23z" />
    <glyph glyph-name="dotaccent" unicode="&#x2d9;" horiz-adv-x="819" 
d="M655 1322q1 -44 -31 -80t-80 -36t-77 31t-29 79t35 80t80 32t74 -31q28 -31 28 -75z" />
    <glyph glyph-name="ring" unicode="&#x2da;" horiz-adv-x="819" 
d="M473 1303q0 -78 88 -78q43 0 73 40t30 86q0 83 -80 85q-51 0 -81 -40t-30 -93zM554 1135q-89 0 -137 43q-48 44 -48 126t62 152q61 70 151 70t138 -43t48 -126t-62 -153q-63 -69 -152 -69z" />
    <glyph glyph-name="ogonek" unicode="&#x2db;" horiz-adv-x="819" 
d="M92 -356q0 104 82 206t213 150h109q-106 -57 -182 -147q-76 -91 -74 -171q0 -80 63 -79q57 0 125 49l29 -64q-107 -70 -195 -70t-129 37q-41 36 -41 89z" />
    <glyph glyph-name="tilde" unicode="&#x2dc;" horiz-adv-x="819" 
d="M664 1210q-44 0 -142 45t-125 45q-55 0 -98 -116l-74 24q74 242 205 242q43 0 141 -45t125 -45q56 0 99 117l73 -25q-74 -242 -204 -242z" />
    <glyph glyph-name="hungarumlaut" unicode="&#x2dd;" horiz-adv-x="819" 
d="M604 1145l-61 35l213 336l147 -89zM276 1145l-61 35l213 336l147 -89z" />
    <glyph glyph-name="pi" unicode="&#x3c0;" horiz-adv-x="1230" 
d="M848 162q0 -43 22 -61q23 -17 84 -17h23v-84q-45 -12 -133 -12q-143 0 -144 129q0 45 19 147l98 580h-325l-89 -500q-33 -193 -32 -344h-148q0 139 43 387l80 457h-209l23 127h1050l-22 -127h-225l-99 -557q-16 -82 -16 -125z" />
    <glyph glyph-name="uni200A" unicode="&#x200a;" horiz-adv-x="102" 
 />
    <glyph glyph-name="endash" unicode="&#x2013;" horiz-adv-x="1228" 
d="M63 451l23 122h1085l-22 -122h-1086z" />
    <glyph glyph-name="emdash" unicode="&#x2014;" horiz-adv-x="1843" 
d="M63 451l23 122h1700l-23 -122h-1700z" />
    <glyph glyph-name="quoteleft" unicode="&#x2018;" horiz-adv-x="491" 
d="M362 938h-159v35q0 256 272 428l60 -68q-172 -139 -173 -342v-53z" />
    <glyph glyph-name="quoteright" unicode="&#x2019;" horiz-adv-x="491" 
d="M352 1319v53h160v-35q0 -256 -272 -428l-60 68q172 139 172 342z" />
    <glyph glyph-name="quotesinglbase" unicode="&#x201a;" horiz-adv-x="452" 
d="M102 156v53h160v-35q0 -256 -272 -428l-60 68q172 139 172 342z" />
    <glyph glyph-name="quotedblleft" unicode="&#x201c;" horiz-adv-x="827" 
d="M362 938h-159v35q0 256 272 428l60 -68q-172 -139 -173 -342v-53zM698 991v-53h-159v35q0 256 272 428l59 -68q-172 -139 -172 -342z" />
    <glyph glyph-name="quotedblright" unicode="&#x201d;" horiz-adv-x="827" 
d="M688 1319v53h160v-35q-1 -256 -273 -428l-59 68q172 139 172 342zM352 1319v53h160v-35q0 -256 -272 -428l-60 68q172 139 172 342z" />
    <glyph glyph-name="quotedblbase" unicode="&#x201e;" horiz-adv-x="788" 
d="M438 156v53h160v-35q0 -256 -272 -428l-60 68q172 139 172 342zM102 156v53h160v-35q0 -256 -272 -428l-60 68q172 139 172 342z" />
    <glyph glyph-name="dagger" unicode="&#x2020;" horiz-adv-x="1052" 
d="M467 -172h-139l182 1003l-360 -6l22 136l360 -5l68 416h139l-80 -416l361 5l-23 -136l-360 6z" />
    <glyph glyph-name="daggerdbl" unicode="&#x2021;" horiz-adv-x="1052" 
d="M557 369l361 6l-23 -135l-360 4l-68 -416h-139l80 416l-361 -4l23 135l360 -6l80 462l-360 -6l22 136l360 -5l68 416h139l-80 -416l361 5l-23 -136l-360 6z" />
    <glyph glyph-name="bullet" unicode="&#x2022;" horiz-adv-x="819" 
d="M455 893q113 0 183 -76q70 -75 69 -185q0 -110 -79 -197t-201 -87q-121 0 -191 76t-70 194t88 197q88 78 201 78z" />
    <glyph glyph-name="ellipsis" unicode="&#x2026;" horiz-adv-x="1536" 
d="M1227 221q51 0 83 -35t33 -85q-1 -50 -37 -90t-92 -40t-87 35t-31 89t40 90t91 36zM715 221q51 0 83 -35t33 -85q-1 -50 -37 -90t-92 -40t-87 35t-31 89t40 90t91 36zM203 221q51 0 83 -35t33 -85q-1 -50 -37 -90t-92 -40t-87 35t-31 89t40 90t91 36z" />
    <glyph glyph-name="perthousand" unicode="&#x2030;" horiz-adv-x="2344" 
d="M279 -29l-86 76l1200 1305l86 -76zM1126 74q88 0 152 76q63 76 63 210q0 158 -147 158q-90 0 -154 -76t-63 -211q-1 -157 149 -157zM1114 -29q-124 0 -194 69t-70 187q0 174 98 284t242 110t212 -69q69 -69 68 -187q0 -174 -98 -284t-258 -110zM475 805q88 0 152 76
q63 76 63 211q0 158 -147 157q-90 0 -154 -75q-63 -76 -63 -211q-1 -158 149 -158zM463 702q-125 0 -195 69t-69 187q0 174 98 284q97 110 241 110t213 -69t68 -187q0 -174 -98 -284t-258 -110zM1870 74q88 0 151 76t64 210q0 158 -148 158q-90 0 -153 -76t-64 -211
q0 -157 150 -157zM1858 -29q-125 0 -195 69t-70 187q1 174 99 284t242 110t212 -69t68 -187q0 -174 -98 -284t-258 -110z" />
    <glyph glyph-name="guilsinglleft" unicode="&#x2039;" horiz-adv-x="700" 
d="M276 479l226 -348l-94 -68l-306 424l439 424l77 -71z" />
    <glyph glyph-name="guilsinglright" unicode="&#x203a;" horiz-adv-x="700" 
d="M424 496l-225 348l94 67l305 -424l-438 -424l-78 72z" />
    <glyph glyph-name="fraction" unicode="&#x2044;" horiz-adv-x="409" 
d="M-317 -29l-86 76l1200 1305l86 -76z" />
    <glyph glyph-name="zero.sups" unicode="&#x2070;" horiz-adv-x="819" 
d="M442 768q92 0 159 73q124 135 124 371q0 178 -137 178t-210 -138t-73 -311t137 -173zM421 651q-120 0 -190 80q-69 80 -69 214t43 257t147 214t244 91q140 1 206 -77t66 -196t-25 -213q-62 -227 -214 -317q-88 -52 -208 -53z" />
    <glyph glyph-name="four.sups" unicode="&#x2074;" horiz-adv-x="819" 
d="M631 1276l-307 -281h249zM119 883v69l602 545h92l-102 -502h141l-21 -112h-143l-43 -213h-139l43 213h-430z" />
    <glyph glyph-name="five.sups" unicode="&#x2075;" horiz-adv-x="819" 
d="M425 649q-171 0 -286 101l84 98q86 -82 211 -82q217 0 217 147q0 139 -252 140h-153l133 438h467l-29 -121h-346l-65 -207h40q150 0 247 -61t97 -186t-96 -196q-98 -71 -269 -71z" />
    <glyph glyph-name="six.sups" unicode="&#x2076;" horiz-adv-x="819" 
d="M682 928q0 140 -171 141q-87 0 -200 -47q-6 -35 -6 -70q0 -84 41 -136t126 -52t148 48q62 48 62 116zM567 1180q109 0 182 -69t72 -163q0 -123 -102 -211q-101 -88 -249 -88t-225 80t-77 209q0 225 191 376t475 193l16 -112q-360 -68 -488 -254q96 39 205 39z" />
    <glyph glyph-name="seven.sups" unicode="&#x2077;" horiz-adv-x="819" 
d="M903 1491v-82l-565 -739h-162l561 700h-477l31 121h612z" />
    <glyph glyph-name="eight.sups" unicode="&#x2078;" horiz-adv-x="819" 
d="M410 1278q0 -59 129 -125q176 61 176 156q0 41 -43 63t-108 23q-66 0 -110 -32t-44 -85zM649 889q0 68 -155 151q-203 -57 -203 -163q0 -113 166 -113q82 0 137 35t55 90zM152 868q0 152 223 238q-105 76 -105 173t86 163t214 66t206 -52q78 -51 78 -133
q0 -145 -209 -227q141 -84 141 -195t-92 -181t-236 -71q-144 1 -224 57q-82 56 -82 162z" />
    <glyph glyph-name="nine.sups" unicode="&#x2079;" horiz-adv-x="819" 
d="M518 1087q90 0 195 48q8 31 8 69q0 84 -41 136t-126 52t-147 -47q-63 -49 -63 -117t42 -104t132 -37zM458 977q-108 0 -180 69t-73 162q0 123 102 211q101 88 249 88t225 -80t77 -208q0 -225 -191 -376t-474 -194l-17 113q362 66 488 254q-98 -39 -206 -39z" />
    <glyph glyph-name="Euro" unicode="&#x20ac;" 
d="M885 1208q-129 0 -237 -104t-171 -270h418l-18 -101h-431q-16 -63 -26 -141h432l-18 -100h-422v-23q0 -354 252 -354q121 0 249 71l31 -133q-147 -82 -295 -82q-197 1 -299 137t-102 349v35h-156l19 100h143q8 72 25 141h-144l19 101h153q76 229 234 373t368 145
q68 0 139 -22t107 -48l-51 -135q-90 61 -219 61z" />
    <glyph glyph-name="trademark" unicode="&#x2122;" horiz-adv-x="1800" 
d="M854 612l135 760h131l166 -586l367 586h127l-133 -760h-113l100 545l-350 -545h-59l-160 551l-98 -551h-113zM336 612l117 660h-269l19 100h653l-18 -100h-273l-116 -660h-113z" />
    <glyph glyph-name="Omega" unicode="&#x2126;" horiz-adv-x="1460" 
d="M1231 844q0 406 -420 407q-221 0 -363 -171t-143 -418q0 -332 246 -504l-27 -158h-497l24 147h352q-98 57 -186 203t-88 336q-1 307 191 511t496 204t452 -140q147 -141 147 -371t-130 -418t-349 -325h354l-24 -147h-525l27 158q203 121 333 302q130 180 130 384z" />
    <glyph glyph-name="partialdiff" unicode="&#x2202;" horiz-adv-x="1060" 
d="M574 680q-136 0 -239 -109t-104 -262q0 -94 44 -153t139 -60q127 0 232 146t165 368q-101 70 -237 70zM670 1487q350 1 350 -481q0 -253 -91 -514q-50 -144 -122 -258q-71 -114 -185 -188t-252 -75q-138 0 -213 90t-75 228q0 227 151 381q152 154 367 153q63 0 133 -20
t111 -49q22 135 22 269t-52 233q-52 100 -173 100t-254 -101l-63 101q174 131 346 131z" />
    <glyph glyph-name="Delta" unicode="&#x2206;" horiz-adv-x="1316" 
d="M1163 0h-1163v82l766 1290h104l293 -1290v-82zM969 139l-203 979l-565 -979h768z" />
    <glyph glyph-name="product" unicode="&#x220f;" horiz-adv-x="1497" 
d="M1327 1235l-260 -1473h-164l260 1473h-579l-260 -1473h-164l260 1473h-223l24 137h1354l-25 -137h-223z" />
    <glyph glyph-name="summation" unicode="&#x2211;" horiz-adv-x="1146" 
d="M211 1372h995l-28 -137h-756l305 -676l-537 -659h756l-28 -138h-969v58l590 747l-328 748v57z" />
    <glyph glyph-name="minus" unicode="&#x2212;" 
d="M1055 569h-922v107h922v-107z" />
    <glyph glyph-name="radical" unicode="&#x221a;" 
d="M332 0l-180 864h157l117 -622l668 1327h159l-809 -1569h-112z" />
    <glyph glyph-name="infinity" unicode="&#x221e;" horiz-adv-x="1705" 
d="M522 367q172 0 309 270q-55 119 -134 197t-175 78t-158 -78t-62 -196t59 -195q61 -76 161 -76zM1255 911q-174 0 -309 -270q53 -117 133 -196t176 -79t159 78q62 78 62 196t-60 194q-61 76 -161 77zM1587 640q0 -174 -94 -282q-94 -106 -227 -106t-227 77
q-93 77 -150 193q-147 -270 -377 -270q-139 0 -230 106q-92 106 -92 280t94 282q94 106 234 106q236 0 371 -272q143 272 377 272q139 0 230 -106t91 -280z" />
    <glyph glyph-name="integral" unicode="&#x222b;" horiz-adv-x="733" 
d="M117 -481q-86 0 -174 39l51 116q57 -25 117 -24q109 0 143 118t45 488l20 571q13 369 87 514t235 146q86 0 174 -39l-51 -117q-57 25 -117 25q-109 0 -143 -118t-45 -488l-21 -572q-14 -371 -88 -515t-233 -144z" />
    <glyph glyph-name="approxequal" unicode="&#x2248;" 
d="M367 543q71 1 233 -63t218 -64t87 36t49 107l101 -27q-57 -236 -234 -235q-71 0 -233 63q-162 64 -218 64t-87 -36t-50 -107l-100 26q57 236 234 236zM821 686q-71 0 -233 64t-218 63q-56 0 -87 -36t-50 -107l-100 26q57 236 234 236q71 0 233 -64t218 -63q56 -1 87 35
t49 108l101 -26q-57 -236 -234 -236z" />
    <glyph glyph-name="notequal" unicode="&#x2260;" 
d="M1055 375h-557l-138 -215h-116l137 215h-248v106h316l180 283h-496v106h563l135 213h117l-135 -213h242v-106h-310l-180 -283h490v-106z" />
    <glyph glyph-name="lessequal" unicode="&#x2264;" 
d="M184 633v102l750 400l55 -101l-663 -350l663 -350l-55 -101zM1055 0h-922v106h922v-106z" />
    <glyph glyph-name="greaterequal" unicode="&#x2265;" 
d="M1004 735v-102l-750 -400l-55 101l663 350l-663 350l55 101zM1055 0h-922v106h922v-106z" />
    <glyph glyph-name="lozenge" unicode="&#x25ca;" 
d="M594 121l367 538l-369 541l-365 -538zM614 -29h-39l-477 691l477 690h39l478 -690z" />
    <glyph glyph-name="uniF8FF" unicode="&#xf8ff;" horiz-adv-x="7444" 
d="M6684 -279q-56 0 -65 -63h127q-6 63 -62 63zM6683 -248q49 0 75 -33t27 -77v-17h-168q3 -31 21 -53t47 -23q49 1 59 48l41 -7q-25 -72 -100 -71q-106 0 -107 114q0 55 28 87t77 32zM6312 -385v20q-12 -6 -44 -10t-52 -12t-21 -29q0 -37 38 -37q79 0 79 68zM6154 -418
q0 37 28 52q28 14 72 20t58 12v12q0 43 -51 43t-62 -43l-37 7q14 67 102 67t87 -71v-84q0 -55 10 -74h-39q-4 8 -8 28q-39 -33 -82 -32q-78 0 -78 63zM6009 -481q-103 0 -103 116q0 53 26 85t77 32q78 0 90 -69l-37 -7q-10 45 -53 45q-61 0 -61 -86t61 -86q45 1 57 56l37 -4
q-12 -82 -94 -82zM5486 -365q0 -86 67 -86t67 89q0 40 -20 62t-48 21q-66 0 -66 -86zM5448 -365q0 53 27 85q28 32 77 32t78 -31t29 -81q-1 -121 -107 -121q-104 2 -104 116zM5018 -451q61 0 61 86q0 37 -16 62t-47 24q-59 0 -59 -86t61 -86zM5114 -477h-37v28
q-20 -33 -63 -33t-70 34q-27 32 -27 82t25 84t67 34t66 -28v110h39v-311zM3617 -416q0 20 -35 28t-71 24q-36 15 -36 53q0 63 82 63t90 -61l-36 -6q-11 37 -55 37t-44 -29q0 -16 8 -19q8 -4 11 -5q12 -6 28 -8q95 -12 97 -73q0 -33 -26 -51t-64 -18q-85 -1 -97 71l37 7
q6 -47 58 -47t53 34zM4309 460q-1 -192 197 -192q100 0 174 72t73 182q0 78 -50 129t-147 51t-172 -74q-75 -72 -75 -168zM5810 -399h-53v53h53v-53zM4446 -399h-51v53h51v-53zM7084 178h-27v-39h27q31 -1 31 19t-31 20zM7057 51h-28v150h57q57 0 57 -43q0 -37 -38 -41
l40 -66h-32l-35 64h-21v-64zM7082 20q41 0 71 31t29 76q0 45 -29 75q-30 30 -71 30t-71 -30q-29 -30 -29 -75t30 -76t70 -31zM7082 -8q-57 0 -97 38t-40 97t40 96t97 37t97 -37t40 -96t-40 -97t-97 -38zM6693 -223h-31l27 59h51zM6484 -477h-39v194h-33v31h33v29q0 61 61 61
q25 0 37 -4l-6 -33q-12 2 -26 2q-27 0 -27 -34v-21h43v-31h-43v-194zM5286 -279q-56 0 -64 -63h127q-7 63 -63 63zM5286 -248q49 0 76 -33t26 -77v-17h-168q2 -31 20 -53t48 -23q49 1 59 48l41 -7q-25 -72 -100 -71q-106 0 -107 114q0 55 28 87t77 32zM4848 -477h-39v225h39
v-225zM4848 -211h-39v45h39v-45zM4661 -477h-37l-84 225h39l64 -180l63 180h39zM4246 -385v20q-12 -6 -44 -10t-53 -12q-20 -8 -20 -29q0 -37 38 -37q79 0 79 68zM4088 -418q0 37 27 52q28 14 72 20t59 12v12q0 43 -52 43t-61 -43l-37 7q14 67 101 67t87 -71v-84
q0 -55 11 -74h-39q-4 8 -8 28q-39 -33 -82 -32q-78 0 -78 63zM3944 -481q-50 -1 -76 31t-26 85t26 85t76 32q78 0 91 -69l-37 -7q-10 45 -54 45q-61 0 -61 -86t61 -86q46 1 58 56l37 -4q-12 -82 -95 -82zM3770 -477h-39v225h39v-225zM3770 -211h-39v45h39v-45zM3318 -223
h-33l29 59h49zM3400 -477h-35v33q-25 -37 -70 -37q-78 0 -78 82v147h39v-143q0 -53 45 -54q59 0 60 70v127h39v-225zM2873 -477h-37v225h33v-31q29 35 72 35t61 -39q25 39 68 39q70 0 70 -74v-155h-37v145q0 51 -41 51q-55 0 -56 -63v-133h-36v147q0 49 -41 49
q-55 0 -56 -75v-121zM2722 -399h-51v53h51v-53zM2527 -416q0 20 -35 28q-34 8 -70 24q-36 15 -36 53q0 63 82 63t90 -61l-37 -6q-12 37 -55 37t-43 -29q0 -26 42 -31q101 -13 101 -74q0 -33 -26 -51t-64 -18q-84 -1 -96 71l37 7q6 -47 58 -47t52 34zM2152 -365q0 -86 67 -86
t67 89q0 40 -20 62t-48 21q-66 0 -66 -86zM2114 -365q0 53 27 85q28 32 77 32t78 -31t28 -81q0 -121 -106 -121q-104 2 -104 116zM1958 -477v225h33v-35q21 39 45 39t43 -12l-13 -35q-12 8 -28 8q-43 0 -43 -71v-119h-37zM1794 -451q31 0 46 28t15 58q0 86 -60 86t-60 -86
t59 -86zM1735 -477h-37v311h39v-110q25 28 67 28t66 -34t24 -82t-26 -82q-26 -35 -70 -35q-43 0 -63 32v-28zM1569 -477v225h37v-225h-37zM1569 -211v45h37v-45h-37zM1436 -477v311h39v-311h-39zM6803 1145q-79 0 -125 47t-46 124q0 76 66 144q67 68 148 68q80 0 126 -46
t46 -124t-67 -146q-68 -67 -148 -67zM6597 971h342l-154 -971h-342zM6339 694q0 -53 -9 -102l-94 -592h-342l80 498q8 53 8 88q0 141 -127 141q-94 0 -146 -67t-69 -162l-78 -498h-342l248 1563h342l-115 -719h5q141 156 331 155q154 -1 231 -81t77 -224zM4364 -29
q-186 0 -299 121t-112 303q0 227 167 415t404 189q86 -1 162 -33t117 -94l108 691h342l-246 -1563h-342l17 111h-4q-52 -70 -138 -105t-176 -35zM3817 702q0 -43 -10 -118l-92 -584h-342l72 455q16 109 16 147q0 125 -127 125q-178 0 -215 -227l-78 -500h-342l152 971h342
l-19 -129h2q133 158 334 157q307 0 307 -297zM2007 999q86 -1 162 -33t117 -94l16 99h342l-154 -971h-342l17 111h-2q-111 -139 -307 -139t-307 121q-112 122 -111 304q0 229 165 415t404 187zM1794 460q0 -192 198 -192q100 0 173 72q74 72 73 182q0 78 -50 129t-147 51
t-172 -74q-75 -72 -75 -168zM489 465q1 -191 199 -191q100 0 174 74t74 167t-50 143t-148 50t-174 -74q-75 -75 -75 -169zM61 -111h383q6 -45 50 -69t96 -25q129 0 187 74t85 246q-141 -131 -326 -131t-296 112t-111 289q0 233 171 423t415 191q186 0 262 -135h4l14 107h342
l-137 -875q-47 -299 -211 -436t-434 -137t-415 155q-79 86 -79 211z" />
    <glyph glyph-name="fi" unicode="&#xfb01;" horiz-adv-x="1222" 
d="M1192 1322q0 -44 -32 -80t-80 -36t-76 31t-29 79q0 48 35 80t80 32q46 0 74 -32q28 -30 28 -74zM973 131q0 -47 110 -47v-84q-76 -29 -172 -29t-96 78q0 31 16 123l101 576q12 74 12 96t-26 30q-26 10 -84 13l16 84q96 29 160 29t78 -17q16 -15 16 -57t-19 -148
l-102 -565q-10 -63 -10 -82zM-39 -481q-92 0 -156 35l39 120q53 -28 122 -28t103 56t54 181l166 961h-160l25 127h157l15 86q39 233 148 332q110 98 241 98q88 0 137 -33l-49 -119q-37 25 -92 25q-188 0 -244 -328l-10 -61h233l-20 -127h-236l-166 -969q-32 -180 -100 -268
t-207 -88z" />
    <glyph glyph-name="fl" unicode="&#xfb02;" horiz-adv-x="1200" 
d="M878 -29q-91 0 -92 74q0 35 17 127l225 1282l154 33l-226 -1272q-10 -59 -10 -86t27 -36t86 -9v-84q-90 -29 -181 -29zM-39 -481q-92 0 -156 35l39 120q53 -28 122 -28t103 56t54 181l166 961h-160l25 127h157l15 86q39 233 148 332q110 98 241 98q88 0 137 -33l-49 -119
q-37 25 -92 25q-188 0 -244 -328l-10 -61h233l-20 -127h-236l-166 -969q-32 -180 -100 -268t-207 -88z" />
    <glyph glyph-name="a.smcp" horiz-adv-x="1144" 
d="M643 782l-227 -381h313zM819 0l-63 279h-412l-166 -279h-184l639 1030h96l258 -1030h-168z" />
    <glyph glyph-name="b.smcp" horiz-adv-x="1019" 
d="M471 604q117 0 197 47t80 121t-43 101q-43 26 -134 26h-163l-60 -295h123zM453 129q123 0 197 50t73 153q0 147 -244 147h-153l-70 -350h197zM598 1030q152 0 228 -62t75 -171q0 -182 -205 -242q88 -17 138 -81t49 -152q0 -156 -110 -239t-294 -83h-399l199 1030h319z
" />
    <glyph glyph-name="c.smcp" horiz-adv-x="1114" 
d="M585 -29q-218 0 -344 125t-126 330q0 268 175 450t476 183q162 0 289 -62l-45 -129q-115 57 -246 58q-225 0 -357 -140t-133 -356q0 -156 92 -239t244 -83q154 0 318 68l22 -131q-147 -74 -365 -74z" />
    <glyph glyph-name="d.smcp" horiz-adv-x="1212" 
d="M479 129q229 0 359 120q129 120 129 345q0 305 -346 305h-213l-154 -770h225zM625 1030q501 0 501 -434q0 -270 -160 -433t-489 -163h-397l196 1030h349z" />
    <glyph glyph-name="e.smcp" horiz-adv-x="927" 
d="M80 0l199 1030h636l-22 -131h-485l-58 -295h389l-20 -127h-393l-68 -348h490l-23 -129h-645z" />
    <glyph glyph-name="f.smcp" horiz-adv-x="909" 
d="M80 0l199 1030h634l-22 -131h-483l-60 -301h400l-23 -127h-399l-93 -471h-153z" />
    <glyph glyph-name="g.smcp" horiz-adv-x="1200" 
d="M586 -27q-213 0 -342 124t-129 329q0 274 186 454t500 179q180 0 332 -66l-48 -129q-133 61 -292 62q-236 0 -377 -136t-142 -352q0 -162 96 -247t269 -85q111 0 201 29l51 254h-211l22 127h365l-90 -479q-178 -64 -391 -64z" />
    <glyph glyph-name="h.smcp" horiz-adv-x="1261" 
d="M80 0l199 1030h153l-82 -424h613l81 424h156l-199 -1030h-155l92 481h-612l-93 -481h-153z" />
    <glyph glyph-name="i.smcp" horiz-adv-x="493" 
d="M80 0l199 1030h153l-199 -1030h-153z" />
    <glyph glyph-name="j.smcp" horiz-adv-x="524" 
d="M-47 -172l-47 109q123 51 174 112t76 195l149 786h150l-146 -784q-35 -178 -112 -271q-78 -92 -244 -147z" />
    <glyph glyph-name="k.smcp" horiz-adv-x="1075" 
d="M80 0l199 1030h153l-199 -1030h-153zM820 -12q-50 0 -79 22t-65 72l-311 453l501 495h193l-524 -500l268 -378q19 -27 35 -35t51 -8h31v-109q-50 -12 -100 -12z" />
    <glyph glyph-name="l.smcp" horiz-adv-x="917" 
d="M80 0l199 1030h153l-174 -901h504l-23 -129h-659z" />
    <glyph glyph-name="m.smcp" horiz-adv-x="1454" 
d="M80 0l199 1030h172l221 -797l538 797h181l-197 -1030h-152l148 756l-514 -756h-88l-209 754l-146 -754h-153z" />
    <glyph glyph-name="n.smcp" horiz-adv-x="1222" 
d="M80 0l199 1030h161l428 -747l140 747h153l-198 -1030h-99l-473 811l-158 -811h-153z" />
    <glyph glyph-name="o.smcp" horiz-adv-x="1253" 
d="M580 102q192 0 310 151t118 363q0 152 -81 232t-227 80q-192 0 -310 -152t-118 -364q0 -150 82 -230t226 -80zM1167 633q-1 -272 -161 -467t-445 -195q-207 0 -327 118t-119 306q0 272 160 468q161 196 446 196q207 0 327 -118t119 -308z" />
    <glyph glyph-name="p.smcp" horiz-adv-x="978" 
d="M475 528q141 0 220 58t79 172q0 141 -192 141h-174l-72 -371h139zM612 1030q152 0 234 -68t82 -186q0 -182 -124 -280t-349 -99h-146l-76 -397h-153l199 1030h333z" />
    <glyph glyph-name="q.smcp" horiz-adv-x="1253" 
d="M580 102q192 0 310 151t118 363q0 152 -81 232t-227 80q-192 0 -310 -152t-118 -364q0 -150 82 -230t226 -80zM1167 633q0 -248 -135 -434t-377 -222q72 -111 131 -165t121 -54h45v-106q-41 -12 -108 -12q-98 0 -184 89q-85 89 -173 246q-174 21 -273 135t-99 285
q0 272 160 468q161 196 446 196q207 0 327 -118t119 -308z" />
    <glyph glyph-name="r.smcp" horiz-adv-x="1067" 
d="M522 571q106 1 179 53t73 140q0 135 -196 135h-170l-66 -328h180zM614 1030q152 0 233 -64t81 -188q0 -123 -83 -205t-229 -104q45 -18 86 -102l93 -201q25 -57 69 -57h45v-109q-53 -12 -109 -12t-86 24t-55 80l-118 270q-20 44 -46 62t-81 18h-95l-86 -442h-153
l199 1030h335z" />
    <glyph glyph-name="s.smcp" horiz-adv-x="911" 
d="M371 -29q-93 0 -191 24t-153 54l47 131q135 -78 313 -78q100 0 164 46q63 46 63 128q0 54 -54 98t-166 106t-162 119q-50 56 -50 142q0 150 113 234t279 84t278 -60l-45 -131q-98 60 -216 60q-117 0 -185 -42t-68 -126q0 -41 18 -63q18 -21 26 -31t35 -26q39 -25 123 -71
t139 -94q53 -47 73 -88t20 -90q0 -147 -100 -237t-301 -89z" />
    <glyph glyph-name="t.smcp" horiz-adv-x="1101" 
d="M381 0l174 899h-375l25 131h903l-25 -131h-374l-174 -899h-154z" />
    <glyph glyph-name="u.smcp" horiz-adv-x="1189" 
d="M520 -29q-174 0 -284 76t-109 223q0 47 8 88l129 672h156l-127 -655q-10 -61 -10 -88q0 -181 261 -181t314 269l127 655h154l-131 -696q-70 -363 -488 -363z" />
    <glyph glyph-name="v.smcp" horiz-adv-x="1116" 
d="M514 258l461 772h168l-625 -1030h-88l-250 1030h162z" />
    <glyph glyph-name="w.smcp" horiz-adv-x="1609" 
d="M1057 262l409 768h164l-573 -1030h-94l-127 662l-377 -662h-92l-179 1030h160l115 -768l338 592l-33 176h164z" />
    <glyph glyph-name="x.smcp" horiz-adv-x="1146" 
d="M10 0l479 549l-243 481h176l180 -381l322 381h188l-440 -498l282 -532h-178l-217 434l-358 -434h-191z" />
    <glyph glyph-name="y.smcp" horiz-adv-x="1067" 
d="M369 0l77 412l-262 618h166l189 -489l366 489h176l-485 -622l-74 -408h-153z" />
    <glyph glyph-name="z.smcp" horiz-adv-x="1083" 
d="M45 0v88l760 811h-569l24 131h782v-88l-770 -813h633l-22 -129h-838z" />
    <glyph glyph-name="aacute.smcp" horiz-adv-x="1144" 
d="M610 1184l-69 41l250 342l170 -62zM643 782l-227 -381h313zM819 0l-63 279h-412l-166 -279h-184l639 1030h96l258 -1030h-168z" />
    <glyph glyph-name="agrave.smcp" horiz-adv-x="1144" 
d="M823 1221l-69 -37l-283 329l180 54zM643 782l-227 -381h313zM819 0l-63 279h-412l-166 -279h-184l639 1030h96l258 -1030h-168z" />
    <glyph glyph-name="acircumflex.smcp" horiz-adv-x="1144" 
d="M707 1561h86l157 -342l-69 -35l-156 192l-236 -192l-67 35zM643 782l-227 -381h313zM819 0l-63 279h-412l-166 -279h-184l639 1030h96l258 -1030h-168z" />
    <glyph glyph-name="atilde.smcp" horiz-adv-x="1144" 
d="M825 1251q-43 0 -141 45t-125 45q-55 0 -98 -116l-74 24q74 242 205 242q43 0 141 -45t125 -45q55 0 98 117l74 -25q-74 -242 -205 -242zM643 782l-227 -381h313zM819 0l-63 279h-412l-166 -279h-184l639 1030h96l258 -1030h-168z" />
    <glyph glyph-name="adieresis.smcp" horiz-adv-x="1144" 
d="M1010 1363q0 -42 -31 -76t-76 -34t-72 30t-27 75t34 75q34 29 76 29t69 -28t27 -71zM600 1363q0 -42 -31 -76t-75 -34t-72 30q-27 30 -27 75t33 75q33 29 76 29q44 0 70 -28t26 -71zM643 782l-227 -381h313zM819 0l-63 279h-412l-166 -279h-184l639 1030h96l258 -1030
h-168z" />
    <glyph glyph-name="aring.smcp" horiz-adv-x="1144" 
d="M700 1266q51 0 81 40t30 86q0 83 -80 85q-51 0 -81 -40t-29 -94q0 -77 79 -77zM701 1176q-89 0 -137 43t-48 125t62 153q62 70 152 70q89 0 137 -43t48 -126t-62 -153q-63 -69 -152 -69zM643 782l-227 -381h313zM819 0l-63 279h-412l-166 -279h-184l639 1030h96
l258 -1030h-168z" />
    <glyph glyph-name="ccedilla.smcp" horiz-adv-x="1114" 
d="M700 -268q0 -88 -78 -151q-78 -62 -176 -62t-170 39l29 71q59 -33 121 -33q126 1 125 81q0 79 -180 85l-9 37l168 174q-196 19 -306 141t-109 312q0 268 175 450t476 183q162 0 289 -62l-45 -129q-115 57 -246 58q-225 0 -357 -140t-133 -356q0 -156 92 -239t244 -83
q154 0 318 68l22 -131q-127 -61 -309 -72l-104 -104q83 -2 123 -40t40 -97z" />
    <glyph glyph-name="eacute.smcp" horiz-adv-x="927" 
d="M528 1184l-69 41l250 342l170 -62zM80 0l199 1030h636l-22 -131h-485l-58 -295h389l-20 -127h-393l-68 -348h490l-23 -129h-645z" />
    <glyph glyph-name="egrave.smcp" horiz-adv-x="927" 
d="M698 1221l-69 -37l-283 329l180 54zM80 0l199 1030h636l-22 -131h-485l-58 -295h389l-20 -127h-393l-68 -348h490l-23 -129h-645z" />
    <glyph glyph-name="ecircumflex.smcp" horiz-adv-x="927" 
d="M623 1561h86l157 -342l-69 -35l-156 192l-235 -192l-68 35zM80 0l199 1030h636l-22 -131h-485l-58 -295h389l-20 -127h-393l-68 -348h490l-23 -129h-645z" />
    <glyph glyph-name="edieresis.smcp" horiz-adv-x="927" 
d="M938 1363q0 -42 -31 -76t-76 -34t-71 30t-27 75q0 45 33 75q33 29 76 29q44 0 70 -28t26 -71zM528 1363q0 -42 -30 -76t-76 -34q-45 0 -72 30q-26 30 -26 75t32 75q33 29 76 29t70 -28q26 -29 26 -71zM80 0l199 1030h636l-22 -131h-485l-58 -295h389l-20 -127h-393
l-68 -348h490l-23 -129h-645z" />
    <glyph glyph-name="iacute.smcp" horiz-adv-x="493" 
d="M371 1184l-70 41l250 342l170 -62zM80 0l199 1030h153l-199 -1030h-153z" />
    <glyph glyph-name="igrave.smcp" horiz-adv-x="493" 
d="M465 1221l-70 -37l-282 329l180 54zM80 0l199 1030h153l-199 -1030h-153z" />
    <glyph glyph-name="icircumflex.smcp" horiz-adv-x="493" 
d="M401 1561h86l158 -342l-70 -35l-155 192l-236 -192l-67 35zM80 0l199 1030h153l-199 -1030h-153z" />
    <glyph glyph-name="idieresis.smcp" horiz-adv-x="493" 
d="M700 1363q0 -42 -30 -76t-76 -34q-45 0 -72 30q-26 30 -26 75t32 75q33 29 76 29t70 -28q26 -29 26 -71zM291 1363q0 -42 -31 -76t-76 -34q-46 0 -72 30t-26 75t33 75q33 29 76 29t69 -28t27 -71zM80 0l199 1030h153l-199 -1030h-153z" />
    <glyph glyph-name="dotlessi.smcp" horiz-adv-x="493" 
d="M80 0l199 1030h153l-199 -1030h-153z" />
    <glyph glyph-name="lslash.smcp" horiz-adv-x="944" 
d="M41 385l20 113l148 34l96 498h154l-90 -461l258 62l-21 -111l-258 -61l-63 -330h503l-20 -129h-662l80 420z" />
    <glyph glyph-name="ntilde.smcp" horiz-adv-x="1222" 
d="M885 1251q-43 0 -141 45t-126 45q-55 0 -98 -116l-74 24q74 242 205 242q43 0 141 -45t126 -45q55 0 98 117l74 -25q-74 -242 -205 -242zM80 0l199 1030h161l428 -747l140 747h153l-198 -1030h-99l-473 811l-158 -811h-153z" />
    <glyph glyph-name="oacute.smcp" horiz-adv-x="1253" 
d="M649 1184l-69 41l249 342l170 -62zM580 102q192 0 310 151t118 363q0 152 -81 232t-227 80q-192 0 -310 -152t-118 -364q0 -150 82 -230t226 -80zM1167 633q-1 -272 -161 -467t-445 -195q-207 0 -327 118t-119 306q0 272 160 468q161 196 446 196q207 0 327 -118
t119 -308z" />
    <glyph glyph-name="ograve.smcp" horiz-adv-x="1253" 
d="M846 1221l-70 -37l-282 329l180 54zM580 102q192 0 310 151t118 363q0 152 -81 232t-227 80q-192 0 -310 -152t-118 -364q0 -150 82 -230t226 -80zM1167 633q-1 -272 -161 -467t-445 -195q-207 0 -327 118t-119 306q0 272 160 468q161 196 446 196q207 0 327 -118
t119 -308z" />
    <glyph glyph-name="ocircumflex.smcp" horiz-adv-x="1253" 
d="M766 1561h86l158 -342l-70 -35l-156 192l-235 -192l-68 35zM580 102q192 0 310 151t118 363q0 152 -81 232t-227 80q-192 0 -310 -152t-118 -364q0 -150 82 -230t226 -80zM1167 633q-1 -272 -161 -467t-445 -195q-207 0 -327 118t-119 306q0 272 160 468q161 196 446 196
q207 0 327 -118t119 -308z" />
    <glyph glyph-name="otilde.smcp" horiz-adv-x="1253" 
d="M862 1251q-43 0 -141 45t-125 45q-55 0 -98 -116l-74 24q74 242 205 242q43 0 141 -45t125 -45q55 0 98 117l74 -25q-74 -242 -205 -242zM580 102q192 0 310 151t118 363q0 152 -81 232t-227 80q-192 0 -310 -152t-118 -364q0 -150 82 -230t226 -80zM1167 633
q-1 -272 -161 -467t-445 -195q-207 0 -327 118t-119 306q0 272 160 468q161 196 446 196q207 0 327 -118t119 -308z" />
    <glyph glyph-name="odieresis.smcp" horiz-adv-x="1253" 
d="M1077 1363q-1 -42 -31 -76t-75 -34t-72 30t-27 75t33 75q33 29 76 29t70 -28q26 -29 26 -71zM668 1363q0 -42 -31 -76t-76 -34t-72 30t-27 75t34 75q34 29 76 29t69 -28t27 -71zM580 102q192 0 310 151t118 363q0 152 -81 232t-227 80q-192 0 -310 -152t-118 -364
q0 -150 82 -230t226 -80zM1167 633q-1 -272 -161 -467t-445 -195q-207 0 -327 118t-119 306q0 272 160 468q161 196 446 196q207 0 327 -118t119 -308z" />
    <glyph glyph-name="oslash.smcp" horiz-adv-x="1253" 
d="M580 102q192 0 310 151t118 363q0 106 -41 179l-580 -641q72 -52 193 -52zM272 412q0 -109 41 -181l582 643q-76 53 -195 54q-192 0 -310 -152t-118 -364zM1167 633q-1 -272 -161 -467t-445 -195q-160 0 -272 74l-88 -98h-146l154 168q-94 113 -94 280q0 272 160 468
q161 196 446 196q158 0 272 -76l90 98h142l-152 -168q94 -112 94 -280z" />
    <glyph glyph-name="scaron.smcp" horiz-adv-x="911" 
d="M606 1194h-86l-158 342l70 35l156 -193l235 193l68 -35zM371 -29q-93 0 -191 24t-153 54l47 131q135 -78 313 -78q100 0 164 46q63 46 63 128q0 54 -54 98t-166 106t-162 119q-50 56 -50 142q0 150 113 234t279 84t278 -60l-45 -131q-98 60 -216 60q-117 0 -185 -42
t-68 -126q0 -41 18 -63q18 -21 26 -31t35 -26q39 -25 123 -71t139 -94q53 -47 73 -88t20 -90q0 -147 -100 -237t-301 -89z" />
    <glyph glyph-name="uacute.smcp" horiz-adv-x="1189" 
d="M649 1184l-69 41l249 342l170 -62zM520 -29q-174 0 -284 76t-109 223q0 47 8 88l129 672h156l-127 -655q-10 -61 -10 -88q0 -181 261 -181t314 269l127 655h154l-131 -696q-70 -363 -488 -363z" />
    <glyph glyph-name="ugrave.smcp" horiz-adv-x="1189" 
d="M768 1221l-70 -37l-282 329l180 54zM520 -29q-174 0 -284 76t-109 223q0 47 8 88l129 672h156l-127 -655q-10 -61 -10 -88q0 -181 261 -181t314 269l127 655h154l-131 -696q-70 -363 -488 -363z" />
    <glyph glyph-name="ucircumflex.smcp" horiz-adv-x="1189" 
d="M741 1561h86l158 -342l-70 -35l-155 192l-236 -192l-67 35zM520 -29q-174 0 -284 76t-109 223q0 47 8 88l129 672h156l-127 -655q-10 -61 -10 -88q0 -181 261 -181t314 269l127 655h154l-131 -696q-70 -363 -488 -363z" />
    <glyph glyph-name="udieresis.smcp" horiz-adv-x="1189" 
d="M1053 1363q0 -42 -31 -76t-76 -34t-72 30q-26 30 -26 75t33 75q33 29 75 29t70 -28q27 -28 27 -71zM643 1363q0 -42 -31 -76q-32 -34 -76 -34t-71 30t-27 75t33 75q33 29 76 29t69 -28t27 -71zM520 -29q-174 0 -284 76t-109 223q0 47 8 88l129 672h156l-127 -655
q-10 -61 -10 -88q0 -181 261 -181t314 269l127 655h154l-131 -696q-70 -363 -488 -363z" />
    <glyph glyph-name="yacute.smcp" horiz-adv-x="1067" 
d="M594 1184l-70 41l250 342l170 -62zM369 0l77 412l-262 618h166l189 -489l366 489h176l-485 -622l-74 -408h-153z" />
    <glyph glyph-name="ydieresis.smcp" horiz-adv-x="1067" 
d="M971 1363q0 -42 -31 -76t-76 -34q-46 0 -72 30t-26 75t33 75q33 29 75 29t70 -28q27 -28 27 -71zM561 1363q0 -42 -31 -76q-32 -34 -76 -34t-71 30t-27 75t33 75q33 29 76 29t70 -28q26 -29 26 -71zM369 0l77 412l-262 618h166l189 -489l366 489h176l-485 -622l-74 -408
h-153z" />
    <glyph glyph-name="zcaron.smcp" horiz-adv-x="1083" 
d="M657 1153h-86l-157 342l69 35l156 -193l235 193l68 -35zM45 0v88l760 811h-569l24 131h782v-88l-770 -813h633l-22 -129h-838z" />
    <glyph glyph-name="eth.smcp" horiz-adv-x="1247" 
d="M514 129q229 0 358 120t129 345q0 305 -346 305h-213l-61 -307h244l-19 -105h-246l-71 -358h225zM659 1030q502 0 502 -434q0 -270 -160 -433t-489 -163h-397l92 487h-141l20 105h141l84 438h348z" />
    <glyph glyph-name="thorn.smcp" horiz-adv-x="978" 
d="M434 334q141 0 220 58t79 171q0 141 -192 142h-172l-72 -371h137zM571 836q152 0 234 -68t82 -186q0 -182 -124 -280t-349 -99h-142l-39 -203h-153l199 1030h153l-39 -194h178z" />
    <glyph glyph-name="ae.smcp" horiz-adv-x="1574" 
d="M881 768l-336 -367h264zM731 0l53 279h-352l-254 -279h-192l936 1030h641l-23 -131h-485l-56 -295h390l-23 -127h-391l-68 -348h490l-23 -129h-643z" />
    <glyph glyph-name="oe.smcp" horiz-adv-x="1521" 
d="M725 903q-217 0 -335 -141t-118 -344q0 -135 79 -213t229 -78h116l152 776h-123zM561 0q-219 0 -333 113t-113 295q0 272 168 447t467 175h759l-22 -131h-486l-57 -295h389l-20 -127h-393l-68 -348h489l-22 -129h-758z" />
    <glyph glyph-name="germandbls.smcp" horiz-adv-x="1822" 
d="M1282 -29q-92 0 -190 24t-154 54l47 131q137 -78 313 -78q100 0 164 46q63 46 64 128q0 54 -54 98t-166 106t-162 119q-50 56 -50 142q0 150 112 234q113 84 279 84t278 -60l-45 -131q-98 60 -216 60t-185 -42q-68 -42 -68 -126q1 -42 19 -63t26 -31t34 -26
q39 -25 77 -46q218 -119 259 -207q19 -41 19 -90q0 -147 -100 -237t-301 -89zM371 -29q-93 0 -191 24t-153 54l47 131q135 -78 313 -78q100 0 164 46q63 46 63 128q0 54 -54 98t-166 106t-162 119q-50 56 -50 142q0 150 113 234t279 84t278 -60l-45 -131q-98 60 -216 60
q-117 0 -185 -42t-68 -126q0 -41 18 -63q18 -21 26 -31t35 -26q39 -25 123 -71t139 -94q53 -47 73 -88t20 -90q0 -147 -100 -237t-301 -89z" />
    <glyph glyph-name="fi.smcp" horiz-adv-x="1402" 
d="M989 0l199 1030h153l-198 -1030h-154zM80 0l199 1030h634l-22 -131h-483l-60 -301h400l-23 -127h-399l-93 -471h-153z" />
    <glyph glyph-name="fl.smcp" horiz-adv-x="1826" 
d="M989 0l199 1030h153l-174 -901h504l-22 -129h-660zM80 0l199 1030h634l-22 -131h-483l-60 -301h400l-23 -127h-399l-93 -471h-153z" />
    <glyph glyph-name="ampersand.c2sc" horiz-adv-x="1216" 
d="M772 830q0 56 -38 84q-38 26 -97 26t-105 -32t-47 -96q0 -64 64 -171q83 27 153 80t70 109zM397 98q143 0 273 92l-197 308q-104 -39 -179 -107q-75 -67 -75 -143q0 -150 178 -150zM909 -16q-109 0 -172 96q-164 -109 -358 -109q-131 0 -217 70t-86 184q0 238 334 373
q-72 119 -72 203q0 115 85 187t215 71q130 0 206 -55t76 -150q0 -188 -312 -307l172 -266q119 127 166 305h144q-27 -106 -93 -221t-149 -193q23 -35 40 -45t60 -10h68v-119q-50 -14 -107 -14z" />
    <glyph glyph-name="zero.tosf" 
d="M516 100q142 0 250 138t106 387q0 135 -61 214t-203 79t-250 -138t-108 -387q0 -133 62 -213t204 -80zM494 -29q-188 0 -293 114q-104 114 -105 312q0 289 148 470t389 182q189 0 293 -114t104 -312q0 -289 -147 -471t-389 -181z" />
    <glyph glyph-name="one.tosf" 
d="M885 0h-758l23 115l307 8l137 760l-315 -33l20 115l387 75h90l-162 -917l293 -8z" />
    <glyph glyph-name="two.tosf" 
d="M82 0v63q82 49 121 72t150 95t209 158q98 85 134 134q94 127 95 213q1 87 -51 131t-136 43q-195 0 -368 -157l-68 116q86 78 206 129t252 51t230 -75q98 -76 98 -217q0 -92 -50 -186t-133 -173q-143 -138 -333 -250h531l-33 -147h-854z" />
    <glyph glyph-name="three.tosf" 
d="M895 80q0 -182 -135 -297t-322 -115q-244 0 -426 158l86 108q156 -131 340 -131q125 0 209 68t84 195q0 70 -36 118q-82 110 -324 111h-84l22 129q209 12 347 94t139 219q1 80 -59 126t-140 46q-158 0 -324 -141l-63 111q79 73 191 121t242 48t222 -80q92 -81 92 -213
q0 -131 -85 -229t-222 -147q104 -27 175 -107t71 -192z" />
    <glyph glyph-name="four.tosf" 
d="M764 750l-492 -529h394zM16 84v66l840 890h109l-146 -819h228l-25 -137h-227l-66 -379h-158l70 379h-625z" />
    <glyph glyph-name="five.tosf" 
d="M432 485q210 0 352 -93q142 -92 142 -286t-144 -316t-346 -122q-260 0 -416 152l99 112q53 -55 137 -90t170 -35q152 0 244 79t92 211q0 133 -109 189t-266 56h-215l180 678h649l-32 -146h-510l-99 -389h72z" />
    <glyph glyph-name="six.tosf" 
d="M625 682q-166 0 -330 -84q-23 -84 -23 -208t62 -204t187 -80q127 0 231 102t104 255q0 109 -61 164t-170 55zM1020 485q0 -211 -150 -363t-368 -151q-182 0 -286 120q-103 120 -103 308q1 189 77 355t206 286q266 244 646 312l21 -131q-522 -111 -709 -467q145 70 305 70
q161 0 261 -96q100 -95 100 -243z" />
    <glyph glyph-name="seven.tosf" 
d="M1069 1020v-92l-827 -1231h-176l806 1175h-688l35 148h850z" />
    <glyph glyph-name="eight.tosf" 
d="M420 991q0 -61 46 -107t152 -112q113 26 203 98t90 166t-62 138q-62 45 -169 45q-108 0 -184 -61t-76 -167zM817 350q0 76 -66 144q-67 68 -188 137q-307 -100 -307 -320q0 -92 75 -150q75 -59 193 -59t206 70q87 70 87 178zM92 299q0 254 348 401q-182 117 -182 281
t129 267q129 104 301 104t276 -80t105 -211q0 -131 -94 -224t-230 -141q109 -68 170 -144t62 -185q0 -174 -128 -285t-355 -111q-166 1 -284 91t-118 237z" />
    <glyph glyph-name="nine.tosf" 
d="M860 610q0 304 -248 304q-126 0 -230 -102q-104 -101 -106 -255q0 -109 62 -164t170 -55q170 0 330 82q23 96 22 190zM113 535q-1 211 149 363t369 151q182 0 285 -120q104 -120 104 -308q0 -189 -77 -355t-207 -286q-266 -244 -646 -312l-20 131q522 113 706 465
q-139 -68 -301 -68t-262 96q-100 95 -100 243z" />
    <glyph glyph-name="zero.lf" 
d="M467 -29q-164 0 -261 129t-97 353q0 312 143 588q70 136 191 224q122 87 290 87t259 -126t91 -349q0 -321 -138 -595q-69 -138 -191 -225q-123 -86 -287 -86zM487 102q113 0 201 77t137 197q99 242 99 466q0 223 -56 301t-170 78q-116 0 -202 -79q-147 -134 -204 -449
q-24 -126 -24 -242q0 -349 219 -349z" />
    <glyph glyph-name="one.lf" horiz-adv-x="757" 
d="M274 0l209 1178l-305 -33l21 115l376 75h91l-234 -1335h-158z" />
    <glyph glyph-name="two.lf" horiz-adv-x="1105" 
d="M23 0v63q351 286 434 367q222 213 260 266q37 54 76 114q67 104 67 206t-51 149t-135 47q-186 0 -379 -155l-70 119q219 176 457 176q160 0 251 -77t91 -235q0 -118 -87 -284q-54 -99 -180 -234q-127 -135 -230 -220t-189 -155h582l-33 -147h-864z" />
    <glyph glyph-name="three.lf" horiz-adv-x="1064" 
d="M922 383q0 -182 -136 -297t-321 -115q-244 0 -426 158l86 109q156 -131 340 -132q125 0 209 68t84 195q0 71 -36 119q-82 110 -325 110h-84l23 129q209 12 347 94t138 219q0 80 -59 126t-139 46q-160 0 -324 -141l-63 111q78 74 190 122t242 48t222 -81t93 -213
q0 -132 -85 -230t-222 -146q104 -26 175 -106t71 -193z" />
    <glyph glyph-name="four.lf" 
d="M791 1044l-492 -528h393zM43 379v65l840 891h108l-145 -819h227l-24 -137h-228l-65 -379h-158l70 379h-625z" />
    <glyph glyph-name="five.lf" horiz-adv-x="1085" 
d="M469 788q211 0 353 -93t141 -287t-145 -315q-144 -122 -345 -122q-260 0 -416 152l99 113q53 -54 137 -90t170 -35q152 1 244 79t92 210t-109 188t-266 57h-215l180 678h649l-32 -145h-510l-99 -390h72z" />
    <glyph glyph-name="six.lf" 
d="M625 682q-166 0 -330 -84q-23 -84 -23 -208t62 -204t187 -80q127 0 231 102t104 255q0 109 -61 164t-170 55zM1020 485q0 -211 -150 -363t-368 -151q-182 0 -286 120q-103 120 -103 308q1 189 77 355t206 286q266 244 646 312l21 -131q-522 -111 -709 -467q145 70 305 70
q161 0 261 -96q100 -95 100 -243z" />
    <glyph glyph-name="seven.lf" horiz-adv-x="1085" 
d="M1120 1323v-92l-827 -1231h-176l807 1176h-688l34 147h850z" />
    <glyph glyph-name="eight.lf" 
d="M420 991q0 -61 46 -107t152 -112q113 26 203 98t90 166t-62 138q-62 45 -169 45q-108 0 -184 -61t-76 -167zM817 350q0 76 -66 144q-67 68 -188 137q-307 -100 -307 -320q0 -92 75 -150q75 -59 193 -59t206 70q87 70 87 178zM92 299q0 254 348 401q-182 117 -182 281
t129 267q129 104 301 104t276 -80t105 -211q0 -131 -94 -224t-230 -141q109 -68 170 -144t62 -185q0 -174 -128 -285t-355 -111q-166 1 -284 91t-118 237z" />
    <glyph glyph-name="nine.lf" 
d="M911 913q0 304 -248 304q-127 1 -231 -101t-104 -256q0 -109 61 -164t170 -55q170 0 330 82q23 96 22 190zM164 838q0 210 150 362t368 152q182 0 286 -120t103 -308q0 -188 -77 -354q-144 -312 -502 -486q-166 -80 -351 -113l-20 131q522 113 706 465q-139 -67 -301 -67
t-262 95t-100 243z" />
    <glyph glyph-name="zero.osf" 
d="M516 100q142 0 250 138t106 387q0 135 -61 214t-203 79t-250 -138t-108 -387q0 -133 62 -213t204 -80zM494 -29q-188 0 -293 114q-104 114 -105 312q0 289 148 470t389 182q189 0 293 -114t104 -312q0 -289 -147 -471t-389 -181z" />
    <glyph glyph-name="one.osf" horiz-adv-x="737" 
d="M272 0l158 883l-307 -33l20 115l379 75h90l-182 -1040h-158z" />
    <glyph glyph-name="two.osf" horiz-adv-x="1085" 
d="M61 0v63q82 49 178 105t177 119q196 150 260 235q94 124 94 212t-51 132t-135 43q-195 0 -369 -157l-68 116q86 78 206 129t253 51q132 0 230 -75q98 -76 98 -217q0 -92 -50 -186t-133 -173q-143 -138 -333 -250h530l-33 -147h-854z" />
    <glyph glyph-name="three.osf" horiz-adv-x="1085" 
d="M874 80q0 -182 -135 -297t-321 -115q-244 0 -426 158l86 108q156 -131 340 -131q125 0 209 68t84 195q0 70 -36 118q-82 110 -325 111h-84l23 129q209 12 347 94t138 219q0 80 -59 126t-140 46q-158 0 -323 -141l-64 111q78 73 191 121t243 48t222 -80q92 -81 92 -213
q0 -131 -85 -229t-222 -147q105 -27 175 -107t70 -192z" />
    <glyph glyph-name="four.osf" 
d="M764 750l-492 -529h394zM16 84v66l840 890h109l-146 -819h228l-25 -137h-227l-66 -379h-158l70 379h-625z" />
    <glyph glyph-name="five.osf" horiz-adv-x="1085" 
d="M905 106q0 -194 -144 -316t-345 -122q-260 0 -416 152l98 112q54 -55 138 -90t170 -35q152 0 244 79t91 211q0 132 -108 189q-109 56 -266 56h-215l180 678h649l-33 -146h-510l-98 -389h72q211 0 352 -93q141 -92 141 -286z" />
    <glyph glyph-name="six.osf" 
d="M625 682q-166 0 -330 -84q-23 -84 -23 -208t62 -204t187 -80q127 0 231 102t104 255q0 109 -61 164t-170 55zM1020 485q0 -211 -150 -363t-368 -151q-182 0 -286 120q-103 120 -103 308q1 189 77 355t206 286q266 244 646 312l21 -131q-522 -111 -709 -467q145 70 305 70
q161 0 261 -96q100 -95 100 -243z" />
    <glyph glyph-name="seven.osf" horiz-adv-x="1085" 
d="M1049 1020v-92l-828 -1231h-176l807 1175h-688l35 148h850z" />
    <glyph glyph-name="eight.osf" 
d="M420 991q0 -61 46 -107t152 -112q113 26 203 98t90 166t-62 138q-62 45 -169 45q-108 0 -184 -61t-76 -167zM817 350q0 76 -66 144q-67 68 -188 137q-307 -100 -307 -320q0 -92 75 -150q75 -59 193 -59t206 70q87 70 87 178zM92 299q0 254 348 401q-182 117 -182 281
t129 267q129 104 301 104t276 -80t105 -211q0 -131 -94 -224t-230 -141q109 -68 170 -144t62 -185q0 -174 -128 -285t-355 -111q-166 1 -284 91t-118 237z" />
    <glyph glyph-name="nine.osf" 
d="M860 610q0 304 -248 304q-126 0 -230 -102q-104 -101 -106 -255q0 -109 62 -164t170 -55q170 0 330 82q23 96 22 190zM113 535q-1 211 149 363t369 151q182 0 285 -120q104 -120 104 -308q0 -189 -77 -355t-207 -286q-266 -244 -646 -312l-20 131q522 113 706 465
q-139 -68 -301 -68t-262 96q-100 95 -100 243z" />
    <glyph glyph-name="acute.case" horiz-adv-x="819" 
d="M442 1487l-53 59l320 240l143 -113z" />
    <glyph glyph-name="grave.case" horiz-adv-x="819" 
d="M819 1546l-53 -59l-410 186l144 113z" />
    <glyph glyph-name="circumflex.case" horiz-adv-x="819" 
d="M596 1812h86l158 -290l-70 -35l-156 151l-235 -151l-68 35z" />
    <glyph glyph-name="tilde.case" horiz-adv-x="819" 
d="M727 1530q-43 0 -141 45t-125 45q-55 0 -99 -117l-73 25q74 242 205 241q43 0 141 -45t125 -45q55 0 98 117l74 -24q-74 -242 -205 -242z" />
    <glyph glyph-name="dieresis.case" horiz-adv-x="819" 
d="M809 1755q43 -1 69 -29t27 -70q0 -42 -31 -76q-32 -34 -76 -34t-71 30t-27 75t33 75t76 29zM400 1755q42 -1 69 -29t27 -70t-31 -76t-76 -34t-72 30t-27 75t34 75t76 29z" />
    <glyph glyph-name="ring.case" horiz-adv-x="819" 
d="M614 1763q-50 0 -80 -40t-30 -86q0 -85 80 -85q51 0 81 40t29 94q0 77 -80 77zM584 1462q-89 0 -137 43t-48 126q1 83 63 153t152 70t137 -44q48 -44 48 -126t-63 -152t-152 -70z" />
    <glyph glyph-name="caron.case" horiz-adv-x="819" 
d="M602 1501h-86l-158 291l70 35l156 -152l235 152l68 -35z" />
    <glyph glyph-name="macron.case" horiz-adv-x="819" 
d="M885 1669l-21 -123h-553l21 123h553z" />
    <glyph glyph-name="breve.case" horiz-adv-x="819" 
d="M449 1798q0 -176 151 -176q82 0 148 57t88 142l84 -15q-27 -143 -118 -227q-90 -84 -204 -84q-114 1 -176 63t-64 173q0 41 9 75l82 15v-23z" />
    <glyph glyph-name="hungarumlaut.case" horiz-adv-x="819" 
d="M680 1470l-66 27l172 344l164 -88zM352 1470l-65 27l172 344l164 -88z" />
    <glyph glyph-name="dotaccent.case" horiz-adv-x="819" 
d="M604 1759q45 -1 74 -31t29 -74t-32 -80t-80 -36t-77 31t-29 79t35 80t80 31z" />
    <glyph glyph-name="acute.smcp" horiz-adv-x="819" 
d="M428 1184l-70 41l250 342l170 -62z" />
    <glyph glyph-name="grave.smcp" horiz-adv-x="819" 
d="M707 1221l-70 -37l-283 329l181 54z" />
    <glyph glyph-name="circumflex.smcp" horiz-adv-x="819" 
d="M551 1561h86l158 -342l-70 -35l-156 192l-235 -192l-68 35z" />
    <glyph glyph-name="tilde.smcp" horiz-adv-x="819" 
d="M674 1251q-44 0 -142 45t-124 45q-55 0 -99 -116l-73 24q74 242 204 242q44 0 142 -45t125 -45q55 0 98 117l74 -25q-74 -242 -205 -242z" />
    <glyph glyph-name="dieresis.smcp" horiz-adv-x="819" 
d="M874 1363q0 -42 -30 -76t-76 -34q-45 0 -72 30q-26 30 -26 75t32 75q33 29 76 29t70 -28q26 -29 26 -71zM465 1363q0 -42 -31 -76t-76 -34q-46 0 -72 30t-26 75t33 75q33 29 76 29t69 -28t27 -71z" />
    <glyph glyph-name="ring.smcp" horiz-adv-x="819" 
d="M483 1343q0 -77 88 -77q43 0 73 40t30 86q0 83 -80 85q-51 0 -81 -40t-30 -94zM564 1176q-89 0 -137 43t-48 125t62 153q61 70 151 70t138 -43t48 -126t-62 -153q-63 -69 -152 -69z" />
    <glyph glyph-name="caron.smcp" horiz-adv-x="819" 
d="M561 1194h-86l-158 342l70 35l156 -193l235 193l68 -35z" />
    <glyph glyph-name="macron.smcp" horiz-adv-x="819" 
d="M850 1384l-21 -122h-553l21 122h553z" />
    <glyph glyph-name="breve.smcp" horiz-adv-x="819" 
d="M408 1511q0 -176 151 -176q82 -1 148 57t88 142l84 -14q-27 -144 -118 -228t-205 -84t-176 62t-63 174q0 41 9 76l82 14v-23z" />
    <glyph glyph-name="hungarumlaut.smcp" horiz-adv-x="819" 
d="M614 1186l-61 35l213 335l147 -88zM287 1186l-62 35l213 335l148 -88z" />
    <glyph glyph-name="dotaccent.smcp" horiz-adv-x="819" 
d="M666 1363q0 -44 -32 -80t-80 -36t-77 31t-29 79t35 80q35 31 80 31t74 -30t29 -75z" />
    </font>
</defs>
</svg>
