<?xml version="1.0" standalone="no"?>
<!DOCTYPE svg PUBLIC "-//W3C//DTD SVG 1.1//EN" "http://www.w3.org/Graphics/SVG/1.1/DTD/svg11.dtd" >
<svg xmlns="http://www.w3.org/2000/svg">
<metadata>
Created by FontPrep 20130207 at Sun Jun 29 15:54:34 2014
 By Jörn Röder
Copyright (c) 2012 by Librerias Gandhi S.A. de C.V. All rights reserved.
</metadata>
<defs>
<font id="c36b72be77a1f66294b28bda9d50204e" horiz-adv-x='1024' >
  <font-face 
    font-family="GandhiSans-Regular"
    font-weight="400"
    font-stretch="normal"
    units-per-em="2048"
    panose-1="2 0 0 0 0 0 0 0 0 0"
    ascent="1567"
    descent="-481"
    x-height="971"
    cap-height="1372"
    bbox="-330 -482 7301 1851"
    underline-thickness="102"
    underline-position="-102"
    unicode-range="U+0020-FB02"
  />
<missing-glyph 
d="M164 -481v2048h799v-2048h-799z" />
    <glyph glyph-name=".notdef" 
d="M164 -481v2048h799v-2048h-799z" />
    <glyph glyph-name=".null" horiz-adv-x="0" 
 />
    <glyph glyph-name="nonmarkingreturn" horiz-adv-x="681" 
 />
    <glyph glyph-name="space" unicode=" " horiz-adv-x="471" 
 />
    <glyph glyph-name="exclam" unicode="!" horiz-adv-x="573" 
d="M162 96q0 51 37 88t88 37t88 -37t37 -88t-37 -88t-88 -37t-88 37t-37 88zM334 397h-94l-66 975h225z" />
    <glyph glyph-name="quotedbl" unicode="&#x22;" horiz-adv-x="763" 
d="M578 864h-84l-43 459h170zM270 864h-84l-43 459h170z" />
    <glyph glyph-name="numbersign" unicode="#" 
d="M449 764l-48 -277h283l47 277h-282zM92 764v104h266l56 332h106l-55 -332h283l55 332h106l-55 -332h221v-104h-237l-47 -277h258v-104h-275l-55 -332h-107l56 332h-283l-55 -332h-107l56 332h-213v104h229l47 277h-250z" />
    <glyph glyph-name="dollar" unicode="$" 
d="M336 1006q0 -70 42 -115t144 -98v411q-186 -32 -186 -198zM815 319q0 79 -48 133t-149 107v-442q90 16 144 70q53 54 53 132zM983 344q0 -150 -97 -249t-268 -120v-208h-104v204q-223 4 -373 92l23 150q176 -100 350 -104v501q-16 6 -49 23q-145 67 -220 145t-75 220
t95 236q95 95 257 114v219h105v-215q170 -8 307 -84l-27 -148q-135 82 -280 88v-467q149 -72 223 -133q75 -62 104 -124t29 -140z" />
    <glyph glyph-name="percent" unicode="%" horiz-adv-x="1601" 
d="M365 -29l-99 70l971 1311l98 -70zM1205 74q83 0 135 55t51 169t-55 167t-137 53t-135 -54t-52 -169t55 -168t138 -53zM1204 621q148 1 232 -89t84 -240t-87 -235q-87 -86 -235 -86t-231 91q-84 91 -84 238t87 234t234 87zM590 1029q0 114 -54 167t-138 53t-135 -54
q-52 -54 -52 -169t55 -168t138 -53t135 55q51 55 51 169zM404 1352q148 0 231 -90q84 -90 84 -238q0 -150 -87 -236q-86 -86 -234 -86t-232 92t-84 238t87 233t235 87z" />
    <glyph glyph-name="ampersand" unicode="&#x26;" horiz-adv-x="1409" 
d="M420 1033q0 -85 153 -265q186 119 187 274q0 68 -44 119t-119 51t-126 -47t-51 -132zM496 104q164 0 303 150l-322 395q-117 -45 -183 -131t-65 -187q0 -101 73 -164t194 -63zM76 336q0 274 319 414q-68 84 -98 146q-31 62 -31 136q0 131 88 218t234 87q146 1 234 -77
q87 -78 87 -218q0 -201 -258 -368l252 -301q123 154 240 366h168q-139 -242 -320 -473l39 -45q51 -61 84 -77t103 -15h61v-129q-66 -10 -137 -10q-128 0 -230 127l-28 35q-180 -180 -398 -181q-169 1 -289 97t-120 268z" />
    <glyph glyph-name="quotesingle" unicode="'" horiz-adv-x="456" 
d="M270 864h-84l-43 459h170z" />
    <glyph glyph-name="parenleft" unicode="(" horiz-adv-x="907" 
d="M287 643q0 -266 131 -502t346 -360l-51 -105q-264 128 -422 396t-158 571t158 571t422 396l51 -105q-215 -125 -346 -361t-131 -501z" />
    <glyph glyph-name="parenright" unicode=")" horiz-adv-x="907" 
d="M621 643q0 266 -132 502q-131 236 -346 360l52 105q263 -128 421 -396t158 -571t-158 -571t-421 -396l-52 105q215 125 347 361t131 501z" />
    <glyph glyph-name="asterisk" unicode="*" horiz-adv-x="880" 
d="M481 926l21 -305h-123l20 305l-256 -170l-61 106l276 135l-276 133l61 107l256 -170l-20 305h123l-21 -305l256 170l62 -107l-277 -133l277 -135l-62 -106z" />
    <glyph glyph-name="plus" unicode="+" 
d="M1024 569h-406v-403h-110v403h-406v107h406v401h110v-401h406v-107z" />
    <glyph glyph-name="comma" unicode="," horiz-adv-x="512" 
d="M162 -291l-82 58q111 145 110 268q0 92 -28 174h178q23 -53 22 -125q1 -201 -200 -375z" />
    <glyph glyph-name="hyphen" unicode="-" horiz-adv-x="716" 
d="M72 451v122h573v-122h-573z" />
    <glyph glyph-name="period" unicode="." horiz-adv-x="512" 
d="M131 96q0 51 37 88t88 37t88 -37t37 -88t-37 -88t-88 -37t-88 37t-37 88z" />
    <glyph glyph-name="slash" unicode="/" horiz-adv-x="1097" 
d="M1063 1587l-897 -2068h-131l897 2068h131z" />
    <glyph glyph-name="zero" unicode="0" 
d="M564 -29q-212 1 -340 189t-128 498t122 502t345 192t345 -192t122 -502q0 -311 -127 -499t-339 -188zM563 102q150 0 229 154q78 154 78 409t-82 405t-227 151q-145 0 -225 -150q-80 -149 -80 -405t78 -410t229 -154z" />
    <glyph glyph-name="one" unicode="1" 
d="M969 0h-758v115l307 8v1055l-307 -33v115l381 75h88v-1212l289 -8v-115z" />
    <glyph glyph-name="two" unicode="2" 
d="M113 0v63q337 309 503 523t166 393q0 111 -67 172q-68 61 -172 61q-193 0 -355 -155l-65 114q166 180 426 181q183 0 289 -94t106 -261q0 -215 -183 -453q-145 -190 -368 -397h596l-8 -147h-868z" />
    <glyph glyph-name="three" unicode="3" 
d="M526 -29q-112 0 -222 44t-181 116l92 115q137 -137 311 -137q133 1 210 69t77 168t-59 158q-105 103 -342 100h-84v129q428 31 428 289q0 84 -56 137t-150 53q-96 0 -190 -46t-155 -109l-66 114q76 81 189 131t251 50t242 -82t105 -240q0 -115 -71 -206t-185 -130
q135 -16 221 -105t86 -222q-2 -172 -128 -284t-323 -112z" />
    <glyph glyph-name="four" unicode="4" 
d="M686 516v528l-403 -528h403zM686 0v379h-631v65l693 891h96v-819h217v-137h-217v-379h-158z" />
    <glyph glyph-name="five" unicode="5" 
d="M997 379q1 -178 -125 -293t-346 -115t-387 162l90 115q143 -139 322 -139q117 -1 202 71t85 202t-114 197t-304 66h-215l61 678h649l-8 -145h-510l-30 -387h71q218 0 376 -80q85 -43 134 -128t49 -204z" />
    <glyph glyph-name="six" unicode="6" 
d="M564 106q134 0 214 88t80 216t-72 200t-218 72q-144 0 -285 -76q-6 -57 -7 -110q0 -170 77 -280t211 -110zM626 823q176 0 284 -105q108 -106 108 -292t-122 -320t-332 -135q-210 1 -328 145t-119 388q0 330 222 559t558 289l31 -131q-465 -88 -604 -459q127 61 302 61z
" />
    <glyph glyph-name="seven" unicode="7" 
d="M1006 1323v-92l-613 -1231h-176l604 1176h-692l10 147h867z" />
    <glyph glyph-name="eight" unicode="8" 
d="M328 1030q0 -84 57 -135t203 -125q225 98 225 256q0 92 -73 142t-173 50q-99 0 -169 -52t-70 -136zM844 323q0 99 -77 163t-237 145q-108 -43 -176 -125t-68 -182t75 -161t200 -61t204 61t79 160zM127 317q0 123 75 225t193 156q-229 131 -229 326q0 141 118 234
q118 94 286 94t284 -87q115 -87 115 -233q0 -213 -254 -327q143 -78 213 -160t69 -211q0 -164 -125 -263q-124 -99 -318 -99t-310 92q-116 93 -117 253z" />
    <glyph glyph-name="nine" unicode="9" 
d="M562 1217q-134 1 -214 -87t-80 -217t73 -201t217 -71q144 0 284 76q8 49 8 110q0 170 -77 280t-211 110zM520 500q-196 0 -304 105t-108 291t122 322q122 134 332 134t329 -144t119 -389q0 -330 -222 -559t-559 -289l-30 131q467 88 604 457q-133 -59 -283 -59z" />
    <glyph glyph-name="colon" unicode=":" horiz-adv-x="512" 
d="M131 731q0 51 37 88t88 37t88 -37t37 -88t-37 -88t-88 -37t-88 37t-37 88zM131 96q0 51 37 88t88 37t88 -37t37 -88t-37 -88t-88 -37t-88 37t-37 88z" />
    <glyph glyph-name="semicolon" unicode=";" horiz-adv-x="512" 
d="M193 41q0 80 -41 168h182q29 -51 28 -125q1 -201 -200 -375l-82 58q113 154 113 274zM131 731q0 51 37 88t88 37t88 -37t37 -88t-37 -88t-88 -37t-88 37t-37 88z" />
    <glyph glyph-name="less" unicode="&#x3c;" 
d="M154 573v103l749 399l55 -100l-663 -350l663 -351l-55 -100z" />
    <glyph glyph-name="equal" unicode="=" 
d="M1024 764h-922v106h922v-106zM1024 375h-922v106h922v-106z" />
    <glyph glyph-name="greater" unicode="&#x3e;" 
d="M973 670v-103l-750 -399l-55 100l663 350l-663 351l55 100z" />
    <glyph glyph-name="question" unicode="?" horiz-adv-x="839" 
d="M223 96q0 51 37 88t88 37t88 -37t37 -88t-37 -88t-88 -37t-88 37t-37 88zM252 574q0 81 35 146q35 64 85 106t101 80q121 90 121 196q0 68 -62 116t-128 48q-68 0 -138 -22t-110 -60l-54 119q115 98 289 98q175 0 271 -87q96 -86 96 -188q0 -176 -126 -281
q-52 -44 -104 -85q-126 -99 -127 -211q0 -68 9 -111h-140q-18 55 -18 136z" />
    <glyph glyph-name="at" unicode="@" horiz-adv-x="1935" 
d="M743 207q0 -47 34 -76q35 -29 95 -29t136 44t129 106v184q-190 -35 -292 -87t-102 -142zM96 451q0 401 242 661t663 260q324 0 566 -185q119 -91 191 -244t71 -345q0 -274 -140 -448t-370 -175q-154 0 -184 123q-119 -127 -283 -127q-117 1 -192 61q-74 60 -74 162
t73 185q73 82 282 131q78 17 196 39v135q0 90 -37 134t-163 44t-290 -82l-24 119q79 45 187 73t196 27q287 0 286 -288v-559q0 -66 78 -66q154 0 255 140t101 368t-104 386q-199 304 -621 304q-356 0 -579 -228t-223 -607t226 -599t626 -221q336 0 598 195l49 -74
q-123 -94 -298 -151t-382 -57t-392 70q-346 133 -471 483q-59 163 -59 356z" />
    <glyph glyph-name="A" unicode="A" horiz-adv-x="1310" 
d="M653 1102l-219 -570h432zM1065 0l-147 393h-537l-150 -393h-170l545 1372h105l538 -1372h-184z" />
    <glyph glyph-name="B" unicode="B" horiz-adv-x="1169" 
d="M338 1235v-444h178q137 0 217 63t80 175t-67 159t-197 47h-211zM338 653v-516h258q295 0 295 252q0 127 -92 196t-260 68h-201zM174 0v1372h385q215 0 321 -77t107 -248q0 -113 -57 -193t-156 -117q137 -23 215 -117t78 -251t-122 -263t-333 -106h-438z" />
    <glyph glyph-name="C" unicode="C" horiz-adv-x="1294" 
d="M795 -29q-315 -1 -499 187t-183 519q0 331 187 527t497 197q213 0 377 -80l-29 -156q-158 86 -338 86q-248 -1 -384 -155t-136 -418t146 -410t392 -145q203 0 344 88l23 -150q-76 -41 -188 -65t-209 -25z" />
    <glyph glyph-name="D" unicode="D" horiz-adv-x="1423" 
d="M338 1235v-1098h240q282 0 420 154q138 155 138 405t-132 394q-133 144 -412 145h-254zM174 0v1372h438q367 0 533 -185t166 -484t-158 -491q-80 -96 -214 -154t-310 -58h-455z" />
    <glyph glyph-name="E" unicode="E" horiz-adv-x="1054" 
d="M174 0v1372h772v-137h-608v-444h489v-138h-489v-516h614v-137h-778z" />
    <glyph glyph-name="F" unicode="F" horiz-adv-x="1030" 
d="M174 0v1372h774v-137h-610v-453h506v-139h-506v-643h-164z" />
    <glyph glyph-name="G" unicode="G" horiz-adv-x="1402" 
d="M809 -29q-317 1 -507 183t-189 518q0 336 184 532t524 197q231 0 408 -90l-31 -152q-162 88 -364 88q-268 0 -408 -149q-139 -150 -139 -422t149 -414q150 -141 398 -141q154 0 262 41v373h-265v137h429v-613q-211 -88 -451 -88z" />
    <glyph glyph-name="H" unicode="H" horiz-adv-x="1468" 
d="M174 0v1372h164v-584h792v584h164v-1372h-164v651h-792v-651h-164z" />
    <glyph glyph-name="I" unicode="I" horiz-adv-x="512" 
d="M174 0v1372h164v-1372h-164z" />
    <glyph glyph-name="J" unicode="J" horiz-adv-x="534" 
d="M360 1372v-1036q0 -231 -72 -359q-73 -127 -265 -200l-64 117q143 68 191 155q47 88 47 275v1048h163z" />
    <glyph glyph-name="K" unicode="K" horiz-adv-x="1234" 
d="M174 0v1372h164v-1372h-164zM1054 -10q-50 0 -90 26q-42 26 -94 90l-491 605l563 661h203l-576 -649l441 -535q32 -39 54 -49t62 -10h27v-129q-49 -10 -99 -10z" />
    <glyph glyph-name="L" unicode="L" horiz-adv-x="1054" 
d="M174 0v1372h164v-1237h635v-135h-799z" />
    <glyph glyph-name="M" unicode="M" horiz-adv-x="1701" 
d="M174 0v1372h197l485 -1118l490 1118h182v-1372h-164v1038l-461 -1038h-102l-463 1047v-1047h-164z" />
    <glyph glyph-name="N" unicode="N" horiz-adv-x="1421" 
d="M174 0v1372h186l723 -991v991h164v-1372h-94l-815 1118v-1118h-164z" />
    <glyph glyph-name="O" unicode="O" horiz-adv-x="1482" 
d="M739 115q219 -1 336 159t117 417t-116 411t-336 154t-334 -160q-114 -158 -115 -409q1 -251 115 -411t333 -161zM739 -29q-209 1 -354 103q-272 192 -272 612t274 612q145 102 352 103q309 0 470 -201t161 -510t-161 -514t-470 -205z" />
    <glyph glyph-name="P" unicode="P" horiz-adv-x="1136" 
d="M338 1235v-524h164q348 0 348 293q0 231 -307 231h-205zM502 573h-164v-573h-164v1372h406q208 0 326 -91t118 -283t-130 -309q-130 -116 -392 -116z" />
    <glyph glyph-name="Q" unicode="Q" horiz-adv-x="1482" 
d="M739 115q219 -1 336 159t117 417t-116 411t-336 154t-334 -160q-114 -158 -115 -409q1 -251 115 -411t333 -161zM1206 -481q-128 0 -274 155q-111 117 -244 299q-193 13 -326 117q-249 196 -249 605q0 410 274 603q145 102 352 103q309 0 470 -201q161 -200 161 -490
t-125 -486t-366 -240q129 -176 212 -249t164 -73h58v-127q-47 -16 -107 -16z" />
    <glyph glyph-name="R" unicode="R" horiz-adv-x="1222" 
d="M338 1235v-485h225q283 0 283 264q0 221 -307 221h-201zM1075 -10q-129 0 -211 133l-217 360q-29 47 -44 67q-41 56 -138 56h-127v-606h-164v1372h406q204 0 320 -93t116 -253q0 -335 -309 -403q66 -35 120 -131l179 -293q41 -70 100 -70h45v-129q-45 -10 -76 -10z" />
    <glyph glyph-name="S" unicode="S" horiz-adv-x="1028" 
d="M930 358q0 -174 -126 -280t-336 -107q-210 0 -380 97l23 153q184 -109 364 -108q125 0 203 63t78 176q0 72 -28 103t-41 46q-39 45 -275 158q-145 76 -221 158q-75 82 -74 215q0 176 120 272q119 96 315 97q196 0 329 -88l-27 -152q-137 98 -305 99q-121 0 -194 -60
t-73 -147q0 -85 59 -141q58 -56 170 -112q111 -56 145 -75q34 -18 99 -62t95 -81q80 -101 80 -224z" />
    <glyph glyph-name="T" unicode="T" horiz-adv-x="1277" 
d="M557 0v1235h-465v137h1094v-137h-465v-1235h-164z" />
    <glyph glyph-name="U" unicode="U" horiz-adv-x="1374" 
d="M1210 455q0 -229 -143 -357t-377 -127q-234 0 -381 125q-145 125 -145 359v917h164v-891q0 -176 93 -270t273 -94q352 0 353 364v891h163v-917z" />
    <glyph glyph-name="V" unicode="V" horiz-adv-x="1277" 
d="M236 1372l409 -1081l395 1081h177l-531 -1372h-92l-533 1372h175z" />
    <glyph glyph-name="W" unicode="W" horiz-adv-x="1902" 
d="M872 1120l-92 252h183l370 -1089l334 1089h174l-469 -1372h-86l-336 911l-332 -911h-96l-461 1372h172l345 -1089z" />
    <glyph glyph-name="X" unicode="X" horiz-adv-x="1282" 
d="M72 0l475 729l-424 643h194l332 -516l324 516h188l-428 -649l477 -723h-192l-383 594l-375 -594h-188z" />
    <glyph glyph-name="Y" unicode="Y" horiz-adv-x="1239" 
d="M535 0v549l-474 823h189l371 -676l378 676h179l-480 -823v-549h-163z" />
    <glyph glyph-name="Z" unicode="Z" horiz-adv-x="1245" 
d="M102 0v82l781 1153h-742v137h969v-86l-784 -1149h807v-137h-1031z" />
    <glyph glyph-name="bracketleft" unicode="[" horiz-adv-x="835" 
d="M713 1505h-398v-1712h398v-115h-549v1942h549v-115z" />
    <glyph glyph-name="backslash" unicode="\" horiz-adv-x="1097" 
d="M932 -481l-897 2068h131l897 -2068h-131z" />
    <glyph glyph-name="bracketright" unicode="]" horiz-adv-x="835" 
d="M520 1505h-397v115h549v-1942h-549v115h397v1712z" />
    <glyph glyph-name="asciicircum" unicode="^" 
d="M512 1352h102l400 -750l-101 -55l-350 663l-350 -663l-100 55z" />
    <glyph glyph-name="underscore" unicode="_" 
d="M1137 -219v-107h-1147v107h1147z" />
    <glyph glyph-name="grave" unicode="`" horiz-adv-x="819" 
d="M592 1180l-70 -37l-295 342l179 41z" />
    <glyph glyph-name="a" unicode="a" horiz-adv-x="985" 
d="M233 207q0 -47 34 -76q35 -29 95 -29t136 44t129 106v184q-190 -35 -292 -87t-102 -142zM909 88v-86q-70 -18 -157 -18q-115 0 -123 120q-115 -133 -287 -133q-118 1 -192 61t-74 162t73 185q73 82 282 131q78 17 196 39v135q0 90 -37 134t-163 44t-290 -82l-24 119
q176 100 383 100q287 0 286 -288v-555q0 -44 20 -56t60 -12h47z" />
    <glyph glyph-name="b" unicode="b" horiz-adv-x="1112" 
d="M856 500q0 356 -280 356q-142 0 -269 -139v-545q97 -66 241 -66t226 98t82 296zM626 999q177 0 283 -140q107 -139 107 -375t-128 -374t-343 -139q-150 0 -277 72l-55 -72h-61v1479l155 37v-621q142 133 319 133z" />
    <glyph glyph-name="c" unicode="c" horiz-adv-x="968" 
d="M564 -29q-194 0 -331 125t-137 366t123 389t367 148q160 0 274 -73l-33 -123q-119 59 -239 59q-164 0 -248 -106t-84 -282t87 -270q87 -93 243 -93t270 65l27 -123q-125 -82 -319 -82z" />
    <glyph glyph-name="d" unicode="d" horiz-adv-x="1112" 
d="M256 471q0 -358 278 -358q142 0 271 141v545q-105 63 -243 63t-222 -98t-84 -293zM489 -29q-177 1 -285 141t-108 353q0 258 129 396t344 138q121 0 236 -53v510l156 31v-1487h-156v102q-139 -131 -316 -131z" />
    <glyph glyph-name="e" unicode="e" horiz-adv-x="1021" 
d="M764 670q0 205 -203 204q-111 0 -185 -64t-102 -183h486q4 25 4 43zM96 471q0 242 132 385t333 143q365 0 365 -366q0 -59 -8 -125h-664v-41q0 -182 95 -270t249 -88t289 84l26 -123q-133 -98 -342 -98t-342 128q-133 129 -133 371z" />
    <glyph glyph-name="f" unicode="f" horiz-adv-x="673" 
d="M45 844v127h158v88q-1 209 111 319t272 109q47 0 84 -10l-17 -123h-24q-135 0 -203 -68t-68 -225v-90h260v-127h-260v-844h-155v844h-158z" />
    <glyph glyph-name="g" unicode="g" horiz-adv-x="1112" 
d="M518 109q80 0 163 47t124 96v553q-100 59 -245 59q-144 0 -224 -106t-80 -280t68 -272q68 -97 194 -97zM479 -344q164 0 246 64t82 237v145q-141 -131 -321 -131q-180 -1 -284 141q-105 142 -106 351q0 258 130 397t339 139t396 -96v-962q0 -422 -482 -422
q-182 0 -342 59l29 137q149 -59 313 -59z" />
    <glyph glyph-name="h" unicode="h" horiz-adv-x="1110" 
d="M152 0v1456l155 31v-625q152 137 322 137t253 -90t83 -245v-664h-156v641q0 99 -53 157t-154 58q-156 0 -295 -139v-717h-155z" />
    <glyph glyph-name="i" unicode="i" horiz-adv-x="458" 
d="M229 1206q-47 0 -81 33t-33 78q0 45 33 78q34 33 81 33t81 -34q34 -32 34 -77t-34 -78t-81 -33zM152 0v969l155 30v-999h-155z" />
    <glyph glyph-name="j" unicode="j" horiz-adv-x="477" 
d="M248 1217q-47 1 -81 33t-34 77t34 78t81 33t81 -33q33 -33 33 -78t-33 -78q-34 -32 -81 -32zM326 -53q0 -213 -100 -319t-261 -107q-51 0 -86 10l-8 119h41q131 0 194 72t64 223v1024l156 30v-1052z" />
    <glyph glyph-name="k" unicode="k" horiz-adv-x="1030" 
d="M152 0v1450l155 37v-1487h-155zM870 -18q-64 0 -104 24q-39 24 -78 74l-330 450l385 441h203l-414 -434l289 -383q51 -66 164 -66v-86q-51 -20 -115 -20z" />
    <glyph glyph-name="l" unicode="l" horiz-adv-x="458" 
d="M152 0v1450l155 37v-1487h-155z" />
    <glyph glyph-name="m" unicode="m" horiz-adv-x="1703" 
d="M152 0v969l155 30v-137q156 137 324 137q203 0 278 -163q174 164 346 163q303 -2 304 -344v-655h-156v631q0 221 -180 223q-82 0 -158 -43t-125 -98v-713h-156v635q0 221 -190 221q-147 0 -287 -139v-717h-155z" />
    <glyph glyph-name="n" unicode="n" horiz-adv-x="1110" 
d="M152 0v969l155 30v-137q152 137 322 137t253 -90t83 -245v-664h-156v641q0 99 -53 157t-154 58q-156 0 -295 -139v-717h-155z" />
    <glyph glyph-name="o" unicode="o" horiz-adv-x="1118" 
d="M1022 481q0 -232 -126 -371t-336 -139q-210 1 -337 141t-127 370t121 374t342 143q221 0 342 -143t121 -375zM260 488q0 -178 78 -284t222 -106t221 106t77 283t-81 281t-220 104t-218 -103t-79 -281z" />
    <glyph glyph-name="p" unicode="p" horiz-adv-x="1112" 
d="M594 858q-166 0 -287 -141v-545q99 -66 241 -66t225 98t83 282q0 372 -262 372zM307 -453h-155v1422l155 30v-135q147 135 320 135t281 -136q108 -137 108 -375t-128 -377t-339 -140q-119 1 -242 52v-476z" />
    <glyph glyph-name="q" unicode="q" horiz-adv-x="1112" 
d="M528 113q80 0 158 45t119 96v549q-98 61 -243 61q-146 0 -226 -104t-80 -277q0 -370 272 -370zM961 -453h-156v555q-145 -131 -319 -131q-174 1 -282 141t-108 374t128 374q128 139 334 139t403 -94v-1358z" />
    <glyph glyph-name="r" unicode="r" horiz-adv-x="745" 
d="M307 0h-155v969l155 30v-202q61 67 96 101t93 68t116 34q57 0 88 -31l-18 -140q-33 7 -82 7q-105 1 -293 -189v-647z" />
    <glyph glyph-name="s" unicode="s" horiz-adv-x="827" 
d="M371 -29q-158 0 -295 74l28 131q51 -30 130 -54t160 -24t140 39q58 39 58 107t-43 103q-43 34 -131 68t-124 51t-88 52q-100 67 -100 200q0 132 98 207t250 75q153 0 251 -62l-29 -129q-102 59 -208 59t-159 -37t-53 -92t28 -86q28 -30 103 -59q75 -30 115 -47
q95 -41 152 -84q87 -66 87 -200t-106 -213t-264 -79z" />
    <glyph glyph-name="t" unicode="t" horiz-adv-x="765" 
d="M45 844v127h166l53 256h103v-256h313v-127h-313v-592q0 -147 122 -148q84 0 179 46l22 -121q-92 -57 -226 -57t-194 68q-59 69 -59 212v592h-166z" />
    <glyph glyph-name="u" unicode="u" horiz-adv-x="1081" 
d="M930 971v-971h-156v104q-152 -133 -336 -133q-147 0 -227 90t-80 265v645h156v-652q0 -211 186 -210q170 0 301 145v717h156z" />
    <glyph glyph-name="v" unicode="v" horiz-adv-x="1019" 
d="M453 0l-398 971h176l285 -742l277 742h172l-400 -971h-112z" />
    <glyph glyph-name="w" unicode="w" horiz-adv-x="1536" 
d="M721 971h106l250 -711l232 711h172l-359 -971h-112l-242 672l-238 -672h-112l-363 971h178l248 -715z" />
    <glyph glyph-name="x" unicode="x" horiz-adv-x="1017" 
d="M55 0l359 510l-324 461h197l235 -346l209 346h197l-318 -471l353 -500h-195l-270 391l-252 -391h-191z" />
    <glyph glyph-name="y" unicode="y" horiz-adv-x="1024" 
d="M174 -481q-84 0 -149 26l26 121q53 -16 123 -16q96 0 163 90t128 270l-404 961h177l305 -760l254 760h172l-400 -1094q-131 -358 -395 -358z" />
    <glyph glyph-name="z" unicode="z" horiz-adv-x="993" 
d="M86 0v84l580 760h-551v127h774v-84l-588 -760h606v-127h-821z" />
    <glyph glyph-name="braceleft" unicode="{" horiz-adv-x="954" 
d="M350 1004v305q0 183 85 247t284 64h112v-113h-100q-121 0 -173 -39t-52 -161v-310q0 -151 -55 -229t-197 -117q140 -41 196 -121t56 -227v-311q0 -123 52 -162t173 -39h100v-113h-112q-199 0 -284 65t-85 247v307q0 147 -50 207t-198 86v121q147 27 198 86q50 59 50 207z
" />
    <glyph glyph-name="bar" unicode="|" horiz-adv-x="614" 
d="M369 -481h-123v2068h123v-2068z" />
    <glyph glyph-name="braceright" unicode="}" horiz-adv-x="954" 
d="M604 297v-307q0 -182 -85 -247t-283 -65h-113v113h100q121 0 173 39t53 162v311q0 151 55 229t196 117q-139 41 -195 121t-56 227v310q-1 123 -53 161t-173 39h-100v113h113q200 0 284 -65t84 -246v-305q0 -146 50 -206t198 -87v-121q-148 -27 -198 -86t-50 -207z" />
    <glyph glyph-name="asciitilde" unicode="~" 
d="M339 618q-56 0 -87 -36t-49 -107l-101 27q57 236 234 235q72 0 234 -63q162 -64 217 -64t87 36t50 108l100 -27q-57 -236 -233 -235q-72 0 -234 63t-218 63z" />
    <glyph glyph-name="uni00A0" unicode="&#xa0;" horiz-adv-x="471" 
 />
    <glyph glyph-name="exclamdown" unicode="&#xa1;" horiz-adv-x="573" 
d="M162 874q0 50 37 88t88 38t88 -38q37 -36 37 -88t-37 -88t-88 -36t-88 36t-37 88zM240 573h94l65 -974h-225z" />
    <glyph glyph-name="cent" unicode="&#xa2;" 
d="M303 474q0 -148 70 -240t198 -115v735q-127 -27 -197 -130q-70 -102 -71 -250zM571 -233v208q-186 23 -307 147t-121 340t111 361t317 170v221h107v-215q174 -8 276 -73l-32 -123q-109 53 -244 59v-751q166 4 272 65l27 -123q-111 -74 -299 -80v-206h-107z" />
    <glyph glyph-name="sterling" unicode="&#xa3;" 
d="M164 614v101h196q-53 141 -53 248q0 178 117 283t303 106q111 0 205 -25l-12 -139q-86 20 -199 20t-183 -64t-69 -172q0 -106 61 -257h373v-101h-338q21 -68 21 -150t-64 -169q-64 -88 -160 -148h607v-147h-834v72q147 82 218 192t71 221q0 55 -27 129h-233z" />
    <glyph glyph-name="currency" unicode="&#xa4;" 
d="M772 622q0 110 -55 177q-55 65 -157 65t-154 -70t-52 -176t54 -175t154 -69q99 0 155 69q55 69 55 179zM918 623q0 -132 -58 -222l139 -139l-77 -78l-138 138q-88 -66 -223 -66t-221 63l-135 -135l-78 78l139 139q-59 90 -59 217t61 222l-141 141l78 78l139 -141
q88 66 218 66t220 -64l140 139l77 -78l-141 -141q60 -85 60 -217z" />
    <glyph glyph-name="yen" unicode="&#xa5;" 
d="M186 596v100h238l-379 627h188l330 -590l338 590h178l-385 -627h234v-100h-287v-141h287v-101h-287v-354h-164v354h-291v101h291v141h-291z" />
    <glyph glyph-name="brokenbar" unicode="&#xa6;" horiz-adv-x="614" 
d="M369 -481h-123v757h123v-757zM369 829h-123v758h123v-758z" />
    <glyph glyph-name="section" unicode="&#xa7;" horiz-adv-x="991" 
d="M719 588q0 72 -50 116t-145 91q-112 -9 -182 -59t-70 -122t50 -116q50 -43 143 -92q111 10 183 60t71 122zM868 600q0 -100 -74 -174t-182 -96q170 -104 170 -246t-94 -213q-94 -70 -240 -70t-276 68l27 127q111 -70 258 -70q178 0 178 142q0 49 -53 93t-128 82t-150 81
q-75 42 -128 110t-53 166t73 172q73 76 181 100q-168 100 -168 244t94 215q94 70 241 70t275 -68l-26 -127q-111 70 -258 70q-178 0 -179 -141q0 -87 182 -177q75 -37 149 -79q181 -104 181 -279z" />
    <glyph glyph-name="dieresis" unicode="&#xa8;" horiz-adv-x="819" 
d="M731 1317q-1 -43 -33 -74t-76 -31t-76 31t-32 74t32 74t76 31t76 -32q32 -30 33 -73zM305 1317q-1 -43 -33 -74t-76 -31t-76 31t-32 74t32 74t76 31t76 -32q32 -30 33 -73z" />
    <glyph glyph-name="copyright" unicode="&#xa9;" horiz-adv-x="1658" 
d="M1454 687q0 259 -182 442t-440 183t-443 -182q-184 -184 -184 -443t183 -442t442 -183q260 0 442 182q182 184 182 443zM1546 687q0 -298 -210 -507t-507 -209t-507 209t-209 507q0 298 210 506q211 208 507 208t506 -208t210 -506zM862 285q-180 0 -291 101
q-111 102 -111 288t109 298t291 111q113 0 209 -51l-20 -114q-88 51 -183 51q-135 0 -208 -81q-72 -81 -72 -215t77 -204t201 -70t209 43l12 -106q-90 -51 -223 -51z" />
    <glyph glyph-name="ordfeminine" unicode="&#xaa;" horiz-adv-x="770" 
d="M225 854q0 -70 84 -70q51 0 105 33t78 64v127q-133 -24 -200 -54t-67 -100zM709 772v-78q-49 -18 -127 -18q-88 0 -88 92q-82 -94 -209 -94q-84 0 -139 47q-54 47 -54 119q0 134 130 191q102 44 270 69v53q0 100 -55 123q-26 10 -64 10q-111 0 -234 -63l-22 106
q121 72 278 72q223 0 223 -203v-379q0 -31 10 -39t36 -8h45z" />
    <glyph glyph-name="guillemotleft" unicode="&#xab;" horiz-adv-x="1097" 
d="M676 487l278 -352l-90 -72l-362 424l362 424l90 -71zM276 487l279 -352l-90 -72l-363 424l363 424l90 -71z" />
    <glyph glyph-name="logicalnot" unicode="&#xac;" 
d="M1014 870v-495h-111v389h-811v106h922z" />
    <glyph glyph-name="uni00AD" unicode="&#xad;" horiz-adv-x="716" 
d="M72 451v122h573v-122h-573z" />
    <glyph glyph-name="registered" unicode="&#xae;" horiz-adv-x="1658" 
d="M715 963v-238h114q70 0 107 34t37 88t-36 85t-101 31h-121zM715 305h-119v760h252q112 0 178 -54t66 -159q0 -176 -170 -223q41 -20 77 -78l80 -131q23 -39 56 -39h32v-84q-33 -8 -65 -8q-72 0 -123 80l-131 204q-27 43 -76 43h-57v-311zM1454 687q0 259 -182 442
t-440 183t-443 -182q-184 -184 -184 -443t183 -442t442 -183q260 0 442 182q182 184 182 443zM1546 687q0 -298 -210 -507t-507 -209t-507 209t-209 507q0 298 210 506q211 208 507 208t506 -208t210 -506z" />
    <glyph glyph-name="macron" unicode="&#xaf;" horiz-adv-x="819" 
d="M686 1343v-122h-553v122h553z" />
    <glyph glyph-name="degree" unicode="&#xb0;" 
d="M233 1024q-1 148 95 238t235 90t235 -90t95 -238q0 -148 -94 -236q-93 -90 -235 -90t-236 90t-95 236zM354 1024q0 -100 60 -164t149 -63q88 0 149 63q60 64 60 164t-60 164t-148 63q-88 1 -150 -63q-60 -64 -60 -164z" />
    <glyph glyph-name="plusminus" unicode="&#xb1;" 
d="M1024 0h-922v106h922v-106zM1024 631h-406v-363h-110v363h-406v106h406v361h110v-361h406v-106z" />
    <glyph glyph-name="twosuperior" unicode="&#xb2;" horiz-adv-x="819" 
d="M82 670v63q223 162 343 292t120 237q0 129 -156 129q-119 0 -242 -97l-59 103q127 113 307 112q291 0 291 -245q0 -115 -89 -227t-257 -251h377l-8 -116h-627z" />
    <glyph glyph-name="threesuperior" unicode="&#xb3;" horiz-adv-x="819" 
d="M360 653q-152 0 -270 101l82 98q90 -82 211 -82q184 0 184 123q-1 79 -71 107t-197 28h-61v105q293 18 292 155q0 45 -37 75q-38 30 -104 30q-133 0 -231 -90l-56 94q117 113 306 112q112 0 186 -54t74 -159q0 -70 -44 -120t-122 -70q94 -12 148 -64t55 -141
q-1 -125 -97 -187t-248 -61z" />
    <glyph glyph-name="acute" unicode="&#xb4;" horiz-adv-x="819" 
d="M297 1143l-70 37l187 346l178 -41z" />
    <glyph glyph-name="mu" unicode="&#xb5;" horiz-adv-x="1101" 
d="M307 971v-647q0 -211 201 -211q86 0 164 44t123 97v717h155v-971h-155v104q-145 -133 -322 -133q-86 0 -170 54v-99q0 -141 30 -201t103 -102l-61 -104q-223 55 -223 385v1067h155z" />
    <glyph glyph-name="paragraph" unicode="&#xb6;" horiz-adv-x="1337" 
d="M582 666v587q-322 0 -322 -297q0 -142 83 -216t239 -74zM1225 1251h-172v-1423h-146v1425h-180v-1425h-145v723q-225 -1 -342 107t-117 304t126 303q126 108 357 107h619v-121z" />
    <glyph glyph-name="periodcentered" unicode="&#xb7;" horiz-adv-x="512" 
d="M131 623q0 51 37 88t88 37t88 -37t37 -88t-37 -88t-88 -37t-88 37t-37 88z" />
    <glyph glyph-name="cedilla" unicode="&#xb8;" horiz-adv-x="819" 
d="M610 -302q0 -83 -62 -131t-156 -48t-185 43l24 73q68 -31 138 -30q90 0 90 76q0 82 -129 81h-66l-14 37l162 201h110l-112 -137q80 0 140 -41t60 -124z" />
    <glyph glyph-name="onesuperior" unicode="&#xb9;" horiz-adv-x="819" 
d="M705 670h-551v98l208 8v604l-208 -22v96l276 47h76v-725l199 -8v-98z" />
    <glyph glyph-name="ordmasculine" unicode="&#xba;" horiz-adv-x="839" 
d="M219 1038q-1 -118 53 -190t149 -72t147 73t52 189t-54 188q-56 70 -148 70t-146 -70q-53 -71 -53 -188zM748 1032q0 -170 -88 -264t-239 -94t-240 94t-89 265t85 269t243 99q158 0 243 -99q85 -100 85 -270z" />
    <glyph glyph-name="guillemotright" unicode="&#xbb;" horiz-adv-x="1097" 
d="M422 487l-279 353l90 71l363 -424l-363 -424l-90 72zM821 487l-278 353l90 71l362 -424l-362 -424l-90 72z" />
    <glyph glyph-name="onequarter" unicode="&#xbc;" horiz-adv-x="2048" 
d="M1671 324v286l-266 -286h266zM1671 0v213h-446v70l495 548h88v-507h138v-111h-138v-213h-137zM623 -29l-99 70l971 1311l98 -70zM653 504h-551v98l209 8v604l-209 -22v96l277 47h76v-725l198 -8v-98z" />
    <glyph glyph-name="onehalf" unicode="&#xbd;" horiz-adv-x="2048" 
d="M1311 0v63q223 162 343 292t120 237q0 129 -156 129q-119 0 -242 -96l-59 102q127 113 307 113q291 0 291 -246q0 -114 -89 -226t-257 -251h377l-9 -117h-626zM567 -29l-98 70l971 1311l98 -70zM653 504h-551v98l209 8v604l-209 -22v96l277 47h76v-725l198 -8v-98z" />
    <glyph glyph-name="threequarters" unicode="&#xbe;" horiz-adv-x="2048" 
d="M717 727q-1 -125 -97 -187t-248 -61q-152 0 -270 101l82 98q90 -82 211 -82q184 0 185 123q0 55 -39 86t-93 40t-137 9h-61v104q293 18 293 156q0 45 -38 75t-104 30q-133 0 -231 -91l-55 95q117 113 305 112q112 0 186 -54t74 -159q0 -70 -44 -120t-122 -70
q94 -12 148 -64t55 -141zM1671 324v286l-266 -286h266zM1671 0v213h-446v70l495 548h88v-507h138v-111h-138v-213h-137zM633 -29l-98 70l970 1311l99 -70z" />
    <glyph glyph-name="questiondown" unicode="&#xbf;" horiz-adv-x="778" 
d="M596 874q0 -51 -37 -88q-37 -36 -88 -36t-88 36t-37 88q0 50 37 88t88 38t88 -38q37 -37 37 -88zM567 396q0 -82 -35 -146t-85 -106t-101 -80q-121 -89 -121 -195q-1 -68 61 -116t130 -48t137 22q70 22 111 60l53 -119q-115 -98 -289 -98t-270 87t-96 189t36 168
q37 68 89 112t105 85q126 99 126 211q0 68 -8 110h139q18 -55 18 -136z" />
    <glyph glyph-name="Agrave" unicode="&#xc0;" horiz-adv-x="1310" 
d="M774 1546l-53 -59l-410 186l144 113zM653 1102l-219 -570h432zM1065 0l-147 393h-537l-150 -393h-170l545 1372h105l538 -1372h-184z" />
    <glyph glyph-name="Aacute" unicode="&#xc1;" horiz-adv-x="1310" 
d="M588 1487l-53 59l319 240l143 -113zM653 1102l-219 -570h432zM1065 0l-147 393h-537l-150 -393h-170l545 1372h105l538 -1372h-184z" />
    <glyph glyph-name="Acircumflex" unicode="&#xc2;" horiz-adv-x="1310" 
d="M612 1810h86l224 -288l-70 -35l-197 149l-196 -149l-70 35zM653 1102l-219 -570h432zM1065 0l-147 393h-537l-150 -393h-170l545 1372h105l538 -1372h-184z" />
    <glyph glyph-name="Atilde" unicode="&#xc3;" horiz-adv-x="1310" 
d="M793 1536q-43 0 -149 45t-132 45q-55 0 -78 -117l-80 15q10 116 54 184t110 68q42 0 148 -45t133 -45q55 -1 78 116l79 -14q-10 -116 -53 -184t-110 -68zM653 1102l-219 -570h432zM1065 0l-147 393h-537l-150 -393h-170l545 1372h105l538 -1372h-184z" />
    <glyph glyph-name="Adieresis" unicode="&#xc4;" horiz-adv-x="1310" 
d="M867 1548q-43 0 -75 31t-32 74t32 73t76 31q44 0 76 -31q33 -32 33 -74t-33 -73t-77 -31zM441 1548q-43 0 -75 31t-32 74t32 73t76 31q44 0 76 -31q33 -32 33 -74t-33 -73t-77 -31zM653 1102l-219 -570h432zM1065 0l-147 393h-537l-150 -393h-170l545 1372h105l538 -1372
h-184z" />
    <glyph glyph-name="Aring" unicode="&#xc5;" horiz-adv-x="1310" 
d="M748 1658q0 48 -26 75t-65 26q-100 0 -100 -101t98 -102q37 0 65 27t28 75zM654 1851q92 0 146 -57t54 -137t-53 -138q-53 -59 -145 -59t-147 56q-56 56 -56 141q0 86 55 140t146 54zM653 1102l-219 -570h432zM1065 0l-147 393h-537l-150 -393h-170l545 1372h105
l538 -1372h-184z" />
    <glyph glyph-name="AE" unicode="&#xc6;" horiz-adv-x="1837" 
d="M956 530v586l-372 -586h372zM956 0v393h-462l-254 -393h-189l899 1372h779v-137h-609v-444h490v-138h-490v-516h615v-137h-779z" />
    <glyph glyph-name="Ccedilla" unicode="&#xc7;" horiz-adv-x="1294" 
d="M942 -302q0 -83 -62 -131t-156 -48t-185 43l24 73q68 -31 137 -30q90 0 91 76q0 82 -129 81h-66l-14 37l141 176q-285 21 -448 205t-163 506t188 518q187 196 497 197q213 0 377 -80l-29 -156q-158 86 -338 86q-248 -1 -384 -155t-136 -418t146 -410t392 -145
q203 0 344 88l23 -150q-141 -78 -361 -88l-90 -110q81 0 141 -41t60 -124z" />
    <glyph glyph-name="Egrave" unicode="&#xc8;" horiz-adv-x="1054" 
d="M690 1546l-53 -59l-410 186l144 113zM174 0v1372h772v-137h-608v-444h489v-138h-489v-516h614v-137h-778z" />
    <glyph glyph-name="Eacute" unicode="&#xc9;" horiz-adv-x="1054" 
d="M393 1487l-53 59l319 240l144 -113zM174 0v1372h772v-137h-608v-444h489v-138h-489v-516h614v-137h-778z" />
    <glyph glyph-name="Ecircumflex" unicode="&#xca;" horiz-adv-x="1054" 
d="M516 1810h86l223 -288l-69 -35l-197 149l-197 -149l-69 35zM174 0v1372h772v-137h-608v-444h489v-138h-489v-516h614v-137h-778z" />
    <glyph glyph-name="Edieresis" unicode="&#xcb;" horiz-adv-x="1054" 
d="M763 1548q-44 0 -76 31t-32 74t32 73t76 31q44 0 77 -31q32 -32 32 -74t-32 -73t-77 -31zM337 1548q-44 0 -76 31t-32 74t32 73t76 31q44 0 77 -31q32 -32 32 -74t-32 -73t-77 -31zM174 0v1372h772v-137h-608v-444h489v-138h-489v-516h614v-137h-778z" />
    <glyph glyph-name="Igrave" unicode="&#xcc;" horiz-adv-x="512" 
d="M369 1546l-54 -59l-409 186l143 113zM174 0v1372h164v-1372h-164z" />
    <glyph glyph-name="Iacute" unicode="&#xcd;" horiz-adv-x="512" 
d="M199 1487l-54 59l320 240l143 -113zM174 0v1372h164v-1372h-164z" />
    <glyph glyph-name="Icircumflex" unicode="&#xce;" horiz-adv-x="512" 
d="M213 1810h86l223 -288l-69 -35l-197 149l-197 -149l-69 35zM174 0v1372h164v-1372h-164z" />
    <glyph glyph-name="Idieresis" unicode="&#xcf;" horiz-adv-x="512" 
d="M468 1548q-44 0 -76 31t-32 74t32 73t76 31q44 0 77 -31q33 -32 33 -74t-33 -73t-77 -31zM42 1548q-44 0 -76 31t-32 74t32 73t76 31q44 0 77 -31q33 -32 33 -74t-33 -73t-77 -31zM174 0v1372h164v-1372h-164z" />
    <glyph glyph-name="Eth" unicode="&#xd0;" horiz-adv-x="1484" 
d="M399 1235v-461h299v-110h-299v-527h240q281 0 420 154q139 155 139 405t-133 394t-412 145h-254zM236 0v664h-185v110h185v598h438q366 0 532 -185t166 -484t-158 -491q-80 -96 -214 -154t-310 -58h-454z" />
    <glyph glyph-name="Ntilde" unicode="&#xd1;" horiz-adv-x="1421" 
d="M862 1536q-43 0 -148 45t-132 45q-55 0 -78 -117l-80 15q10 116 53 184t111 68q43 0 148 -45t132 -45q55 -1 78 116l80 -14q-10 -116 -53 -184t-111 -68zM174 0v1372h186l723 -991v991h164v-1372h-94l-815 1118v-1118h-164z" />
    <glyph glyph-name="Ograve" unicode="&#xd2;" horiz-adv-x="1482" 
d="M948 1546l-53 -59l-410 186l144 113zM739 115q219 -1 336 159t117 417t-116 411t-336 154t-334 -160q-114 -158 -115 -409q1 -251 115 -411t333 -161zM739 -29q-209 1 -354 103q-272 192 -272 612t274 612q145 102 352 103q309 0 470 -201t161 -510t-161 -514t-470 -205z
" />
    <glyph glyph-name="Oacute" unicode="&#xd3;" horiz-adv-x="1482" 
d="M582 1487l-54 59l320 240l143 -113zM739 115q219 -1 336 159t117 417t-116 411t-336 154t-334 -160q-114 -158 -115 -409q1 -251 115 -411t333 -161zM739 -29q-209 1 -354 103q-272 192 -272 612t274 612q145 102 352 103q309 0 470 -201t161 -510t-161 -514t-470 -205z
" />
    <glyph glyph-name="Ocircumflex" unicode="&#xd4;" horiz-adv-x="1482" 
d="M698 1810h86l224 -288l-70 -35l-197 149l-196 -149l-70 35zM739 115q219 -1 336 159t117 417t-116 411t-336 154t-334 -160q-114 -158 -115 -409q1 -251 115 -411t333 -161zM739 -29q-209 1 -354 103q-272 192 -272 612t274 612q145 102 352 103q309 0 470 -201t161 -510
t-161 -514t-470 -205z" />
    <glyph glyph-name="Otilde" unicode="&#xd5;" horiz-adv-x="1482" 
d="M879 1536q-43 0 -149 45t-132 45q-55 0 -78 -117l-80 15q10 116 54 184t110 68q42 0 148 -45t133 -45q55 -1 78 116l79 -14q-10 -116 -53 -184t-110 -68zM739 115q219 -1 336 159t117 417t-116 411t-336 154t-334 -160q-114 -158 -115 -409q1 -251 115 -411t333 -161z
M739 -29q-209 1 -354 103q-272 192 -272 612t274 612q145 102 352 103q309 0 470 -201t161 -510t-161 -514t-470 -205z" />
    <glyph glyph-name="Odieresis" unicode="&#xd6;" horiz-adv-x="1482" 
d="M953 1548q-43 0 -75 31t-32 74t32 73t76 31q44 0 76 -31q33 -32 33 -74t-33 -73t-77 -31zM527 1548q-43 0 -75 31t-32 74t32 73t76 31q44 0 76 -31q33 -32 33 -74t-33 -73t-77 -31zM739 115q219 -1 336 159t117 417t-116 411t-336 154t-334 -160q-114 -158 -115 -409
q1 -251 115 -411t333 -161zM739 -29q-209 1 -354 103q-272 192 -272 612t274 612q145 102 352 103q309 0 470 -201t161 -510t-161 -514t-470 -205z" />
    <glyph glyph-name="multiply" unicode="&#xd7;" 
d="M938 920l-297 -299l297 -297l-78 -78l-297 297l-297 -297l-78 78l297 297l-297 299l78 77l297 -299l297 299z" />
    <glyph glyph-name="Oslash" unicode="&#xd8;" horiz-adv-x="1482" 
d="M739 1255q-219 -1 -333 -159t-115 -401q0 -243 94 -392l633 858q-115 94 -279 94zM739 115q219 -1 336 159t117 402t-94 395l-633 -862q110 -94 274 -94zM739 -29q-219 0 -368 111l-111 -152h-147l170 232q-170 197 -170 530q0 413 274 606q145 102 358 102t367 -110
l111 152h147l-170 -232q170 -195 170 -512t-161 -522t-470 -205z" />
    <glyph glyph-name="Ugrave" unicode="&#xd9;" horiz-adv-x="1374" 
d="M823 1546l-53 -59l-410 186l144 113zM1210 455q0 -229 -143 -357t-377 -127q-234 0 -381 125q-145 125 -145 359v917h164v-891q0 -176 93 -270t273 -94q352 0 353 364v891h163v-917z" />
    <glyph glyph-name="Uacute" unicode="&#xda;" horiz-adv-x="1374" 
d="M596 1487l-53 59l319 240l144 -113zM1210 455q0 -229 -143 -357t-377 -127q-234 0 -381 125q-145 125 -145 359v917h164v-891q0 -176 93 -270t273 -94q352 0 353 364v891h163v-917z" />
    <glyph glyph-name="Ucircumflex" unicode="&#xdb;" horiz-adv-x="1374" 
d="M643 1810h86l223 -288l-69 -35l-197 149l-197 -149l-69 35zM1210 455q0 -229 -143 -357t-377 -127q-234 0 -381 125q-145 125 -145 359v917h164v-891q0 -176 93 -270t273 -94q352 0 353 364v891h163v-917z" />
    <glyph glyph-name="Udieresis" unicode="&#xdc;" horiz-adv-x="1374" 
d="M898 1548q-44 0 -76 31t-31 74q-1 43 31 73t76 31q44 0 77 -31q33 -32 33 -74t-33 -73t-77 -31zM472 1548q-44 0 -76 31t-31 74q-1 43 31 73t76 31q44 0 77 -31q33 -32 33 -74t-33 -73t-77 -31zM1210 455q0 -229 -143 -357t-377 -127q-234 0 -381 125q-145 125 -145 359
v917h164v-891q0 -176 93 -270t273 -94q352 0 353 364v891h163v-917z" />
    <glyph glyph-name="Yacute" unicode="&#xdd;" horiz-adv-x="1239" 
d="M526 1487l-53 59l320 240l143 -113zM535 0v549l-474 823h189l371 -676l378 676h179l-480 -823v-549h-163z" />
    <glyph glyph-name="Thorn" unicode="&#xde;" horiz-adv-x="1136" 
d="M338 948v-524h147q174 0 270 74q95 74 95 219q0 231 -313 231h-199zM338 1372v-287h235q209 0 330 -91q121 -90 121 -282t-137 -309t-402 -116h-147v-287h-164v1372h164z" />
    <glyph glyph-name="germandbls" unicode="&#xdf;" horiz-adv-x="1255" 
d="M811 -29q-78 0 -167 23t-136 51l29 131q131 -78 276 -78q96 0 151 39q54 39 54 99t-34 95q-34 37 -158 99t-186 122q-60 60 -60 148q0 151 106 245q45 40 89 76q106 87 106 177q0 58 -45 106q-46 48 -148 48q-254 0 -308 -181q-22 -71 -22 -165v-1006h-155v844h-158v127
h158v51q0 213 119 339t348 126q188 0 281 -83t93 -194q0 -80 -32 -142t-75 -100q-44 -38 -89 -72q-109 -82 -109 -161q0 -53 36 -84q35 -31 153 -89t182 -121q64 -62 64 -182t-98 -204t-265 -84z" />
    <glyph glyph-name="agrave" unicode="&#xe0;" horiz-adv-x="985" 
d="M641 1180l-70 -37l-295 342l179 41zM233 207q0 -47 34 -76q35 -29 95 -29t136 44t129 106v184q-190 -35 -292 -87t-102 -142zM909 88v-86q-70 -18 -157 -18q-115 0 -123 120q-115 -133 -287 -133q-118 1 -192 61t-74 162t73 185q73 82 282 131q78 17 196 39v135
q0 90 -37 134t-163 44t-290 -82l-24 119q176 100 383 100q287 0 286 -288v-555q0 -44 20 -56t60 -12h47z" />
    <glyph glyph-name="aacute" unicode="&#xe1;" horiz-adv-x="985" 
d="M391 1143l-69 37l186 346l178 -41zM233 207q0 -47 34 -76q35 -29 95 -29t136 44t129 106v184q-190 -35 -292 -87t-102 -142zM909 88v-86q-70 -18 -157 -18q-115 0 -123 120q-115 -133 -287 -133q-118 1 -192 61t-74 162t73 185q73 82 282 131q78 17 196 39v135
q0 90 -37 134t-163 44t-290 -82l-24 119q176 100 383 100q287 0 286 -288v-555q0 -44 20 -56t60 -12h47z" />
    <glyph glyph-name="acircumflex" unicode="&#xe2;" horiz-adv-x="985" 
d="M414 1520h86l223 -342l-70 -35l-196 192l-197 -192l-70 35zM233 207q0 -47 34 -76q35 -29 95 -29t136 44t129 106v184q-190 -35 -292 -87t-102 -142zM909 88v-86q-70 -18 -157 -18q-115 0 -123 120q-115 -133 -287 -133q-118 1 -192 61t-74 162t73 185q73 82 282 131
q78 17 196 39v135q0 90 -37 134t-163 44t-290 -82l-24 119q176 100 383 100q287 0 286 -288v-555q0 -44 20 -56t60 -12h47z" />
    <glyph glyph-name="atilde" unicode="&#xe3;" horiz-adv-x="985" 
d="M592 1210q-42 0 -148 45t-133 45q-55 0 -78 -116l-79 14q10 116 53 184t110 68q43 0 149 -45t132 -45q55 0 78 117l80 -15q-10 -116 -54 -184t-110 -68zM233 207q0 -47 34 -76q35 -29 95 -29t136 44t129 106v184q-190 -35 -292 -87t-102 -142zM909 88v-86
q-70 -18 -157 -18q-115 0 -123 120q-115 -133 -287 -133q-118 1 -192 61t-74 162t73 185q73 82 282 131q78 17 196 39v135q0 90 -37 134t-163 44t-290 -82l-24 119q176 100 383 100q287 0 286 -288v-555q0 -44 20 -56t60 -12h47z" />
    <glyph glyph-name="adieresis" unicode="&#xe4;" horiz-adv-x="985" 
d="M679 1212q-44 0 -76 31t-32 74t32 74t76 31t77 -32q32 -30 32 -73t-32 -74t-77 -31zM253 1212q-44 0 -76 31t-32 74t32 74t76 31t77 -32q32 -30 32 -73t-32 -74t-77 -31zM233 207q0 -47 34 -76q35 -29 95 -29t136 44t129 106v184q-190 -35 -292 -87t-102 -142zM909 88
v-86q-70 -18 -157 -18q-115 0 -123 120q-115 -133 -287 -133q-118 1 -192 61t-74 162t73 185q73 82 282 131q78 17 196 39v135q0 90 -37 134t-163 44t-290 -82l-24 119q176 100 383 100q287 0 286 -288v-555q0 -44 20 -56t60 -12h47z" />
    <glyph glyph-name="aring" unicode="&#xe5;" horiz-adv-x="985" 
d="M565 1332q0 48 -25 75q-26 27 -65 27q-100 0 -100 -102t98 -101q37 0 65 26q27 27 27 75zM672 1331q0 -80 -54 -138t-144 -58q-91 0 -147 55q-57 55 -57 141t56 140q56 55 146 55q92 0 146 -58t54 -137zM233 207q0 -47 34 -76q35 -29 95 -29t136 44t129 106v184
q-190 -35 -292 -87t-102 -142zM909 88v-86q-70 -18 -157 -18q-115 0 -123 120q-115 -133 -287 -133q-118 1 -192 61t-74 162t73 185q73 82 282 131q78 17 196 39v135q0 90 -37 134t-163 44t-290 -82l-24 119q176 100 383 100q287 0 286 -288v-555q0 -44 20 -56t60 -12h47z
" />
    <glyph glyph-name="ae" unicode="&#xe6;" horiz-adv-x="1552" 
d="M233 207q0 -47 32 -76q31 -29 101 -29t157 56t132 129q-23 68 -24 149q-190 -33 -294 -85t-104 -144zM1294 670q0 205 -202 204q-110 0 -184 -64t-103 -183h485q4 25 4 43zM338 -29q-114 1 -188 63t-74 162t73 183q73 82 282 131q78 17 196 39v135q0 90 -37 134t-163 44
t-290 -82l-24 119q78 45 184 73t190 27q211 0 271 -145q129 145 334 145q365 0 364 -366q0 -59 -8 -125h-664v-41q0 -182 96 -270t248 -88q154 0 289 84l27 -123q-133 -98 -340 -99q-276 0 -399 203q-158 -203 -367 -203z" />
    <glyph glyph-name="ccedilla" unicode="&#xe7;" horiz-adv-x="968" 
d="M719 -302q-1 -83 -63 -131t-155 -48t-186 43l25 73q66 -31 137 -30q90 0 90 76q0 82 -129 81h-65l-15 37l142 176q-180 21 -292 145t-112 354t123 377q123 148 367 148q160 0 274 -73l-33 -123q-119 59 -239 59q-164 0 -248 -106t-84 -282t87 -270q87 -93 243 -93t270 65
l27 -123q-111 -74 -277 -82l-88 -108q80 0 140 -41t61 -124z" />
    <glyph glyph-name="egrave" unicode="&#xe8;" horiz-adv-x="1021" 
d="M641 1180l-70 -37l-295 342l179 41zM764 670q0 205 -203 204q-111 0 -185 -64t-102 -183h486q4 25 4 43zM96 471q0 242 132 385t333 143q365 0 365 -366q0 -59 -8 -125h-664v-41q0 -182 95 -270t249 -88t289 84l26 -123q-133 -98 -342 -98t-342 128q-133 129 -133 371z
" />
    <glyph glyph-name="eacute" unicode="&#xe9;" horiz-adv-x="1021" 
d="M498 1143l-70 37l186 346l179 -41zM764 670q0 205 -203 204q-111 0 -185 -64t-102 -183h486q4 25 4 43zM96 471q0 242 132 385t333 143q365 0 365 -366q0 -59 -8 -125h-664v-41q0 -182 95 -270t249 -88t289 84l26 -123q-133 -98 -342 -98t-342 128q-133 129 -133 371z
" />
    <glyph glyph-name="ecircumflex" unicode="&#xea;" horiz-adv-x="1021" 
d="M508 1520h86l223 -342l-69 -35l-197 192l-197 -192l-69 35zM764 670q0 205 -203 204q-111 0 -185 -64t-102 -183h486q4 25 4 43zM96 471q0 242 132 385t333 143q365 0 365 -366q0 -59 -8 -125h-664v-41q0 -182 95 -270t249 -88t289 84l26 -123q-133 -98 -342 -98
t-342 128q-133 129 -133 371z" />
    <glyph glyph-name="edieresis" unicode="&#xeb;" horiz-adv-x="1021" 
d="M781 1212q-43 0 -75 31t-32 74t32 74t76 31t76 -32q33 -30 33 -73t-33 -74t-77 -31zM355 1212q-43 0 -75 31t-32 74t32 74t76 31t76 -32q33 -30 33 -73t-33 -74t-77 -31zM764 670q0 205 -203 204q-111 0 -185 -64t-102 -183h486q4 25 4 43zM96 471q0 242 132 385t333 143
q365 0 365 -366q0 -59 -8 -125h-664v-41q0 -182 95 -270t249 -88t289 84l26 -123q-133 -98 -342 -98t-342 128q-133 129 -133 371z" />
    <glyph glyph-name="igrave" unicode="&#xec;" horiz-adv-x="458" 
d="M324 1180l-70 -37l-295 342l178 41zM152 0v969l155 30v-999h-155z" />
    <glyph glyph-name="iacute" unicode="&#xed;" horiz-adv-x="458" 
d="M236 1143l-70 37l186 346l178 -41zM152 0v969l155 30v-999h-155z" />
    <glyph glyph-name="icircumflex" unicode="&#xee;" horiz-adv-x="458" 
d="M186 1520h86l224 -342l-70 -35l-197 192l-196 -192l-70 35zM152 0v969l155 30v-999h-155z" />
    <glyph glyph-name="idieresis" unicode="&#xef;" horiz-adv-x="458" 
d="M441 1212q-43 0 -75 31t-32 74t32 74t76 31t76 -32q33 -30 33 -73t-33 -74t-77 -31zM15 1212q-43 0 -75 31t-32 74t32 74t76 31t76 -32q33 -30 33 -73t-33 -74t-77 -31zM152 0v969l155 30v-999h-155z" />
    <glyph glyph-name="eth" unicode="&#xf0;" horiz-adv-x="1091" 
d="M535 100q151 0 223 136t71 342q0 96 -20 198q-99 55 -241 55t-226 -101t-84 -263q0 -163 75 -265t202 -102zM989 567q0 -262 -119 -429q-118 -167 -324 -167t-328 135q-122 134 -122 354t128 362t323 143q127 0 215 -39q-63 143 -180 254l-297 -127v116l202 86
q-104 72 -221 113l47 135q180 -51 332 -180l180 78v-117l-96 -41q260 -279 260 -676z" />
    <glyph glyph-name="ntilde" unicode="&#xf1;" horiz-adv-x="1110" 
d="M690 1210q-43 0 -148 45t-132 45q-55 0 -78 -116l-80 14q10 116 53 184t111 68q43 0 148 -45t132 -45q55 0 78 117l80 -15q-10 -116 -53 -184t-111 -68zM152 0v969l155 30v-137q152 137 322 137t253 -90t83 -245v-664h-156v641q0 99 -53 157t-154 58q-156 0 -295 -139
v-717h-155z" />
    <glyph glyph-name="ograve" unicode="&#xf2;" horiz-adv-x="1118" 
d="M696 1180l-69 -37l-295 342l178 41zM1022 481q0 -232 -126 -371t-336 -139q-210 1 -337 141t-127 370t121 374t342 143q221 0 342 -143t121 -375zM260 488q0 -178 78 -284t222 -106t221 106t77 283t-81 281t-220 104t-218 -103t-79 -281z" />
    <glyph glyph-name="oacute" unicode="&#xf3;" horiz-adv-x="1118" 
d="M457 1143l-70 37l186 346l179 -41zM1022 481q0 -232 -126 -371t-336 -139q-210 1 -337 141t-127 370t121 374t342 143q221 0 342 -143t121 -375zM260 488q0 -178 78 -284t222 -106t221 106t77 283t-81 281t-220 104t-218 -103t-79 -281z" />
    <glyph glyph-name="ocircumflex" unicode="&#xf4;" horiz-adv-x="1118" 
d="M516 1520h86l223 -342l-69 -35l-197 192l-197 -192l-69 35zM1022 481q0 -232 -126 -371t-336 -139q-210 1 -337 141t-127 370t121 374t342 143q221 0 342 -143t121 -375zM260 488q0 -178 78 -284t222 -106t221 106t77 283t-81 281t-220 104t-218 -103t-79 -281z" />
    <glyph glyph-name="otilde" unicode="&#xf5;" horiz-adv-x="1118" 
d="M696 1210q-43 0 -148 45t-132 45q-55 0 -78 -116l-80 14q10 116 53 184t111 68q43 0 148 -45t132 -45q55 0 78 117l80 -15q-10 -116 -53 -184t-111 -68zM1022 481q0 -232 -126 -371t-336 -139q-210 1 -337 141t-127 370t121 374t342 143q221 0 342 -143t121 -375z
M260 488q0 -178 78 -284t222 -106t221 106t77 283t-81 281t-220 104t-218 -103t-79 -281z" />
    <glyph glyph-name="odieresis" unicode="&#xf6;" horiz-adv-x="1118" 
d="M771 1212q-44 0 -76 31t-31 74q0 43 31 74q32 31 76 31t77 -32q33 -30 33 -73t-33 -74t-77 -31zM345 1212q-44 0 -76 31t-31 74q0 43 31 74q32 31 76 31t77 -32q33 -30 33 -73t-33 -74t-77 -31zM1022 481q0 -232 -126 -371t-336 -139q-210 1 -337 141t-127 370t121 374
t342 143q221 0 342 -143t121 -375zM260 488q0 -178 78 -284t222 -106t221 106t77 283t-81 281t-220 104t-218 -103t-79 -281z" />
    <glyph glyph-name="divide" unicode="&#xf7;" 
d="M451 295q0 45 32 79q33 34 80 34t80 -34t33 -79t-33 -79t-80 -34t-80 34q-32 34 -32 79zM451 950q0 45 32 79q33 34 80 34t80 -34t33 -79t-33 -79q-33 -33 -80 -33t-80 33q-32 34 -32 79zM1024 569h-922v107h922v-107z" />
    <glyph glyph-name="oslash" unicode="&#xf8;" horiz-adv-x="1118" 
d="M559 98q145 0 222 106t77 264t-55 259l-414 -575q70 -54 170 -54zM559 872q-141 0 -220 -104t-79 -266t53 -262l416 577q-76 55 -170 55zM559 -29q-143 0 -252 68l-63 -90h-140l117 162q-125 141 -125 371t121 374t342 143q145 0 254 -67l64 90h139l-117 -164
q123 -139 123 -374t-126 -374t-337 -139z" />
    <glyph glyph-name="ugrave" unicode="&#xf9;" horiz-adv-x="1081" 
d="M606 1180l-69 -37l-295 342l178 41zM930 971v-971h-156v104q-152 -133 -336 -133q-147 0 -227 90t-80 265v645h156v-652q0 -211 186 -210q170 0 301 145v717h156z" />
    <glyph glyph-name="uacute" unicode="&#xfa;" horiz-adv-x="1081" 
d="M487 1143l-69 37l186 346l178 -41zM930 971v-971h-156v104q-152 -133 -336 -133q-147 0 -227 90t-80 265v645h156v-652q0 -211 186 -210q170 0 301 145v717h156z" />
    <glyph glyph-name="ucircumflex" unicode="&#xfb;" horiz-adv-x="1081" 
d="M483 1520h86l224 -342l-70 -35l-197 192l-196 -192l-70 35zM930 971v-971h-156v104q-152 -133 -336 -133q-147 0 -227 90t-80 265v645h156v-652q0 -211 186 -210q170 0 301 145v717h156z" />
    <glyph glyph-name="udieresis" unicode="&#xfc;" horiz-adv-x="1081" 
d="M740 1212q-44 0 -76 31t-31 74q0 43 32 74q31 31 75 31t77 -32q33 -30 33 -73t-33 -74t-77 -31zM314 1212q-44 0 -76 31t-31 74q0 43 32 74q31 31 75 31t77 -32q33 -30 33 -73t-33 -74t-77 -31zM930 971v-971h-156v104q-152 -133 -336 -133q-147 0 -227 90t-80 265v645
h156v-652q0 -211 186 -210q170 0 301 145v717h156z" />
    <glyph glyph-name="yacute" unicode="&#xfd;" horiz-adv-x="1024" 
d="M471 1143l-70 37l187 346l178 -41zM174 -481q-84 0 -149 26l26 121q53 -16 123 -16q96 0 163 90t128 270l-404 961h177l305 -760l254 760h172l-400 -1094q-131 -358 -395 -358z" />
    <glyph glyph-name="thorn" unicode="&#xfe;" horiz-adv-x="1112" 
d="M594 858q-166 0 -287 -141v-545q99 -66 241 -66t225 98t83 282q0 372 -262 372zM307 -453h-155v1903l155 37v-623q147 135 320 135t281 -136q108 -137 108 -375t-128 -377t-339 -140q-119 1 -242 52v-476z" />
    <glyph glyph-name="ydieresis" unicode="&#xff;" horiz-adv-x="1024" 
d="M856 1317q0 -43 -32 -74t-77 -31q-44 0 -76 31t-32 74t32 74t76 31q45 0 77 -32q32 -30 32 -73zM430 1317q0 -43 -32 -74t-77 -31q-44 0 -76 31t-32 74t32 74t76 31q45 0 77 -32q32 -30 32 -73zM174 -481q-84 0 -149 26l26 121q53 -16 123 -16q96 0 163 90t128 270
l-404 961h177l305 -760l254 760h172l-400 -1094q-131 -358 -395 -358z" />
    <glyph glyph-name="dotlessi" unicode="&#x131;" horiz-adv-x="458" 
d="M152 0v969l155 30v-999h-155z" />
    <glyph glyph-name="Lslash" unicode="&#x141;" horiz-adv-x="1089" 
d="M209 1372h164v-629l291 78v-119l-291 -77v-490h635v-135h-799v582l-199 -54v119l199 53v672z" />
    <glyph glyph-name="lslash" unicode="&#x142;" horiz-adv-x="507" 
d="M332 0h-156v682l-156 -61v124l156 62v643l156 37v-617l166 66v-125l-166 -66v-745z" />
    <glyph glyph-name="OE" unicode="&#x152;" horiz-adv-x="1785" 
d="M750 1237q-223 -1 -341 -155t-118 -405t124 -396t353 -146h137v1102h-155zM748 0q-319 0 -478 184q-158 184 -158 490t157 503q157 196 470 195h938v-137h-608v-444h490v-138h-490v-516h614v-137h-935z" />
    <glyph glyph-name="oe" unicode="&#x153;" horiz-adv-x="1787" 
d="M1530 670q0 205 -203 204q-109 0 -183 -63t-104 -184h486q4 25 4 43zM260 488q0 -178 78 -284t222 -106t221 106t77 283t-81 281t-220 104t-218 -103t-79 -281zM559 -29q-209 1 -336 141t-127 370t121 374t342 143q272 0 389 -219q121 219 379 219q365 0 365 -366
q0 -59 -9 -125h-663v-37q0 -158 81 -260t249 -102t303 84l26 -123q-129 -98 -352 -99q-121 1 -225 53t-162 154q-119 -207 -381 -207z" />
    <glyph glyph-name="Scaron" unicode="&#x160;" horiz-adv-x="1028" 
d="M575 1501h-86l-223 289l70 35l196 -150l197 150l70 -35zM930 358q0 -174 -126 -280t-336 -107q-210 0 -380 97l23 153q184 -109 364 -108q125 0 203 63t78 176q0 72 -28 103t-41 46q-39 45 -275 158q-145 76 -221 158q-75 82 -74 215q0 176 120 272q119 96 315 97
q196 0 329 -88l-27 -152q-137 98 -305 99q-121 0 -194 -60t-73 -147q0 -85 59 -141q58 -56 170 -112q111 -56 145 -75q34 -18 99 -62t95 -81q80 -101 80 -224z" />
    <glyph glyph-name="scaron" unicode="&#x161;" horiz-adv-x="827" 
d="M465 1153h-86l-223 342l69 35l197 -193l196 193l70 -35zM371 -29q-158 0 -295 74l28 131q51 -30 130 -54t160 -24t140 39q58 39 58 107t-43 103q-43 34 -131 68t-124 51t-88 52q-100 67 -100 200q0 132 98 207t250 75q153 0 251 -62l-29 -129q-102 59 -208 59t-159 -37
t-53 -92t28 -86q28 -30 103 -59q75 -30 115 -47q95 -41 152 -84q87 -66 87 -200t-106 -213t-264 -79z" />
    <glyph glyph-name="Ydieresis" unicode="&#x178;" horiz-adv-x="1239" 
d="M727 1653q0 43 32 73t76 31q45 0 77 -31q32 -32 32 -74t-32 -73t-77 -31q-44 0 -76 31t-32 74zM301 1653q0 43 32 73t76 31q45 0 77 -31q32 -32 32 -74t-32 -73t-77 -31q-44 0 -76 31t-32 74zM535 0v549l-474 823h189l371 -676l378 676h179l-480 -823v-549h-163z" />
    <glyph glyph-name="Zcaron" unicode="&#x17d;" horiz-adv-x="1245" 
d="M649 1501h-86l-223 289l70 35l196 -150l197 150l69 -35zM102 0v82l781 1153h-742v137h969v-86l-784 -1149h807v-137h-1031z" />
    <glyph glyph-name="zcaron" unicode="&#x17e;" horiz-adv-x="993" 
d="M535 1153h-86l-224 342l70 35l197 -193l196 193l70 -35zM86 0v84l580 760h-551v127h774v-84l-588 -760h606v-127h-821z" />
    <glyph glyph-name="florin" unicode="&#x192;" 
d="M268 739v101h219l9 84q20 212 140 320t279 108q68 0 105 -11l-23 -120h-43q-135 0 -211 -69t-92 -226l-10 -86h293v-101h-303l-66 -628q-23 -213 -125 -319t-252 -105q-66 0 -106 26l43 117q20 -8 47 -8q207 0 238 280l65 637h-207z" />
    <glyph glyph-name="circumflex" unicode="&#x2c6;" horiz-adv-x="819" 
d="M367 1520h86l223 -342l-70 -35l-196 192l-197 -192l-70 35z" />
    <glyph glyph-name="caron" unicode="&#x2c7;" horiz-adv-x="819" 
d="M453 1153h-86l-224 342l70 35l197 -193l196 193l70 -35z" />
    <glyph glyph-name="breve" unicode="&#x2d8;" horiz-adv-x="819" 
d="M410 1288q84 0 134 56t58 143l84 -14q0 -143 -77 -227t-199 -85q-122 0 -200 84q-77 84 -77 228l84 14q9 -87 59 -143t134 -56z" />
    <glyph glyph-name="dotaccent" unicode="&#x2d9;" horiz-adv-x="819" 
d="M410 1206q-47 0 -81 33t-34 78t34 78t81 33q46 0 80 -34q34 -32 34 -77t-34 -78t-80 -33z" />
    <glyph glyph-name="ring" unicode="&#x2da;" horiz-adv-x="819" 
d="M412 1231q36 1 64 27t28 74t-26 75t-64 27q-100 0 -100 -102t98 -101zM610 1331q0 -80 -53 -138t-144 -58t-148 55q-56 55 -56 141t55 140q54 55 146 55t146 -58t54 -137z" />
    <glyph glyph-name="ogonek" unicode="&#x2db;" horiz-adv-x="819" 
d="M373 -293q0 -94 78 -94q57 0 118 47l19 -70q-72 -72 -199 -72q-65 0 -111 43q-46 41 -46 123t69 170q70 88 176 146h94q-94 -59 -146 -143t-52 -150z" />
    <glyph glyph-name="tilde" unicode="&#x2dc;" horiz-adv-x="819" 
d="M547 1210q-43 0 -149 45t-132 45q-55 0 -78 -116l-79 14q10 116 53 184t110 68q42 0 148 -45t133 -45q55 0 78 117l80 -15q-9 -116 -53 -184t-111 -68z" />
    <glyph glyph-name="hungarumlaut" unicode="&#x2dd;" horiz-adv-x="819" 
d="M186 1137l-65 22l106 367l176 -41zM481 1137l-65 22l106 367l176 -41z" />
    <glyph glyph-name="pi" unicode="&#x3c0;" horiz-adv-x="1230" 
d="M82 842v129h1067v-129h-236v-568q0 -96 27 -138t96 -42h39v-92q-80 -14 -129 -14q-188 0 -188 276v578h-322v-559q0 -178 29 -283h-158q-27 98 -26 283v559h-199z" />
    <glyph glyph-name="uni200A" unicode="&#x200a;" horiz-adv-x="102" 
 />
    <glyph glyph-name="endash" unicode="&#x2013;" horiz-adv-x="1228" 
d="M72 451v122h1085v-122h-1085z" />
    <glyph glyph-name="emdash" unicode="&#x2014;" horiz-adv-x="1843" 
d="M72 451v122h1700v-122h-1700z" />
    <glyph glyph-name="quoteleft" unicode="&#x2018;" horiz-adv-x="491" 
d="M123 1053q0 170 186 348l70 -49q-106 -139 -107 -265q0 -72 31 -149h-160q-20 53 -20 115z" />
    <glyph glyph-name="quoteright" unicode="&#x2019;" horiz-adv-x="489" 
d="M217 1225q0 70 -31 147h160q20 -49 21 -112q-1 -167 -185 -351l-69 52q104 141 104 264z" />
    <glyph glyph-name="quotesinglbase" unicode="&#x201a;" horiz-adv-x="489" 
d="M346 96q0 -166 -184 -350l-70 51q104 141 105 264q0 70 -31 148h160q20 -49 20 -113z" />
    <glyph glyph-name="quotedblleft" unicode="&#x201c;" horiz-adv-x="806" 
d="M590 1085q0 -70 31 -147h-160q-20 49 -21 113q1 166 185 350l69 -51q-104 -141 -104 -265zM123 1053q0 170 186 348l70 -49q-106 -139 -107 -265q0 -72 31 -149h-160q-20 53 -20 115z" />
    <glyph glyph-name="quotedblright" unicode="&#x201d;" horiz-adv-x="806" 
d="M217 1225q0 70 -31 147h160q20 -49 21 -112q-1 -167 -185 -351l-69 52q104 141 104 264zM684 1257q0 -170 -186 -348l-70 49q106 139 107 265q0 72 -31 149h160q20 -53 20 -115z" />
    <glyph glyph-name="quotedblbase" unicode="&#x201e;" horiz-adv-x="806" 
d="M346 96q0 -166 -184 -350l-70 51q104 141 105 264q0 70 -31 148h160q20 -49 20 -113zM514 59q0 72 -31 150h160q20 -53 21 -115q-1 -170 -187 -348l-69 49q106 139 106 264z" />
    <glyph glyph-name="dagger" unicode="&#x2020;" horiz-adv-x="1052" 
d="M596 -172h-139l6 1003l-361 -6v136l361 -5l-6 416h139l-6 -416l360 5v-136l-360 6z" />
    <glyph glyph-name="daggerdbl" unicode="&#x2021;" horiz-adv-x="1052" 
d="M590 369l360 6v-135l-360 4l6 -416h-139l6 416l-361 -4v135l361 -6v462l-361 -6v136l361 -5l-6 416h139l-6 -416l360 5v-136l-360 6v-462z" />
    <glyph glyph-name="bullet" unicode="&#x2022;" horiz-adv-x="819" 
d="M137 622q0 114 78 192t194 79q115 0 193 -79q78 -78 78 -192t-78 -193t-193 -79q-116 0 -194 79t-78 193z" />
    <glyph glyph-name="ellipsis" unicode="&#x2026;" horiz-adv-x="1536" 
d="M1155 96q0 51 37 88t88 37t88 -37t37 -88t-37 -88t-88 -37t-88 37t-37 88zM643 96q0 51 37 88t88 37t88 -37t37 -88t-37 -88t-88 -37t-88 37t-37 88zM131 96q0 51 37 88t88 37t88 -37t37 -88t-37 -88t-88 -37t-88 37t-37 88z" />
    <glyph glyph-name="perthousand" unicode="&#x2030;" horiz-adv-x="2375" 
d="M365 -29l-99 70l971 1311l98 -70zM1205 74q83 0 135 55t51 169t-55 167t-137 53t-135 -54t-52 -169t55 -168t138 -53zM1204 621q148 1 232 -89t84 -240t-87 -235q-87 -86 -235 -86t-231 91q-84 91 -84 238t87 234t234 87zM590 1029q0 114 -54 167t-138 53t-135 -54
q-52 -54 -52 -169t55 -168t138 -53t135 55q51 55 51 169zM404 1352q148 0 231 -90q84 -90 84 -238q0 -150 -87 -236q-86 -86 -234 -86t-232 92t-84 238t87 233t235 87zM2165 298q-1 114 -55 167t-137 53t-135 -54t-52 -169t55 -168t138 -53t135 55q51 55 51 169zM1978 621
q148 1 232 -89t84 -240t-87 -235q-87 -86 -235 -86t-231 91q-84 91 -84 238t87 234t234 87z" />
    <glyph glyph-name="guilsinglleft" unicode="&#x2039;" horiz-adv-x="698" 
d="M276 487l279 -352l-90 -72l-363 424l363 424l90 -71z" />
    <glyph glyph-name="guilsinglright" unicode="&#x203a;" horiz-adv-x="698" 
d="M422 487l-279 353l90 71l363 -424l-363 -424l-90 72z" />
    <glyph glyph-name="fraction" unicode="&#x2044;" horiz-adv-x="409" 
d="M-231 -29l-99 70l971 1311l98 -70z" />
    <glyph glyph-name="zero.sups" unicode="&#x2070;" horiz-adv-x="819" 
d="M410 651q-154 0 -245 113q-91 114 -91 312t87 315t249 117t248 -118t87 -315q-1 -197 -91 -311t-244 -113zM410 768q195 0 194 311q0 125 -49 218t-145 94q-195 0 -195 -312q1 -121 49 -216t146 -95z" />
    <glyph glyph-name="four.sups" unicode="&#x2074;" horiz-adv-x="819" 
d="M489 993v287l-266 -287h266zM489 670v213h-446v69l496 549h88v-508h137v-110h-137v-213h-138z" />
    <glyph glyph-name="five.sups" unicode="&#x2075;" horiz-adv-x="819" 
d="M380 653q-156 0 -280 101l72 98q96 -86 225 -86q86 0 135 40q50 40 50 116t-70 108q-70 33 -215 33h-150l46 438h466l-8 -115h-346l-20 -208h30q403 0 404 -265q1 -115 -91 -187t-248 -73z" />
    <glyph glyph-name="six.sups" unicode="&#x2076;" horiz-adv-x="819" 
d="M422 1073q-94 0 -193 -39q-2 -18 -2 -53q0 -85 49 -149q50 -64 138 -64t138 41t50 109t-43 112q-43 43 -137 43zM466 1184q116 0 194 -70q77 -70 77 -186t-86 -195q-85 -80 -239 -80t-239 89t-85 241q0 205 156 347t395 179l29 -110q-317 -51 -408 -250q90 35 206 35z
" />
    <glyph glyph-name="seven.sups" unicode="&#x2077;" horiz-adv-x="819" 
d="M729 1501v-82l-414 -749h-155l422 714h-486l8 117h625z" />
    <glyph glyph-name="eight.sups" unicode="&#x2078;" horiz-adv-x="819" 
d="M262 1303q0 -45 38 -75t128 -71q129 55 129 141q0 47 -41 73q-40 26 -104 26t-107 -25t-43 -69zM588 874q0 42 -31 72t-59 43q-28 14 -107 51q-72 -20 -116 -63t-44 -96q-1 -53 49 -83t132 -30t129 32t47 74zM96 874q0 152 170 228q-143 88 -143 192t81 160q81 55 208 55
q128 0 206 -52t78 -150q0 -129 -153 -205q92 -45 136 -94t44 -123q0 -103 -87 -167t-227 -64q-141 0 -227 60t-86 160z" />
    <glyph glyph-name="nine.sups" unicode="&#x2079;" horiz-adv-x="819" 
d="M400 1090q98 0 188 36q4 37 4 56q0 86 -49 149t-137 63t-139 -40q-50 -42 -50 -110t43 -111q42 -43 140 -43zM373 979q-137 0 -214 70q-77 69 -77 185t86 196t240 80t238 -92q84 -91 85 -242q0 -206 -160 -346t-401 -177l-29 111q317 57 414 248q-94 -33 -182 -33z" />
    <glyph glyph-name="Euro" unicode="&#x20ac;" 
d="M96 733v101h158q33 227 155 372t328 146q164 0 285 -76l-43 -141q-101 73 -235 73t-218 -102t-110 -272h422v-101h-432q-7 -82 0 -141h432v-100h-422q27 -178 110 -278q84 -99 216 -99t249 75l35 -137q-128 -82 -316 -82q-188 1 -306 145t-150 376h-158v100h148
q-2 25 -2 72t2 69h-148z" />
    <glyph glyph-name="trademark" unicode="&#x2122;" horiz-adv-x="1851" 
d="M909 612v760h131l275 -584l266 584h127v-760h-115v545l-254 -545h-59l-258 545v-545h-113zM350 612v660h-268v100h653v-100h-272v-660h-113z" />
    <glyph glyph-name="Omega" unicode="&#x2126;" horiz-adv-x="1511" 
d="M123 147h342q-340 260 -340 644q0 266 167 438t464 172t464 -172t166 -438q0 -383 -339 -644h342v-147h-525v158q150 92 246 258t96 372t-120 335q-120 128 -330 128t-331 -128q-120 -128 -120 -335q0 -206 96 -372t246 -258v-158h-524v147z" />
    <glyph glyph-name="partialdiff" unicode="&#x2202;" horiz-adv-x="1089" 
d="M528 680q-132 0 -204 -82t-72 -209t56 -205t153 -78q135 0 219 140t104 360q-125 74 -256 74zM483 1350q-117 0 -235 -95l-80 101q129 131 328 131q356 0 436 -487q18 -116 18 -257t-28 -276q-64 -313 -234 -429q-96 -67 -221 -67q-182 0 -279 121q-96 122 -96 310
t115 305t309 116q152 0 275 -67q0 272 -75 435q-30 65 -90 112q-61 47 -143 47z" />
    <glyph glyph-name="Delta" unicode="&#x2206;" horiz-adv-x="1310" 
d="M1237 0h-1163v82l538 1290h105l520 -1290v-82zM1034 139l-377 963l-391 -963h768z" />
    <glyph glyph-name="product" unicode="&#x220f;" horiz-adv-x="1538" 
d="M1223 1239v-1477h-164v1477h-580v-1477h-164v1477h-223v133h1354v-133h-223z" />
    <glyph glyph-name="summation" unicode="&#x2211;" horiz-adv-x="1146" 
d="M86 1372h969v-137h-733l397 -647l-432 -688h768v-138h-983v58l458 747l-444 748v57z" />
    <glyph glyph-name="minus" unicode="&#x2212;" 
d="M1024 569h-922v107h922v-107z" />
    <glyph glyph-name="radical" unicode="&#x221a;" 
d="M401 0l-344 864h170l236 -639l446 1344h160l-555 -1569h-113z" />
    <glyph glyph-name="infinity" unicode="&#x221e;" horiz-adv-x="1601" 
d="M434 367q172 0 309 270q-55 119 -134 197t-175 78t-159 -78q-62 -78 -62 -196t60 -195q61 -76 161 -76zM1167 911q-174 0 -309 -270q53 -117 133 -196t176 -79t159 78q62 78 62 196t-60 194q-61 76 -161 77zM1177 252q-133 0 -226 77t-150 193q-145 -270 -377 -270
q-139 0 -230 106q-92 106 -92 280t94 282q94 106 234 106q233 0 371 -272q143 272 377 272q139 0 230 -106t91 -280t-94 -282q-95 -106 -228 -106z" />
    <glyph glyph-name="integral" unicode="&#x222b;" horiz-adv-x="688" 
d="M211 1046q0 120 28 214q27 94 105 160t203 67q45 0 71 -10l9 -119h-41q-160 0 -192 -132q-17 -71 -17 -185q0 -113 16 -283l49 -520q14 -141 15 -265q0 -455 -328 -454q-45 0 -80 10l-8 119h35q133 0 174 82q40 82 40 226t-14 294l-49 502q-16 174 -16 294z" />
    <glyph glyph-name="approxequal" unicode="&#x2248;" 
d="M336 543q72 1 234 -63t217 -64t87 36t50 107l100 -27q-57 -236 -233 -235q-72 0 -234 63q-162 64 -218 64t-87 -36t-49 -107l-101 26q57 236 234 236zM791 686q-72 0 -234 64t-218 63q-56 0 -87 -36t-49 -107l-101 26q57 236 234 236q72 0 234 -64t217 -63q55 -1 87 35
t50 108l100 -26q-57 -236 -233 -236z" />
    <glyph glyph-name="notequal" unicode="&#x2260;" 
d="M1024 375h-557l-137 -215h-117l137 215h-248v106h316l180 283h-496v106h564l135 213h117l-136 -213h242v-106h-309l-180 -283h489v-106z" />
    <glyph glyph-name="lessequal" unicode="&#x2264;" 
d="M154 633v102l749 400l55 -101l-663 -350l663 -350l-55 -101zM1024 0h-922v106h922v-106z" />
    <glyph glyph-name="greaterequal" unicode="&#x2265;" 
d="M973 735v-102l-750 -400l-55 101l663 350l-663 350l55 101zM1024 0h-922v106h922v-106z" />
    <glyph glyph-name="lozenge" unicode="&#x25ca;" 
d="M561 121l367 538l-369 541l-364 -538zM582 -29h-39l-477 691l477 690h39l477 -690z" />
    <glyph glyph-name="uniF8FF" unicode="&#xf8ff;" horiz-adv-x="7444" 
d="M6766 -279q-56 0 -65 -63h127q-6 63 -62 63zM6765 -248q49 0 75 -33t27 -77v-17h-168q2 -31 20 -53q17 -22 57 -22t50 47l41 -7q-25 -72 -100 -71q-106 0 -107 114q0 55 28 87t77 32zM6394 -385v20q-12 -6 -44 -10t-52 -12t-21 -29q0 -37 38 -37q79 0 79 68zM6236 -418
q0 37 28 52q28 14 72 20t58 12v12q0 43 -51 43t-62 -43l-37 7q14 67 102 67t87 -71v-84q0 -55 10 -74h-39q-4 8 -8 28q-39 -33 -82 -32q-78 0 -78 63zM6091 -481q-103 0 -103 116q0 53 26 85t77 32q78 0 90 -69l-37 -7q-10 45 -53 45q-61 0 -61 -86t61 -86q45 1 57 56l37 -4
q-12 -82 -94 -82zM5568 -365q0 -86 67 -86t67 89q0 40 -20 62t-48 21q-66 0 -66 -86zM5530 -365q0 53 27 85q28 32 77 32t78 -31t29 -81q-1 -121 -107 -121q-104 2 -104 116zM5100 -451q61 0 61 86q0 37 -16 62t-48 24q-59 0 -59 -86t62 -86zM5196 -477h-37v28
q-19 -33 -63 -33t-70 34q-26 32 -27 82q0 50 25 84q24 34 66 34t67 -28v110h39v-311zM3557 -311q0 63 82 63t90 -61l-36 -6q-11 37 -55 37t-44 -29q0 -16 8 -19q8 -4 11 -5q12 -6 28 -8q95 -12 97 -73q0 -33 -26 -51t-65 -18q-84 -1 -96 71l37 7q6 -47 58 -47t53 34
q0 20 -35 28t-71 24q-36 15 -36 53zM4391 460q-1 -192 197 -192q100 0 174 72t73 182q0 78 -50 129t-147 51t-172 -74q-75 -72 -75 -168zM5892 -399h-53v53h53v-53zM4528 -399h-51v53h51v-53zM7166 178h-27v-39h27q31 -1 31 19t-31 20zM7139 51h-28v150h57q57 0 57 -43
q0 -37 -39 -41l41 -66h-32l-35 64h-21v-64zM7164 20q41 0 71 31t29 76q0 45 -29 75q-30 30 -71 30t-71 -30q-29 -30 -29 -75t30 -76t70 -31zM7164 -8q-57 0 -97 38t-40 97t40 96t97 37t97 -37t40 -96t-40 -97t-97 -38zM6775 -223h-31l27 59h51zM6566 -477h-39v194h-33v31h33
v29q0 61 61 61q25 0 37 -4l-6 -33q-12 2 -26 2q-27 0 -27 -34v-21h43v-31h-43v-194zM5368 -279q-56 0 -64 -63h127q-7 63 -63 63zM5368 -248q49 0 76 -33t26 -77v-17h-168q2 -31 20 -53t48 -23q49 1 59 48l41 -7q-25 -72 -100 -71q-106 0 -107 114q0 55 28 87t77 32z
M4930 -477h-39v225h39v-225zM4930 -211h-39v45h39v-45zM4743 -477h-37l-84 225h39l64 -180l63 180h39zM4327 -385v20q-12 -6 -44 -10t-52 -12t-20 -29q0 -37 38 -37q78 0 78 68zM4170 -418q0 37 27 52q28 14 72 20t58 12v12q0 43 -51 43t-61 -43l-37 7q14 67 101 67t87 -71
v-84q0 -55 11 -74h-39q-5 8 -9 28q-39 -33 -81 -32q-78 0 -78 63zM4026 -481q-50 -1 -76 31t-26 85t26 85t76 32q78 0 90 -69l-36 -7q-10 45 -54 45q-61 0 -61 -86t61 -86q46 1 58 56l37 -4q-12 -82 -95 -82zM3852 -477h-39v225h39v-225zM3852 -211h-39v45h39v-45z
M3400 -223h-33l29 59h49zM3482 -477h-35v33q-25 -37 -70 -37q-78 0 -78 82v147h39v-143q0 -53 45 -54q59 0 60 70v127h39v-225zM2955 -477h-37v225h33v-31q29 35 72 35t61 -39q25 39 68 39q70 0 70 -74v-155h-37v145q0 51 -41 51q-55 0 -56 -63v-133h-36v147q0 49 -41 49
q-55 0 -56 -75v-121zM2804 -399h-51v53h51v-53zM2609 -416q0 20 -35 28q-34 8 -70 24q-36 15 -36 53q0 63 82 63t90 -61l-37 -6q-12 37 -55 37t-43 -29q0 -26 42 -31q101 -13 101 -74q0 -33 -26 -51t-64 -18q-84 -1 -96 71l37 7q6 -47 58 -47t52 34zM2234 -365q0 -86 67 -86
t66 89q0 40 -19 62t-48 21q-66 0 -66 -86zM2300 -248q49 0 78 -31t28 -81q0 -121 -106 -121q-104 2 -105 116q0 53 28 85t77 32zM2040 -477v225h33v-35q21 39 45 39t43 -12l-13 -35q-12 8 -28 8q-43 0 -43 -71v-119h-37zM1876 -451q31 0 46 28t15 58q0 86 -60 86t-60 -86
t59 -86zM1817 -477h-37v311h39v-110q25 28 67 28t66 -34t24 -82t-26 -82q-26 -35 -70 -35q-43 0 -63 32v-28zM1651 -477v225h37v-225h-37zM1651 -211v45h37v-45h-37zM1518 -477v311h38v-311h-38zM6885 1145q-80 0 -126 47t-46 124q0 76 67 144t148 68q80 0 126 -46t46 -124
t-67 -146q-68 -67 -148 -67zM6679 971h342l-154 -971h-342zM6064 586q0 141 -127 141q-94 0 -146 -67t-69 -162l-78 -498h-342l248 1563h342l-115 -719h5q141 156 331 155q154 -1 231 -81t76 -224q0 -53 -8 -102l-94 -592h-342l80 498q8 53 8 88zM4446 -29q-186 0 -299 121
t-112 303q0 227 166 416q167 188 405 188q86 -1 162 -33t116 -94l109 691h342l-246 -1563h-342l17 111h-4q-52 -70 -138 -105t-176 -35zM3899 702q0 -43 -10 -118l-92 -584h-342l72 455q16 109 16 147q0 125 -127 125q-178 0 -215 -227l-78 -500h-342l152 971h342l-19 -129
h2q133 158 334 157q307 0 307 -297zM2089 999q86 -1 162 -33t116 -94l17 99h342l-154 -971h-342l17 111h-2q-111 -139 -307 -139t-307 121q-112 122 -111 304q0 229 164 416q165 186 405 186zM1876 460q0 -192 198 -192q100 0 173 72q74 72 73 182q0 78 -50 129t-147 51
t-172 -74q-75 -72 -75 -168zM571 465q1 -191 199 -191q100 0 174 74t74 167t-50 143t-149 50t-173 -74q-74 -75 -75 -169zM143 -111h383q6 -45 49 -69t97 -25q129 0 187 74t85 246q-140 -131 -326 -131t-296 112t-111 289q0 233 171 423t415 191q186 0 262 -135h4l14 107
h342l-137 -875q-47 -299 -211 -436t-434 -137t-415 155q-79 86 -79 211z" />
    <glyph glyph-name="fi" unicode="&#xfb01;" horiz-adv-x="1132" 
d="M903 1206q-47 0 -81 33t-34 78t34 78t81 33t81 -34q34 -32 34 -77t-34 -78t-81 -33zM825 0v969l156 30v-999h-156zM45 844v127h158v88q-1 209 111 319t272 109q47 0 84 -10l-17 -123h-24q-135 0 -203 -68t-68 -225v-90h260v-127h-260v-844h-155v844h-158z" />
    <glyph glyph-name="fl" unicode="&#xfb02;" horiz-adv-x="1132" 
d="M825 0v1450l156 37v-1487h-156zM45 844v127h158v88q-1 209 111 319t272 109q47 0 84 -10l-17 -123h-24q-135 0 -203 -68t-68 -225v-90h260v-127h-260v-844h-155v844h-158z" />
    <glyph glyph-name="a.smcp" horiz-adv-x="1146" 
d="M569 791l-163 -390h325zM899 0l-117 276h-430l-114 -276h-162l450 1030h99l446 -1030h-172z" />
    <glyph glyph-name="b.smcp" horiz-adv-x="1015" 
d="M326 897v-293h131q106 0 168 42q61 42 61 116q0 135 -197 135h-163zM326 477v-346h192q231 0 232 170q0 176 -275 176h-149zM168 0v1030h328q358 0 358 -252q0 -82 -48 -140t-130 -83q115 -18 178 -87q64 -70 64 -190t-100 -199t-277 -79h-373z" />
    <glyph glyph-name="c.smcp" horiz-adv-x="1112" 
d="M676 -29q-258 -1 -409 143t-151 397t154 400t408 148q186 0 309 -62l-24 -137q-131 63 -275 64q-197 0 -301 -115t-104 -299q-1 -184 111 -293t292 -109t295 66l23 -133q-135 -70 -328 -70z" />
    <glyph glyph-name="d.smcp" horiz-adv-x="1224" 
d="M326 897v-766h184q220 -1 326 105t106 281t-100 277t-322 103h-194zM168 0v1030h371q297 0 433 -142t136 -362t-125 -366q-63 -74 -174 -117t-254 -43h-387z" />
    <glyph glyph-name="e.smcp" horiz-adv-x="927" 
d="M168 0v1030h641v-133h-483v-291h389v-129h-389v-346h489v-131h-647z" />
    <glyph glyph-name="f.smcp" horiz-adv-x="901" 
d="M168 0v1030h641v-133h-483v-297h397v-129h-397v-471h-158z" />
    <glyph glyph-name="g.smcp" horiz-adv-x="1208" 
d="M690 -29q-260 1 -417 141t-157 394t152 404t432 149q186 0 334 -68l-24 -137q-139 70 -299 70q-207 0 -318 -109t-111 -301t116 -300t313 -108q111 0 192 29v252h-211v129h367v-479q-183 -66 -369 -66z" />
    <glyph glyph-name="h.smcp" horiz-adv-x="1257" 
d="M168 0v1030h158v-422h606v422h158v-1030h-158v477h-606v-477h-158z" />
    <glyph glyph-name="i.smcp" horiz-adv-x="493" 
d="M168 0v1030h158v-1030h-158z" />
    <glyph glyph-name="j.smcp" horiz-adv-x="509" 
d="M342 1030v-778q0 -178 -62 -272t-223 -150l-59 109q117 49 153 109t35 200v782h156z" />
    <glyph glyph-name="k.smcp" horiz-adv-x="1091" 
d="M168 0v1030h158v-1030h-158zM905 -10q-94 0 -170 90l-383 452l439 498h196l-452 -489l337 -387q25 -29 42 -37t51 -8h24v-109q-49 -10 -84 -10z" />
    <glyph glyph-name="l.smcp" horiz-adv-x="927" 
d="M168 0v1030h158v-899h503v-131h-661z" />
    <glyph glyph-name="m.smcp" horiz-adv-x="1452" 
d="M168 0v1030h178l381 -803l379 803h178v-1030h-156v743l-360 -743h-88l-356 745v-745h-156z" />
    <glyph glyph-name="n.smcp" horiz-adv-x="1224" 
d="M168 0v1030h176l557 -713v713h156v-1030h-99l-632 815v-815h-158z" />
    <glyph glyph-name="o.smcp" horiz-adv-x="1267" 
d="M633 104q172 0 261 111t89 302t-89 300t-261 109t-260 -113t-88 -298t88 -298t260 -113zM633 -29q-254 0 -385 156t-131 388t132 388t386 156t385 -154q131 -153 131 -389t-132 -390t-386 -155z" />
    <glyph glyph-name="p.smcp" horiz-adv-x="995" 
d="M326 897v-379h125q145 0 204 54t60 157q0 168 -228 168h-161zM168 1030h346q168 0 266 -77t98 -229t-102 -244q-102 -91 -325 -91h-125v-389h-158v1030z" />
    <glyph glyph-name="q.smcp" horiz-adv-x="1267" 
d="M633 104q172 0 261 111t89 302t-89 300t-261 109t-260 -113t-88 -298t88 -298t260 -113zM1014 -360q-172 0 -424 333q-233 12 -353 165t-120 381t132 384t386 156t385 -154t131 -372t-96 -362t-283 -185q98 -123 163 -171t130 -48h41v-115q-37 -12 -92 -12z" />
    <glyph glyph-name="r.smcp" horiz-adv-x="1073" 
d="M326 897v-324h170q215 0 215 177q0 147 -234 147h-151zM326 442v-442h-158v1030h344q170 0 265 -68t95 -210q0 -104 -65 -180q-66 -75 -197 -99q68 -29 115 -98l137 -213q35 -53 82 -53h39v-109q-41 -10 -84 -10q-106 0 -172 102l-176 273q-29 45 -54 61q-26 16 -81 16
h-90z" />
    <glyph glyph-name="s.smcp" horiz-adv-x="897" 
d="M420 -29q-184 0 -324 76l23 135q147 -82 299 -82q211 0 211 168q1 46 -23 70t-38 36t-48 28q-33 17 -58 30t-114 51q-113 53 -171 119t-58 186t98 195q98 76 259 76t274 -66l-25 -135q-115 72 -229 72t-167 -40q-55 -40 -55 -112t63 -114q44 -31 162 -82
q118 -52 181 -100t87 -97t24 -111q0 -303 -371 -303z" />
    <glyph glyph-name="t.smcp" horiz-adv-x="1116" 
d="M479 0v897h-373v133h904v-133h-373v-897h-158z" />
    <glyph glyph-name="u.smcp" horiz-adv-x="1200" 
d="M1040 358q0 -176 -124 -282t-314 -107q-192 1 -317 105t-125 291v665h157v-641q0 -125 73 -204t212 -79t210 77t71 202v645h157v-672z" />
    <glyph glyph-name="v.smcp" horiz-adv-x="1118" 
d="M242 1030l317 -788l315 788h168l-438 -1030h-92l-436 1030h166z" />
    <glyph glyph-name="w.smcp" horiz-adv-x="1619" 
d="M240 1030l266 -774l227 592l-69 182h170l280 -774l264 774h166l-389 -1030h-90l-258 662l-258 -662h-96l-377 1030h164z" />
    <glyph glyph-name="x.smcp" 
d="M88 0l377 543l-336 487h180l258 -383l254 383h178l-342 -483l381 -547h-182l-297 440l-291 -440h-180z" />
    <glyph glyph-name="y.smcp" horiz-adv-x="1071" 
d="M455 0v412l-379 618h176l285 -489l288 489h170l-383 -616v-414h-157z" />
    <glyph glyph-name="z.smcp" horiz-adv-x="1085" 
d="M115 0v90l612 807h-582v133h799v-96l-618 -803h637v-131h-848z" />
    <glyph glyph-name="aacute.smcp" horiz-adv-x="1146" 
d="M496 1184l-70 37l186 346l179 -41zM569 791l-163 -390h325zM899 0l-117 276h-430l-114 -276h-162l450 1030h99l446 -1030h-172z" />
    <glyph glyph-name="agrave.smcp" horiz-adv-x="1146" 
d="M705 1221l-70 -37l-295 342l178 41zM569 791l-163 -390h325zM899 0l-117 276h-430l-114 -276h-162l450 1030h99l446 -1030h-172z" />
    <glyph glyph-name="acircumflex.smcp" horiz-adv-x="1146" 
d="M530 1561h86l224 -342l-70 -35l-197 192l-196 -192l-70 35zM569 791l-163 -390h325zM899 0l-117 276h-430l-114 -276h-162l450 1030h99l446 -1030h-172z" />
    <glyph glyph-name="atilde.smcp" horiz-adv-x="1146" 
d="M727 1251q-43 0 -148 45t-133 45q-55 0 -77 -116l-80 14q10 115 53 183t111 69q43 0 148 -45t132 -45q55 0 78 117l80 -15q-10 -115 -53 -183t-111 -69zM569 791l-163 -390h325zM899 0l-117 276h-430l-114 -276h-162l450 1030h99l446 -1030h-172z" />
    <glyph glyph-name="adieresis.smcp" horiz-adv-x="1146" 
d="M785 1253q-43 0 -75 31t-32 74t32 74q32 30 76 30t76 -30q33 -30 33 -74q0 -43 -33 -74t-77 -31zM359 1253q-43 0 -75 31t-32 74t32 74q32 30 76 30t76 -30q33 -30 33 -74q0 -43 -33 -74t-77 -31zM569 791l-163 -390h325zM899 0l-117 276h-430l-114 -276h-162l450 1030
h99l446 -1030h-172z" />
    <glyph glyph-name="aring.smcp" horiz-adv-x="1146" 
d="M578 1272q36 0 64 26t28 75q0 48 -26 75t-64 27q-100 1 -100 -101t98 -102zM776 1372q0 -80 -53 -138t-144 -58t-148 55q-56 55 -56 141t55 140q54 54 146 54t146 -56q54 -58 54 -138zM569 791l-163 -390h325zM899 0l-117 276h-430l-114 -276h-162l450 1030h99l446 -1030
h-172z" />
    <glyph glyph-name="ccedilla.smcp" horiz-adv-x="1112" 
d="M815 -302q0 -83 -62 -131q-61 -48 -155 -48t-186 43l24 73q66 -31 137 -30q90 0 91 76q0 82 -129 81h-66l-14 37l141 176q-223 23 -351 163t-128 383t153 390q154 147 408 148q186 0 309 -62l-24 -137q-131 63 -275 64q-197 0 -301 -115t-104 -299q-1 -184 111 -293
t292 -109t295 66l23 -133q-125 -63 -302 -70l-88 -108q80 0 140 -41t61 -124z" />
    <glyph glyph-name="eacute.smcp" horiz-adv-x="927" 
d="M410 1184l-70 37l186 346l179 -41zM168 0v1030h641v-133h-483v-291h389v-129h-389v-346h489v-131h-647z" />
    <glyph glyph-name="egrave.smcp" horiz-adv-x="927" 
d="M596 1221l-70 -37l-295 342l179 41zM168 0v1030h641v-133h-483v-291h389v-129h-389v-346h489v-131h-647z" />
    <glyph glyph-name="ecircumflex.smcp" horiz-adv-x="927" 
d="M438 1561h86l224 -342l-70 -35l-197 192l-196 -192l-70 35zM168 0v1030h641v-133h-483v-291h389v-129h-389v-346h489v-131h-647z" />
    <glyph glyph-name="edieresis.smcp" horiz-adv-x="927" 
d="M687 1253q-44 0 -76 31t-31 74q0 43 31 74q32 30 76 30t77 -30t33 -74q0 -43 -33 -74t-77 -31zM261 1253q-44 0 -76 31t-31 74q0 43 31 74q32 30 76 30t77 -30t33 -74q0 -43 -33 -74t-77 -31zM168 0v1030h641v-133h-483v-291h389v-129h-389v-346h489v-131h-647z" />
    <glyph glyph-name="iacute.smcp" horiz-adv-x="493" 
d="M256 1184l-70 37l187 346l178 -41zM168 0v1030h158v-1030h-158z" />
    <glyph glyph-name="igrave.smcp" horiz-adv-x="493" 
d="M322 1221l-70 -37l-295 342l178 41zM168 0v1030h158v-1030h-158z" />
    <glyph glyph-name="icircumflex.smcp" horiz-adv-x="493" 
d="M205 1561h86l223 -342l-70 -35l-196 192l-197 -192l-69 35zM168 0v1030h158v-1030h-158z" />
    <glyph glyph-name="idieresis.smcp" horiz-adv-x="493" 
d="M460 1253q-44 0 -76 31t-32 74t32 74q32 30 76 30t77 -30t33 -74q0 -43 -34 -74q-32 -31 -76 -31zM34 1253q-44 0 -76 31t-32 74t32 74q32 30 76 30t77 -30t33 -74q0 -43 -34 -74q-32 -31 -76 -31zM168 0v1030h158v-1030h-158z" />
    <glyph glyph-name="dotlessi.smcp" horiz-adv-x="493" 
d="M168 0v1030h158v-1030h-158z" />
    <glyph glyph-name="lslash.smcp" horiz-adv-x="954" 
d="M197 1030h157v-459l238 60v-103l-238 -59v-338h502v-131h-659v430l-156 -39v103l156 38v498z" />
    <glyph glyph-name="ntilde.smcp" horiz-adv-x="1224" 
d="M750 1251q-42 0 -148 45t-133 45q-55 0 -78 -116l-80 14q9 115 53 183t111 69q43 0 149 -45t132 -45q55 0 78 117l79 -15q-10 -115 -53 -183t-110 -69zM168 0v1030h176l557 -713v713h156v-1030h-99l-632 815v-815h-158z" />
    <glyph glyph-name="oacute.smcp" horiz-adv-x="1267" 
d="M557 1184l-70 37l187 346l178 -41zM633 104q172 0 261 111t89 302t-89 300t-261 109t-260 -113t-88 -298t88 -298t260 -113zM633 -29q-254 0 -385 156t-131 388t132 388t386 156t385 -154q131 -153 131 -389t-132 -390t-386 -155z" />
    <glyph glyph-name="ograve.smcp" horiz-adv-x="1267" 
d="M780 1221l-69 -37l-295 342l178 41zM633 104q172 0 261 111t89 302t-89 300t-261 109t-260 -113t-88 -298t88 -298t260 -113zM633 -29q-254 0 -385 156t-131 388t132 388t386 156t385 -154q131 -153 131 -389t-132 -390t-386 -155z" />
    <glyph glyph-name="ocircumflex.smcp" horiz-adv-x="1267" 
d="M590 1561h86l223 -342l-70 -35l-196 192l-197 -192l-69 35zM633 104q172 0 261 111t89 302t-89 300t-261 109t-260 -113t-88 -298t88 -298t260 -113zM633 -29q-254 0 -385 156t-131 388t132 388t386 156t385 -154q131 -153 131 -389t-132 -390t-386 -155z" />
    <glyph glyph-name="otilde.smcp" horiz-adv-x="1267" 
d="M770 1251q-43 0 -148 45t-133 45q-55 0 -77 -116l-80 14q10 115 53 183t111 69q43 0 148 -45t132 -45q55 0 78 117l80 -15q-10 -115 -53 -183t-111 -69zM633 104q172 0 261 111t89 302t-89 300t-261 109t-260 -113t-88 -298t88 -298t260 -113zM633 -29q-254 0 -385 156
t-131 388t132 388t386 156t385 -154q131 -153 131 -389t-132 -390t-386 -155z" />
    <glyph glyph-name="odieresis.smcp" horiz-adv-x="1267" 
d="M845 1253q-44 0 -76 31t-32 74t32 74q32 30 76 30t77 -30q32 -30 32 -74q0 -43 -32 -74t-77 -31zM419 1253q-44 0 -76 31t-32 74t32 74q32 30 76 30t77 -30q32 -30 32 -74q0 -43 -32 -74t-77 -31zM633 104q172 0 261 111t89 302t-89 300t-261 109t-260 -113t-88 -298
t88 -298t260 -113zM633 -29q-254 0 -385 156t-131 388t132 388t386 156t385 -154q131 -153 131 -389t-132 -390t-386 -155z" />
    <glyph glyph-name="oslash.smcp" horiz-adv-x="1267" 
d="M633 104q172 0 261 111t89 287t-65 282l-494 -616q82 -64 209 -64zM285 526q0 -174 67 -282l496 616q-84 66 -215 66q-172 0 -260 -113t-88 -287zM633 -29q-182 0 -301 82l-86 -106h-131l137 172q-135 150 -135 389t132 395t384 156q182 0 305 -84l86 106h131l-139 -174
q135 -143 135 -385t-132 -396t-386 -155z" />
    <glyph glyph-name="scaron.smcp" horiz-adv-x="897" 
d="M496 1194h-86l-224 342l70 35l197 -193l196 193l70 -35zM420 -29q-184 0 -324 76l23 135q147 -82 299 -82q211 0 211 168q1 46 -23 70t-38 36t-48 28q-33 17 -58 30t-114 51q-113 53 -171 119t-58 186t98 195q98 76 259 76t274 -66l-25 -135q-115 72 -229 72t-167 -40
q-55 -40 -55 -112t63 -114q44 -31 162 -82q118 -52 181 -100t87 -97t24 -111q0 -303 -371 -303z" />
    <glyph glyph-name="uacute.smcp" horiz-adv-x="1200" 
d="M567 1184l-69 37l186 346l178 -41zM1040 358q0 -176 -124 -282t-314 -107q-192 1 -317 105t-125 291v665h157v-641q0 -125 73 -204t212 -79t210 77t71 202v645h157v-672z" />
    <glyph glyph-name="ugrave.smcp" horiz-adv-x="1200" 
d="M705 1221l-70 -37l-295 342l178 41zM1040 358q0 -176 -124 -282t-314 -107q-192 1 -317 105t-125 291v665h157v-641q0 -125 73 -204t212 -79t210 77t71 202v645h157v-672z" />
    <glyph glyph-name="ucircumflex.smcp" horiz-adv-x="1200" 
d="M557 1561h86l223 -342l-69 -35l-197 192l-197 -192l-69 35zM1040 358q0 -176 -124 -282t-314 -107q-192 1 -317 105t-125 291v665h157v-641q0 -125 73 -204t212 -79t210 77t71 202v645h157v-672z" />
    <glyph glyph-name="udieresis.smcp" horiz-adv-x="1200" 
d="M816 1253q-44 0 -76 31t-31 74q0 43 31 74q32 30 76 30t77 -30t33 -74q0 -43 -33 -74t-77 -31zM390 1253q-44 0 -76 31t-31 74q0 43 31 74q32 30 76 30t77 -30t33 -74q0 -43 -33 -74t-77 -31zM1040 358q0 -176 -124 -282t-314 -107q-192 1 -317 105t-125 291v665h157
v-641q0 -125 73 -204t212 -79t210 77t71 202v645h157v-672z" />
    <glyph glyph-name="yacute.smcp" horiz-adv-x="1071" 
d="M504 1184l-70 37l187 346l178 -41zM455 0v412l-379 618h176l285 -489l288 489h170l-383 -616v-414h-157z" />
    <glyph glyph-name="ydieresis.smcp" horiz-adv-x="1071" 
d="M860 1358q0 -43 -32 -74t-77 -31q-44 0 -76 31t-32 74t32 74q32 30 76 30q45 0 77 -30t32 -74zM434 1358q0 -43 -32 -74t-77 -31q-44 0 -76 31t-32 74t32 74q32 30 76 30q45 0 77 -30t32 -74zM455 0v412l-379 618h176l285 -489l288 489h170l-383 -616v-414h-157z" />
    <glyph glyph-name="zcaron.smcp" horiz-adv-x="1085" 
d="M555 1194h-86l-223 342l69 35l197 -193l197 193l69 -35zM115 0v90l612 807h-582v133h799v-96l-618 -803h637v-131h-848z" />
    <glyph glyph-name="eth.smcp" horiz-adv-x="1269" 
d="M371 897v-311h250v-92h-250v-363h184q219 -1 325 105t107 281q0 175 -100 277t-322 103h-194zM213 0v494h-147v92h147v444h371q297 0 433 -142t136 -362t-125 -366q-63 -74 -174 -117t-254 -43h-387z" />
    <glyph glyph-name="thorn.smcp" horiz-adv-x="995" 
d="M326 713v-379h125q145 0 204 54t60 157q0 168 -228 168h-161zM451 205h-125v-205h-158v1030h158v-184h188q168 0 266 -77t98 -229t-102 -244q-102 -91 -325 -91z" />
    <glyph glyph-name="ae.smcp" horiz-adv-x="1572" 
d="M813 401v406l-287 -406h287zM813 0v279h-373l-194 -279h-183l744 1030h647v-133h-483v-291h389v-129h-389v-346h489v-131h-647z" />
    <glyph glyph-name="oe.smcp" horiz-adv-x="1527" 
d="M768 899h-127q-178 0 -267 -112q-89 -113 -89 -283t93 -272t279 -103h111v770zM1409 897h-483v-291h389v-129h-389v-346h489v-131h-776q-262 0 -392 137t-130 369t130 378t388 146h774v-133z" />
    <glyph glyph-name="germandbls.smcp" horiz-adv-x="1794" 
d="M1317 -29q-184 0 -324 76l23 135q147 -82 299 -82q211 0 211 168q0 46 -24 70t-38 36t-47 28q-33 17 -58 30t-114 51q-113 53 -171 119t-58 186t98 195q98 76 259 76t274 -66l-25 -135q-114 72 -228 72t-168 -40t-54 -112t62 -114q44 -31 162 -82q118 -52 181 -100
t87 -97t24 -111q0 -303 -371 -303zM420 -29q-184 0 -324 76l23 135q147 -82 299 -82q211 0 211 168q1 46 -23 70t-38 36t-48 28q-33 17 -58 30t-114 51q-113 53 -171 119t-58 186t98 195q98 76 259 76t274 -66l-25 -135q-115 72 -229 72t-167 -40q-55 -40 -55 -112t63 -114
q44 -31 162 -82q118 -52 181 -100t87 -97t24 -111q0 -303 -371 -303z" />
    <glyph glyph-name="fi.smcp" horiz-adv-x="1394" 
d="M1069 0v1030h158v-1030h-158zM168 0v1030h641v-133h-483v-297h397v-129h-397v-471h-158z" />
    <glyph glyph-name="fl.smcp" horiz-adv-x="1828" 
d="M1069 0v1030h158v-899h504v-131h-662zM168 0v1030h641v-133h-483v-297h397v-129h-397v-471h-158z" />
    <glyph glyph-name="ampersand.c2sc" horiz-adv-x="1273" 
d="M410 816q0 -56 114 -181q154 90 154 190q0 45 -35 77t-94 32t-99 -31t-40 -87zM455 106q141 0 250 109l-256 283q-205 -82 -205 -230q0 -76 58 -119t153 -43zM1092 119h47v-121q-82 -10 -121 -10q-111 0 -201 102l-26 29q-152 -145 -345 -146q-154 0 -257 79t-103 200
t73 208t199 138q-55 66 -80 113q-26 47 -26 106q0 111 82 177t212 65q130 1 210 -61t80 -171q0 -154 -224 -284l201 -217q109 133 182 260h174q-104 -164 -266 -357l37 -39q43 -47 71 -59t81 -12z" />
    <glyph glyph-name="zero.tosf" 
d="M1026 506q0 -242 -126 -388t-336 -147q-210 1 -337 147t-127 389t121 393t342 149q221 0 342 -150q121 -151 121 -393zM564 104q144 0 221 112t77 296t-81 294t-220 110t-218 -110q-79 -108 -79 -293t78 -297t222 -112z" />
    <glyph glyph-name="one.tosf" 
d="M973 0h-758v115l307 8v760l-307 -33v115l381 75h88v-917l289 -8v-115z" />
    <glyph glyph-name="two.tosf" 
d="M125 0v63q344 195 493 344q66 65 117 151t51 169q0 84 -66 133q-67 49 -158 49t-190 -43t-171 -112l-66 114q166 180 426 181q178 0 287 -87t108 -237q0 -90 -45 -180t-119 -164q-134 -133 -311 -234h520l-8 -147h-868z" />
    <glyph glyph-name="three.tosf" 
d="M526 -332q-112 0 -222 44t-181 116l92 115q137 -137 311 -138q133 0 210 69t77 169q0 99 -59 157q-105 103 -342 101h-84v129q428 31 428 289q0 84 -56 137t-150 53q-96 0 -190 -46t-155 -109l-66 114q76 80 189 130t251 50t242 -81q104 -82 105 -240q0 -115 -71 -206
t-185 -130q135 -16 221 -105t86 -223q-2 -171 -128 -283t-323 -112z" />
    <glyph glyph-name="four.tosf" 
d="M686 221v529l-403 -529h403zM686 -295v379h-631v66l693 890h96v-819h217v-137h-217v-379h-158z" />
    <glyph glyph-name="five.tosf" 
d="M997 76q1 -178 -125 -293t-346 -115t-387 162l90 115q143 -139 322 -140q117 0 202 72t85 202q0 131 -114 197t-304 66h-215l61 678h649l-8 -146h-510l-30 -387h71q220 0 376 -79q85 -43 134 -128t49 -204z" />
    <glyph glyph-name="six.tosf" 
d="M564 106q134 0 214 88t80 216t-72 200t-218 72q-144 0 -285 -76q-6 -57 -7 -110q0 -170 77 -280t211 -110zM626 823q176 0 284 -105q108 -106 108 -292t-122 -320t-332 -135q-210 1 -328 145t-119 388q0 330 222 559t558 289l31 -131q-465 -88 -604 -459q127 61 302 61z
" />
    <glyph glyph-name="seven.tosf" 
d="M1006 1020v-92l-613 -1231h-176l604 1175h-692l10 148h867z" />
    <glyph glyph-name="eight.tosf" 
d="M328 1030q0 -84 57 -135t203 -125q225 98 225 256q0 92 -73 142t-173 50q-99 0 -169 -52t-70 -136zM844 323q0 99 -77 163t-237 145q-108 -43 -176 -125t-68 -182t75 -161t200 -61t204 61t79 160zM127 317q0 123 75 225t193 156q-229 131 -229 326q0 141 118 234
q118 94 286 94t284 -87q115 -87 115 -233q0 -213 -254 -327q143 -78 213 -160t69 -211q0 -164 -125 -263q-124 -99 -318 -99t-310 92q-116 93 -117 253z" />
    <glyph glyph-name="nine.tosf" 
d="M268 610q0 -128 73 -200t217 -72t284 76q8 49 8 110q0 170 -77 280t-211 110t-214 -88q-80 -87 -80 -216zM520 197q-196 0 -304 105q-108 106 -108 292t122 320t332 134t329 -144t119 -388q0 -330 -222 -559t-559 -289l-30 131q467 88 604 457q-133 -59 -283 -59z" />
    <glyph glyph-name="zero.lf" 
d="M564 -29q-212 1 -340 189t-128 498t122 502t345 192t345 -192t122 -502q0 -311 -127 -499t-339 -188zM563 102q150 0 229 154q78 154 78 409t-82 405t-227 151q-145 0 -225 -150q-80 -149 -80 -405t78 -410t229 -154z" />
    <glyph glyph-name="one.lf" horiz-adv-x="745" 
d="M348 0v1178l-297 -31v115l371 73h88v-1335h-162z" />
    <glyph glyph-name="two.lf" horiz-adv-x="1085" 
d="M92 0v63q336 309 503 523t167 393q0 111 -68 172t-172 61q-193 0 -354 -155l-66 114q166 180 426 181q182 0 288 -94t108 -261q0 -217 -184 -453q-143 -187 -367 -397h596l-8 -147h-869z" />
    <glyph glyph-name="three.lf" horiz-adv-x="1064" 
d="M496 -29q-113 0 -223 44t-181 116l92 115q137 -137 312 -137q133 1 210 69q76 68 76 168t-59 158q-105 103 -342 100h-84v129q428 31 428 289q0 84 -55 137q-54 53 -150 53t-190 -46t-156 -109l-65 114q77 81 189 131t250 50t242 -82t105 -240q0 -115 -71 -206t-185 -130
q135 -16 221 -105t86 -222q-2 -172 -128 -284t-322 -112z" />
    <glyph glyph-name="four.lf" 
d="M686 516v528l-403 -528h403zM686 0v379h-631v65l693 891h96v-819h217v-137h-217v-379h-158z" />
    <glyph glyph-name="five.lf" horiz-adv-x="1062" 
d="M490 -29q-220 0 -388 162l91 115q143 -139 321 -139q117 -1 202 71t85 202t-114 197t-304 66h-215l61 678h650l-9 -145h-510l-30 -387h71q218 0 376 -80q85 -43 134 -128t50 -204q0 -178 -126 -293q-125 -115 -345 -115z" />
    <glyph glyph-name="six.lf" horiz-adv-x="1105" 
d="M554 106q134 0 214 88t80 216t-73 200t-217 72t-286 -76q-6 -57 -6 -110q0 -170 77 -280t211 -110zM616 823q176 0 284 -105q108 -106 108 -292t-122 -320t-332 -135q-210 1 -329 145t-119 388q0 330 222 559t559 289l31 -131q-465 -88 -605 -459q127 61 303 61z" />
    <glyph glyph-name="seven.lf" horiz-adv-x="1085" 
d="M985 1323v-92l-612 -1231h-176l604 1176h-692l10 147h866z" />
    <glyph glyph-name="eight.lf" horiz-adv-x="1105" 
d="M317 1030q-1 -84 57 -135t204 -125q225 98 225 256q0 92 -73 142t-173 50t-170 -52t-70 -136zM834 323q0 99 -77 163t-237 145q-108 -43 -176 -125t-68 -182t75 -160t200 -62q125 0 204 61t79 160zM117 317q0 123 74 226q75 102 194 155q-229 131 -229 326q0 141 117 234
q118 94 287 94t284 -87t114 -233q0 -213 -253 -327q143 -78 213 -160t69 -211q0 -164 -125 -263q-124 -99 -318 -99t-310 92q-116 93 -117 253z" />
    <glyph glyph-name="nine.lf" horiz-adv-x="1105" 
d="M552 1217q-134 1 -214 -87t-80 -217t72 -201t216 -71q144 0 285 76q8 49 9 110q0 170 -77 280t-211 110zM510 500q-196 0 -304 105t-108 291t122 322q122 134 332 134t329 -144t118 -389q0 -330 -222 -559t-558 -289l-31 131q467 88 605 457q-133 -59 -283 -59z" />
    <glyph glyph-name="zero.osf" 
d="M1026 506q0 -242 -126 -388t-336 -147q-210 1 -337 147t-127 389t121 393t342 149q221 0 342 -150q121 -151 121 -393zM564 104q144 0 221 112t77 296t-81 294t-220 110t-218 -110q-79 -108 -79 -293t78 -297t222 -112z" />
    <glyph glyph-name="one.osf" horiz-adv-x="745" 
d="M358 0v883l-297 -33v115l371 75h88v-1040h-162z" />
    <glyph glyph-name="two.osf" horiz-adv-x="1085" 
d="M86 0v63q341 193 494 344q66 65 116 151t52 169q0 84 -67 133t-158 49t-190 -43t-171 -112l-66 114q166 180 426 181q178 0 287 -87t109 -237q0 -90 -46 -180t-120 -164q-134 -133 -310 -234h521l-9 -147h-868z" />
    <glyph glyph-name="three.osf" horiz-adv-x="1064" 
d="M496 -332q-113 0 -223 44t-181 116l92 115q137 -137 312 -138q133 0 210 69q76 69 76 169q0 99 -59 157q-105 103 -342 101h-84v129q428 31 428 289q0 84 -55 137q-54 53 -150 53t-190 -46t-156 -109l-65 114q77 80 189 130t250 50t242 -81q104 -82 105 -240
q0 -115 -71 -206t-185 -130q135 -16 221 -105t86 -223q-2 -171 -128 -283t-322 -112z" />
    <glyph glyph-name="four.osf" 
d="M686 221v529l-403 -529h403zM686 -295v379h-631v66l693 890h96v-819h217v-137h-217v-379h-158z" />
    <glyph glyph-name="five.osf" horiz-adv-x="1062" 
d="M490 -332q-220 0 -388 162l91 115q143 -139 321 -140q117 0 202 72t85 202q0 131 -114 197t-304 66h-215l61 678h650l-9 -146h-510l-30 -387h71q220 0 376 -79q85 -43 134 -128t50 -204q0 -178 -126 -293q-125 -115 -345 -115z" />
    <glyph glyph-name="six.osf" horiz-adv-x="1105" 
d="M554 106q134 0 214 88t80 216t-73 200t-217 72t-286 -76q-6 -57 -6 -110q0 -170 77 -280t211 -110zM616 823q176 0 284 -105q108 -106 108 -292t-122 -320t-332 -135q-210 1 -329 145t-119 388q0 330 222 559t559 289l31 -131q-465 -88 -605 -459q127 61 303 61z" />
    <glyph glyph-name="seven.osf" horiz-adv-x="1085" 
d="M985 1020v-92l-612 -1231h-176l604 1175h-692l10 148h866z" />
    <glyph glyph-name="eight.osf" horiz-adv-x="1105" 
d="M317 1030q-1 -84 57 -135t204 -125q225 98 225 256q0 92 -73 142t-173 50t-170 -52t-70 -136zM834 323q0 99 -77 163t-237 145q-108 -43 -176 -125t-68 -182t75 -160t200 -62q125 0 204 61t79 160zM117 317q0 123 74 226q75 102 194 155q-229 131 -229 326q0 141 117 234
q118 94 287 94t284 -87t114 -233q0 -213 -253 -327q143 -78 213 -160t69 -211q0 -164 -125 -263q-124 -99 -318 -99t-310 92q-116 93 -117 253z" />
    <glyph glyph-name="nine.osf" horiz-adv-x="1105" 
d="M258 610q0 -128 72 -200t216 -72t285 76q8 49 9 110q0 170 -77 280t-211 110t-214 -88q-80 -87 -80 -216zM510 197q-196 0 -304 105q-108 106 -108 292t122 320t332 134t329 -144t118 -388q0 -330 -222 -559t-558 -289l-31 131q467 88 605 457q-133 -59 -283 -59z" />
    <glyph glyph-name="acute.case" horiz-adv-x="819" 
d="M231 1487l-53 59l320 240l143 -113z" />
    <glyph glyph-name="grave.case" horiz-adv-x="819" 
d="M641 1546l-53 -59l-410 186l144 113z" />
    <glyph glyph-name="circumflex.case" horiz-adv-x="819" 
d="M367 1810h86l223 -288l-70 -35l-196 149l-197 -149l-70 35z" />
    <glyph glyph-name="tilde.case" horiz-adv-x="819" 
d="M547 1536q-43 0 -149 45t-132 45q-55 0 -78 -117l-79 15q10 116 53 184t110 68q42 0 148 -45t133 -45q55 -1 78 116l80 -14q-9 -116 -53 -184t-111 -68z" />
    <glyph glyph-name="dieresis.case" horiz-adv-x="819" 
d="M514 1653q0 43 32 73t76 31q44 0 76 -31q32 -32 33 -74q-1 -42 -33 -73t-76 -31t-76 31t-32 74zM88 1653q0 43 32 73t76 31q44 0 76 -31q32 -32 33 -74q-1 -42 -33 -73t-76 -31t-76 31t-32 74z" />
    <glyph glyph-name="ring.case" horiz-adv-x="819" 
d="M504 1658q0 48 -26 75t-64 26q-100 0 -100 -101t98 -102q36 0 64 27t28 75zM610 1657q0 -80 -53 -138q-53 -59 -144 -59t-147 56t-57 141q0 86 55 140q54 54 146 54t146 -57t54 -137z" />
    <glyph glyph-name="caron.case" horiz-adv-x="819" 
d="M453 1501h-86l-224 289l70 35l197 -150l196 150l70 -35z" />
    <glyph glyph-name="macron.case" horiz-adv-x="819" 
d="M686 1669v-123h-553v123h553z" />
    <glyph glyph-name="breve.case" horiz-adv-x="819" 
d="M410 1620q84 0 134 56t58 143l84 -15q0 -143 -77 -227t-199 -84t-200 84q-77 84 -77 227l84 15q8 -86 58 -143q51 -56 135 -56z" />
    <glyph glyph-name="hungarumlaut.case" horiz-adv-x="819" 
d="M471 1470l-65 27l172 344l163 -88zM143 1470l-65 27l172 344l164 -88z" />
    <glyph glyph-name="dotaccent.case" horiz-adv-x="819" 
d="M410 1542q-47 0 -81 33t-34 78t34 78t81 33q46 0 80 -34q34 -32 34 -77t-34 -78t-80 -33z" />
    <glyph glyph-name="acute.smcp" horiz-adv-x="819" 
d="M297 1184l-70 37l187 346l178 -41z" />
    <glyph glyph-name="grave.smcp" horiz-adv-x="819" 
d="M592 1221l-70 -37l-295 342l179 41z" />
    <glyph glyph-name="circumflex.smcp" horiz-adv-x="819" 
d="M367 1561h86l223 -342l-70 -35l-196 192l-197 -192l-70 35z" />
    <glyph glyph-name="tilde.smcp" horiz-adv-x="819" 
d="M547 1251q-43 0 -149 45t-132 45q-55 0 -78 -116l-79 14q10 115 53 183t110 69q42 0 148 -45t133 -45q55 0 78 117l80 -15q-9 -115 -53 -183t-111 -69z" />
    <glyph glyph-name="dieresis.smcp" horiz-adv-x="819" 
d="M731 1358q-1 -43 -33 -74t-76 -31t-76 31t-32 74t32 74q32 30 76 30t76 -30t33 -74zM305 1358q-1 -43 -33 -74t-76 -31t-76 31t-32 74t32 74q32 30 76 30t76 -30t33 -74z" />
    <glyph glyph-name="ring.smcp" horiz-adv-x="819" 
d="M412 1272q36 0 64 26t28 75q0 48 -26 75t-64 27q-100 1 -100 -101t98 -102zM610 1372q0 -80 -53 -138t-144 -58t-148 55q-56 55 -56 141t55 140q54 54 146 54t146 -56q54 -58 54 -138z" />
    <glyph glyph-name="caron.smcp" horiz-adv-x="819" 
d="M453 1194h-86l-224 342l70 35l197 -193l196 193l70 -35z" />
    <glyph glyph-name="macron.smcp" horiz-adv-x="819" 
d="M686 1384v-122h-553v122h553z" />
    <glyph glyph-name="breve.smcp" horiz-adv-x="819" 
d="M410 1329q84 0 134 56t58 143l84 -15q0 -143 -77 -227t-199 -84t-200 84q-77 84 -77 227l84 15q8 -86 58 -143q51 -56 135 -56z" />
    <glyph glyph-name="hungarumlaut.smcp" horiz-adv-x="819" 
d="M186 1178l-65 22l106 367l176 -41zM481 1178l-65 22l106 367l176 -41z" />
    <glyph glyph-name="dotaccent.smcp" horiz-adv-x="819" 
d="M410 1247q-47 0 -81 33t-34 78t34 78q34 32 81 32q46 0 80 -32t34 -78q0 -45 -34 -78t-80 -33z" />
    </font>
</defs>
</svg>
